<?xml version="1.0" encoding="UTF-8"?>
<!DOCTYPE svg PUBLIC "-//W3C//DTD SVG 1.1//EN" "http://www.w3.org/Graphics/SVG/1.1/DTD/svg11.dtd">
<!-- Creator: CorelDRAW 2020 (64-Bit) -->
<svg xmlns="http://www.w3.org/2000/svg" xml:space="preserve" width="6.39999in" height="3.5in" version="1.1" style="shape-rendering:geometricPrecision; text-rendering:geometricPrecision; image-rendering:optimizeQuality; fill-rule:evenodd; clip-rule:evenodd"
viewBox="0 0 6.39999 3.5"
 xmlns:xlink="http://www.w3.org/1999/xlink"
 xmlns:xodm="http://www.corel.com/coreldraw/odm/2003">
 <defs>
  <style type="text/css">
   <![CDATA[
    .fil0 {fill:url(#id0)}
    .fil1 {fill:url(#id1);fill-rule:nonzero}
    .fil2 {fill:url(#id2);fill-rule:nonzero}
   ]]>
  </style>
  <linearGradient id="id0" gradientUnits="userSpaceOnUse" x1="0.23696" y1="1.07071" x2="6.16303" y2="2.42928">
   <stop offset="0" style="stop-opacity:1; stop-color:#E6E6E6"/>
   <stop offset="1" style="stop-opacity:1; stop-color:white"/>
  </linearGradient>
  <linearGradient id="id1" gradientUnits="userSpaceOnUse" x1="5.4149" y1="2.23435" x2="6.31825" y2="0.02944">
   <stop offset="0" style="stop-opacity:1; stop-color:#FFF212"/>
   <stop offset="1" style="stop-opacity:1; stop-color:#FAA532"/>
  </linearGradient>
  <linearGradient id="id2" gradientUnits="userSpaceOnUse" x1="1.45643" y1="0.00913" x2="1.05756" y2="1.01196">
   <stop offset="0" style="stop-opacity:1; stop-color:#FAF014"/>
   <stop offset="1" style="stop-opacity:1; stop-color:#FAA532"/>
  </linearGradient>
 </defs>
 <g id="Layer_x0020_1">
  <metadata id="CorelCorpID_0Corel-Layer"/>
  <polygon class="fil0" points="6.39999,3.5 -0,3.5 -0,0 6.39999,0 "/>
  <path class="fil1" d="M6.39999 0.71542l-1.45544 1.5165c-0.04247,0.04248 -0.11135,0.04248 -0.15383,0 -0.04246,-0.04247 -0.04246,-0.11134 0,-0.15382l1.60927 -1.682 0 0.31932z"/>
  <path class="fil2" d="M0.73287 1.02109c-0.01094,0 -0.02187,-0.00417 -0.0302,-0.01251 -0.01669,-0.01667 -0.01669,-0.04373 0,-0.06041l0.94817 -0.94817 0.12081 0 -1.00858 1.00859c-0.00835,0.00833 -0.01928,0.01251 -0.0302,0.01251z"/>
 </g>
</svg>
