<?xml version="1.0" encoding="UTF-8"?>
<!DOCTYPE svg PUBLIC "-//W3C//DTD SVG 1.1//EN" "http://www.w3.org/Graphics/SVG/1.1/DTD/svg11.dtd">
<!-- Creator: CorelDRAW 2020 (64-Bit) -->
<svg xmlns="http://www.w3.org/2000/svg" xml:space="preserve" width="0.293339in" height="0.0666693in" version="1.1" style="shape-rendering:geometricPrecision; text-rendering:geometricPrecision; image-rendering:optimizeQuality; fill-rule:evenodd; clip-rule:evenodd"
viewBox="0 0 0.01812 0.00412"
 xmlns:xlink="http://www.w3.org/1999/xlink"
 xmlns:xodm="http://www.corel.com/coreldraw/odm/2003">
 <defs>
  <style type="text/css">
   <![CDATA[
    .fil0 {fill:#FEFEFE;fill-rule:nonzero}
   ]]>
  </style>
 </defs>
 <g id="Layer_x0020_1">
  <metadata id="CorelCorpID_0Corel-Layer"/>
  <path class="fil0" d="M0.01703 0.00275l0.00005 0 0.00022 -0.00089 0.00029 -0.0012 0.00047 0 0.00006 0.00006 0 0.00012 -0.0007 0.00261 -0.00064 0 -0.00041 -0.00116 -0.00018 -0.00075 -0.00006 0 -0.00018 0.00075 -0.00041 0.00116 -0.00064 0 -0.0007 -0.00261 0 -0.00012 0.00006 -0.00006 0.00047 0 0.00029 0.0012 0.00022 0.00089 0.00005 0 0.00062 -0.00191 0.00006 -0.00006 0.00041 0 0.00006 0.00006 0.00062 0.00191zm-0.00372 -0.00093c0,-0.00009 -0.00002,-0.00017 -0.00005,-0.00024 -0.00004,-0.00008 -0.00008,-0.00015 -0.00014,-0.0002 -0.00006,-0.00006 -0.00013,-0.0001 -0.00021,-0.00014 -0.00008,-0.00003 -0.00016,-0.00005 -0.00025,-0.00005 -0.00009,0 -0.00017,0.00002 -0.00025,0.00005 -0.00008,0.00003 -0.00015,0.00008 -0.00021,0.00014 -0.00006,0.00006 -0.0001,0.00013 -0.00014,0.0002 -0.00003,0.00008 -0.00005,0.00016 -0.00005,0.00024l0 0.00046c0,0.00009 0.00002,0.00017 0.00005,0.00025 0.00003,0.00008 0.00008,0.00015 0.00014,0.0002 0.00006,0.00006 0.00013,0.0001 0.00021,0.00014 0.00008,0.00003 0.00016,0.00005 0.00025,0.00005 0.00009,0 0.00017,-0.00002 0.00025,-0.00005 0.00008,-0.00003 0.00015,-0.00008 0.00021,-0.00014 0.00006,-0.00006 0.00011,-0.00013 0.00014,-0.0002 0.00004,-0.00008 0.00005,-0.00016 0.00005,-0.00025l0 -0.00046zm0.00053 0.00046c0,0.00016 -0.00003,0.00031 -0.00009,0.00045 -0.00006,0.00014 -0.00015,0.00026 -0.00025,0.00037 -0.00011,0.0001 -0.00023,0.00019 -0.00037,0.00025 -0.00014,0.00006 -0.00029,0.00009 -0.00045,0.00009 -0.00016,0 -0.00031,-0.00003 -0.00045,-0.00009 -0.00014,-0.00006 -0.00027,-0.00014 -0.00037,-0.00025 -0.00011,-0.0001 -0.00019,-0.00023 -0.00025,-0.00037 -0.00006,-0.00014 -0.00009,-0.00029 -0.00009,-0.00045l0 -0.00046c0,-0.00016 0.00003,-0.00031 0.00009,-0.00045 0.00006,-0.00014 0.00015,-0.00026 0.00025,-0.00037 0.00011,-0.0001 0.00023,-0.00019 0.00037,-0.00025 0.00014,-0.00006 0.00029,-0.00009 0.00045,-0.00009 0.00016,0 0.00031,0.00003 0.00045,0.00009 0.00014,0.00006 0.00027,0.00014 0.00037,0.00025 0.00011,0.0001 0.00019,0.00023 0.00025,0.00037 0.00006,0.00014 0.00009,0.00029 0.00009,0.00045l0 0.00046zm-0.00276 -0.0011c-0.00015,0 -0.00027,0.00005 -0.00038,0.00015 -0.0001,0.0001 -0.00015,0.00022 -0.00015,0.00037l0 0.00168 -0.00006 0.00006 -0.00041 0 -0.00006 -0.00006 0 -0.00267 0.00006 -0.00006 0.00011 0 0.00023 0.00023c0.00008,-0.00007 0.00017,-0.00012 0.00027,-0.00017 0.0001,-0.00004 0.00023,-0.00007 0.00038,-0.00007l0.00018 0 0.00006 0.00006 0 0.00041 -0.00006 0.00006 -0.00018 0zm-0.00184 0c-0.00015,0 -0.00027,0.00005 -0.00038,0.00015 -0.0001,0.0001 -0.00015,0.00022 -0.00015,0.00037l0 0.00168 -0.00006 0.00006 -0.00041 0 -0.00006 -0.00006 0 -0.00267 0.00006 -0.00006 0.00011 0 0.00023 0.00023c0.00008,-0.00007 0.00017,-0.00012 0.00027,-0.00017 0.0001,-0.00004 0.00023,-0.00007 0.00038,-0.00007l0.00018 0 0.00006 0.00006 0 0.00041 -0.00006 0.00006 -0.00018 0zm-0.00314 0.00116c-0.00008,0 -0.00015,0.00003 -0.0002,0.00008 -0.00005,0.00005 -0.00008,0.00013 -0.00008,0.00021 0,0.00008 0.00003,0.00015 0.00008,0.0002 0.00005,0.00005 0.00012,0.00008 0.00021,0.00008l0.0003 0c0.00018,0 0.00032,-0.00005 0.00043,-0.00016 0.00011,-0.00011 0.00016,-0.00025 0.00016,-0.00042l-0.00088 0zm0.00047 -0.00168c0.00013,0 0.00026,0.00002 0.00037,0.00007 0.00011,0.00005 0.00021,0.00011 0.0003,0.0002 0.00008,0.00008 0.00015,0.00018 0.0002,0.00029 0.00005,0.00011 0.00007,0.00023 0.00007,0.00037l0 0.0018 -0.00006 0.00006 -0.00012 0 -0.00023 -0.00023c-0.0001,0.00008 -0.00021,0.00014 -0.00032,0.00017 -0.00011,0.00004 -0.00024,0.00006 -0.00039,0.00006l-0.00029 0c-0.00012,0 -0.00023,-0.00002 -0.00033,-0.00006 -0.0001,-0.00004 -0.00019,-0.0001 -0.00026,-0.00017 -0.00007,-0.00007 -0.00013,-0.00016 -0.00017,-0.00026 -0.00004,-0.0001 -0.00006,-0.00021 -0.00006,-0.00032 0,-0.00011 0.00002,-0.00022 0.00006,-0.00031 0.00004,-0.0001 0.00009,-0.00018 0.00016,-0.00025 0.00007,-0.00007 0.00015,-0.00013 0.00025,-0.00017 0.0001,-0.00004 0.0002,-0.00007 0.00031,-0.00007l0.00091 0 0 -0.00023c0,-0.00012 -0.00004,-0.00021 -0.00012,-0.00029 -0.00008,-0.00008 -0.00018,-0.00012 -0.00029,-0.00012l-0.00035 0c-0.00007,0 -0.00014,0.00001 -0.00019,0.00003 -0.00005,0.00002 -0.00009,0.00004 -0.00013,0.00006 -0.00004,0.00003 -0.00007,0.00005 -0.00009,0.00008 -0.00002,0.00003 -0.00004,0.00005 -0.00006,0.00006l-0.00006 0 -0.00023 -0.00029 0 -0.00012 0.00012 -0.00012c0.00006,-0.00006 0.00015,-0.00011 0.00028,-0.00016 0.00013,-0.00005 0.00025,-0.00007 0.00037,-0.00007l0.00035 0zm-0.00445 0.00305l0.00133 -0.00165 -0.00166 -0.00206c-0.0006,0 -0.0012,0 -0.0018,0l0.00166 0.00206 -0.00166 0.00206c0.00022,0 0.00044,0 0.00065,0l0.00166 -0.00206 -0.00133 -0.00165 0.00049 0 0.00133 0.00165 -0.00166 0.00206c0.0006,0 0.0012,0 0.0018,0l0.00166 -0.00206 -0.00166 -0.00206c-0.00022,0 -0.00044,0 -0.00065,0l0.00166 0.00206 -0.00133 0.00165 -0.00049 0z"/>
 </g>
</svg>
