<?xml version="1.0" encoding="UTF-8"?>
<!DOCTYPE svg PUBLIC "-//W3C//DTD SVG 1.1//EN" "http://www.w3.org/Graphics/SVG/1.1/DTD/svg11.dtd">
<!-- Creator: CorelDRAW 2020 (64-Bit) -->
<svg xmlns="http://www.w3.org/2000/svg" xml:space="preserve" width="0.116134in" height="0.0833268in" version="1.1" style="shape-rendering:geometricPrecision; text-rendering:geometricPrecision; image-rendering:optimizeQuality; fill-rule:evenodd; clip-rule:evenodd"
viewBox="0 0 0.00384 0.00276"
 xmlns:xlink="http://www.w3.org/1999/xlink"
 xmlns:xodm="http://www.corel.com/coreldraw/odm/2003">
 <defs>
  <style type="text/css">
   <![CDATA[
    .fil0 {fill:#FAAA32;fill-rule:nonzero}
   ]]>
  </style>
 </defs>
 <g id="Layer_x0020_1">
  <metadata id="CorelCorpID_0Corel-Layer"/>
  <path class="fil0" d="M0.00377 0.00023c-0,0 -0,0 -0,0l0 0 -0.00025 0 0 -0.00009c0,-0.00003 -0.00002,-0.00006 -0.00005,-0.00007 -0.00018,-0.00005 -0.00036,-0.00007 -0.00054,-0.00007 -0.0003,0 -0.0007,0.00007 -0.001,0.00037 -0.0003,-0.00031 -0.00071,-0.00037 -0.001,-0.00037 -0.00018,-0 -0.00036,0.00002 -0.00054,0.00007 -0.00003,0.00001 -0.00005,0.00004 -0.00005,0.00007l0 0.00009 -0.00025 0c-0.00004,0 -0.00007,0.00003 -0.00007,0.00007l0 0.00238c0,0.00004 0.00003,0.00007 0.00007,0.00007 0.00001,-0 0.00003,-0 0.00004,-0.00001 0.00001,-0 0.00075,-0.00041 0.00179,-0.00015l0.00001 0 0.00001 0c0.00001,0 0.00001,0 0.00002,0 0.00104,-0.00026 0.00179,0.00014 0.00179,0.00015 0.00002,0.00001 0.00005,0.00001 0.00007,0 0.00002,-0.00001 0.00004,-0.00004 0.00004,-0.00006l0 -0.00238c0,-0.00004 -0.00003,-0.00007 -0.00007,-0.00007zm-0.00362 0.00233l0 -0.00218 0.00018 0 0 0.00187c-0,0.00004 0.00003,0.00007 0.00007,0.00008 0,0 0.00001,-0 0.00001,-0 0.00015,-0.00002 0.00031,-0.00004 0.00047,-0.00004 0.00022,-0 0.00043,0.00003 0.00064,0.0001 -0.00046,-0.00006 -0.00093,0.00001 -0.00136,0.00018zm0.00073 -0.00043c-0.00014,0 -0.00027,0.00001 -0.0004,0.00003l0 -0.00196c0.00014,-0.00003 0.00029,-0.00005 0.00044,-0.00005 0.00028,0 0.00066,0.00006 0.00093,0.00036l0 0.00185c-0.00015,-0.0001 -0.00046,-0.00024 -0.00097,-0.00024zm0.00112 -0.00162c0.00027,-0.0003 0.00065,-0.00036 0.00093,-0.00036 0.00015,0 0.0003,0.00002 0.00044,0.00005l0 0.00196c-0.00013,-0.00002 -0.00027,-0.00003 -0.0004,-0.00003 -0.00051,0 -0.00081,0.00014 -0.00097,0.00024l0 -0.00185zm0.0017 0.00205c-0.00043,-0.00018 -0.0009,-0.00024 -0.00137,-0.00018 0.00021,-0.00007 0.00042,-0.0001 0.00064,-0.0001 0.00016,0 0.00031,0.00001 0.00047,0.00004 0.00004,0.00001 0.00008,-0.00002 0.00008,-0.00006 0,-0 0,-0.00001 0,-0.00001l0 -0.00187 0.00018 0 -0 0.00218z"/>
 </g>
</svg>
