<?xml version="1.0" encoding="UTF-8"?>
<!DOCTYPE svg PUBLIC "-//W3C//DTD SVG 1.1//EN" "http://www.w3.org/Graphics/SVG/1.1/DTD/svg11.dtd">
<!-- Creator: CorelDRAW 2020 (64-Bit) -->
<svg xmlns="http://www.w3.org/2000/svg" xml:space="preserve" width="1.28333in" height="0.9in" version="1.1" style="shape-rendering:geometricPrecision; text-rendering:geometricPrecision; image-rendering:optimizeQuality; fill-rule:evenodd; clip-rule:evenodd"
viewBox="0 0 0.25734 0.18047"
 xmlns:xlink="http://www.w3.org/1999/xlink"
 xmlns:xodm="http://www.corel.com/coreldraw/odm/2003">
 <defs>
  <style type="text/css">
   <![CDATA[
    .fil0 {fill:url(#id0)}
   ]]>
  </style>
  <linearGradient id="id0" gradientUnits="userSpaceOnUse" x1="-0.09661" y1="0.17742" x2="0.25734" y2="0.17742">
   <stop offset="0" style="stop-opacity:1; stop-color:#5F5F5F"/>
   <stop offset="1" style="stop-opacity:1; stop-color:gainsboro"/>
  </linearGradient>
 </defs>
 <g id="Layer_x0020_1">
  <metadata id="CorelCorpID_0Corel-Layer"/>
  <path class="fil0" d="M0.08451 0c0.00321,0.00007 0.00641,0.00023 0.00957,0.00048l-0.09409 0.0885 0 -0.00948 0.08451 -0.07949zm0.16701 0.18047l0.00579 -0.00544c0.00001,0.0008 0.00003,0.00159 0.00003,0.00239 0,0.00102 -0.00001,0.00204 -0.00003,0.00305l-0.00578 0zm-0.02393 0l0.0282 -0.02652c0.00038,0.00285 0.00068,0.00572 0.00092,0.00862l-0.01904 0.01791 -0.01008 0zm-0.02392 0l0.04852 -0.04564c0.00063,0.00259 0.00122,0.00521 0.00174,0.00784l-0.04018 0.0378 -0.01008 0zm-0.02393 0l0.06717 -0.06318c0.00085,0.00238 0.00166,0.00478 0.00242,0.0072l-0.05951 0.05597 -0.01008 0zm-0.02393 0l0.08436 -0.07935c0.00104,0.00219 0.00204,0.00442 0.003,0.00666l-0.07728 0.07269 -0.01008 0zm-0.02393 0l0.10027 -0.09431c0.00121,0.00203 0.00239,0.00408 0.00353,0.00616l-0.09372 0.08815 -0.01008 0zm-0.02393 0l0.11499 -0.10816c0.00138,0.00187 0.00272,0.00377 0.00402,0.0057l-0.10893 0.10246 -0.01008 0zm-0.02393 0l0.12859 -0.12095c0.00153,0.00172 0.00303,0.00347 0.00449,0.00525l-0.123 0.11569 -0.01008 0zm-0.02392 0l0.14108 -0.1327c0.00168,0.00158 0.00333,0.00318 0.00495,0.00482l-0.13595 0.12787 -0.01008 0zm-0.02392 0l0.15247 -0.14341c0.00183,0.00143 0.00364,0.00289 0.00542,0.00439l-0.14781 0.13903 -0.01008 0zm-0.02392 0l0.16271 -0.15305c0.002,0.00127 0.00397,0.00258 0.00591,0.00393l-0.15853 0.14912 -0.01008 0zm-0.01227 -0.00148l0 -0.00948 0.16008 -0.15057c0.00217,0.0011 0.00431,0.00225 0.00643,0.00343l-0.16651 0.15662zm0 -0.0225l0 -0.00948 0.14383 -0.13529c0.00236,0.00091 0.0047,0.00187 0.00702,0.00288l-0.15085 0.14189zm0 -0.0225l0 -0.00948 0.12606 -0.11857c0.00259,0.00069 0.00516,0.00144 0.00769,0.00224l-0.13375 0.12581zm0 -0.0225l0 -0.00948 0.10645 -0.10012c0.00286,0.00043 0.0057,0.00092 0.00851,0.00148l-0.11496 0.10813zm0 -0.04501l0 -0.00948 0.05931 -0.05579c0.00367,-0.00044 0.00737,-0.00076 0.01111,-0.00097l-0.07042 0.06624zm0 -0.0225l0 -0.00948 0.02847 -0.02678c0.00458,-0.00141 0.00924,-0.00263 0.01397,-0.00366l-0.04244 0.03992zm0 -0.0225l0 -0.00219c0.00162,-0.00083 0.00324,-0.00163 0.00489,-0.00241l-0.00489 0.0046z"/>
 </g>
</svg>
