<?xml version="1.0" encoding="UTF-8"?>
<!DOCTYPE svg PUBLIC "-//W3C//DTD SVG 1.1//EN" "http://www.w3.org/Graphics/SVG/1.1/DTD/svg11.dtd">
<!-- Creator: CorelDRAW 2020 (64-Bit) -->
<svg xmlns="http://www.w3.org/2000/svg" xml:space="preserve" width="1.35in" height="1.01666in" version="1.1" style="shape-rendering:geometricPrecision; text-rendering:geometricPrecision; image-rendering:optimizeQuality; fill-rule:evenodd; clip-rule:evenodd"
viewBox="0 0 0.31681 0.23858"
 xmlns:xlink="http://www.w3.org/1999/xlink"
 xmlns:xodm="http://www.corel.com/coreldraw/odm/2003">
 <defs>
  <style type="text/css">
   <![CDATA[
    .fil0 {fill:url(#id0)}
   ]]>
  </style>
  <linearGradient id="id0" gradientUnits="userSpaceOnUse" x1="0" y1="0.15697" x2="0.31681" y2="0.15697">
   <stop offset="0" style="stop-opacity:1; stop-color:#FAF014"/>
   <stop offset="1" style="stop-opacity:1; stop-color:#F9A331"/>
  </linearGradient>
 </defs>
 <g id="Layer_x0020_1">
  <metadata id="CorelCorpID_0Corel-Layer"/>
  <path class="fil0" d="M0.16212 0c0.00288,0.00007 0.00573,0.0002 0.00857,0.00042l-0.17066 0.15866c-0.00001,-0.0007 -0.00003,-0.00141 -0.00003,-0.00212 0,-0.00214 0.00005,-0.00426 0.00014,-0.00638l0.16198 -0.15059zm-0.12813 0.23858l0.00902 0 0.21718 -0.20192c-0.00159,-0.00132 -0.00321,-0.00262 -0.00485,-0.00388l-0.22136 0.2058zm0.02142 0l0.00902 0 0.20657 -0.19205c-0.00145,-0.00145 -0.00293,-0.00287 -0.00443,-0.00427l-0.21116 0.19632zm0.02141 0l0.00902 0 0.19498 -0.18127c-0.00131,-0.00158 -0.00265,-0.00312 -0.00402,-0.00465l-0.19998 0.18592zm0.02142 0l0.00902 0 0.18239 -0.16957c-0.00117,-0.00171 -0.00237,-0.00338 -0.0036,-0.00504l-0.18781 0.17461zm0.02141 0l0.00902 0 0.16877 -0.15691c-0.00102,-0.00184 -0.00207,-0.00366 -0.00316,-0.00545l-0.17464 0.16236zm0.02142 0l0.00902 0 0.15406 -0.14323c-0.00086,-0.00199 -0.00175,-0.00395 -0.00268,-0.00589l-0.1604 0.14912zm0.02142 0l0.00902 0 0.13815 -0.12844c-0.00068,-0.00215 -0.0014,-0.00427 -0.00217,-0.00637l-0.145 0.13481zm0.02142 0l0.00902 0 0.12085 -0.11236c-0.00047,-0.00233 -0.00099,-0.00464 -0.00156,-0.00694l-0.12832 0.1193zm0.02141 0l0.00902 0 0.10193 -0.09476c-0.00022,-0.00256 -0.00049,-0.0051 -0.00083,-0.00762l-0.11012 0.10238zm0.02141 0l0.00902 0 0.08093 -0.07524c0.00009,-0.00211 0.00014,-0.00424 0.00014,-0.00638 0,-0.00071 -0.00002,-0.00141 -0.00003,-0.00212l-0.09006 0.08373zm0.02142 0l0.00902 0 0.05702 -0.05301c0.0006,-0.00323 0.0011,-0.00648 0.00149,-0.00978l-0.06754 0.06279zm0.02142 0l0.00902 0 0.02802 -0.02605c0.00152,-0.00399 0.00289,-0.00805 0.00409,-0.01219l-0.04113 0.03824zm0.02141 0l0.00278 0c0.00115,-0.00187 0.00226,-0.00376 0.00333,-0.00568l-0.00611 0.00568zm-0.10921 -0.23693c0.00256,0.00038 0.0051,0.00081 0.00762,0.00131l-0.18799 0.17477c-0.00034,-0.00252 -0.00061,-0.00506 -0.00082,-0.00762l0.1812 -0.16846zm0.01755 0.00359c0.00232,0.00061 0.00461,0.00127 0.00689,0.00198l-0.20159 0.18742c-0.00057,-0.00229 -0.00109,-0.00461 -0.00156,-0.00694l0.19626 -0.18246zm0.01591 0.00512c0.00211,0.00081 0.00421,0.00166 0.00628,0.00255l-0.21216 0.19725c-0.00076,-0.0021 -0.00149,-0.00423 -0.00217,-0.00638l0.20805 -0.19342zm0.01454 0.00639c0.00194,0.00097 0.00386,0.00199 0.00576,0.00304l-0.22016 0.20468c-0.00094,-0.00194 -0.00183,-0.00391 -0.00268,-0.00589l0.21709 -0.20183zm0.01334 0.00751c0.00179,0.00112 0.00355,0.00228 0.00529,0.00347l-0.22585 0.20997c-0.00109,-0.00179 -0.00214,-0.00361 -0.00316,-0.00545l0.22372 -0.208zm-0.24196 0.11388c0.0004,-0.00329 0.0009,-0.00655 0.00149,-0.00978l0.13693 -0.1273c0.00329,-0.00039 0.0066,-0.00068 0.00995,-0.00086l-0.14837 0.13794zm0.00499 -0.02455c0.0012,-0.00414 0.00257,-0.0082 0.00409,-0.01219l0.10173 -0.09458c0.0041,-0.00125 0.00827,-0.00232 0.01251,-0.00324l-0.11833 0.11001zm0.01361 -0.03256c0.00451,-0.00807 0.00971,-0.01571 0.01553,-0.02283l0.03165 -0.02943c0.00751,-0.00528 0.01552,-0.00992 0.02392,-0.01385l-0.07111 0.06611z"/>
 </g>
</svg>
