<?xml version="1.0" encoding="UTF-8"?>
<!DOCTYPE svg PUBLIC "-//W3C//DTD SVG 1.1//EN" "http://www.w3.org/Graphics/SVG/1.1/DTD/svg11.dtd">
<!-- Creator: CorelDRAW 2020 (64-Bit) -->
<svg xmlns="http://www.w3.org/2000/svg" xml:space="preserve" width="0.766665in" height="1in" version="1.1" style="shape-rendering:geometricPrecision; text-rendering:geometricPrecision; image-rendering:optimizeQuality; fill-rule:evenodd; clip-rule:evenodd"
viewBox="0 0 0.12078 0.15753"
 xmlns:xlink="http://www.w3.org/1999/xlink"
 xmlns:xodm="http://www.corel.com/coreldraw/odm/2003">
 <defs>
  <style type="text/css">
   <![CDATA[
    .fil0 {fill:url(#id0)}
   ]]>
  </style>
  <linearGradient id="id0" gradientUnits="userSpaceOnUse" x1="-0" y1="0.07877" x2="0.15844" y2="0.07877">
   <stop offset="0" style="stop-opacity:1; stop-color:#FAF014"/>
   <stop offset="1" style="stop-opacity:1; stop-color:#FAA532"/>
  </linearGradient>
 </defs>
 <g id="Layer_x0020_1">
  <metadata id="CorelCorpID_0Corel-Layer"/>
  <path class="fil0" d="M0.08108 0c0.00144,0.00003 0.00287,0.0001 0.00429,0.00021l-0.08535 0.07962c-0,-0.00035 -0.00001,-0.00071 -0.00001,-0.00106 0,-0.00107 0.00003,-0.00214 0.00007,-0.0032l0.08101 -0.07557zm0.0397 0.14586l0 -0.00306 -0.00777 0.00725c0.00267,-0.00126 0.00527,-0.00265 0.00777,-0.00419zm0 -0.00884l0 -0.00421 -0.02458 0.02293c0.00212,-0.00046 0.0042,-0.001 0.00626,-0.00163l0.01832 -0.01709zm0 -0.00999l0 -0.00421 -0.0371 0.03461c0.00167,-0.00009 0.00333,-0.00024 0.00497,-0.00043l0.03213 -0.02997zm0 -0.00999l0 -0.00421 -0.0477 0.04449c0.00142,0.00011 0.00285,0.00018 0.00429,0.00021l0.04341 -0.04049zm0 -0.00999l0 -0.00421 -0.05704 0.05321c0.00126,0.00025 0.00253,0.00047 0.00381,0.00066l0.05323 -0.04965zm0 -0.00999l0 -0.00421 -0.06545 0.06106c0.00114,0.00036 0.00229,0.00069 0.00345,0.001l0.06201 -0.05784zm0 -0.00999l0 -0.00421 -0.07311 0.0682c0.00104,0.00045 0.00208,0.00087 0.00314,0.00128l0.06997 -0.06527zm0 -0.00999l0 -0.00421 -0.08012 0.07473c0.00095,0.00053 0.00191,0.00104 0.00288,0.00152l0.07724 -0.07205zm0 -0.00999l0 -0.00421 -0.08655 0.08074c0.00087,0.0006 0.00175,0.00118 0.00264,0.00174l0.08391 -0.07827zm0 -0.00999l0 -0.00421 -0.09246 0.08625c0.0008,0.00066 0.0016,0.00131 0.00243,0.00195l0.09003 -0.08398zm0 -0.00999l0 -0.00421 -0.09786 0.09129c0.00073,0.00073 0.00146,0.00144 0.00222,0.00214l0.09565 -0.08922zm0 -0.00999l0 -0.00421 -0.10277 0.09587c0.00065,0.00079 0.00133,0.00157 0.00201,0.00233l0.10076 -0.09399zm0 -0.00999l0 -0.00421 -0.10719 0.09999c0.00058,0.00086 0.00119,0.0017 0.0018,0.00253l0.10539 -0.09831zm0 -0.00999l0 -0.00421 -0.11109 0.10362c0.00051,0.00092 0.00104,0.00184 0.00158,0.00274l0.10951 -0.10215zm-0.02988 -0.0163c0.00128,0.00019 0.00255,0.00041 0.00381,0.00066l-0.09402 0.0877c-0.00017,-0.00127 -0.00031,-0.00254 -0.00041,-0.00382l0.09062 -0.08453zm0.00878 0.0018c0.00116,0.00031 0.00231,0.00064 0.00344,0.001l-0.10082 0.09405c-0.00028,-0.00115 -0.00055,-0.00231 -0.00078,-0.00348l0.09815 -0.09156zm0.00796 0.00257c0.00106,0.00041 0.00211,0.00083 0.00314,0.00128l-0.10611 0.09898c-0.00038,-0.00106 -0.00075,-0.00212 -0.00108,-0.0032l0.10405 -0.09706zm0.00727 0.00321c0.00097,0.00049 0.00193,0.001 0.00288,0.00152l-0.11011 0.10271c-0.00047,-0.00098 -0.00092,-0.00196 -0.00134,-0.00296l0.10857 -0.10128zm-0.11434 0.06091c0.0002,-0.00165 0.00045,-0.00329 0.00075,-0.00491l0.06848 -0.06388c0.00164,-0.00019 0.0033,-0.00034 0.00497,-0.00043l-0.0742 0.06922zm0.0025 -0.01232c0.0006,-0.00208 0.00128,-0.00412 0.00205,-0.00612l0.05088 -0.04746c0.00205,-0.00063 0.00414,-0.00117 0.00626,-0.00163l-0.05918 0.05521zm0.00681 -0.01634c0.00225,-0.00405 0.00486,-0.00788 0.00777,-0.01146l0.01583 -0.01477c0.00376,-0.00265 0.00776,-0.00498 0.01196,-0.00695l-0.03556 0.03318z"/>
 </g>
</svg>
