<?xml version="1.0" encoding="UTF-8"?>
<!DOCTYPE svg PUBLIC "-//W3C//DTD SVG 1.1//EN" "http://www.w3.org/Graphics/SVG/1.1/DTD/svg11.dtd">
<!-- Creator: CorelDRAW 2020 (64-Bit) -->
<svg xmlns="http://www.w3.org/2000/svg" xml:space="preserve" width="0.484472in" height="0.116665in" version="1.1" style="shape-rendering:geometricPrecision; text-rendering:geometricPrecision; image-rendering:optimizeQuality; fill-rule:evenodd; clip-rule:evenodd"
viewBox="0 0 0.0181 0.00436"
 xmlns:xlink="http://www.w3.org/1999/xlink"
 xmlns:xodm="http://www.corel.com/coreldraw/odm/2003">
 <defs>
  <style type="text/css">
   <![CDATA[
    .fil0 {fill:#AAAAAA}
   ]]>
  </style>
 </defs>
 <g id="Layer_x0020_1">
  <metadata id="CorelCorpID_0Corel-Layer"/>
  <path class="fil0" d="M0.00861 0.00034l0 -0.00034 0.00133 0c0.00006,0 0.00011,0.00001 0.00015,0.00002 0.00004,0.00001 0.00007,0.00003 0.00009,0.00006 0.00002,0.00002 0.00004,0.00005 0.00005,0.00008 0.00001,0.00003 0.00002,0.00006 0.00002,0.00009 0,0 0,0.00001 0,0.00002 0,0 0,0.00001 0,0.00001 -0,0 -0,0.00001 -0,0.00001 0,0 0,0.00001 0,0.00002 -0,0.00001 -0,0.00002 -0,0.00003 -0,0.00001 -0,0.00002 -0.00001,0.00003 -0.00001,0.00002 -0.00002,0.00005 -0.00002,0.00007 -0.00001,0.00002 -0.00002,0.00004 -0.00003,0.00006 -0.00001,0.00002 -0.00002,0.00004 -0.00003,0.00006 -0.00001,0.00002 -0.00003,0.00004 -0.00004,0.00005l-0.00124 0.00183 0.00139 0 0 0.00034 -0.00148 0c-0,0 -0.00001,0 -0.00002,0 -0,0 -0.00001,0 -0.00002,0 -0,0 -0.00001,0 -0.00002,0 -0,0 -0.00001,0 -0.00002,0 -0.00003,-0 -0.00006,-0.00001 -0.00009,-0.00002 -0.00003,-0.00001 -0.00006,-0.00003 -0.00008,-0.00005 -0.00003,-0.00002 -0.00005,-0.00005 -0.00006,-0.00008 -0.00002,-0.00003 -0.00002,-0.00007 -0.00002,-0.00011 0,-0.00002 0,-0.00005 0.00001,-0.00008 0,-0.00003 0.00001,-0.00006 0.00002,-0.00009 0.00001,-0.00003 0.00002,-0.00007 0.00004,-0.0001 0.00001,-0.00004 0.00003,-0.00007 0.00006,-0.00011l0.00121 -0.00178 -0.00121 0zm0.00228 0.00156l0.00089 -0.00053c-0,-0 -0.00001,-0.00001 -0.00002,-0.00001 -0,-0 -0.00001,-0.00001 -0.00002,-0.00002 -0,-0 -0.00001,-0.00001 -0.00002,-0.00002 -0.00001,-0.00001 -0.00002,-0.00002 -0.00002,-0.00002 -0.00001,-0 -0.00002,-0.00001 -0.00002,-0.00002 -0.00001,-0 -0.00002,-0.00001 -0.00003,-0.00002 -0.00001,-0 -0.00002,-0.00001 -0.00003,-0.00002 -0.00001,-0 -0.00002,-0.00001 -0.00003,-0.00002 -0.00003,-0.00001 -0.00005,-0.00002 -0.00009,-0.00003 -0.00003,-0 -0.00008,-0.00001 -0.00012,-0.00001 -0.0001,0 -0.00018,0.00002 -0.00026,0.00006 -0.00008,0.00004 -0.00014,0.00009 -0.00019,0.00016 -0.00005,0.00007 -0.00009,0.00015 -0.00011,0.00023 -0.00003,0.00008 -0.00004,0.00016 -0.00004,0.00025 0,0 0,0 0,0 0,0 0,0 0,0 0,0 0,0 0,0 0,0 0,0 0,0 0,0 0,0 0,0 0,0 0,0 0,0 0,0.00008 0.00002,0.00015 0.00004,0.00022 0.00003,0.00007 0.00006,0.00014 0.00011,0.0002 0.00005,0.00006 0.00011,0.00011 0.00019,0.00014 0.00007,0.00003 0.00016,0.00005 0.00025,0.00005 0.0001,0 0.00019,-0.00001 0.00026,-0.00004 0.00007,-0.00002 0.00012,-0.00006 0.00015,-0.00011 0.00003,-0.00005 0.00007,-0.00011 0.0001,-0.00019 0.00003,-0.00007 0.00005,-0.00015 0.00008,-0.00024 0,0 0,0 0,0 0,0 0,0 0,-0 0,0 0,0 0,0 0,0 0,0 0,0 0,0 0,0 0,0 0,0 0,0 0,-0 0,0 0,0 0,-0 0,0 0,0 0,0l0.00033 0.00002c0,0 0,0.00001 0,0.00001 0,0 0,0.00001 0,0.00001 0,0 0,0.00001 0,0.00001 0,0 0,0.00001 0,0.00001 0,0 0,0 0,0.00001 0,0 0,0.00001 0,0.00001 0,0 0,0.00001 0,0.00001 0,0 0,0 0,0.00001 0,0.00002 0,0.00004 -0,0.00006 -0,0.00002 -0.00001,0.00005 -0.00001,0.00007 -0,0.00001 -0,0.00002 -0.00001,0.00004 -0,0.00001 -0.00001,0.00002 -0.00001,0.00004 -0,0.00001 -0.00001,0.00002 -0.00001,0.00004 -0,0.00001 -0.00001,0.00003 -0.00002,0.00004 -0.00003,0.00007 -0.00007,0.00013 -0.00012,0.00019 -0.00005,0.00006 -0.00011,0.00012 -0.00018,0.00018 -0.00007,0.00006 -0.00015,0.00009 -0.00024,0.00013 -0.00009,0.00003 -0.0002,0.00004 -0.00032,0.00004 -0.00013,0 -0.00026,-0.00002 -0.00037,-0.00007 -0.00011,-0.00004 -0.00021,-0.00011 -0.0003,-0.0002 -0.00009,-0.00009 -0.00016,-0.0002 -0.00021,-0.00031 -0.00005,-0.00011 -0.00007,-0.00024 -0.00007,-0.00038 0,-0.00015 0.00002,-0.00028 0.00006,-0.00039 0.00004,-0.00011 0.00009,-0.00021 0.00017,-0.00029 0.00008,-0.00008 0.00015,-0.00015 0.00024,-0.0002 0.00008,-0.00005 0.00017,-0.00009 0.00026,-0.00011 0.00001,-0 0.00002,-0 0.00003,-0.00001 0.00001,0 0.00002,0 0.00003,-0 0.00001,0 0.00002,0 0.00003,-0 0.00001,0 0.00002,0 0.00003,-0 0.00002,-0 0.00004,-0 0.00006,-0.00001 0.00002,0 0.00003,0 0.00005,0 0.0001,0 0.0002,0.00002 0.00029,0.00004 0.00009,0.00003 0.00017,0.00008 0.00024,0.00014 0.00007,0.00006 0.00014,0.00013 0.0002,0.0002 0.00006,0.00008 0.00011,0.00015 0.00015,0.00024l-0.00124 0.00071 -0.00015 -0.00028zm0.00177 0.00087l0 -0.00115c0,-0.00011 0.00002,-0.00021 0.00005,-0.0003 0.00003,-0.00009 0.00009,-0.00018 0.00016,-0.00026 0.00007,-0.00008 0.00016,-0.00014 0.00026,-0.00018 0.0001,-0.00004 0.00021,-0.00006 0.00033,-0.00006 0.00002,0 0.00004,0 0.00007,0 0.00002,0 0.00005,0.00001 0.00008,0.00001 0.00003,0 0.00006,0.00001 0.00009,0.00002 0.00003,0.00001 0.00006,0.00002 0.00009,0.00003 0.00005,0.00002 0.0001,0.00006 0.00015,0.00009 0.00005,0.00004 0.00009,0.00008 0.00014,0.00013 0.00005,0.00005 0.00008,0.00011 0.0001,0.00019 0.00002,0.00008 0.00003,0.00016 0.00003,0.00025 0,0 0,0 0,0.00001 0,0 0,0.00001 0,0.00002 0,0 0,0 0,0.00001 0,0 0,0.00001 0,0.00002l0 0.00117 -0.00036 0 0 -0.00112c0,-0.00006 -0.00001,-0.00011 -0.00002,-0.00017 -0.00002,-0.00006 -0.00004,-0.00011 -0.00008,-0.00016 -0.00003,-0.00005 -0.00008,-0.00009 -0.00013,-0.00012 -0.00005,-0.00003 -0.00012,-0.00004 -0.00019,-0.00004 -0.00007,0 -0.00013,0.00001 -0.00018,0.00004 -0.00005,0.00002 -0.0001,0.00006 -0.00014,0.00011 -0.00004,0.00005 -0.00007,0.0001 -0.00009,0.00015 -0.00002,0.00006 -0.00004,0.00011 -0.00005,0.00017l0 0.00114 -0.00033 0zm0.00222 -0.00087l0.00089 -0.00053c-0,-0 -0.00001,-0.00001 -0.00002,-0.00001 -0,-0 -0.00001,-0.00001 -0.00002,-0.00002 -0,-0 -0.00001,-0.00001 -0.00002,-0.00002 -0.00001,-0.00001 -0.00002,-0.00002 -0.00002,-0.00002 -0.00001,-0 -0.00002,-0.00001 -0.00002,-0.00002 -0.00001,-0 -0.00002,-0.00001 -0.00003,-0.00002 -0.00001,-0 -0.00002,-0.00001 -0.00003,-0.00002 -0.00001,-0 -0.00002,-0.00001 -0.00003,-0.00002 -0.00003,-0.00001 -0.00005,-0.00002 -0.00009,-0.00003 -0.00003,-0 -0.00008,-0.00001 -0.00012,-0.00001 -0.0001,0 -0.00018,0.00002 -0.00026,0.00006 -0.00008,0.00004 -0.00014,0.00009 -0.00019,0.00016 -0.00005,0.00007 -0.00009,0.00015 -0.00011,0.00023 -0.00003,0.00008 -0.00004,0.00016 -0.00004,0.00025 0,0 0,0 0,0 0,0 0,0 0,0 0,0 0,0 0,0 0,0 0,0 0,0 0,0 0,0 0,0 0,0 0,0 0,0 0,0.00008 0.00002,0.00015 0.00004,0.00022 0.00003,0.00007 0.00006,0.00014 0.00011,0.0002 0.00005,0.00006 0.00011,0.00011 0.00019,0.00014 0.00007,0.00003 0.00016,0.00005 0.00025,0.00005 0.0001,0 0.00019,-0.00001 0.00026,-0.00004 0.00007,-0.00002 0.00012,-0.00006 0.00015,-0.00011 0.00003,-0.00005 0.00007,-0.00011 0.0001,-0.00019 0.00003,-0.00007 0.00005,-0.00015 0.00008,-0.00024 0,0 0,0 0,0 0,0 0,0 0,-0 0,0 0,0 0,0 0,0 0,0 0,0 0,0 0,0 0,0 0,0 0,0 0,-0 0,0 0,0 0,-0 0,0 0,0 0,0l0.00033 0.00002c0,0 0,0.00001 0,0.00001 0,0 0,0.00001 0,0.00001 0,0 0,0.00001 0,0.00001 0,0 0,0.00001 0,0.00001 0,0 0,0 0,0.00001 0,0 0,0.00001 0,0.00001 0,0 0,0.00001 0,0.00001 0,0 0,0 0,0.00001 0,0.00002 0,0.00004 -0,0.00006 -0,0.00002 -0.00001,0.00005 -0.00001,0.00007 -0,0.00001 -0,0.00002 -0.00001,0.00004 -0,0.00001 -0.00001,0.00002 -0.00001,0.00004 -0,0.00001 -0.00001,0.00002 -0.00001,0.00004 -0,0.00001 -0.00001,0.00003 -0.00001,0.00004 -0.00003,0.00007 -0.00007,0.00013 -0.00012,0.00019 -0.00005,0.00006 -0.00011,0.00012 -0.00018,0.00018 -0.00007,0.00006 -0.00015,0.00009 -0.00024,0.00013 -0.00009,0.00003 -0.0002,0.00004 -0.00032,0.00004 -0.00013,0 -0.00026,-0.00002 -0.00037,-0.00007 -0.00011,-0.00004 -0.00021,-0.00011 -0.0003,-0.0002 -0.00009,-0.00009 -0.00016,-0.0002 -0.00021,-0.00031 -0.00005,-0.00011 -0.00007,-0.00024 -0.00007,-0.00038 0,-0.00015 0.00002,-0.00028 0.00006,-0.00039 0.00004,-0.00011 0.00009,-0.00021 0.00017,-0.00029 0.00008,-0.00008 0.00015,-0.00015 0.00024,-0.0002 0.00008,-0.00005 0.00017,-0.00009 0.00026,-0.00011 0.00001,-0 0.00002,-0 0.00003,-0.00001 0.00001,0 0.00002,0 0.00003,-0 0.00001,0 0.00002,0 0.00003,-0 0.00001,0 0.00002,0 0.00003,-0 0.00002,-0 0.00004,-0 0.00006,-0.00001 0.00002,0 0.00003,0 0.00005,0 0.0001,0 0.0002,0.00002 0.00029,0.00004 0.00009,0.00003 0.00017,0.00008 0.00024,0.00014 0.00007,0.00006 0.00014,0.00013 0.0002,0.0002 0.00006,0.00008 0.00011,0.00015 0.00015,0.00024l-0.00124 0.00071 -0.00015 -0.00028zm0.0018 -0.0019l0.00035 0 0 0.00277 -0.00035 0 0 -0.00277zm0.00094 0.00277l0 -0.0019 0.00033 0 0 0.0019 -0.00033 0zm-0.00003 -0.00234c0,-0.00003 0,-0.00006 0.00002,-0.00008 0.00001,-0.00002 0.00003,-0.00004 0.00005,-0.00006 0.00002,-0.00002 0.00004,-0.00003 0.00007,-0.00004 0.00002,-0.00001 0.00005,-0.00001 0.00007,-0.00001 0.00003,0 0.00005,0 0.00008,0.00001 0.00002,0.00001 0.00005,0.00002 0.00007,0.00004 0.00002,0.00002 0.00004,0.00004 0.00005,0.00006 0.00001,0.00003 0.00002,0.00006 0.00002,0.00009 0,0.00004 -0,0.00006 -0.00002,0.00009 -0.00001,0.00003 -0.00003,0.00005 -0.00005,0.00007 -0.00002,0.00002 -0.00005,0.00003 -0.00007,0.00004 -0.00002,0.00001 -0.00005,0.00001 -0.00007,0.00001 -0.00003,0 -0.00005,0 -0.00008,-0.00001 -0.00003,-0.00001 -0.00005,-0.00002 -0.00007,-0.00004 -0.00002,-0.00002 -0.00004,-0.00004 -0.00005,-0.00007 -0.00001,-0.00003 -0.00002,-0.00006 -0.00002,-0.00009l0 -0.00001zm-0.00943 0.0039l0 -0.00084c0,-0.00009 0.00001,-0.00016 0.00003,-0.00022 0.00002,-0.00006 0.00005,-0.0001 0.00009,-0.00012 0.00004,-0.00003 0.00009,-0.00005 0.00013,-0.00006 0.00005,-0.00001 0.00009,-0.00002 0.00014,-0.00002l0.00017 -0 0 0.00016 -0.00016 0c-0.00004,0 -0.00007,0.00001 -0.0001,0.00002 -0.00003,0.00001 -0.00006,0.00002 -0.00008,0.00004 -0.00002,0.00002 -0.00004,0.00004 -0.00005,0.00007 -0.00001,0.00003 -0.00002,0.00007 -0.00002,0.00012l0 0.00015 0.00042 0 0 0.00016 -0.00042 0 0 0.00055 -0.00016 0zm0.00078 0l0 -0.00087 0.00015 0 0 0.00087 -0.00015 0zm-0.00001 -0.00107c0,-0.00001 0,-0.00003 0.00001,-0.00004 0.00001,-0.00001 0.00001,-0.00002 0.00002,-0.00003 0.00001,-0.00001 0.00002,-0.00001 0.00003,-0.00002 0.00001,-0 0.00002,-0.00001 0.00003,-0.00001 0.00001,0 0.00002,0 0.00003,0.00001 0.00001,0 0.00002,0.00001 0.00003,0.00002 0.00001,0.00001 0.00002,0.00002 0.00002,0.00003 0.00001,0.00001 0.00001,0.00003 0.00001,0.00004 0,0.00002 -0,0.00003 -0.00001,0.00004 -0.00001,0.00001 -0.00001,0.00002 -0.00002,0.00003 -0.00001,0.00001 -0.00002,0.00001 -0.00003,0.00002 -0.00001,0 -0.00002,0.00001 -0.00003,0.00001 -0.00001,0 -0.00002,0 -0.00003,-0 -0.00001,-0 -0.00002,-0.00001 -0.00003,-0.00002 -0.00001,-0.00001 -0.00002,-0.00002 -0.00002,-0.00003 -0.00001,-0.00001 -0.00001,-0.00003 -0.00001,-0.00004l0 -0zm0.00104 -0.00018l0.00016 0 0 0.00081c0,0 0,0 0,0.00001 0,0 0,0 0,0 0,0 0,0 0,0 0,0 0,0 0,0 0,0 0,0 0,0 0,0 0,0 0,0 0,0 0,0 0,0 0,0 0,0 0,0 0,0.00001 0,0.00003 -0,0.00004 -0,0.00001 -0.00001,0.00003 -0.00001,0.00005 -0,0.00002 -0.00001,0.00003 -0.00001,0.00005 -0.00001,0.00002 -0.00001,0.00004 -0.00002,0.00005 -0.00001,0.00003 -0.00003,0.00006 -0.00005,0.00009 -0.00002,0.00003 -0.00005,0.00006 -0.00008,0.00008 -0.00003,0.00003 -0.00006,0.00005 -0.0001,0.00006 -0.00004,0.00001 -0.00008,0.00002 -0.00013,0.00002 -0,0 -0,0 -0,0 -0,0 -0.00001,0 -0.00001,0 -0,0 -0,0 -0,0 -0,0 -0.00001,0 -0.00001,0 -0.00007,-0 -0.00013,-0.00001 -0.00018,-0.00003 -0.00005,-0.00002 -0.00009,-0.00005 -0.00012,-0.00008 -0.00003,-0.00004 -0.00006,-0.00008 -0.00008,-0.00012 -0.00002,-0.00004 -0.00003,-0.00008 -0.00004,-0.00013 -0,-0.00001 -0,-0.00001 -0,-0.00002 -0,-0.00001 -0,-0.00001 -0,-0.00002 0,-0.00001 0,-0.00001 0,-0.00002 0,-0.00001 0,-0.00001 0,-0.00002 0,-0 0,-0 0,-0 0,0 0,0 0,-0 0,-0 0,-0 0,-0 0,-0 0,-0 0,-0 0,-0 0,-0 0,-0 0,0 0,0 0,-0 0,-0 0,-0 0,-0 0,-0 0,-0 0,-0 -0,-0.00006 0.00001,-0.00011 0.00002,-0.00015 0.00001,-0.00005 0.00003,-0.00008 0.00006,-0.00012 0.00003,-0.00003 0.00006,-0.00006 0.00009,-0.00008 0.00003,-0.00002 0.00006,-0.00004 0.00009,-0.00005 0.00001,-0 0.00002,-0.00001 0.00003,-0.00001 0.00001,-0 0.00002,-0 0.00003,-0.00001 0.00001,-0 0.00002,-0 0.00003,-0.00001 0.00001,0 0.00002,0 0.00003,0 0.00004,0 0.00007,0 0.0001,0 0.00003,0 0.00005,0.00001 0.00007,0.00001 0.00002,0.00001 0.00003,0.00001 0.00005,0.00002 0.00001,0.00001 0.00003,0.00001 0.00004,0.00002l0 0.00017c-0,0 -0.00001,-0 -0.00001,-0 -0,-0 -0.00001,-0 -0.00001,-0 -0,-0 -0,-0 -0.00001,-0 -0,-0 -0,-0 -0.00001,-0 -0,0 -0,0 -0.00001,-0 -0,-0 -0.00001,-0 -0.00001,-0 -0.00001,-0.00001 -0.00002,-0.00001 -0.00004,-0.00002 -0.00002,-0.00001 -0.00003,-0.00001 -0.00005,-0.00001 -0.00002,-0.00001 -0.00003,-0.00001 -0.00005,-0.00001 -0.00002,-0 -0.00003,-0 -0.00005,-0 -0,0 -0.00001,0 -0.00001,0 -0,0 -0.00001,0 -0.00001,0 -0,0 -0,0 -0,0 -0,0 -0,0 -0,0 -0,0 -0,0 -0,0 -0,0 -0,0 -0,0 -0.00003,0 -0.00005,0.00001 -0.00008,0.00003 -0.00003,0.00001 -0.00005,0.00003 -0.00007,0.00006 -0.00002,0.00002 -0.00004,0.00005 -0.00005,0.00008 -0.00001,0.00003 -0.00002,0.00007 -0.00002,0.00011 0,0 0,0 0,0 0,0 0,0 0,0 0,0 0,0 0,0 0,0 0,0 0,0 0,0 0,0 0,0 0,0 0,0 0,0 0,0 0,0 0,0 0,0 0,0 0,0 0.00001,0.00004 0.00001,0.00008 0.00002,0.0001 0.00001,0.00003 0.00002,0.00005 0.00004,0.00007 0.00002,0.00002 0.00003,0.00003 0.00005,0.00005 0.00002,0.00001 0.00004,0.00002 0.00006,0.00003 0.00001,0 0.00002,0.00001 0.00003,0.00001 0.00001,0 0.00002,0 0.00003,0.00001 0.00001,0 0.00002,0 0.00003,0 0.00001,0 0.00002,0 0.00002,0 0.00004,0 0.00008,-0.00001 0.00011,-0.00003 0.00003,-0.00002 0.00005,-0.00005 0.00007,-0.00008 0.00002,-0.00004 0.00003,-0.00008 0.00004,-0.00012 0.00001,-0.00004 0.00001,-0.00009 0.00001,-0.00014l0 -0.00076zm0.00032 0.00038l0.00015 0 0 0.00052c0,0.00003 0.00001,0.00006 0.00001,0.00009 0.00001,0.00003 0.00002,0.00005 0.00004,0.00007 0.00002,0.00002 0.00004,0.00003 0.00007,0.00004 0.00002,0.00001 0.00005,0.00001 0.00008,0.00001 0.00002,0 0.00005,-0 0.00007,-0.00001 0.00002,-0.00001 0.00004,-0.00002 0.00005,-0.00004 0.00002,-0.00002 0.00003,-0.00004 0.00004,-0.00006 0.00001,-0.00002 0.00002,-0.00004 0.00002,-0.00006 0,-0.00001 0,-0.00001 0,-0.00001 0,-0 0,-0.00001 0,-0.00001 0,-0 0,-0.00001 0,-0.00001 0,-0 0,-0.00001 0,-0.00001 0,-0 0,-0.00001 0,-0.00001 0,-0 0,-0.00001 0,-0.00001l0 -0.00051 0.00015 0 0 0.0005c0,0 0,0 0,0.00001 0,0 0,0 0,0.00001 0,0 0,0 0,0 0,0 0,0 0,0 0,0 0,0 0,0 0,0 0,0 0,0 0,0 0,0 0,0 0,0 0,0 0,0 0,0.00005 -0.00001,0.0001 -0.00002,0.00014 -0.00002,0.00004 -0.00004,0.00008 -0.00007,0.00012 -0.00003,0.00004 -0.00007,0.00006 -0.00011,0.00008 -0.00004,0.00002 -0.00009,0.00003 -0.00014,0.00003 -0.00005,0 -0.0001,-0.00001 -0.00014,-0.00002 -0.00004,-0.00002 -0.00008,-0.00004 -0.00011,-0.00007 -0.00003,-0.00003 -0.00006,-0.00007 -0.00007,-0.00012 -0.00002,-0.00005 -0.00003,-0.00011 -0.00003,-0.00018l0 -0.0005zm0.00085 0.00044c0,-0.00001 0,-0.00002 0,-0.00003 0,-0.00001 0,-0.00003 0.00001,-0.00004 0,-0.00001 0.00001,-0.00003 0.00001,-0.00004 0.00001,-0.00001 0.00001,-0.00003 0.00002,-0.00004 0.00001,-0.00003 0.00003,-0.00007 0.00005,-0.0001 0.00002,-0.00003 0.00005,-0.00006 0.00008,-0.00009 0.00003,-0.00003 0.00007,-0.00005 0.00011,-0.00006 0.00004,-0.00001 0.00009,-0.00002 0.00014,-0.00002l0.00016 -0 0 0.00016 -0.00012 0c-0.00001,0 -0.00002,0 -0.00002,0 -0.00001,0 -0.00002,0 -0.00003,0.00001 -0.00001,0 -0.00002,0 -0.00003,0.00001 -0.00001,0 -0.00002,0.00001 -0.00003,0.00001 -0.00002,0.00001 -0.00004,0.00002 -0.00006,0.00003 -0.00002,0.00001 -0.00004,0.00003 -0.00005,0.00005 -0.00002,0.00002 -0.00003,0.00004 -0.00004,0.00007 -0.00001,0.00003 -0.00001,0.00006 -0.00001,0.0001 0,0 0,0.00001 0,0.00001 0,0 0,0.00001 0,0.00001 0,0 0,0.00001 0,0.00001 0,0 0,0.00001 0,0.00001 0,0 0,0.00001 0,0.00001 0,0 0,0.00001 0,0.00001 0,0.00001 0,0.00001 0,0.00001 0,0 0,0.00001 0,0.00001 0.00001,0.00002 0.00002,0.00005 0.00003,0.00007 0.00001,0.00002 0.00003,0.00004 0.00005,0.00006 0.00002,0.00002 0.00004,0.00003 0.00007,0.00004 0.00003,0.00001 0.00006,0.00001 0.00009,0.00001 0,0 0.00001,0 0.00001,0 0,0 0,0 0,0 0,0 0.00001,0 0.00001,0 0,0 0.00001,0 0.00001,0l0.00012 -0 0 0.00016 -0.00017 0c-0.00005,-0 -0.0001,-0.00001 -0.00014,-0.00002 -0.00004,-0.00001 -0.00008,-0.00004 -0.00011,-0.00006 -0.00003,-0.00003 -0.00005,-0.00006 -0.00007,-0.00009 -0.00002,-0.00003 -0.00004,-0.00006 -0.00005,-0.00009 -0.00001,-0.00001 -0.00001,-0.00003 -0.00001,-0.00004 -0,-0.00001 -0.00001,-0.00003 -0.00001,-0.00004 -0,-0.00001 -0,-0.00003 -0.00001,-0.00004 -0,-0.00001 -0,-0.00002 -0,-0.00004l0 -0zm0.00076 0.00043l0 -0.00087 0.00015 0 0 0.00087 -0.00015 0zm-0.00001 -0.00107c0,-0.00001 0,-0.00003 0.00001,-0.00004 0.00001,-0.00001 0.00001,-0.00002 0.00002,-0.00003 0.00001,-0.00001 0.00002,-0.00001 0.00003,-0.00002 0.00001,-0 0.00002,-0.00001 0.00003,-0.00001 0.00001,0 0.00002,0 0.00003,0.00001 0.00001,0 0.00002,0.00001 0.00003,0.00002 0.00001,0.00001 0.00002,0.00002 0.00002,0.00003 0.00001,0.00001 0.00001,0.00003 0.00001,0.00004 0,0.00002 -0,0.00003 -0.00001,0.00004 -0.00001,0.00001 -0.00001,0.00002 -0.00002,0.00003 -0.00001,0.00001 -0.00002,0.00001 -0.00003,0.00002 -0.00001,0 -0.00002,0.00001 -0.00003,0.00001 -0.00001,0 -0.00002,0 -0.00003,-0 -0.00001,-0 -0.00002,-0.00001 -0.00003,-0.00002 -0.00001,-0.00001 -0.00002,-0.00002 -0.00002,-0.00003 -0.00001,-0.00001 -0.00001,-0.00003 -0.00001,-0.00004l0 -0zm0.00106 0.00107l0 -0.0005c0,-0.00003 -0.00001,-0.00005 -0.00001,-0.00008 -0.00001,-0.00003 -0.00003,-0.00005 -0.00004,-0.00007 -0.00002,-0.00002 -0.00005,-0.00004 -0.00008,-0.00005 -0.00004,-0.00001 -0.00008,-0.00002 -0.00013,-0.00002 -0.00001,0 -0.00002,0 -0.00002,0 -0.00001,0 -0.00002,0 -0.00003,0.00001 -0.00001,0 -0.00002,0 -0.00003,0.00001 -0.00001,0 -0.00002,0.00001 -0.00003,0.00001 -0.00002,0.00001 -0.00004,0.00002 -0.00005,0.00003 -0.00002,0.00002 -0.00003,0.00003 -0.00005,0.00005 -0.00002,0.00002 -0.00003,0.00004 -0.00004,0.00007 -0.00001,0.00003 -0.00002,0.00006 -0.00002,0.0001 0,0.00005 0.00001,0.00009 0.00002,0.00012 0.00001,0.00004 0.00003,0.00007 0.00006,0.00009 0.00003,0.00002 0.00005,0.00004 0.00008,0.00005 0.00003,0.00001 0.00006,0.00002 0.00009,0.00003 0,0 0,0 0.00001,0 0,0 0,0 0,0 0,0 0.00001,0 0.00001,0 0,0 0,0 0,0 0,0 0,0 0.00001,0 0,0 0,0 0.00001,0 0,0 0,0 0.00001,0 0,0 0,0 0,0 0.00001,0 0.00003,-0 0.00004,-0 0.00001,-0 0.00002,-0 0.00003,-0.00001 0.00001,-0 0.00001,-0.00001 0.00002,-0.00001 0.00001,-0 0.00001,-0.00001 0.00002,-0.00001 0.00001,-0 0.00001,-0.00001 0.00002,-0.00001 0.00001,-0 0.00001,-0.00001 0.00002,-0.00001 0.00001,-0 0.00001,-0.00001 0.00002,-0.00001 0.00001,-0.00001 0.00001,-0.00001 0.00002,-0.00001 0.00001,-0.00001 0.00001,-0.00001 0.00002,-0.00002 0.00001,-0.00001 0.00001,-0.00001 0.00002,-0.00002l0 0.0002c-0,0 -0,0 -0,0 -0,0 -0,0 -0,0 0,0 0,0 0,0 0,0 0,0 0,0 0,0 0,0 0,0 0,0 0,0 0,0 -0.00001,0.00001 -0.00003,0.00002 -0.00004,0.00003 -0.00002,0.00001 -0.00003,0.00002 -0.00005,0.00002 -0.00002,0.00001 -0.00004,0.00001 -0.00006,0.00001 -0.00002,0 -0.00005,0 -0.00008,0 -0,0 -0,0 -0,0 -0,0 -0,0 -0,0 -0,0 -0,0 -0,0 -0,0 -0,0 -0,0 -0,0 -0,0 -0,0 -0,0 -0,0 -0,0 -0,0 -0,0 -0,0 -0,0 -0,0 -0,0 -0.00005,0 -0.0001,-0.00001 -0.00015,-0.00003 -0.00005,-0.00002 -0.00009,-0.00005 -0.00013,-0.00009 -0.00004,-0.00004 -0.00007,-0.00009 -0.00008,-0.00015 -0.00002,-0.00005 -0.00003,-0.00012 -0.00003,-0.00018 0,-0.00006 0.00001,-0.00012 0.00003,-0.00017 0.00002,-0.00005 0.00005,-0.0001 0.00008,-0.00014 0.00004,-0.00004 0.00008,-0.00008 0.00014,-0.0001 0.00005,-0.00002 0.00012,-0.00003 0.00019,-0.00003 0.00007,0 0.00013,0.00001 0.00018,0.00003 0.00005,0.00002 0.0001,0.00005 0.00013,0.00009 0.00004,0.00004 0.00006,0.00008 0.00008,0.00012 0.00002,0.00004 0.00003,0.00009 0.00003,0.00013l0 0.00051 -0.00016 0zm0.00038 0l0 -0.00087 0.00015 0 0 0.00087 -0.00015 0zm-0.00001 -0.00107c0,-0.00001 0,-0.00003 0.00001,-0.00004 0.00001,-0.00001 0.00001,-0.00002 0.00002,-0.00003 0.00001,-0.00001 0.00002,-0.00001 0.00003,-0.00002 0.00001,-0 0.00002,-0.00001 0.00003,-0.00001 0.00001,0 0.00002,0 0.00003,0.00001 0.00001,0 0.00002,0.00001 0.00003,0.00002 0.00001,0.00001 0.00002,0.00002 0.00002,0.00003 0.00001,0.00001 0.00001,0.00003 0.00001,0.00004 0,0.00002 -0,0.00003 -0.00001,0.00004 -0.00001,0.00001 -0.00001,0.00002 -0.00002,0.00003 -0.00001,0.00001 -0.00002,0.00001 -0.00003,0.00002 -0.00001,0 -0.00002,0.00001 -0.00003,0.00001 -0.00001,0 -0.00002,0 -0.00003,-0 -0.00001,-0 -0.00002,-0.00001 -0.00003,-0.00002 -0.00001,-0.00001 -0.00002,-0.00002 -0.00002,-0.00003 -0.00001,-0.00001 -0.00001,-0.00003 -0.00001,-0.00004l0 -0zm0.00039 0.0002l0.00015 0 0 0.00008c0,-0 0.00001,-0 0.00001,-0.00001 0,-0 0,-0.00001 0.00001,-0.00001 0,-0 0.00001,-0.00001 0.00001,-0.00001 0,-0 0.00001,-0.00001 0.00001,-0.00001 0.00001,-0.00001 0.00002,-0.00002 0.00003,-0.00003 0.00001,-0.00001 0.00002,-0.00002 0.00004,-0.00002 0.00001,-0.00001 0.00003,-0.00001 0.00005,-0.00002 0.00002,-0 0.00004,-0.00001 0.00005,-0.00001l0.00005 -0 0 0.00016 -0.00004 0c-0.00003,0.00001 -0.00006,0.00001 -0.00008,0.00003 -0.00002,0.00001 -0.00004,0.00003 -0.00006,0.00005 -0.00002,0.00002 -0.00003,0.00004 -0.00004,0.00006 -0.00001,0.00002 -0.00002,0.00004 -0.00002,0.00006 -0.00001,0.00002 -0.00001,0.00003 -0.00001,0.00005 -0,0.00001 -0,0.00003 -0,0.00004 -0,0.00001 -0,0.00003 -0,0.00004 0,0.00001 0,0.00002 0,0.00003l0 0.00039 -0.00015 0 0 -0.00087zm0.00065 0.00047l0.0004 -0.00024c-0,-0 -0.00001,-0 -0.00001,-0.00001 -0,-0 -0.00001,-0 -0.00001,-0.00001 -0,-0 -0.00001,-0.00001 -0.00001,-0.00001 -0,-0 -0.00001,-0.00001 -0.00001,-0.00001 -0,-0 -0.00001,-0.00001 -0.00001,-0.00001 -0.00001,-0 -0.00001,-0.00001 -0.00001,-0.00001 -0.00001,-0 -0.00001,-0.00001 -0.00001,-0.00001 -0.00001,-0 -0.00001,-0.00001 -0.00002,-0.00001 -0.00001,-0.00001 -0.00002,-0.00001 -0.00004,-0.00001 -0.00002,-0 -0.00003,-0 -0.00005,-0 -0.00004,0 -0.00008,0.00001 -0.00012,0.00003 -0.00003,0.00002 -0.00006,0.00004 -0.00009,0.00007 -0.00002,0.00003 -0.00004,0.00007 -0.00005,0.0001 -0.00001,0.00004 -0.00002,0.00007 -0.00002,0.00011 0,0 0,0 0,0 0,0 0,0 0,0 0,0 0,0 0,0 0,0 0,0 0,0 0,0 0,0 0,0 0,0 0,0 0,0 0,0.00003 0.00001,0.00007 0.00002,0.0001 0.00001,0.00003 0.00003,0.00006 0.00005,0.00009 0.00002,0.00003 0.00005,0.00005 0.00009,0.00006 0.00003,0.00001 0.00007,0.00002 0.00011,0.00002 0.00005,0 0.00009,-0.00001 0.00012,-0.00002 0.00003,-0.00001 0.00005,-0.00003 0.00007,-0.00005 0.00002,-0.00002 0.00003,-0.00005 0.00004,-0.00008 0.00001,-0.00003 0.00002,-0.00007 0.00003,-0.00011 0,0 0,0 0,0 0,0 0,0 0,-0 0,0 0,0 0,0 0,0 0,0 0,0 0,0 0,0 0,0 0,0 0,0 0,-0 0,0 0,0 0,-0 0,0 0,0 0,0l0.00015 0.00001c0,0 0,0 0,0.00001 0,0 0,0 0,0.00001 0,0 0,0 0,0.00001 0,0 0,0 0,0.00001 0,0 0,0 0,0 0,0 0,0 0,0.00001 0,0 0,0 0,0.00001 0,0 0,0 0,0 0,0.00001 0,0.00002 -0,0.00003 -0,0.00001 -0,0.00002 -0.00001,0.00003 -0,0.00001 -0,0.00001 -0,0.00002 -0,0.00001 -0,0.00001 -0.00001,0.00002 -0,0.00001 -0,0.00001 -0.00001,0.00002 -0,0.00001 -0.00001,0.00001 -0.00001,0.00002 -0.00001,0.00003 -0.00003,0.00006 -0.00005,0.00009 -0.00002,0.00003 -0.00005,0.00006 -0.00008,0.00008 -0.00003,0.00003 -0.00007,0.00004 -0.00011,0.00006 -0.00004,0.00001 -0.00009,0.00002 -0.00014,0.00002 -0.00006,0 -0.00012,-0.00001 -0.00017,-0.00003 -0.00005,-0.00002 -0.0001,-0.00005 -0.00014,-0.00009 -0.00004,-0.00004 -0.00007,-0.00009 -0.00009,-0.00014 -0.00002,-0.00005 -0.00003,-0.00011 -0.00003,-0.00017 0,-0.00007 0.00001,-0.00013 0.00003,-0.00018 0.00002,-0.00005 0.00004,-0.0001 0.00008,-0.00013 0.00003,-0.00004 0.00007,-0.00007 0.00011,-0.00009 0.00004,-0.00002 0.00008,-0.00004 0.00012,-0.00005 0.00001,-0 0.00001,-0 0.00001,-0 0,0 0.00001,0 0.00001,-0 0.00001,0 0.00001,0 0.00001,-0 0,0 0.00001,0 0.00001,-0 0.00001,-0 0.00002,-0 0.00003,-0 0.00001,0 0.00002,0 0.00002,0 0.00005,0 0.00009,0.00001 0.00013,0.00002 0.00004,0.00001 0.00008,0.00004 0.00011,0.00006 0.00003,0.00003 0.00006,0.00006 0.00009,0.00009 0.00003,0.00003 0.00005,0.00007 0.00007,0.00011l-0.00057 0.00032 -0.00007 -0.00013zm0.00121 0.00024l0.00043 0c0.00003,0 0.00005,0 0.00007,-0.00001 0.00002,-0.00001 0.00004,-0.00001 0.00006,-0.00002 0.00002,-0.00001 0.00003,-0.00003 0.00004,-0.00004 0.00001,-0.00002 0.00002,-0.00004 0.00002,-0.00006 0,-0.00002 -0,-0.00004 -0.00001,-0.00006 -0.00001,-0.00002 -0.00002,-0.00004 -0.00003,-0.00006 -0.00001,-0.00002 -0.00003,-0.00003 -0.00005,-0.00005 -0.00002,-0.00002 -0.00004,-0.00003 -0.00007,-0.00005 -0.00001,-0 -0.00001,-0.00001 -0.00001,-0.00001 -0.00001,-0 -0.00001,-0.00001 -0.00001,-0.00001 -0.00001,-0 -0.00001,-0.00001 -0.00001,-0.00001 -0.00001,-0 -0.00001,-0.00001 -0.00001,-0.00001 -0,0 -0,0 -0,0 -0,0 -0,0 -0,0 -0,0 -0,0 -0,-0 -0,0 -0,0 -0,-0 -0.00005,-0.00002 -0.00009,-0.00005 -0.00014,-0.00008 -0.00004,-0.00003 -0.00009,-0.00005 -0.00013,-0.00008 -0.00004,-0.00003 -0.00007,-0.00006 -0.00009,-0.0001 -0.00002,-0.00004 -0.00003,-0.00008 -0.00003,-0.00013 0,-0 0,-0 0,-0 0,0 0,0 0,-0 0,0 0,0 0,-0 0,-0 0,-0 0,-0 0,0 0,0 0,-0 0,0 0,0 0,-0 0,-0 0,-0 0,-0 0,0 0,0 0,-0 0,-0.00005 0.00001,-0.00009 0.00002,-0.00012 0.00001,-0.00003 0.00003,-0.00006 0.00005,-0.00009 0.00003,-0.00002 0.00005,-0.00004 0.00008,-0.00006 0.00003,-0.00002 0.00006,-0.00003 0.00009,-0.00003 0.00001,-0 0.00001,-0 0.00001,-0 0.00001,0 0.00001,0 0.00001,-0 0,0 0.00001,0 0.00001,-0 0,0 0.00001,0 0.00001,-0 0,0 0.00001,0 0.00001,-0 0,0 0.00001,0 0.00001,0l0.00042 -0 0 0.00016 -0.00039 0c-0.00002,0 -0.00004,0.00001 -0.00006,0.00001 -0.00002,0.00001 -0.00004,0.00002 -0.00005,0.00003 -0.00001,0.00001 -0.00002,0.00003 -0.00003,0.00005 -0.00001,0.00002 -0.00001,0.00003 -0.00001,0.00005 0,0 0,0 0,0 -0,0 -0,0 -0,0 0,0 0,0 0,0 0,0 0,0 0,0 0,0 0,0 0,0 0,0 0,0 0,0 0,0 0,0 0,0 0,0 0,0 0,0 0,0.00001 0,0.00002 0,0.00003 0,0.00001 0,0.00002 0.00001,0.00003 0.00001,0.00001 0.00001,0.00002 0.00002,0.00002 0.00001,0.00001 0.00001,0.00001 0.00002,0.00002 0.00003,0.00002 0.00005,0.00004 0.00008,0.00005 0.00002,0.00002 0.00005,0.00003 0.00007,0.00004 0.00002,0.00001 0.00004,0.00002 0.00007,0.00003 0.00002,0.00001 0.00004,0.00002 0.00006,0.00003 0.00001,0 0.00001,0.00001 0.00002,0.00001 0.00001,0 0.00001,0.00001 0.00001,0.00001 0,0 0.00001,0 0.00001,0 0,0 0.00001,0 0.00001,0.00001 0,0 0.00001,0 0.00001,0.00001 0,0 0.00001,0 0.00001,0 0,0 0.00001,0.00001 0.00001,0.00001 0,0 0.00001,0.00001 0.00001,0.00001 0,0 0.00001,0.00001 0.00001,0.00001 0.00001,0 0.00001,0.00001 0.00001,0.00001 0.00002,0.00001 0.00004,0.00003 0.00006,0.00005 0.00002,0.00002 0.00004,0.00004 0.00005,0.00006 0.00002,0.00002 0.00003,0.00005 0.00004,0.00008 0.00001,0.00003 0.00001,0.00006 0.00001,0.0001 0,0.00001 0,0.00002 0,0.00003 -0,0.00001 -0,0.00002 -0,0.00003 -0,0.00001 -0,0.00002 -0,0.00003 -0,0.00001 -0,0.00002 -0.00001,0.00003 -0.00001,0.00003 -0.00002,0.00005 -0.00003,0.00008 -0.00001,0.00002 -0.00003,0.00005 -0.00005,0.00007 -0.00002,0.00002 -0.00005,0.00004 -0.00008,0.00005 -0.00004,0.00001 -0.00008,0.00002 -0.00013,0.00002 -0,0 -0,0 -0,0 -0,0 -0,0 -0,0 -0,0 -0,0 -0,0 -0,0 -0,0 -0,0 -0,0 -0,0 -0,0 -0,0 -0,0 -0.00001,0 -0,0 -0,0 -0,0 -0,0 -0,0 -0,0l-0.00045 0 0 -0.00016zm0.00156 0.00016l0 -0.0005c0,-0.00003 -0.00001,-0.00005 -0.00001,-0.00008 -0.00001,-0.00003 -0.00003,-0.00005 -0.00004,-0.00007 -0.00002,-0.00002 -0.00005,-0.00004 -0.00008,-0.00005 -0.00004,-0.00001 -0.00008,-0.00002 -0.00013,-0.00002 -0.00001,0 -0.00002,0 -0.00002,0 -0.00001,0 -0.00002,0 -0.00003,0.00001 -0.00001,0 -0.00002,0 -0.00003,0.00001 -0.00001,0 -0.00002,0.00001 -0.00003,0.00001 -0.00002,0.00001 -0.00004,0.00002 -0.00005,0.00003 -0.00002,0.00002 -0.00003,0.00003 -0.00005,0.00005 -0.00002,0.00002 -0.00003,0.00004 -0.00004,0.00007 -0.00001,0.00003 -0.00002,0.00006 -0.00002,0.0001 0,0.00005 0.00001,0.00009 0.00002,0.00013 0.00001,0.00004 0.00003,0.00007 0.00006,0.00009 0.00003,0.00002 0.00005,0.00004 0.00008,0.00005 0.00003,0.00001 0.00006,0.00002 0.00009,0.00003 0,0 0,0 0,0 0,0 0,0 0.00001,0 0,0 0,0 0.00001,0 0,0 0,0 0,0 0,0 0.00001,0 0.00001,0 0,0 0.00001,0 0.00001,0 0.00001,0 0.00003,-0 0.00004,-0 0.00001,-0 0.00002,-0 0.00003,-0.00001 0.00001,-0 0.00002,-0.00001 0.00003,-0.00001 0.00001,-0.00001 0.00002,-0.00001 0.00003,-0.00002 0.00001,-0 0.00001,-0.00001 0.00002,-0.00001 0.00001,-0.00001 0.00001,-0.00001 0.00002,-0.00001 0.00001,-0.00001 0.00001,-0.00001 0.00002,-0.00002 0.00001,-0.00001 0.00001,-0.00001 0.00002,-0.00002l0 0.0002c-0,0 -0,0 -0,0 -0,0 -0,0 -0,0 0,0 0,0 0,0 0,0 0,0 0,0 0,0 0,0 0,0 0,0 0,0 0,0 -0.00001,0.00001 -0.00003,0.00002 -0.00004,0.00003 -0.00002,0.00001 -0.00003,0.00002 -0.00005,0.00002 -0.00002,0.00001 -0.00004,0.00001 -0.00006,0.00001 -0.00002,0 -0.00005,0 -0.00008,0 -0,0 -0,0 -0,0 -0,0 -0,0 -0,0 -0,0 -0,0 -0,0 -0,0 -0,0 -0,0 -0,0 -0,0 -0,0 -0,0 -0,0 -0,0 -0,0 -0,0 -0,0 -0,0 -0,0 -0,0 -0.00005,0 -0.0001,-0.00001 -0.00015,-0.00003 -0.00004,-0.00002 -0.00009,-0.00005 -0.00012,-0.00009 -0.00004,-0.00004 -0.00007,-0.00009 -0.00008,-0.00015 -0.00002,-0.00005 -0.00003,-0.00012 -0.00003,-0.00018 0,-0.00006 0.00001,-0.00012 0.00003,-0.00017 0.00002,-0.00005 0.00005,-0.0001 0.00008,-0.00014 0.00004,-0.00004 0.00008,-0.00008 0.00014,-0.0001 0.00005,-0.00002 0.00012,-0.00003 0.00019,-0.00003 0.00007,0 0.00013,0.00001 0.00018,0.00003 0.00005,0.00002 0.00009,0.00005 0.00013,0.00009 0.00004,0.00004 0.00006,0.00008 0.00008,0.00012 0.00002,0.00004 0.00003,0.00009 0.00003,0.00013l0 0.00051 -0.00016 0zm-0.00027 -0.00096l-0.00023 -0.00026 0.0002 0 0.00015 0.00026 -0.00012 0 0 0zm0.00057 0.0001l0.00015 0 0 0.00008c0,-0 0.00001,-0 0.00001,-0.00001 0,-0 0,-0.00001 0.00001,-0.00001 0,-0 0.00001,-0.00001 0.00001,-0.00001 0,-0 0.00001,-0.00001 0.00001,-0.00001 0.00001,-0.00001 0.00002,-0.00002 0.00003,-0.00003 0.00001,-0.00001 0.00002,-0.00002 0.00004,-0.00002 0.00001,-0.00001 0.00003,-0.00001 0.00005,-0.00002 0.00002,-0 0.00004,-0.00001 0.00005,-0.00001l0.00005 -0 0 0.00016 -0.00004 0c-0.00003,0.00001 -0.00006,0.00001 -0.00008,0.00003 -0.00002,0.00001 -0.00004,0.00003 -0.00006,0.00005 -0.00002,0.00002 -0.00003,0.00004 -0.00004,0.00006 -0.00001,0.00002 -0.00002,0.00004 -0.00002,0.00006 -0.00001,0.00002 -0.00001,0.00003 -0.00001,0.00005 -0,0.00001 -0,0.00003 -0,0.00004 -0,0.00001 -0,0.00003 -0,0.00004 0,0.00001 0,0.00002 0,0.00003l0 0.00039 -0.00015 0 0 -0.00087zm0.00051 -0.0004l0.00016 0 0 0.00126 -0.00016 0 0 -0.00126zm-0.01138 -0.00061c-0.00154,0.00002 -0.00286,0.00105 -0.00287,0.0014l0.00006 0c0.00038,-0.0007 0.00147,-0.00129 0.00284,-0.00134l-0.00003 -0.00006zm0.00015 0.00042c-0.00168,-0 -0.0026,0.00066 -0.00292,0.00099l0.00007 0.00003c0.00094,-0.00041 0.00192,-0.00066 0.00298,-0.00068l-0.00013 -0.00035zm0.00019 0.00051c-0.001,0.00002 -0.002,0.00024 -0.00301,0.00054l0.00007 0.00005 0.00304 -0.00031 -0.0001 -0.00028zm0.00014 0.00041l-0.00308 0.00022 0.00006 0.00008 0.00312 -0.00002 -0.0001 -0.00028zm0.00015 0.00039l-0.00315 -0.00003 0.00003 0.00017 0.00316 0.00004 -0.00004 -0.00017zm-0.00398 0.00013c0.00016,-0.00058 0.00069,-0.0005 0.0008,0.00001l-0.00015 0c-0.00005,-0.00029 -0.00039,-0.00038 -0.00049,-0l-0.00015 -0.00001zm-0.00254 -0.00186c0.00154,0.00002 0.00286,0.00105 0.00287,0.0014l-0.00006 0c-0.00038,-0.0007 -0.00147,-0.00129 -0.00284,-0.00134l0.00003 -0.00006zm-0.00015 0.00042c0.00168,-0 0.0026,0.00066 0.00292,0.001l-0.00007 0.00003c-0.00094,-0.00041 -0.00192,-0.00066 -0.00298,-0.00068l0.00013 -0.00035zm-0.00019 0.00051c0.001,0.00002 0.002,0.00024 0.00301,0.00054l-0.00007 0.00005 -0.00304 -0.00031 0.0001 -0.00028zm-0.00014 0.00041l0.00308 0.00022 -0.00006 0.00008 -0.00312 -0.00002 0.0001 -0.00028zm-0.00015 0.00039l0.00315 -0.00003 -0.00003 0.00017 -0.00316 0.00004 0.00004 -0.00017zm0.00425 -0.0024l-0.00033 0 0.00001 0.00149 0.00026 -0.0002 0.00006 -0.00129zm0.00023 -0.00015l-0.00076 0 0 0.00006c0.00007,-0 0.00011,0.00003 0.00012,0.0001l0.00049 0.00001c0.00001,-0.00007 0.00006,-0.00011 0.00014,-0.0001l0.00001 -0.00006zm0.00001 -0.00018l-0.00076 0 0 0.00006c0.00007,-0 0.00011,0.00003 0.00012,0.0001l0.00049 0.00001c0.00001,-0.00007 0.00006,-0.00011 0.00014,-0.0001l0.00001 -0.00006zm0.00082 0.00032l-0.0004 0 0.00006 0.0009 0.00029 -0.00009 0.00005 -0.00081zm0.0002 -0.00015l-0.00076 0 0 0.00006c0.00007,-0 0.00011,0.00003 0.00012,0.0001l0.00049 0.00001c0.00001,-0.00007 0.00006,-0.00011 0.00014,-0.0001l0.00001 -0.00006zm0.00001 -0.00018l-0.00076 0 0 0.00006c0.00007,-0 0.00011,0.00003 0.00012,0.0001l0.00049 0.00001c0.00001,-0.00007 0.00006,-0.00011 0.00014,-0.0001l0.00001 -0.00006zm-0.00262 0.00036l0.00033 0 -0.00001 0.00149 -0.00026 -0.0002 -0.00006 -0.00129zm-0.00023 -0.00015l0.00076 0 0 0.00006c-0.00007,-0 -0.00011,0.00003 -0.00012,0.0001l-0.00049 0.00001c-0.00001,-0.00007 -0.00006,-0.00011 -0.00014,-0.0001l-0.00001 -0.00006zm-0.00001 -0.00018l0.00076 0 0 0.00006c-0.00007,-0 -0.00011,0.00003 -0.00012,0.0001l-0.00049 0.00001c-0.00001,-0.00007 -0.00005,-0.00011 -0.00014,-0.0001l-0.00001 -0.00006zm-0.00082 0.00032l0.0004 0 -0.00006 0.0009 -0.00029 -0.00009 -0.00005 -0.00081zm-0.0002 -0.00015l0.00076 0 0 0.00006c-0.00007,-0 -0.00011,0.00003 -0.00012,0.0001l-0.00049 0.00001c-0.00001,-0.00007 -0.00006,-0.00011 -0.00014,-0.0001l-0.00001 -0.00006zm-0.00001 -0.00018l0.00076 0 0 0.00006c-0.00007,-0 -0.00011,0.00003 -0.00012,0.0001l-0.00049 0.00001c-0.00001,-0.00007 -0.00006,-0.00011 -0.00014,-0.0001l-0.00001 -0.00006zm-0.00001 -0.00035l0.00384 0 0 0.0002 -0.00384 0 0 -0.0002zm0.00195 -0.0011l0.00183 0.00093 -0.00373 0 0.0019 -0.00093z"/>
 </g>
</svg>
