<?xml version="1.0" encoding="UTF-8"?>
<!DOCTYPE svg PUBLIC "-//W3C//DTD SVG 1.1//EN" "http://www.w3.org/Graphics/SVG/1.1/DTD/svg11.dtd">
<!-- Creator: CorelDRAW 2020 (64-Bit) -->
<svg xmlns="http://www.w3.org/2000/svg" xml:space="preserve" width="0.495102in" height="0.116665in" version="1.1" style="shape-rendering:geometricPrecision; text-rendering:geometricPrecision; image-rendering:optimizeQuality; fill-rule:evenodd; clip-rule:evenodd"
viewBox="0 0 0.01245 0.00293"
 xmlns:xlink="http://www.w3.org/1999/xlink"
 xmlns:xodm="http://www.corel.com/coreldraw/odm/2003">
 <defs>
  <style type="text/css">
   <![CDATA[
    .fil0 {fill:#AAAAAA}
   ]]>
  </style>
 </defs>
 <g id="Layer_x0020_1">
  <metadata id="CorelCorpID_0Corel-Layer"/>
  <path class="fil0" d="M0.01231 0.00254c0,-0.00005 0.00001,-0.00014 0.00002,-0.00028 0.00001,-0.00013 0.00001,-0.00025 0.00001,-0.00034 0.00003,0 0.00005,0 0.00006,0 0.00002,0 0.00004,-0 0.00006,-0l-0.00001 0.00017 -0.00001 0.00037 -0 0.00008c-0.00002,-0 -0.00004,-0 -0.00006,-0 -0.00001,0 -0.00003,0 -0.00006,0zm-0.00033 0l0.00001 -0.00022 0 -0.00013c0,-0.00003 0,-0.00005 0,-0.00008 0,-0 -0,-0.00002 -0,-0.00004 0.00003,0 0.00004,0 0.00006,0 0.00001,0 0.00003,-0 0.00006,-0l-0 0.00006c0.00001,-0.00002 0.00002,-0.00003 0.00003,-0.00004 0.00001,-0.00001 0.00002,-0.00001 0.00003,-0.00002 0.00001,-0.00001 0.00002,-0.00001 0.00003,-0.00001 0.00001,-0 0.00002,-0 0.00004,-0 0.00001,0 0.00002,0 0.00003,0 0,0.00003 0,0.00006 0,0.00011 -0.00002,-0.00001 -0.00003,-0.00001 -0.00004,-0.00001 -0.00002,0 -0.00003,0 -0.00004,0.00001 -0.00001,0.00001 -0.00002,0.00001 -0.00003,0.00002 -0.00001,0.00001 -0.00002,0.00002 -0.00002,0.00004 -0.00001,0.00001 -0.00001,0.00003 -0.00001,0.00005 -0,0.00002 -0,0.00004 -0.00001,0.00008 -0,0.00004 -0,0.00008 -0,0.00011 0,0.00001 0,0.00003 0,0.00005 -0.00002,-0 -0.00004,-0 -0.00006,-0 -0.00002,0 -0.00004,0 -0.00006,0zm-0.00021 -0.00052c-0.00002,-0 -0.00003,-0 -0.00004,-0 -0.00002,0 -0.00003,0 -0.00005,0l-0.00003 -0.00005c-0.00001,-0.00002 -0.00002,-0.00004 -0.00004,-0.00006 0.00003,0 0.00005,0 0.00006,0 0.00002,0 0.00004,-0 0.00006,-0l0.00001 0.00003c0,0.00001 0.00001,0.00002 0.00001,0.00004l0.00001 0.00004zm-0.00024 0.00016c0,-0.00002 0.00001,-0.00004 0.00001,-0.00005 0,-0.00001 0,-0.00002 0.00001,-0.00004 0.00004,-0.00001 0.00007,-0.00002 0.0001,-0.00002 0.00003,-0 0.00006,-0.00001 0.00008,-0.00001 0.00003,0 0.00006,0 0.00008,0.00001 0.00003,0.00001 0.00005,0.00002 0.00006,0.00004 0.00001,0.00002 0.00002,0.00004 0.00002,0.00007 0,0.00002 -0,0.00006 -0.00001,0.00013 -0,0.00007 -0.00001,0.00014 -0.00001,0.00022 -0.00002,-0 -0.00004,-0 -0.00006,-0 -0.00002,0 -0.00004,0 -0.00006,0 0,-0.00004 0.00001,-0.00008 0.00001,-0.00013l0.00001 -0.00011c-0.00001,0.00001 -0.00002,0.00001 -0.00002,0.00002 -0.00001,0 -0.00001,0.00001 -0.00002,0.00001 -0.00001,0 -0.00002,0.00001 -0.00004,0.00001 -0.00002,0.00001 -0.00003,0.00001 -0.00004,0.00001 -0.00001,0 -0.00002,0.00001 -0.00003,0.00001 -0.00001,0.00001 -0.00002,0.00001 -0.00002,0.00002 -0.00001,0.00001 -0.00001,0.00001 -0.00001,0.00002 -0,0.00001 -0,0.00001 -0,0.00002 0,0.00001 0,0.00002 0.00001,0.00003 0.00001,0.00001 0.00002,0.00002 0.00003,0.00002 0.00001,0 0.00002,0.00001 0.00004,0.00001 0.00001,0 0.00002,-0 0.00003,-0 0.00001,-0 0.00002,-0.00001 0.00004,-0.00001 -0.00001,0.00002 -0.00001,0.00004 -0.00002,0.00008 -0.00002,0 -0.00004,0.00001 -0.00005,0.00001 -0.00001,0 -0.00002,0 -0.00003,0 -0.00003,0 -0.00006,-0.00001 -0.00009,-0.00002 -0.00002,-0.00001 -0.00004,-0.00003 -0.00005,-0.00005 -0.00001,-0.00002 -0.00002,-0.00004 -0.00002,-0.00007 0,-0.00001 0,-0.00003 0.00001,-0.00004 0,-0.00001 0.00001,-0.00002 0.00002,-0.00003 0.00001,-0.00001 0.00002,-0.00002 0.00003,-0.00003 0.00001,-0.00001 0.00003,-0.00002 0.00006,-0.00003 0.00002,-0.00001 0.00006,-0.00002 0.0001,-0.00003 0.00001,-0 0.00002,-0.00001 0.00003,-0.00001 0.00001,-0 0.00002,-0.00001 0.00003,-0.00001 0.00001,-0 0.00001,-0.00001 0.00002,-0.00001 0,-0.00001 0.00001,-0.00001 0.00001,-0.00002 0,-0.00001 0,-0.00001 0,-0.00002 0,-0.00001 -0,-0.00002 -0.00001,-0.00003 -0.00001,-0.00001 -0.00002,-0.00001 -0.00003,-0.00002 -0.00001,-0 -0.00002,-0 -0.00004,-0 -0.00005,0 -0.00011,0.00001 -0.00017,0.00004zm-0.00047 0.00035c-0,-0.00005 -0.00001,-0.00008 -0.00001,-0.00011 0.00005,0.00003 0.0001,0.00004 0.00015,0.00004 0.00002,0 0.00003,-0 0.00005,-0.00001 0.00002,-0.00001 0.00003,-0.00001 0.00003,-0.00002 0.00001,-0.00001 0.00001,-0.00002 0.00001,-0.00004 0,-0.00001 -0,-0.00002 -0.00001,-0.00003 -0.00001,-0.00001 -0.00001,-0.00002 -0.00003,-0.00003 -0.00002,-0.00002 -0.00004,-0.00004 -0.00008,-0.00008 -0.00002,-0.00002 -0.00003,-0.00003 -0.00004,-0.00004 -0.00002,-0.00002 -0.00003,-0.00003 -0.00004,-0.00005 -0.00001,-0.00001 -0.00002,-0.00003 -0.00002,-0.00004 -0,-0.00001 -0.00001,-0.00003 -0.00001,-0.00004 0,-0.00003 0.00001,-0.00006 0.00002,-0.00008 0.00001,-0.00003 0.00004,-0.00004 0.00007,-0.00006 0.00003,-0.00001 0.00007,-0.00002 0.00011,-0.00002 0.00004,0 0.00008,0.00001 0.00013,0.00002 0,0.00003 0,0.00007 0.00001,0.00011 -0.00004,-0.00002 -0.00008,-0.00003 -0.00012,-0.00003 -0.00003,0 -0.00005,0.00001 -0.00007,0.00002 -0.00002,0.00001 -0.00003,0.00003 -0.00003,0.00005 0,0 0,0.00001 0,0.00002 0,0.00001 0,0.00001 0.00001,0.00002 0,0.00001 0.00001,0.00001 0.00001,0.00002 0.00001,0.00001 0.00002,0.00002 0.00003,0.00003 0.00001,0.00001 0.00002,0.00002 0.00003,0.00003l0.00005 0.00005c0.00001,0.00001 0.00002,0.00002 0.00003,0.00003 0.00001,0.00001 0.00002,0.00002 0.00003,0.00003 0.00001,0.00001 0.00001,0.00002 0.00002,0.00003 0,0.00001 0.00001,0.00002 0.00001,0.00003 0,0.00001 0,0.00002 0,0.00003 0,0.00003 -0.00001,0.00005 -0.00002,0.00007 -0.00001,0.00002 -0.00003,0.00004 -0.00005,0.00006 -0.00002,0.00001 -0.00004,0.00002 -0.00007,0.00003 -0.00002,0.00001 -0.00005,0.00001 -0.00008,0.00001 -0.00002,0 -0.00004,-0 -0.00006,-0.00001 -0.00002,-0 -0.00005,-0.00001 -0.00009,-0.00002zm-0.00253 -0.00211c0,0 0,0.00001 -0,0.00001 -0,0.00001 -0,0.00001 -0,0.00002 -0,0.00001 -0,0.00001 -0,0.00002 -0,0.00001 -0,0.00001 -0.00001,0.00002 -0,0.00001 -0.00001,0.00001 -0.00001,0.00001 -0,0 -0.00001,0 -0.00001,0l-0.00038 0 -0.00006 0.0003 0.00033 0c0.00001,0 0.00001,0 0.00001,0.00001 0,0 0,0.00001 0,0.00002 0,0 -0,0.00001 -0,0.00001 -0,0.00001 -0,0.00001 -0,0.00002 -0,0.00001 -0,0.00001 -0,0.00002 -0,0.00001 -0,0.00001 -0.00001,0.00002 -0,0 -0.00001,0.00001 -0.00001,0.00001 -0,0 -0.00001,0 -0.00001,0l-0.00033 0 -0.00007 0.00034 0.00039 0c0,0 0.00001,0 0.00001,0.00001 0,0 0,0.00001 0,0.00002 0,0 -0,0.00001 -0,0.00001 -0,0.00001 -0,0.00001 -0,0.00002 -0,0.00001 -0,0.00001 -0,0.00002 -0,0.00001 -0,0.00001 -0.00001,0.00002 -0,0.00001 -0.00001,0.00001 -0.00001,0.00001 -0,0 -0.00001,0 -0.00001,0l-0.00047 0c-0.00001,0 -0.00001,-0 -0.00002,-0 -0.00001,-0 -0.00001,-0 -0.00001,-0.00001 -0,-0 -0.00001,-0.00001 -0.00001,-0.00002 -0,-0.00001 -0,-0.00001 0,-0.00002l0.00018 -0.00085c0,-0.00002 0.00001,-0.00003 0.00002,-0.00004 0.00001,-0.00001 0.00002,-0.00001 0.00004,-0.00001l0.00046 0c0.00001,0 0.00002,0.00001 0.00002,0.00002zm-0.00073 0.00007c0,0.00001 -0,0.00002 -0.00001,0.00004 -0,0.00002 -0.00001,0.00003 -0.00001,0.00004 -0.00001,0.00001 -0.00001,0.00001 -0.00002,0.00001 -0.00001,0 -0.00002,-0 -0.00003,-0.00001 -0.00001,-0.00001 -0.00002,-0.00002 -0.00004,-0.00003 -0.00002,-0.00001 -0.00004,-0.00002 -0.00006,-0.00003 -0.00003,-0.00001 -0.00006,-0.00001 -0.0001,-0.00001 -0.00004,0 -0.00008,0.00001 -0.00012,0.00002 -0.00003,0.00002 -0.00007,0.00004 -0.00009,0.00006 -0.00003,0.00003 -0.00005,0.00006 -0.00007,0.00009 -0.00002,0.00003 -0.00004,0.00007 -0.00005,0.00011 -0.00001,0.00004 -0.00002,0.00008 -0.00003,0.00011 -0.00001,0.00004 -0.00001,0.00008 -0.00001,0.00011 0,0.00004 0.00001,0.00007 0.00002,0.00011 0.00001,0.00003 0.00002,0.00006 0.00004,0.00008 0.00002,0.00002 0.00004,0.00004 0.00007,0.00005 0.00003,0.00001 0.00006,0.00002 0.0001,0.00002 0.00004,0 0.00007,-0 0.0001,-0.00001 0.00003,-0.00001 0.00005,-0.00002 0.00007,-0.00003 0.00002,-0.00001 0.00004,-0.00002 0.00005,-0.00003 0.00001,-0.00001 0.00002,-0.00001 0.00003,-0.00001 0.00001,0 0.00001,0 0.00001,0.00001 0,0 0,0.00001 0,0.00002 0,0 -0,0.00001 -0,0.00001 -0,0 -0,0.00001 -0,0.00002 -0,0.00001 -0,0.00001 -0,0.00002 -0,0.00001 -0,0.00001 -0,0.00002 -0,0.00001 -0,0.00001 -0.00001,0.00002 -0,0 -0.00001,0.00001 -0.00001,0.00001 -0.00001,0 -0.00002,0.00001 -0.00003,0.00002 -0.00002,0.00001 -0.00004,0.00002 -0.00006,0.00003 -0.00002,0.00001 -0.00005,0.00002 -0.00008,0.00002 -0.00003,0.00001 -0.00006,0.00001 -0.0001,0.00001 -0.00005,0 -0.0001,-0.00001 -0.00014,-0.00002 -0.00004,-0.00002 -0.00008,-0.00004 -0.00011,-0.00007 -0.00003,-0.00003 -0.00005,-0.00007 -0.00007,-0.00011 -0.00002,-0.00004 -0.00002,-0.00009 -0.00002,-0.00015 0,-0.00005 0.00001,-0.0001 0.00002,-0.00014 0.00001,-0.00005 0.00002,-0.0001 0.00004,-0.00014 0.00002,-0.00005 0.00004,-0.00009 0.00007,-0.00013 0.00003,-0.00004 0.00006,-0.00008 0.0001,-0.00011 0.00004,-0.00003 0.00008,-0.00006 0.00013,-0.00007 0.00005,-0.00002 0.0001,-0.00003 0.00016,-0.00003 0.00004,0 0.00007,0 0.0001,0.00001 0.00003,0.00001 0.00006,0.00002 0.00008,0.00003 0.00002,0.00001 0.00004,0.00002 0.00005,0.00003 0.00001,0.00001 0.00002,0.00002 0.00002,0.00003zm-0.00106 0.00081c-0,0.00001 -0,0.00002 -0.00001,0.00002 -0,0.00001 -0.00001,0.00001 -0.00002,0.00002 -0.00001,0 -0.00001,0.00001 -0.00002,0.00001 -0.00001,0 -0.00001,0 -0.00002,0l-0.00005 0c-0.00001,0 -0.00002,-0 -0.00003,-0 -0.00001,-0 -0.00002,-0.00001 -0.00002,-0.00002 -0.00001,-0.00001 -0.00001,-0.00002 -0.00002,-0.00003 -0.00001,-0.00001 -0.00001,-0.00003 -0.00002,-0.00004l-0.00018 -0.00051c-0.00001,-0.00004 -0.00003,-0.00007 -0.00004,-0.00011 -0.00001,-0.00004 -0.00002,-0.00007 -0.00004,-0.00011l-0 0c-0.00001,0.00004 -0.00001,0.00008 -0.00002,0.00012 -0.00001,0.00004 -0.00002,0.00008 -0.00002,0.00012l-0.00011 0.00056c-0,0 -0,0.00001 -0.00001,0.00001 -0,0 -0.00001,0.00001 -0.00001,0.00001 -0.00001,0 -0.00001,0 -0.00002,0 -0.00001,0 -0.00002,0 -0.00003,0 -0.00001,0 -0.00002,-0 -0.00003,-0 -0.00001,-0 -0.00001,-0 -0.00002,-0 -0,-0 -0.00001,-0 -0.00001,-0.00001 -0,-0 -0,-0.00001 -0,-0.00001l0.00018 -0.00088c0,-0.00002 0.00001,-0.00003 0.00003,-0.00004 0.00001,-0.00001 0.00003,-0.00001 0.00004,-0.00001l0.00006 0c0.00001,0 0.00002,0 0.00003,0 0.00001,0 0.00002,0.00001 0.00002,0.00001 0.00001,0.00001 0.00001,0.00001 0.00002,0.00002 0.00001,0.00001 0.00001,0.00002 0.00002,0.00004l0.00019 0.00052c0.00001,0.00003 0.00002,0.00006 0.00003,0.0001 0.00001,0.00003 0.00002,0.00006 0.00003,0.0001l0 0c0.00001,-0.00004 0.00001,-0.00008 0.00002,-0.00013 0.00001,-0.00004 0.00002,-0.00009 0.00002,-0.00013l0.00011 -0.00052c0,-0 0,-0.00001 0.00001,-0.00001 0,-0 0.00001,-0.00001 0.00001,-0.00001 0.00001,-0 0.00001,-0 0.00002,-0 0.00001,-0 0.00002,-0 0.00003,-0 0.00001,0 0.00002,0 0.00003,0 0.00001,0 0.00001,0 0.00002,0 0,0 0.00001,0 0.00001,0.00001 0,0 0,0.00001 0,0.00001l-0.00018 0.00088zm-0.00116 -0.00078l-0 0 -0.00026 0.00048 0.00034 0 -0.00007 -0.00048zm0.00026 0.00079c0,0.00001 0,0.00002 0,0.00003 -0,0.00001 -0,0.00001 -0.00001,0.00002 -0,0 -0.00001,0.00001 -0.00002,0.00001 -0.00001,0 -0.00002,0 -0.00004,0 -0.00001,0 -0.00002,-0 -0.00003,-0 -0.00001,-0 -0.00001,-0 -0.00002,-0 -0,-0 -0.00001,-0 -0.00001,-0.00001 -0,-0 -0,-0.00001 -0,-0.00001l-0.00004 -0.00023 -0.00041 0 -0.00013 0.00023c-0,0.00001 -0.00001,0.00001 -0.00001,0.00001 -0,0 -0.00001,0.00001 -0.00001,0.00001 -0.00001,0 -0.00001,0 -0.00002,0 -0.00001,0 -0.00002,0 -0.00003,0 -0.00002,0 -0.00003,-0 -0.00004,-0 -0.00001,-0 -0.00002,-0 -0.00002,-0.00001 -0,-0 -0,-0.00001 -0,-0.00002 0,-0.00001 0.00001,-0.00002 0.00001,-0.00003l0.00051 -0.00089c0,-0.00001 0.00001,-0.00001 0.00001,-0.00001 0,-0 0.00001,-0.00001 0.00002,-0.00001 0.00001,-0 0.00001,-0 0.00003,-0 0.00001,-0 0.00002,-0 0.00004,-0 0.00002,0 0.00003,0 0.00004,0 0.00001,0 0.00002,0 0.00002,0 0.00001,0 0.00001,0 0.00001,0.00001 0,0 0,0.00001 0.00001,0.00001l0.00015 0.00089zm-0.001 0.00003c-0,0 -0,0.00001 -0,0.00001 -0,0 -0.00001,0.00001 -0.00001,0.00001 -0.00001,0 -0.00001,0 -0.00002,0 -0.00001,0 -0.00002,0 -0.00003,0 -0.00001,0 -0.00002,-0 -0.00003,-0 -0.00001,-0 -0.00001,-0 -0.00002,-0 -0,-0 -0.00001,-0 -0.00001,-0.00001 -0,-0 -0,-0.00001 -0,-0.00001l0.00019 -0.00092c0,-0 0,-0.00001 0.00001,-0.00001 0,-0 0.00001,-0.00001 0.00001,-0.00001 0.00001,-0 0.00001,-0 0.00002,-0 0.00001,-0 0.00002,-0 0.00003,-0 0.00001,0 0.00002,0 0.00003,0 0.00001,0 0.00001,0 0.00002,0 0,0 0.00001,0 0.00001,0.00001 0,0 0,0.00001 0,0.00001l-0.00019 0.00092zm-0.00026 -0.00007c0,0 -0,0.00001 -0,0.00001 -0,0.00001 -0,0.00001 -0,0.00002 -0,0.00001 -0,0.00001 -0,0.00002 -0,0.00001 -0,0.00001 -0.00001,0.00002 -0,0.00001 -0.00001,0.00001 -0.00001,0.00001 -0,0 -0.00001,0.00001 -0.00001,0.00001l-0.00043 0c-0.00001,0 -0.00001,-0 -0.00002,-0 -0.00001,-0 -0.00001,-0 -0.00001,-0.00001 -0,-0 -0.00001,-0.00001 -0.00001,-0.00002 -0,-0.00001 -0,-0.00001 0,-0.00002l0.00018 -0.00089c0,-0 0,-0.00001 0.00001,-0.00001 0,-0 0.00001,-0.00001 0.00001,-0.00001 0.00001,-0 0.00001,-0 0.00002,-0 0.00001,-0 0.00002,-0 0.00003,-0 0.00001,0 0.00002,0 0.00003,0 0.00001,0 0.00001,0 0.00002,0 0,0 0.00001,0 0.00001,0.00001 0,0 0,0.00001 0,0.00001l-0.00017 0.00083 0.00035 0c0.00001,0 0.00001,0 0.00001,0.00001 0,0 0,0.00001 0,0.00002zm-0.00065 0c0,0 -0,0.00001 -0,0.00001 -0,0.00001 -0,0.00001 -0,0.00002 -0,0.00001 -0,0.00001 -0,0.00002 -0,0.00001 -0,0.00001 -0.00001,0.00002 -0,0.00001 -0.00001,0.00001 -0.00001,0.00001 -0,0 -0.00001,0.00001 -0.00001,0.00001l-0.00043 0c-0.00001,0 -0.00001,-0 -0.00002,-0 -0.00001,-0 -0.00001,-0 -0.00001,-0.00001 -0,-0 -0.00001,-0.00001 -0.00001,-0.00002 -0,-0.00001 -0,-0.00001 0,-0.00002l0.00018 -0.00089c0,-0 0,-0.00001 0.00001,-0.00001 0,-0 0.00001,-0.00001 0.00001,-0.00001 0.00001,-0 0.00001,-0 0.00002,-0 0.00001,-0 0.00002,-0 0.00003,-0 0.00001,0 0.00002,0 0.00003,0 0.00001,0 0.00001,0 0.00002,0 0,0 0.00001,0 0.00001,0.00001 0,0 0,0.00001 0,0.00001l-0.00017 0.00083 0.00035 0c0.00001,0 0.00001,0 0.00001,0.00001 0,0 0,0.00001 0,0.00002zm-0.00093 -0.00075l-0 0 -0.00026 0.00048 0.00034 0 -0.00007 -0.00048zm0.00026 0.00079c0,0.00001 0,0.00002 0,0.00003 -0,0.00001 -0,0.00001 -0.00001,0.00002 -0,0 -0.00001,0.00001 -0.00002,0.00001 -0.00001,0 -0.00002,0 -0.00004,0 -0.00001,0 -0.00002,-0 -0.00003,-0 -0.00001,-0 -0.00001,-0 -0.00002,-0 -0,-0 -0.00001,-0 -0.00001,-0.00001 -0,-0 -0,-0.00001 -0,-0.00001l-0.00004 -0.00023 -0.00041 0 -0.00013 0.00023c-0,0.00001 -0.00001,0.00001 -0.00001,0.00001 -0,0 -0.00001,0.00001 -0.00001,0.00001 -0.00001,0 -0.00001,0 -0.00002,0 -0.00001,0 -0.00002,0 -0.00003,0 -0.00002,0 -0.00003,-0 -0.00004,-0 -0.00001,-0 -0.00002,-0 -0.00002,-0.00001 -0,-0 -0,-0.00001 -0,-0.00002 0,-0.00001 0.00001,-0.00002 0.00001,-0.00003l0.00051 -0.00089c0,-0.00001 0.00001,-0.00001 0.00001,-0.00001 0,-0 0.00001,-0.00001 0.00002,-0.00001 0.00001,-0 0.00001,-0 0.00003,-0 0.00001,-0 0.00002,-0 0.00004,-0 0.00002,0 0.00003,0 0.00004,0 0.00001,0 0.00002,0 0.00002,0 0.00001,0 0.00001,0 0.00001,0.00001 0,0 0,0.00001 0.00001,0.00001l0.00015 0.00089zm0.00681 0.00123l0.00002 -0.00028 0.00001 -0.00033 0.00001 -0.0003 0 -0.0001c0.00011,0 0.00023,0 0.00035,0l0.00013 -0 0.00019 -0 -0.00001 0.00016 -0.00006 -0c-0.00002,-0 -0.00004,-0 -0.00007,-0 -0.00003,-0 -0.00006,-0 -0.00009,-0 -0.00007,0 -0.00011,0 -0.00014,0 -0.00002,0 -0.00005,0 -0.00009,0l-0.00001 0.00026c0.00006,0 0.00012,0 0.00019,0 0.00004,0 0.00012,-0 0.00022,-0 -0,0.00004 -0.00001,0.0001 -0.00001,0.00016 -0.00012,-0 -0.00019,-0 -0.00021,-0 -0.00005,0 -0.00012,0 -0.0002,0l-0.00001 0.00028 0.00007 0c0.00002,0 0.00007,-0 0.00015,-0l0.00015 -0 0.0001 -0.00001c-0,0.00006 -0.00001,0.00011 -0.00001,0.00016 -0.00012,-0 -0.00022,-0 -0.00031,-0l-0.00022 0 -0.00013 0zm-0.00052 -0.00057c0.00006,0 0.00012,0 0.00018,0 0.00007,0 0.00014,-0 0.00018,-0 -0.00001,0.00016 -0.00002,0.00035 -0.00002,0.00055 -0.00007,0.00002 -0.00014,0.00003 -0.0002,0.00003 -0.00006,0.00001 -0.00011,0.00001 -0.00015,0.00001 -0.00008,0 -0.00015,-0.00001 -0.00022,-0.00003 -0.00007,-0.00002 -0.00012,-0.00005 -0.00017,-0.00009 -0.00005,-0.00004 -0.00008,-0.00009 -0.00011,-0.00016 -0.00002,-0.00007 -0.00004,-0.00014 -0.00004,-0.00021 0,-0.00006 0.00001,-0.00012 0.00003,-0.00018 0.00002,-0.00006 0.00004,-0.00011 0.00008,-0.00016 0.00004,-0.00005 0.00008,-0.00009 0.00013,-0.00012 0.00005,-0.00003 0.0001,-0.00005 0.00016,-0.00007 0.00006,-0.00001 0.00012,-0.00002 0.00018,-0.00002 0.00009,0 0.00019,0.00001 0.0003,0.00004 0,0.00006 0,0.00011 0.00001,0.00017 -0.00011,-0.00004 -0.0002,-0.00006 -0.00029,-0.00006 -0.00005,0 -0.00011,0.00001 -0.00016,0.00003 -0.00005,0.00002 -0.00009,0.00004 -0.00013,0.00008 -0.00004,0.00004 -0.00006,0.00008 -0.00008,0.00013 -0.00002,0.00005 -0.00003,0.00011 -0.00003,0.00017 0,0.00006 0.00001,0.00012 0.00003,0.00017 0.00002,0.00005 0.00006,0.00009 0.00011,0.00012 0.00005,0.00003 0.00011,0.00004 0.00017,0.00004 0.00002,0 0.00005,-0 0.00008,-0.00001 0.00003,-0 0.00007,-0.00001 0.0001,-0.00002l0.00001 -0.00026 -0.00005 -0c-0.00003,0 -0.00007,0 -0.00011,0 0,-0.00007 0.00001,-0.00012 0.00001,-0.00015zm-0.00125 0.00006l0.00026 0 -0.00011 -0.00034 -0.00005 0.00012 -0.0001 0.00022zm-0.00044 0.00051c0.00005,-0.00009 0.0001,-0.0002 0.00016,-0.00034l0.00018 -0.00037c0.00006,-0.00011 0.0001,-0.00021 0.00014,-0.0003 0.00006,0 0.0001,0 0.00012,0 0.00004,0 0.00008,-0 0.00012,-0l0.0001 0.0003 0.00021 0.00062 0.00003 0.00008 -0.0001 -0c-0.00002,0 -0.00006,0 -0.00012,0 -0.00001,-0.00004 -0.00003,-0.0001 -0.00005,-0.00018 -0.00002,-0.00007 -0.00004,-0.00013 -0.00006,-0.00018l-0.00035 0c-0.00005,0.00012 -0.0001,0.00024 -0.00015,0.00036l-0.00011 -0c-0.00002,0 -0.00006,0 -0.00012,0zm-0.00066 0c0.00001,-0.0001 0.00001,-0.00017 0.00002,-0.00023 0,-0.0001 0.00001,-0.00024 0.00002,-0.00042 0,-0.00013 0.00001,-0.00023 0.00001,-0.00028l0 -0.00007c0.00013,0 0.00024,0 0.00034,0l0.00019 -0 0.00011 -0c-0,0.00007 -0.00001,0.00013 -0.00001,0.00016l-0.0001 -0 -0.00004 -0 -0.00005 0 -0.0001 0 -0.00014 0 -0.00001 0.00027 0.00011 0c0.00009,0 0.00014,-0 0.00017,-0l0.00009 -0c-0,0.00006 -0.00001,0.00011 -0.00001,0.00016 -0.00008,-0 -0.00014,-0 -0.00019,-0 -0.00006,0 -0.00012,0 -0.00019,0l-0.00001 0.00032 -0 0.00007 0 0.00004 -0.0001 -0c-0.00001,0 -0.00004,0 -0.00011,0zm-0.00079 0c0.00001,-0.0001 0.00001,-0.00017 0.00002,-0.00023 0,-0.0001 0.00001,-0.00024 0.00002,-0.00042 0,-0.00013 0.00001,-0.00023 0.00001,-0.00028l0 -0.00007c0.00013,0 0.00024,0 0.00034,0l0.00019 -0 0.00011 -0c-0,0.00007 -0.00001,0.00013 -0.00001,0.00016l-0.0001 -0 -0.00004 -0 -0.00005 0 -0.0001 0 -0.00014 0 -0.00001 0.00027 0.00011 0c0.00009,0 0.00014,-0 0.00017,-0l0.00009 -0c-0,0.00006 -0.00001,0.00011 -0.00001,0.00016 -0.00008,-0 -0.00014,-0 -0.00019,-0 -0.00006,0 -0.00012,0 -0.00019,0l-0.00001 0.00032 -0 0.00007 0 0.00004 -0.0001 -0c-0.00001,0 -0.00004,0 -0.00011,0zm-0.001 -0.00101c0.00005,0 0.00009,0 0.00011,0 0.00002,0 0.00006,-0 0.0001,-0l-0.00003 0.00059c-0,0.00001 -0,0.00001 -0,0.00002 0,0.00007 0.00001,0.00012 0.00003,0.00015 0.00002,0.00003 0.00004,0.00006 0.00008,0.00007 0.00003,0.00002 0.00007,0.00002 0.00011,0.00002 0.00003,0 0.00005,-0 0.00008,-0.00001 0.00002,-0.00001 0.00004,-0.00001 0.00005,-0.00002 0.00001,-0.00001 0.00003,-0.00002 0.00004,-0.00003 0.00001,-0.00001 0.00002,-0.00003 0.00003,-0.00005 0.00001,-0.00002 0.00001,-0.00004 0.00002,-0.00006 0.00001,-0.00003 0.00001,-0.0001 0.00002,-0.00018l0.00001 -0.00026c0,-0.00007 0.00001,-0.00016 0.00001,-0.00025 0.00005,0 0.00009,0 0.00011,0l0.0001 -0 -0.00002 0.00036 -0.00001 0.00028c-0,0.00007 -0.00001,0.00012 -0.00002,0.00015 -0.00001,0.00003 -0.00002,0.00005 -0.00003,0.00008 -0.00001,0.00002 -0.00003,0.00004 -0.00004,0.00006 -0.00002,0.00002 -0.00005,0.00004 -0.00008,0.00005 -0.00003,0.00002 -0.00007,0.00003 -0.00011,0.00004 -0.00005,0.00001 -0.00011,0.00002 -0.00016,0.00002 -0.00006,0 -0.00011,-0.00001 -0.00016,-0.00002 -0.00004,-0.00001 -0.00008,-0.00003 -0.00012,-0.00005 -0.00004,-0.00002 -0.00006,-0.00004 -0.00008,-0.00007 -0.00002,-0.00002 -0.00003,-0.00005 -0.00004,-0.00008 -0.00001,-0.00003 -0.00002,-0.00007 -0.00002,-0.00012 0,-0.00001 0,-0.00003 0,-0.00006 0,-0.00002 0,-0.00005 0,-0.00009l0.00001 -0.0001c0,-0.00003 0,-0.00008 0.00001,-0.00014l0.00001 -0.00016c0,-0.00004 0,-0.00009 0,-0.00015zm-0.00075 0.00049l0.00026 0 -0.00011 -0.00034 -0.00005 0.00012 -0.0001 0.00022zm-0.00044 0.00051c0.00005,-0.00009 0.0001,-0.0002 0.00016,-0.00034l0.00018 -0.00037c0.00006,-0.00011 0.0001,-0.00021 0.00014,-0.0003 0.00006,0 0.0001,0 0.00012,0 0.00004,0 0.00008,-0 0.00012,-0l0.0001 0.0003 0.00021 0.00062 0.00003 0.00008 -0.0001 -0c-0.00002,0 -0.00006,0 -0.00012,0 -0.00001,-0.00004 -0.00003,-0.0001 -0.00005,-0.00018 -0.00002,-0.00007 -0.00004,-0.00013 -0.00006,-0.00018l-0.00035 0c-0.00005,0.00012 -0.0001,0.00024 -0.00015,0.00036l-0.00011 -0c-0.00002,0 -0.00006,0 -0.00012,0zm-0.00094 0l0.00002 -0.00026c0.00001,-0.00014 0.00001,-0.00028 0.00002,-0.0004 0,-0.00012 0.00001,-0.00021 0.00001,-0.00026l-0 -0.00008c0.00005,0 0.00009,0 0.00011,0 0.00002,0 0.00005,-0 0.0001,-0l-0.00002 0.00033 -0 0.00008 0.00045 0 0.00001 -0.0002c0,-0.00007 0,-0.00011 0,-0.00014l0 -0.00007 0.00011 0c0.00001,0 0.00004,-0 0.0001,-0l-0.00002 0.0004 -0.00001 0.0003 -0 0.00017c-0,0.00007 -0,0.00012 -0,0.00013l-0.0001 -0c-0.00001,0 -0.00005,0 -0.00011,0 0.00001,-0.00014 0.00002,-0.00029 0.00002,-0.00044l-0.00046 0 -0.00001 0.00027 -0 0.00017 -0.00011 -0c-0.00001,0 -0.00005,0 -0.0001,0zm-0.00014 -0.00018c-0.00001,0.00006 -0.00002,0.00012 -0.00003,0.00017 -0.00005,0.00001 -0.0001,0.00002 -0.00014,0.00002 -0.00004,0 -0.00008,0.00001 -0.00011,0.00001 -0.00007,0 -0.00013,-0.00001 -0.00019,-0.00003 -0.00006,-0.00002 -0.00012,-0.00005 -0.00016,-0.0001 -0.00005,-0.00004 -0.00008,-0.0001 -0.00011,-0.00016 -0.00002,-0.00006 -0.00003,-0.00013 -0.00003,-0.00021 0,-0.00008 0.00001,-0.00016 0.00004,-0.00023 0.00003,-0.00007 0.00006,-0.00013 0.00011,-0.00018 0.00005,-0.00005 0.00011,-0.00008 0.00018,-0.00011 0.00007,-0.00002 0.00014,-0.00003 0.00021,-0.00003 0.00007,0 0.00015,0.00001 0.00024,0.00003 0,0.00004 0,0.00007 0,0.00009l0 0.00008c-0.00005,-0.00002 -0.00009,-0.00003 -0.00013,-0.00003 -0.00003,-0.00001 -0.00007,-0.00001 -0.0001,-0.00001 -0.00005,0 -0.00009,0.00001 -0.00014,0.00002 -0.00004,0.00002 -0.00008,0.00004 -0.00012,0.00008 -0.00003,0.00003 -0.00006,0.00008 -0.00008,0.00013 -0.00002,0.00005 -0.00003,0.0001 -0.00003,0.00015 0,0.00006 0.00001,0.00012 0.00003,0.00017 0.00002,0.00005 0.00006,0.00009 0.00011,0.00012 0.00005,0.00003 0.00011,0.00005 0.00018,0.00005 0.00007,0 0.00015,-0.00001 0.00024,-0.00004zm-0.0027 -0.00141c-0.00018,0.00101 0.00091,0.00093 0.00083,0.00186 -0.00008,0.00001 -0.00016,0.00001 -0.00023,0.00002 -0.00018,0.00001 -0.00044,-0.00001 -0.00064,-0.00011 -0.0005,-0.00052 -0.00049,-0.00111 0.00003,-0.00177zm0.00015 -0.00094c0.00022,0.00043 -0.00018,0.00049 -0.00015,0.00086 -0.00031,-0.00052 0.00009,-0.00047 0.00015,-0.00086zm-0.0005 0.00232c-0.00008,0.00024 0.00002,0.00038 0.00019,0.00047 0.00035,0.00019 0.0011,0.00019 0.00146,0.00002 0.0002,-0.0001 0.00037,-0.00032 0.00015,-0.00052 0.00008,0.00047 -0.00055,0.00052 -0.00084,0.00053 -0.00032,0.00002 -0.00087,-0.00005 -0.00096,-0.0005zm0.00092 -0.0023c-0.00006,0.00015 -0.00004,0.00032 0.00004,0.0005 0.0001,0.00022 0.00034,0.00031 0.00055,0.00056 0.00031,0.00036 0.00037,0.00088 0.0002,0.00132 -0.00006,0.00016 -0.00011,0.00025 -0.00016,0.00031 -0.00008,0.00003 -0.00017,0.00006 -0.00025,0.00007 -0.00002,-0.00097 -0.00097,-0.00096 -0.00085,-0.00186 0.00004,-0.00029 0.00017,-0.0006 0.00048,-0.00091z"/>
 </g>
</svg>
