<?xml version="1.0" encoding="UTF-8"?>
<!DOCTYPE svg PUBLIC "-//W3C//DTD SVG 1.1//EN" "http://www.w3.org/Graphics/SVG/1.1/DTD/svg11.dtd">
<!-- Creator: CorelDRAW 2020 (64-Bit) -->
<svg xmlns="http://www.w3.org/2000/svg" xml:space="preserve" width="0.558858in" height="0.116665in" version="1.1" style="shape-rendering:geometricPrecision; text-rendering:geometricPrecision; image-rendering:optimizeQuality; fill-rule:evenodd; clip-rule:evenodd"
viewBox="0 0 0.01473 0.00307"
 xmlns:xlink="http://www.w3.org/1999/xlink"
 xmlns:xodm="http://www.corel.com/coreldraw/odm/2003">
 <defs>
  <style type="text/css">
   <![CDATA[
    .fil0 {fill:#AAAAAA}
   ]]>
  </style>
 </defs>
 <g id="Layer_x0020_1">
  <metadata id="CorelCorpID_0Corel-Layer"/>
  <path class="fil0" d="M0.01272 0.0018l0.00042 0 0.00033 -0.0017 -0.00041 0 -0.00034 0.0017zm0.00124 0.00045l0.00004 -0.00009 0.00072 -0.00156 -0.00036 0 -0.00025 0.00065 -0.00002 -0.00065 -0.00043 0 0.00017 0.00121 -0.0002 0.00035 -0.01361 0 0 0.00009 0.01395 0zm-0.00249 -0.00045l0.00047 0 0.00012 -0.00063 0.00029 0 0.00005 -0.00028 -0.00027 0 0.00006 -0.0003 0.00031 0 0.00007 -0.00029c-0.00026,0 -0.00052,0 -0.00079,0l-0.00032 0.00151zm0.00226 0.00085c0.00008,0 0.00012,0.00009 0.00012,0.00017 0,0.00009 -0.00004,0.00017 -0.00012,0.00017 -0.00008,0 -0.00012,-0.00007 -0.00012,-0.00017 0,-0.00009 0.00004,-0.00017 0.00012,-0.00017zm0 -0.00009c-0.00015,0 -0.00025,0.00011 -0.00025,0.00026 0,0.00015 0.00009,0.00026 0.00024,0.00026 0.00014,0 0.00025,-0.00009 0.00025,-0.00026 0,-0.00015 -0.00008,-0.00026 -0.00024,-0.00026zm-0.00183 0.00009c0.00001,-0 0.00002,-0 0.00005,-0 0.00005,0 0.00008,0.00002 0.00008,0.00007 0,0.00004 -0.00003,0.00007 -0.00009,0.00007l-0.00004 0 0 -0.00014zm-0.00011 0.00042l0.00011 0 0 -0.0002 0.00003 0c0.00005,0 0.00007,0.00002 0.00008,0.00008 0.00001,0.00006 0.00003,0.0001 0.00004,0.00012l0.00012 0c-0.00001,-0.00002 -0.00003,-0.00009 -0.00004,-0.00014 -0.00001,-0.00005 -0.00003,-0.00008 -0.00007,-0.00009l0 -0c0.00004,-0.00002 0.00009,-0.00006 0.00009,-0.00012 0,-0.00005 -0.00002,-0.00008 -0.00005,-0.00011 -0.00004,-0.00003 -0.00009,-0.00004 -0.00016,-0.00004 -0.00006,0 -0.00012,0 -0.00015,0.00001l0 0.0005zm-0.0015 -0.00053c0.00003,0 0.00005,-0.00002 0.00005,-0.00005 0,-0.00003 -0.00002,-0.00005 -0.00005,-0.00005 -0.00003,0 -0.00005,0.00002 -0.00005,0.00005 0,0.00003 0.00002,0.00005 0.00005,0.00005zm-0.00016 0c0.00003,0 0.00005,-0.00002 0.00005,-0.00005 0,-0.00003 -0.00002,-0.00005 -0.00005,-0.00005 -0.00003,0 -0.00005,0.00002 -0.00005,0.00005 0,0.00003 0.00002,0.00005 0.00005,0.00005zm-0.00013 0.00003l0 0.00028c0,0.00016 0.00007,0.00023 0.0002,0.00023 0.00013,0 0.00021,-0.00007 0.00021,-0.00023l0 -0.00028 -0.00011 0 0 0.00029c0,0.00009 -0.00003,0.00013 -0.00009,0.00013 -0.00006,0 -0.00009,-0.00004 -0.00009,-0.00013l0 -0.00029 -0.00011 0zm-0.00162 0.00028l0.00004 0c0.00006,0 0.0001,0.00002 0.0001,0.00007 0,0.00005 -0.00005,0.00007 -0.0001,0.00007 -0.00002,0 -0.00003,0 -0.00004,-0l0 -0.00014zm0 -0.0002c0.00001,-0 0.00002,-0 0.00005,-0 0.00005,0 0.00008,0.00002 0.00008,0.00006 0,0.00004 -0.00003,0.00006 -0.00009,0.00006l-0.00004 0 0 -0.00012zm-0.00011 0.00042c0.00003,0 0.00007,0.00001 0.00012,0.00001 0.0001,0 0.00016,-0.00002 0.0002,-0.00005 0.00003,-0.00003 0.00005,-0.00006 0.00005,-0.00011 0,-0.00006 -0.00004,-0.00011 -0.0001,-0.00012l0 -0c0.00006,-0.00002 0.00008,-0.00006 0.00008,-0.00011 0,-0.00005 -0.00003,-0.00008 -0.00006,-0.0001 -0.00004,-0.00002 -0.00008,-0.00003 -0.00015,-0.00003 -0.00006,0 -0.00012,0 -0.00015,0.00001l0 0.00049zm-0.00138 -0.0003l-0.00019 0 0 -0.0001 0.0002 0 0 -0.00009 -0.00031 0 0 0.0005 0.00032 0 0 -0.00009 -0.00021 0 0 -0.00012 0.00019 0 0 -0.00009zm-0.002 0.00028c0.00003,0.00002 0.00009,0.00003 0.00014,0.00003 0.00014,0 0.0002,-0.00007 0.0002,-0.00016 0,-0.00007 -0.00004,-0.00012 -0.00013,-0.00015 -0.00006,-0.00002 -0.00009,-0.00004 -0.00009,-0.00007 0,-0.00003 0.00002,-0.00005 0.00007,-0.00005 0.00005,0 0.00009,0.00001 0.00011,0.00002l0.00003 -0.00009c-0.00003,-0.00001 -0.00007,-0.00002 -0.00013,-0.00002 -0.00012,0 -0.00019,0.00006 -0.00019,0.00015 0,0.00007 0.00005,0.00012 0.00014,0.00015 0.00006,0.00002 0.00008,0.00004 0.00008,0.00007 0,0.00003 -0.00003,0.00005 -0.00008,0.00005 -0.00005,0 -0.0001,-0.00002 -0.00013,-0.00003l-0.00002 0.00009zm-0.00147 -0.00048l0 0.0005 0.00011 0 0 -0.0005 -0.00011 0zm-0.00138 0.0002l-0.00019 0 0 -0.0001 0.0002 0 0 -0.00009 -0.00031 0 0 0.0005 0.00032 0 0 -0.00009 -0.00021 0 0 -0.00012 0.00019 0 0 -0.00009zm-0.00191 -0.00011c0.00001,-0 0.00002,-0 0.00005,-0 0.00005,0 0.00008,0.00002 0.00008,0.00007 0,0.00004 -0.00003,0.00007 -0.00009,0.00007l-0.00004 0 0 -0.00014zm-0.00011 0.00042l0.00011 0 0 -0.0002 0.00003 0c0.00005,0 0.00007,0.00002 0.00008,0.00008 0.00001,0.00006 0.00003,0.0001 0.00004,0.00012l0.00012 0c-0.00001,-0.00002 -0.00003,-0.00009 -0.00004,-0.00014 -0.00001,-0.00005 -0.00003,-0.00008 -0.00007,-0.00009l0 -0c0.00004,-0.00002 0.00009,-0.00006 0.00009,-0.00012 0,-0.00005 -0.00002,-0.00008 -0.00005,-0.00011 -0.00004,-0.00003 -0.00009,-0.00004 -0.00016,-0.00004 -0.00006,0 -0.00012,0 -0.00015,0.00001l0 0.0005zm0.00209 -0.00125c0,-0.00004 -0,-0.00007 -0.00002,-0.0001 0.00007,-0.00001 0.00025,-0.00008 0.00031,-0.00005 0.00002,0.00001 0.00003,0.00004 -0.00002,0.00006 -0.00012,0.00003 -0.00023,0.00004 -0.00026,0.00009zm0.00067 -0.00003c-0.00004,-0.00008 -0.00007,-0.00015 -0.00011,-0.00023 0.00003,-0.00007 0.00006,-0.00016 0.00009,-0.00024 -0.00008,-0.00001 -0.00015,-0.00001 -0.00023,0 -0.0001,0.00002 -0.00009,0 -0.00008,0.0001 0.00001,0.00008 0,0.00017 0.00001,0.00025 0.00001,0.0001 -0.00015,0.00012 -0.00022,0.00013 -0.00003,0 -0.00011,0.00002 -0.00011,0.00007 0,0.00004 0.00007,0 0.0001,-0 0.00021,-0.00005 0.00038,-0.00008 0.00055,-0.00007zm-0.0024 -0.0002c0.00015,0.00003 0.00035,0.00002 0.00062,-0.00005 0.00022,-0.00006 0.0005,-0.00015 0.00081,-0.00027 0.0001,-0.00004 0.00019,-0.00007 0.0003,-0.00009 0.00009,-0.00002 0.00016,-0.00002 0.0002,-0.00001 0.00004,0.00002 0.00006,0.00005 0.00007,0.00013 0.00001,0.00011 0.00002,0.00021 0.00002,0.00032 -0.00008,-0.00001 -0.00015,0 -0.00022,0.00003 -0.0004,0.00012 -0.00088,0.00031 -0.00123,0.00039 -0.00012,0.00003 -0.00033,0.00006 -0.00044,0.00001 -0.00006,-0.00003 -0.0001,-0.00008 -0.00011,-0.00015 -0.00001,-0.0001 -0.00002,-0.0002 -0.00003,-0.0003zm0.00032 -0.00016c-0,0.00004 0.00001,0.00008 0.00002,0.00012 -0.00009,0.00001 -0.00019,0.00001 -0.00028,0.00001 -0.00005,-0 -0.0001,-0.00006 -0.00001,-0.00007 0.00012,-0.00001 0.00023,-0.00002 0.00027,-0.00006zm-0.0007 -0.00002c0.00004,0.00008 0.00008,0.00017 0.00012,0.00025 -0.00003,0.00007 -0.00006,0.00015 -0.0001,0.00022 0.00009,0.00001 0.00017,0.00002 0.00026,0.00001 0.00007,-0.00001 0.00008,0.00001 0.00007,-0.00007 -0.00001,-0.00009 -0.00002,-0.00018 -0.00003,-0.00027 -0.00001,-0.00007 0.00005,-0.0001 0.00014,-0.00011 0.00003,-0 0.00007,-0.00001 0.0001,-0.00001 0.00003,-0 0.00012,-0.00001 0.00011,-0.00006 -0.00001,-0.00005 -0.00008,-0.00003 -0.00011,-0.00002 -0.00021,0.00008 -0.0004,0.00009 -0.00057,0.00005zm0.00158 0.00021c-0.00001,0 -0.00003,0.00001 -0.00002,0.00002 0,0.00001 0.00001,0.00001 0.00001,0.00001 0.00001,-0 0.00001,-0.00001 0.00001,-0.00002 -0,-0 -0,-0 -0,-0.00001l-0 -0.00001zm-0.00037 0.00006c-0.00002,0.00001 -0.00002,0.00003 -0.00001,0.00005 0,0.00001 0.00001,0.00004 0.00003,0.00003 0.00002,-0 0.00002,-0.00003 0.00001,-0.00004 -0,-0.00001 -0.00001,-0.00004 -0.00003,-0.00003zm-0.00033 0.00008c-0.00002,0 -0.00002,0.00003 -0.00002,0.00004 0,0.00001 0.00001,0.00004 0.00003,0.00004 0.00002,-0 0.00002,-0.00003 0.00002,-0.00004 -0,-0.00002 -0.00001,-0.00004 -0.00003,-0.00004zm0.00121 -0.00035l0.00001 -0.00009 0.00008 -0.00001 -0.00002 0.00013c-0.00001,0.00004 -0.00002,0.00009 -0.00004,0.00013 -0.00001,0.00002 -0.00003,0.00003 -0.00005,0.00004l-0.00001 0 -0.00003 -0.00006 0.00001 -0c0.00001,-0 0.00001,-0.00001 0.00002,-0.00001l0 -0 0 -0c0.00001,-0 0.00001,-0.00001 0.00001,-0.00002l0 -0 0 -0c0,-0 0,-0 0,-0 -0,-0 -0,-0 -0,-0l-0 -0 -0.0001 -0.00016 0.00008 -0.00001 0.00004 0.00008zm-0.00017 0.00017l-0.00008 -0.00026 0.00007 -0.00002 0.00008 0.00026 -0.00007 0.00002zm-0.00016 -0.00014l0.00001 0.00003 0.00008 -0.00003 0.00002 0.00006 -0.00008 0.00003 0.00003 0.00009 -0.00007 0.00003 -0.00009 -0.00024 0.00016 -0.00006 0.00002 0.00006 -0.00008 0.00003zm-0.00016 0.00025c-0.00001,0.00001 -0.00002,0.00002 -0.00004,0.00002 -0.00004,0.00001 -0.00007,-0.00001 -0.00008,-0.00004 -0.00001,-0.00005 0.00003,-0.00008 0.00007,-0.0001 -0,-0 -0.00001,-0 -0.00002,0 -0.00001,0 -0.00003,0.00001 -0.00004,0.00002l-0.00001 0.00001 -0.00003 -0.00005 0.00001 -0.00001c0.00002,-0.00002 0.00004,-0.00003 0.00006,-0.00003 0.00005,-0.00001 0.00009,0.00001 0.0001,0.00006l0.00002 0.00006c0,0.00001 0.00001,0.00003 0.00001,0.00004l0.00001 0.00001 -0.00007 0.00002 -0 -0.00001zm-0.00022 -0.00003l-0 -0.00009 0.00008 -0.00002 -0.00001 0.0002 -0.00006 0.00002 -0.00013 -0.00016 0.00008 -0.00003 0.00005 0.00007zm-0.0002 -0.00003c0.00006,-0.00002 0.00011,0.00001 0.00012,0.00007 0.00002,0.00006 -0.00002,0.00011 -0.00007,0.00012 -0.00006,0.00002 -0.00011,-0.00001 -0.00012,-0.00007 -0.00002,-0.00006 0.00001,-0.00011 0.00007,-0.00012zm-0.00054 0.00013l0.00004 -0.00009 0.00009 -0.00001 -0.00007 0.00012 0.00011 0.00013 -0.00009 0.00001 -0.00007 -0.00008 -0.00001 0.00001 0.00001 0.00008 -0.00007 0.00001 -0.00004 -0.00025 0.00007 -0.00001 0.00001 0.00008zm0.00088 -0.00091c-0.00001,0.00003 -0.00001,0.00003 0.00003,0.00001 0.00002,-0.00001 0.00004,-0.00002 0.00006,-0.00003 0.00003,0 0.00005,0 0.00008,0 0.00003,-0 0.00003,-0.00004 0.00003,-0.00007 -0.00002,-0.00001 -0.00005,-0.00002 -0.00007,-0.00002 0,-0.00002 0,-0.00004 0,-0.00006 -0.00002,0.00001 -0.00004,0.00002 -0.00006,0.00003 0,0.00001 0.00001,0.00003 0.00001,0.00004 -0.00002,-0.00001 -0.00004,-0.00003 -0.00006,-0.00004 -0.00002,0.00004 -0.00003,0.00007 -0.00005,0.00011 0.00001,0.00001 0.00002,0.00002 0.00003,0.00003zm0.0003 -0.00015c-0,-0.00002 -0.00001,-0.00005 -0.00001,-0.00007 -0.00008,0.00001 -0.00006,0.00006 -0.00006,0.00009 0,0.00002 0.00002,0.00004 0.00007,0.00006 -0,0.00002 -0,0.00004 -0,0.00006 0.00002,0 0.00004,0.00001 0.00006,0.00001 0.00001,-0.00002 0.00001,-0.00005 0.00002,-0.00007 -0.00001,-0.00001 -0.00002,-0.00001 -0.00003,-0.00002 0,-0.00001 0.00001,-0.00002 0.00001,-0.00003 -0.00002,-0.00001 -0.00004,-0.00001 -0.00006,-0.00002zm0.00009 -0.00005c-0.00007,0.00001 -0.00008,-0.00005 -0.00002,-0.00006 0.00001,0.00002 0.00001,0.00004 0.00002,0.00006zm-0.00039 -0.00064c0.00001,0 0.00001,0.00001 0.00002,0.00001 -0,0.00002 -0,0.00004 -0,0.00005 -0.00001,-0 -0.00002,-0.00001 -0.00004,-0.00001 0.00003,0.00004 0.00005,0.00007 0.00008,0.00011 -0,0 -0.00001,0.00001 -0.00001,0.00001 0.00001,0.00001 0.00002,0.00002 0.00003,0.00003 -0.00004,0.00004 -0.00008,0.00008 -0.00009,0.00013 -0.00001,0.00003 -0.00002,0.00003 -0.00003,0.00003 -0.00001,0 -0.00003,0 -0.00004,0 0,-0.00002 0,-0.00003 0,-0.00005 0.00001,0 0.00002,0 0.00003,0 0,-0.00001 0,-0.00001 0,-0.00002 -0.00004,-0 -0.00008,-0.00001 -0.00011,-0.00002 -0.00006,0.00003 -0.0001,0.00013 -0.00016,0.00014 -0,0.00002 -0,0.00003 -0,0.00005 -0,0.00002 0.00001,0.00002 0.00002,0.00001 0.00001,-0.00001 0.00002,-0.00001 0.00003,0 0,0.00002 0.00001,0.00003 0.00002,0.00005 0.00001,0.00002 0.00002,0.00002 0.00003,-0.00002 0.00002,-0.00003 -0.00001,-0.00006 0,-0.0001 0.00002,-0 0.00003,-0.00002 0.00003,-0.00006 0.00002,0 0.00004,0 0.00006,0 -0,0.00002 -0.00001,0.00003 -0.00001,0.00005 -0,0.00001 -0.00001,0.00001 -0.00001,0.00002 -0,0.00002 0.00001,0.00005 0.00003,0.00003 0.00001,-0 0.00003,-0.00001 0.00004,-0.00001 -0,-0.00001 -0,-0.00002 -0.00001,-0.00003 0.00002,0 0.00003,0 0.00005,0 0,0.00001 0,0.00002 0,0.00004 -0.00001,0 -0.00002,0 -0.00003,0 -0.00002,0.00001 -0.00003,0.00002 -0.00005,0.00003 0,0.00002 0.00001,0.00004 0.00001,0.00005 -0.00001,-0 -0.00002,-0 -0.00004,-0 0,0.00002 0,0.00003 -0.00001,0.00005 -0.00001,0.00001 -0.00003,0.00002 -0.00006,0.00002 -0.00003,0 -0.00006,0 -0.00009,0 -0.00004,0.00003 -0.00008,0.00006 -0.00012,0.00008 -0.00002,0.00001 -0.00004,0.00001 -0.00007,0.00001 0.00001,0.00001 0.00002,0.00002 0.00002,0.00003 0.00001,0.00001 0.00001,0.00003 0.00001,0.00004 -0,0.00001 -0.00001,0.00004 -0.00003,0.00005 -0.00001,0 -0.00002,0 -0.00003,-0 -0.00003,-0.00001 -0.00005,-0.00001 -0.00008,-0.00002 -0,0.00002 -0,0.00003 -0,0.00005 -0.00001,0.00002 -0.00002,0.00003 -0.00003,0.00005 -0,0.00001 0,0.00001 0.00001,0.00001 0.00001,0 0.00002,0.00001 0.00002,0.00002 0,0.00001 0.00001,0.00002 0.00002,0.00002 0.00002,0 0.00004,0 0.00005,0 0.00001,-0 0.00002,-0.00001 0.00003,-0.00003 0.00002,-0.00004 0.00004,-0.00005 0.00006,-0.00007 0.00001,-0.00001 0.00001,-0.00002 0.00002,-0.00003 0.00002,0 0.00004,0.00001 0.00005,0.00001 0.00001,-0.00001 0.00001,-0.00002 0.00002,-0.00002 0.00002,0 0.00005,0 0.00007,0.00001 -0,0.00001 -0,0.00003 -0,0.00004 0.00002,0.00001 0.00004,0.00002 0.00006,0.00002 -0.00001,-0.00002 -0.00002,-0.00004 -0.00004,-0.00006 -0.00002,-0.00005 0.00001,-0.00005 0.00004,-0.00003 0.00005,0.00005 0.0001,0.0001 0.00013,0.00015 0.00001,-0.00001 0,-0.00005 0,-0.00007 0.00002,-0 0.00004,-0.00001 0.00006,-0.00001 0.00001,0.00002 0.00002,0.00004 0.00003,0.00006 0.00001,0.00001 0.00002,0.00002 0.00004,0.00002 0.00002,-0.00001 0.00003,-0.00002 0.00004,-0 0.00001,0.00001 0.00002,0.00001 0.00004,-0.00001 0.00002,-0.00002 0.00004,-0.00002 0.00004,0.00002 0,0.00001 0,0.00003 0,0.00004 -0,0.00005 -0.00001,0.00007 -0.00003,0.00007 -0.00001,0 -0.00002,0 -0.00003,0 -0.00002,0 -0.00001,0.00002 -0.00003,0.00003 -0.00003,0 -0.00005,0 -0.00008,0 -0.00003,-0.00001 -0.00005,-0.00002 -0.00008,-0.00003 -0.00001,0.00002 -0.00001,0.00004 -0.00002,0.00007 -0.00003,0.00001 -0.00005,-0 -0.00008,-0.00001 -0.00002,-0 -0.00002,-0.00002 -0.00004,-0.00003 -0.00001,-0.00001 -0.00003,-0.00001 -0.00005,-0.00001 -0.00003,0 -0.00004,-0.00001 -0.00004,-0.00003 0,-0.00002 0.00002,-0.00002 0.00001,-0.00005 -0,-0.00001 -0,-0.00001 -0.00001,-0.00002 -0.00001,0.00001 -0.00002,0.00001 -0.00002,0.00002 -0.00002,-0 -0.00003,-0.00001 -0.00005,-0.00001 0,0 0,0.00001 0,0.00001 -0.00002,0 -0.00003,0 -0.00005,0 -0.00001,-0 -0.00002,-0.00001 -0.00002,-0.00001 -0.00001,0.00001 -0.00003,0.00002 -0.00004,0.00003 -0.00003,0 -0.00005,0 -0.00008,0 -0.00001,-0 -0.00001,-0 -0.00002,-0 -0,-0 -0.00001,-0.00001 -0.00001,-0.00001 -0.00004,0.00006 -0.00009,0.00011 -0.00014,0.00014 -0.00002,0.00001 -0.00003,0.00002 -0.00005,0.00004 -0.00004,0.00005 -0.00004,0.00011 -0.00004,0.00014 -0.00001,0.00007 0.00002,0.0001 0.00005,0.00014 0.00002,0.00002 0.00003,0.00005 0.00006,0.00007 0.00001,0.00001 0.00003,0.00002 0.00005,0.00003 0.00011,-0.00004 0.00023,-0.00005 0.00034,-0.00009 0.00018,-0.00006 0.00036,-0.00014 0.00054,-0.00019 0,-0.00002 0,-0.00003 0,-0.00005 -0.00003,-0.00003 -0.00005,-0.00005 -0.00008,-0.00008 -0,-0.00001 -0,-0.00002 -0,-0.00003 -0.00001,-0.00001 -0.00002,-0.00002 -0.00003,-0.00003 0.00001,-0 0.00002,-0.00001 0.00004,-0.00001 0,0.00001 0,0.00002 0.00001,0.00003 0.00001,-0 0.00002,-0.00001 0.00003,-0.00001 0.00002,0.00002 0.00001,0.00007 0.00007,0.00007 0,0.00003 0.00002,0.00006 0.00005,0.00008 0.00006,-0.00002 0.00011,-0.00004 0.00017,-0.00006 0.00002,-0.00005 0.00004,-0.0001 0.00004,-0.00015 -0.00001,-0 -0.00002,-0.00001 -0.00004,-0.00001 -0,0.00003 -0.00003,0.00007 -0.00006,0.00004 -0.00002,-0.00002 -0.00004,-0.00004 -0.00007,-0.00006 0.00001,-0.00002 0.00002,-0.00003 0.00003,-0.00005 0.00001,0.00001 0.00003,0.00002 0.00004,0.00003 0.00003,-0.00001 0.00006,-0.00001 0.00009,-0.00002 0.00002,-0.00002 0.00003,-0.00004 0.00005,-0.00006 0.00001,0 0.00002,0 0.00003,0 0.00001,0.00001 0.00003,0 0.00004,-0.00001 0.00002,0.00003 0.00003,0.00007 0.00004,0.00011 0,-0.00004 -0.00001,-0.0001 -0.00001,-0.00014 -0,-0.00024 -0.00008,-0.00043 -0.00022,-0.00058 -0.00011,-0.00012 -0.00028,-0.00026 -0.00043,-0.00029zm-0.00055 0.00013c0,0 -0.00007,0.00001 -0.00008,0.00007 -0.00009,-0 -0.00014,0.0001 -0.00014,0.0001l0.00003 -0 0.00006 -0.00003 0.00014 -0.00001 0 -0.00003 0.00003 0 0 -0.00003 0.00002 -0 0 -0.00001 0.00005 -0 0.00007 -0.00009 -0.00006 -0 -0.00001 -0.00001 0 -0.00004 -0.00004 -0 -0.00002 0.00002 0.00004 0 -0 0.00002 -0.00004 -0.00001 -0.00002 0.00002 -0.00002 0 0 0.00004zm-0.0001 -0.00011l-0.00014 0.00008c0,0 0.00009,-0.00002 0.00012,0.00001l0.00004 -0.00004 -0.00002 -0.00001 -0.00001 0.00002 -0.00004 -0.00001 0.00004 -0.00003 0 -0.00002 0.00002 -0.00001 -0.00002 -0zm-0.00029 0.00035c0,0 0,-0.00009 0.00007,-0.0001l-0.00001 -0.00004 0.00005 -0.00004 -0.00003 0 -0.00004 0.00004 -0.00003 -0 0.00004 -0.00005 -0.00002 -0 -0.00019 0.00022 0 0.00003 0.0001 -0.00004 -0.00003 -0.00001 0.00004 -0.00003 0.00001 0.00004 0.00005 0zm0.00036 0.00137c0,-0.00003 0.00003,-0.00005 0.00006,-0.00006 0.00002,-0.00001 0.00004,-0.00001 0.00005,-0.00001l0.00001 0 0.00001 0.00006 -0.00001 -0c-0.00001,-0 -0.00002,-0 -0.00003,0 -0,0 -0.00001,0 -0.00001,0.00001 0,0 0.00002,0 0.00002,0 0.00003,-0 0.00006,0.00001 0.00007,0.00004 0.00002,0.00004 -0.00002,0.00008 -0.00006,0.00009 -0.00002,0.00001 -0.00004,0.00001 -0.00006,0.00001l-0.00001 -0 -0.00001 -0.00006 0.00001 0c0.00001,0 0.00003,0 0.00004,-0 0,-0 0.00001,-0 0.00001,-0.00001 -0,-0 -0,-0 -0,-0 -0,-0 -0.00002,-0 -0.00002,-0 -0.00002,0 -0.00004,-0 -0.00005,-0.00001 0,0 0,0 0,0 0.00001,0.00006 -0.00003,0.00011 -0.00009,0.00011 -0.00006,0.00001 -0.0001,-0.00003 -0.00011,-0.00008 -0.00001,-0.00006 0.00003,-0.00011 0.00009,-0.00011 0.00004,-0.00001 0.00007,0.00001 0.00009,0.00003zm0.00108 -0.00038l-0.00004 0.00001 0.00008 0.00013c0,0 0,0.00001 0,0.00001l0 0 -0 0c-0,0 -0,0.00001 -0,0.00001 -0,0.00001 -0.00001,0.00002 -0.00002,0.00003 -0,0 -0.00001,0.00001 -0.00002,0.00001l0.00001 0.00003c0.00001,-0.00001 0.00003,-0.00002 0.00004,-0.00003 0.00002,-0.00003 0.00003,-0.00008 0.00004,-0.00012l0.00002 -0.00011 -0.00004 0.00001 -0.00001 0.00014 -0.00006 -0.00012zm-0.00011 0.0002l0.00004 -0.00001 -0.00007 -0.00022 -0.00004 0.00001 0.00007 0.00022zm-0.0001 -0.00016l-0.00001 -0.00003 -0.00012 0.00004 0.00007 0.00021 0.00004 -0.00001 -0.00003 -0.00009 0.00008 -0.00003 -0.00001 -0.00003 -0.00008 0.00003 -0.00002 -0.00006 0.00008 -0.00003zm-0.00024 0.0002l0.00001 0.00003c0,0 0,0.00001 0,0.00001l0 0 0 0c-0,0.00001 -0.00001,0.00003 -0.00003,0.00003 -0.00002,0 -0.00003,-0 -0.00003,-0.00002 -0.00001,-0.00002 0.00002,-0.00004 0.00003,-0.00004l0.00002 -0.00001zm0.00003 0.00008l0.00003 -0.00001c-0,-0.00001 -0.00001,-0.00002 -0.00001,-0.00003l-0.00002 -0.00006c-0.00001,-0.00004 -0.00004,-0.00006 -0.00008,-0.00005 -0.00002,0 -0.00004,0.00001 -0.00005,0.00003l0.00001 0.00002c0.00001,-0.00001 0.00003,-0.00002 0.00004,-0.00002 0.00003,-0.00001 0.00004,-0 0.00005,0.00003l-0.00002 0.00001c-0.00003,0.00001 -0.00007,0.00003 -0.00006,0.00008 0.00001,0.00003 0.00003,0.00004 0.00006,0.00003 0.00001,-0 0.00002,-0.00001 0.00003,-0.00002l0.00002 -0.00002 0.00001 0.00002zm-0.00029 -0.00007l-0.00004 0.00001 0.0001 0.00013 0.00004 -0.00001 0.00001 -0.00017 -0.00004 0.00001 0 0.00012 -0.00007 -0.0001zm-0.00013 0.00006c0.00003,-0.00001 0.00005,0.00002 0.00005,0.00005 0.00001,0.00002 0.00001,0.00006 -0.00002,0.00007 -0.00003,0.00001 -0.00005,-0.00002 -0.00005,-0.00004 -0.00001,-0.00002 -0.00001,-0.00006 0.00002,-0.00007zm-0 -0.00002c-0.00005,0.00001 -0.00007,0.00005 -0.00006,0.0001 0.00001,0.00005 0.00005,0.00007 0.0001,0.00006 0.00005,-0.00001 0.00007,-0.00005 0.00006,-0.0001 -0.00001,-0.00005 -0.00005,-0.00007 -0.0001,-0.00006zm-0.00057 0.00006l-0.00004 0.00001 0.00003 0.00022 0.00004 -0.00001 -0.00001 -0.00007 0.00002 -0.00004 0.00008 0.0001 0.00005 -0.00001 -0.0001 -0.00011 0.00006 -0.0001 -0.00005 0.00001 -0.00006 0.00013 -0.00002 -0.00012zm0.00037 0.00008c0.00001,0.00001 0.00003,0.00001 0.00004,0.00001 0.00001,-0 0.00002,-0 0.00003,0.00001l0 0 0 0c0,0 0,0 0,0.00001 0.00001,0.00002 -0.00001,0.00003 -0.00002,0.00003 -0.00001,0 -0.00003,0.00001 -0.00004,0l0 0.00003c0.00002,0 0.00003,-0 0.00005,-0.00001 0.00003,-0.00001 0.00006,-0.00003 0.00005,-0.00007 -0.00001,-0.00003 -0.00003,-0.00003 -0.00005,-0.00003 -0.00001,0 -0.00002,0 -0.00003,-0.00001l-0 -0 -0 -0.00001c-0.00001,-0.00001 0.00001,-0.00002 0.00002,-0.00003 0.00001,-0 0.00002,-0 0.00003,-0l-0 -0.00002c-0.00001,-0 -0.00003,0 -0.00004,0.00001 -0.00004,0.00001 -0.00007,0.00006 -0.00003,0.00008zm-0.00012 -0.00003c0.00003,-0 0.00005,0.00003 0.00005,0.00005 0,0.00003 -0,0.00006 -0.00003,0.00006 -0.00003,0 -0.00005,-0.00002 -0.00005,-0.00005 -0,-0.00003 0,-0.00006 0.00003,-0.00006zm-0 -0.00002c-0.00005,0.00001 -0.00008,0.00004 -0.00007,0.00009 0.00001,0.00005 0.00004,0.00008 0.00009,0.00007 0.00011,-0.00002 0.00009,-0.00018 -0.00002,-0.00016zm0.00059 -0.00128c0,-0 0.00001,-0 0.00001,-0 0,-0 0,-0.00001 0,-0.00001 -0.00001,0 -0.00001,0 -0.00002,0 0,0 0,0.00001 0,0.00001 0,0 0,0 0,0zm-0.00029 -0.00036c0.00001,0.00001 0.00002,0.00002 0.00002,0.00004 -0.00001,-0 -0.00002,-0 -0.00003,-0 -0,0.00001 -0,0.00002 -0,0.00003 0.00002,0.00001 0.00004,0.00003 0.00006,0.00004 0,0 0,0.00001 0.00001,0.00001 0.00001,0 0.00001,0 0.00002,0 0.00002,-0.00002 0.00004,-0.00001 0.00005,0.00001 0.00001,0.00002 0.00002,0.00001 0.00004,-0.00002 0,0.00001 0.00001,0.00002 0.00001,0.00002 0.00001,-0 0.00002,-0 0.00003,-0l-0 0.00005 -0 -0c-0,-0 -0.00001,-0 -0.00001,0 -0.00003,0.00001 -0.00005,0.00004 -0.00007,0.00007 -0.00002,0.00002 -0.00005,0.00007 -0.00009,0.00007 -0.00001,0 -0.00001,0.00001 -0.00001,0.00001 -0,0.00002 -0,0.00003 -0,0.00005 -0,0.00001 0,0.00002 0.00001,0.00003 0.00001,0.00001 0.00002,-0 0.00003,-0.00001 0,-0 0,-0 0.00001,-0 0,0 0,0 0,0 0,0.00002 0.00001,0.00004 0.00002,0.00005 0,0.00001 0.00001,0.00002 0.00002,0.00002 0.00002,0 0.00003,-0.00002 0.00004,-0.00004 0.00002,-0.00004 -0,-0.00006 0,-0.0001 0.00002,-0.00001 0.00003,-0.00003 0.00003,-0.00006 0.00001,0 0.00002,0 0.00003,0 -0,0.00001 -0.00001,0.00002 -0.00001,0.00003 -0.00001,0.00001 -0.00001,0.00002 -0.00001,0.00003 -0,0.00003 0.00001,0.00007 0.00005,0.00005 0,-0 0,-0 0,-0 -0,0 -0.00001,0 -0.00001,0.00001 -0,0 -0.00001,0.00001 -0.00001,0.00001 0,0.00001 0.00001,0.00003 0.00001,0.00004 -0.00001,-0 -0.00001,-0 -0.00002,-0 -0,-0 -0.00001,0 -0.00001,0 -0,0 -0,0.00001 -0,0.00001 0,0.00001 0,0.00002 -0.00001,0.00003 -0.00001,0.00001 -0.00004,0.00002 -0.00005,0.00002 -0.00003,0 -0.00006,0 -0.00009,0 -0,0 -0,0 -0.00001,0 -0.00004,0.00003 -0.00008,0.00005 -0.00012,0.00008 -0.00002,0.00001 -0.00004,0.00001 -0.00006,0.00001 -0.00001,-0 -0.00001,0 -0.00001,0.00001 -0,0 -0,0.00001 0,0.00001 0.00001,0.00001 0.00002,0.00002 0.00002,0.00003 0.00001,0.00001 0.00001,0.00002 0.00001,0.00003 -0,0.00001 -0.00001,0.00003 -0.00002,0.00004 -0.00001,0 -0.00002,0 -0.00002,-0 -0,-0 -0,-0 -0,-0 -0.00003,-0.00001 -0.00005,-0.00001 -0.00008,-0.00002 -0,-0 -0.00001,0 -0.00001,0 -0,0 -0,0.00001 -0,0.00001 -0,0.00002 -0,0.00003 -0,0.00005 -0.00001,0.00002 -0.00002,0.00003 -0.00002,0.00005 -0,0 -0,0 -0,0 -0.00001,0.00002 0.00001,0.00003 0.00002,0.00003 0,0 0,0 0,0 0,0 0.00001,0 0.00001,0 0,0.00002 0.00001,0.00003 0.00003,0.00003 0.00002,0 0.00003,0 0.00005,0 0,0 0,-0 0,-0 0.00002,-0.00001 0.00003,-0.00002 0.00004,-0.00004 0.00001,-0.00003 0.00003,-0.00004 0.00005,-0.00007 0.00001,-0.00001 0.00001,-0.00001 0.00002,-0.00002 0.00002,0 0.00003,0.00001 0.00005,0.00001 0,0 0.00001,-0 0.00001,-0.00001 0,-0.00001 0.00001,-0.00001 0.00001,-0.00002 0.00002,0 0.00003,0 0.00005,0 -0,0.00001 -0,0.00002 -0,0.00003 -0,0.00001 0,0.00001 0.00001,0.00001 0.00002,0.00001 0.00004,0.00002 0.00006,0.00002 0.00001,0 0.00001,0 0.00001,-0 0,-0 0,-0.00001 0,-0.00002 -0.00001,-0.00002 -0.00002,-0.00004 -0.00004,-0.00006 -0,-0.00001 -0,-0.00002 -0,-0.00002 0.00001,0 0.00002,0.00001 0.00003,0.00001 0.00005,0.00004 0.00009,0.00009 0.00012,0.00015 0,0 0.00001,0.00001 0.00001,0.00001 0,0 0.00001,-0 0.00001,-0 0.00001,-0.00002 0.00001,-0.00005 0.00001,-0.00007 0.00001,-0 0.00003,-0 0.00004,-0.00001 0.00001,0.00002 0.00002,0.00004 0.00003,0.00005 0.00001,0.00002 0.00003,0.00003 0.00005,0.00003 0,-0 0,-0 0,-0 0,-0 0.00002,-0.00001 0.00002,-0.00001 0,0 0,0 0,0 0.00002,0.00001 0.00004,0 0.00006,-0.00001 0,-0 0.00001,-0.00001 0.00001,-0.00001 0,0 0.00001,0.00002 0.00001,0.00002 0,0 0,0 0,0 0,0.00001 0,0.00002 -0,0.00003 -0,0 -0,0 -0,0 -0,0.00001 -0,0.00006 -0.00002,0.00006 -0,0 -0,0 -0,0 -0.00001,0 -0.00002,0 -0.00003,0 -0.00003,0 -0.00003,0.00002 -0.00003,0.00003 -0.00002,0 -0.00005,0 -0.00007,0 -0.00003,-0.00001 -0.00005,-0.00002 -0.00008,-0.00003 -0,-0 -0.00001,-0 -0.00001,0 -0,0 -0.00001,0 -0.00001,0.00001 -0.00001,0.00002 -0.00001,0.00004 -0.00002,0.00006 -0.00002,0 -0.00004,-0.00001 -0.00006,-0.00001 -0.00002,-0 -0.00002,-0.00002 -0.00003,-0.00002 -0.00002,-0.00002 -0.00004,-0.00002 -0.00006,-0.00002 -0,0 -0,0 -0,0 -0.00001,0 -0.00002,0 -0.00003,-0.00001 0,-0 0,-0.00001 0,-0.00001 0.00001,-0.00002 0.00001,-0.00003 0.00001,-0.00005 -0,-0 -0,-0 -0,-0 -0,-0.00001 -0,-0.00001 -0.00001,-0.00002 -0,-0 -0,-0.00001 -0.00001,-0.00001 -0,-0 -0.00001,-0 -0.00001,0 -0.00001,0 -0.00001,0.00001 -0.00002,0.00001 -0.00001,-0 -0.00003,-0.00001 -0.00004,-0.00001 -0,-0 -0.00001,-0 -0.00001,0 -0,0 -0,0 -0,0.00001 -0.00001,0 -0.00002,0 -0.00003,0 -0.00001,-0 -0.00001,-0.00001 -0.00002,-0.00001 -0,-0 -0.00001,-0 -0.00001,0 -0.00001,0.00001 -0.00003,0.00002 -0.00004,0.00002 -0.00002,0 -0.00005,0 -0.00007,0 -0.00001,-0 -0.00001,-0 -0.00002,-0 -0,-0 -0.00001,-0.00001 -0.00001,-0.00001 -0,-0 -0.00001,-0 -0.00001,-0 -0,0 -0.00001,0 -0.00001,0.00001 -0.00002,0.00003 -0.00004,0.00005 -0.00006,0.00008l-0 -0.00001c-0.00003,-0.00001 -0.00005,-0.00003 -0.00008,-0.00004 -0.00001,-0.00001 -0,-0.00001 -0,-0.00002 -0.00001,-0 -0.00001,-0 -0.00002,-0 -0.00001,0.00003 -0.00003,-0.00001 -0.00005,0.00001 -0.00002,-0.00002 -0.00002,-0.00004 -0.00001,-0.00006 -0,-0.00002 -0.00002,-0.00002 -0.00003,-0.00003 0.00002,-0.00002 0.00003,-0.00003 0,-0.00004 -0.00003,-0.00009 -0.00006,-0.00007 -0.00009,-0.0001 0,-0.00002 -0.00001,-0.00005 -0.00001,-0.00007 0.00004,-0.00003 0.00004,-0.00006 -0.00001,-0.00008 -0.00004,-0.00002 -0.00001,-0.00005 -0.00001,-0.00007 0.00002,-0.00002 0.00004,-0.00002 0.00007,0.00001 0.00003,-0.00002 0.00003,0.00001 0.00005,0.00001 0.00003,0 0.00004,-0.00001 0.00004,-0.00004 -0.00001,-0.00004 0.00002,-0.00004 0.00006,-0.00004 0.00003,0 0.00006,-0.00002 0.00007,0 0.00002,-0.00001 0.00004,-0.00003 0.00006,-0.00004 0.00001,-0.00001 0.00001,-0.00003 -0.00001,-0.00005 -0.00002,-0.00003 -0,-0.00005 0.00002,-0.00006 0.00001,0 0.00003,-0.00001 0.00004,-0.00003 0.00001,-0.00001 0.00002,-0.00001 0.00003,-0 0.00002,-0.00001 0.00004,-0.00003 0.00002,-0.00007 0.00001,-0 0.00002,-0 0.00003,-0 -0,-0.00002 -0.00001,-0.00003 -0.00001,-0.00004 0,-0 0,-0 0,-0l0.00005 0c0.00001,-0.00003 0.00003,-0.00005 0.00005,-0.00006 0.00001,-0.00001 0.00002,-0.00003 0.00003,-0.00005zm0.0092 0.00119c-0.00021,0 -0.0003,0.00005 -0.00031,0.00017 -0,0.00011 0.0001,0.00014 0.0003,0.00012l0.00001 -0.00029zm-0.00059 -0.00056c0,0.00009 0,0.00018 0,0.00027 0.00008,-0.00004 0.00065,-0.00023 0.00059,0.00007 -0.00034,-0.00001 -0.00069,0.0001 -0.00069,0.00047 0,0.00031 0.00038,0.00039 0.00105,0.00027 0.00001,-0.00024 0.00001,-0.00048 0.00002,-0.00072 0.00001,-0.00023 -0.00007,-0.00035 -0.0002,-0.00041 -0.00017,-0.00009 -0.00045,-0.00007 -0.00077,0.00005zm-0.00137 -0.00004l0.00044 0 0.00013 0.00061 0.00011 -0.00061 0.00041 0 -0.0003 0.00115 -0.00045 0 -0.00033 -0.00115zm-0.00237 0.00103c0.00006,-0.00008 0.00011,-0.00015 0.00017,-0.00023 0.00014,0.00014 0.00032,0.00002 0.00027,-0.00006 -0.0001,-0.00016 -0.00034,-0.00019 -0.00038,-0.00041 -0.00002,-0.00013 0.00001,-0.00022 0.00012,-0.0003 0.00006,-0.00004 0.00012,-0.00007 0.00018,-0.00008 0.00015,-0.00003 0.00033,-0.00001 0.00052,0.00007 -0.00005,0.00008 -0.0001,0.00015 -0.00016,0.00023 -0.00004,-0.00003 -0.00007,-0.00006 -0.00011,-0.00005 -0.00016,0 -0.00021,0.00009 -0.00003,0.0002 0.00014,0.00009 0.00026,0.00019 0.00029,0.00032 0.00005,0.00028 -0.00024,0.00042 -0.00047,0.00043 -0.00014,0.00001 -0.00028,-0.00003 -0.0004,-0.00012zm0.00173 -0.00108c0.00034,0.00001 0.00052,0.00038 0.0005,0.00062 -0.00001,0.0002 -0.00015,0.0006 -0.00058,0.00058 -0.00034,-0.00001 -0.00052,-0.00038 -0.0005,-0.00062 0.00002,-0.00024 0.00015,-0.0006 0.00058,-0.00058zm-0.00002 0.00026c0.00007,0 0.00011,0.00015 0.0001,0.00034 -0.00001,0.00018 -0.00007,0.00033 -0.00013,0.00033 -0.00007,-0 -0.00011,-0.00015 -0.0001,-0.00034 0.00001,-0.00018 0.00007,-0.00033 0.00013,-0.00033zm-0.00242 -0.00026c0.00034,0.00001 0.00052,0.00038 0.0005,0.00062 -0.00001,0.0002 -0.00015,0.0006 -0.00058,0.00058 -0.00034,-0.00001 -0.00052,-0.00038 -0.0005,-0.00062 0.00002,-0.00024 0.00015,-0.0006 0.00058,-0.00058zm-0.00002 0.00026c0.00007,0 0.00011,0.00015 0.0001,0.00034 -0.00001,0.00018 -0.00007,0.00033 -0.00013,0.00033 -0.00007,-0 -0.00011,-0.00015 -0.0001,-0.00034 0.00001,-0.00018 0.00007,-0.00033 0.00013,-0.00033zm-0.00189 0.00092l0.00048 0 0.00002 -0.0007 0.00024 0.00069 0.00051 0 -0.00034 -0.0008 0.00034 -0.00069 -0.00046 0 -0.00029 0.00063 0.00002 -0.00063 -0.00048 0 -0.00004 0.00149z"/>
 </g>
</svg>
