<?xml version="1.0" encoding="UTF-8"?>
<!DOCTYPE svg PUBLIC "-//W3C//DTD SVG 1.1//EN" "http://www.w3.org/Graphics/SVG/1.1/DTD/svg11.dtd">
<!-- Creator: CorelDRAW 2020 (64-Bit) -->
<svg xmlns="http://www.w3.org/2000/svg" xml:space="preserve" width="0.79015in" height="0.116665in" version="1.1" style="shape-rendering:geometricPrecision; text-rendering:geometricPrecision; image-rendering:optimizeQuality; fill-rule:evenodd; clip-rule:evenodd"
viewBox="0 0 0.04315 0.00637"
 xmlns:xlink="http://www.w3.org/1999/xlink"
 xmlns:xodm="http://www.corel.com/coreldraw/odm/2003">
 <defs>
  <style type="text/css">
   <![CDATA[
    .fil0 {fill:#AAAAAA}
   ]]>
  </style>
 </defs>
 <g id="Layer_x0020_1">
  <metadata id="CorelCorpID_0Corel-Layer"/>
  <path class="fil0" d="M0.04154 0.00336c0.00015,-0.00014 0.0003,-0.00029 0.00044,-0.00043 0.00022,-0.00024 0.00034,-0.00043 0.00034,-0.00055 0,-0.00015 -0.00004,-0.00026 -0.00011,-0.00035 -0.00007,-0.00008 -0.00017,-0.00012 -0.00029,-0.00012 -0.00015,0 -0.00026,0.00009 -0.00035,0.00026 -0.00008,0.00018 -0.00013,0.00039 -0.00013,0.00063 0,0.0001 0.00001,0.0002 0.00002,0.00029 0.00001,0.00009 0.00004,0.00018 0.00007,0.00027zm0.00075 -0.00186c0.00017,0 0.0003,0.00003 0.00041,0.00009 0.00011,0.00006 0.00026,0.00018 0.00044,0.00037l-0.00154 0.00155c0.00008,0.00014 0.00019,0.00023 0.00031,0.00027 0.00013,0.00004 0.00027,0.00006 0.00042,0.00006 0.00016,0 0.0003,-0.00004 0.00044,-0.00011 0.00014,-0.00007 0.00026,-0.00015 0.00037,-0.00023 -0.00017,0.00026 -0.00036,0.00046 -0.00056,0.00059 -0.0002,0.00013 -0.00044,0.0002 -0.0007,0.0002 -0.00038,0 -0.00064,-0.00012 -0.0008,-0.00036 -0.00016,-0.00024 -0.00023,-0.0005 -0.00023,-0.00078 0,-0.00049 0.00014,-0.00089 0.00041,-0.00118 0.00028,-0.0003 0.00062,-0.00045 0.00102,-0.00045zm-0.00252 0.00001c0.00017,0 0.00034,0.00005 0.00052,0.00016 0.00018,0.00011 0.00027,0.00024 0.00027,0.0004 0,0.00004 -0.00006,0.00012 -0.00017,0.00023 -0.00011,0.00011 -0.00021,0.00019 -0.00029,0.00024 -0.00004,-0.00019 -0.00014,-0.00035 -0.00029,-0.00046 -0.00016,-0.00012 -0.00032,-0.00018 -0.00048,-0.00018 -0.00016,0 -0.00028,0.00009 -0.00038,0.00026 -0.0001,0.00017 -0.00015,0.00037 -0.00015,0.0006 0,0.00041 0.00009,0.00069 0.00028,0.00086 0.00019,0.00017 0.0004,0.00025 0.00064,0.00025 0.0001,0 0.00021,-0.00003 0.00033,-0.00009 0.00012,-0.00006 0.00024,-0.00013 0.00037,-0.00022 -0.00017,0.00026 -0.00034,0.00044 -0.0005,0.00055 -0.00017,0.0001 -0.0004,0.00016 -0.0007,0.00016 -0.00041,0 -0.00067,-0.00011 -0.00079,-0.00033 -0.00011,-0.00022 -0.00017,-0.00049 -0.00017,-0.00081 0,-0.00049 0.00014,-0.00088 0.00042,-0.00118 0.00028,-0.0003 0.00064,-0.00044 0.00108,-0.00044zm-0.00211 0.00233c0,0.00009 0.00003,0.00014 0.0001,0.00014 0.00009,0 0.0002,-0.00007 0.00035,-0.00021 -0.00008,0.00016 -0.00019,0.00028 -0.00032,0.00037 -0.00013,0.00009 -0.00024,0.00013 -0.00034,0.00013 -0.00011,0 -0.0002,-0.00004 -0.00027,-0.0001 -0.00007,-0.00007 -0.0001,-0.00018 -0.0001,-0.00032l0 -0.00142c0,-0.0001 -0.00001,-0.00017 -0.00003,-0.00023 -0.00002,-0.00006 -0.00008,-0.00009 -0.00018,-0.00009 -0.00011,0 -0.00025,0.00011 -0.00042,0.00033 -0.00018,0.00022 -0.00026,0.00035 -0.00026,0.00039l0 0.00107c-0.00002,0.00009 -0.00009,0.00017 -0.00022,0.00025 -0.00012,0.00008 -0.00025,0.00012 -0.00037,0.00012l0 -0.00217c0,-0.00007 -0.00003,-0.0001 -0.00008,-0.0001 -0.00006,0 -0.00018,0.00006 -0.00036,0.00017 0.00016,-0.0002 0.00031,-0.00036 0.00044,-0.00048 0.00013,-0.00012 0.00024,-0.00017 0.00031,-0.00017 0.00012,0 0.00019,0.00006 0.00022,0.00019 0.00003,0.00013 0.00005,0.00033 0.00005,0.0006l0 0.00023c0.00016,-0.00026 0.00034,-0.00049 0.00052,-0.00071 0.00018,-0.00021 0.00038,-0.00032 0.00058,-0.00032 0.00016,0 0.00026,0.00005 0.00031,0.00016 0.00005,0.00011 0.00008,0.00026 0.00008,0.00048 0,0.00006 0,0.00013 0,0.00019 0,0.00006 0,0.00012 0,0.00019 0,0.00012 0,0.00025 0,0.00039 0,0.00014 0,0.0003 0,0.0005 0,0.00011 0,0.00021 0,0.00029 0,0.00008 0,0.00013 0,0.00013zm-0.00409 -0.00048c0.00015,-0.00014 0.0003,-0.00029 0.00044,-0.00043 0.00022,-0.00024 0.00034,-0.00043 0.00034,-0.00055 0,-0.00015 -0.00004,-0.00026 -0.00011,-0.00035 -0.00007,-0.00008 -0.00017,-0.00012 -0.00029,-0.00012 -0.00015,0 -0.00026,0.00009 -0.00035,0.00026 -0.00008,0.00018 -0.00013,0.00039 -0.00013,0.00063 0,0.0001 0.00001,0.0002 0.00002,0.00029 0.00001,0.00009 0.00004,0.00018 0.00007,0.00027zm0.00075 -0.00186c0.00017,0 0.0003,0.00003 0.00041,0.00009 0.00011,0.00006 0.00026,0.00018 0.00044,0.00037l-0.00154 0.00155c0.00008,0.00014 0.00019,0.00023 0.00031,0.00027 0.00013,0.00004 0.00027,0.00006 0.00042,0.00006 0.00016,0 0.0003,-0.00004 0.00044,-0.00011 0.00014,-0.00007 0.00026,-0.00015 0.00037,-0.00023 -0.00017,0.00026 -0.00036,0.00046 -0.00056,0.00059 -0.0002,0.00013 -0.00044,0.0002 -0.0007,0.0002 -0.00038,0 -0.00064,-0.00012 -0.0008,-0.00036 -0.00016,-0.00024 -0.00023,-0.0005 -0.00023,-0.00078 0,-0.00049 0.00014,-0.00089 0.00041,-0.00118 0.00028,-0.0003 0.00062,-0.00045 0.00102,-0.00045zm-0.00376 0.00136c0,0.00021 0.00003,0.00036 0.0001,0.00046 0.00007,0.0001 0.00016,0.00015 0.00028,0.00015 0.0001,0 0.00021,-0.00003 0.00033,-0.00009 0.00012,-0.00006 0.00023,-0.00014 0.00035,-0.00025l0 -0.00141c-0.00032,0 -0.00057,0.00012 -0.00077,0.00035 -0.00019,0.00023 -0.00029,0.0005 -0.00029,0.0008zm0.00166 0.00101c0,0.00006 0.00003,0.00008 0.00008,0.00008 0.00004,0 0.00008,-0.00001 0.00014,-0.00004 0.00005,-0.00003 0.00014,-0.00007 0.00026,-0.00014 -0.00005,0.00011 -0.00014,0.00022 -0.00027,0.00032 -0.00013,0.00011 -0.00026,0.00017 -0.00037,0.00018 -0.00007,0 -0.00016,-0.00005 -0.00026,-0.00015 -0.00011,-0.0001 -0.00016,-0.00022 -0.00016,-0.00037l0 -0.00034c-0.00025,0.00025 -0.00047,0.00046 -0.00065,0.00062 -0.00018,0.00016 -0.00034,0.00024 -0.00047,0.00024 -0.00014,0 -0.00027,-0.00009 -0.00038,-0.00026 -0.00011,-0.00017 -0.00017,-0.0004 -0.00017,-0.00068 0,-0.00057 0.00016,-0.00102 0.00047,-0.00134 0.00031,-0.00032 0.00071,-0.00048 0.0012,-0.00048l0 -0.00043c0,-0.0003 0.00008,-0.00056 0.00024,-0.00077 0.00016,-0.00021 0.00038,-0.00031 0.00065,-0.00031l0.00057 0c-0.00014,0.00025 -0.00031,0.00037 -0.00053,0.00039 -0.00022,0.00001 -0.00033,0.00005 -0.00033,0.00012l0 0.00335zm-0.00332 -0.00238c0.00013,0 0.00022,0.00005 0.00028,0.00015 0.00005,0.0001 0.00008,0.00022 0.00008,0.00036l0 0.00178c0.00002,0.00012 0.00006,0.00018 0.00013,0.00018 0.00005,0 0.00011,-0.00003 0.00018,-0.00008 0.00007,-0.00006 0.00011,-0.00009 0.00013,-0.00011 -0.0001,0.00017 -0.0002,0.0003 -0.00031,0.00038 -0.0001,0.00008 -0.00022,0.00012 -0.00035,0.00012 -0.00011,0 -0.0002,-0.00005 -0.00027,-0.00014 -0.00007,-0.00009 -0.0001,-0.0002 -0.0001,-0.00033l0 -0.00187c0,-0.00008 -0.00003,-0.00012 -0.00009,-0.00012 -0.00008,0 -0.00021,0.00007 -0.00037,0.00022 0.00002,-0.00008 0.00011,-0.00019 0.00026,-0.00033 0.00015,-0.00014 0.0003,-0.00021 0.00043,-0.00021zm0.00008 -0.00138c0.00011,0 0.00019,0.00004 0.00027,0.00011 0.00007,0.00008 0.00011,0.00018 0.00011,0.00031 0,0.00015 -0.00006,0.00026 -0.00019,0.00035 -0.00013,0.00008 -0.00024,0.00013 -0.00034,0.00013 -0.00009,0 -0.00016,-0.00005 -0.0002,-0.00014 -0.00004,-0.0001 -0.00007,-0.00021 -0.00007,-0.00033 0,-0.00016 0.00004,-0.00027 0.00011,-0.00033 0.00008,-0.00006 0.00018,-0.00009 0.00031,-0.00009zm-0.00102 0.00136c-0.00007,0.00012 -0.00012,0.00023 -0.00016,0.00034 -0.00003,0.00012 -0.00006,0.00022 -0.00009,0.00031 -0.00014,-0.00015 -0.00026,-0.00026 -0.00038,-0.00032 -0.00012,-0.00006 -0.00026,-0.00009 -0.00041,-0.00009 -0.00016,0 -0.00027,0.00003 -0.00033,0.00008 -0.00006,0.00006 -0.0001,0.00013 -0.0001,0.00022 0,0.00011 0.00016,0.00023 0.00048,0.00036 0.00032,0.00013 0.00057,0.00027 0.00075,0.0004 0.00018,0.00013 0.00028,0.00034 0.00028,0.00063 0,0.00034 -0.0001,0.00057 -0.00031,0.00068 -0.00021,0.00011 -0.00048,0.00017 -0.0008,0.00017 -0.00033,0 -0.00053,-0.00006 -0.00062,-0.00018 -0.00009,-0.00012 -0.00013,-0.00042 -0.00013,-0.00089 0.00008,0.00022 0.00021,0.00042 0.00039,0.0006 0.00018,0.00018 0.0004,0.00027 0.00065,0.00027 0.00029,0 0.00044,-0.00013 0.00044,-0.0004 0,-0.00013 -0.00015,-0.00026 -0.00046,-0.0004 -0.00031,-0.00014 -0.00055,-0.00028 -0.00072,-0.00041 -0.00017,-0.00013 -0.00026,-0.00035 -0.00026,-0.00066 0,-0.00027 0.00008,-0.00045 0.00025,-0.00056 0.00017,-0.0001 0.00039,-0.00015 0.00066,-0.00015 0.00007,0 0.00017,0.00002 0.0003,0.00005 0.00013,0.00003 0.0002,0.00005 0.00022,0.00005 0.00007,0 0.00012,-0.00001 0.00017,-0.00002 0.00005,-0.00001 0.00011,-0.00004 0.00019,-0.00008zm-0.00369 0.00189c0.00015,-0.00014 0.0003,-0.00029 0.00044,-0.00043 0.00022,-0.00024 0.00034,-0.00043 0.00034,-0.00055 0,-0.00015 -0.00004,-0.00026 -0.00011,-0.00035 -0.00007,-0.00008 -0.00017,-0.00012 -0.00029,-0.00012 -0.00015,0 -0.00026,0.00009 -0.00035,0.00026 -0.00008,0.00018 -0.00013,0.00039 -0.00013,0.00063 0,0.0001 0.00001,0.0002 0.00002,0.00029 0.00001,0.00009 0.00004,0.00018 0.00007,0.00027zm0.00075 -0.00186c0.00017,0 0.0003,0.00003 0.00041,0.00009 0.00011,0.00006 0.00026,0.00018 0.00044,0.00037l-0.00154 0.00155c0.00008,0.00014 0.00019,0.00023 0.00031,0.00027 0.00013,0.00004 0.00027,0.00006 0.00042,0.00006 0.00016,0 0.0003,-0.00004 0.00044,-0.00011 0.00014,-0.00007 0.00026,-0.00015 0.00037,-0.00023 -0.00017,0.00026 -0.00036,0.00046 -0.00056,0.00059 -0.0002,0.00013 -0.00044,0.0002 -0.0007,0.0002 -0.00038,0 -0.00064,-0.00012 -0.0008,-0.00036 -0.00016,-0.00024 -0.00023,-0.0005 -0.00023,-0.00078 0,-0.00049 0.00014,-0.00089 0.00041,-0.00118 0.00028,-0.0003 0.00062,-0.00045 0.00102,-0.00045zm-0.00177 -0.00008c0,0.00042 -0.00017,0.00076 -0.0005,0.001 -0.00033,0.00024 -0.00075,0.00037 -0.00125,0.00037 0.00016,0.00028 0.00038,0.00066 0.00067,0.00113 0.00028,0.00047 0.00067,0.00095 0.00116,0.00144 0.00049,0.00049 0.00099,0.00073 0.00149,0.00073 0.00026,0 0.00053,-0.00008 0.0008,-0.00023 0.00028,-0.00015 0.00047,-0.00029 0.00059,-0.00041 -0.00019,0.00028 -0.00042,0.0005 -0.0007,0.00066 -0.00028,0.00016 -0.00065,0.00024 -0.00111,0.00024 -0.00058,0 -0.00109,-0.00018 -0.00155,-0.00054 -0.00046,-0.00036 -0.00084,-0.0008 -0.00116,-0.00131 -0.00032,-0.00051 -0.00063,-0.00111 -0.00096,-0.0018 0.00056,0 0.00098,-0.00007 0.00127,-0.0002 0.00029,-0.00014 0.00043,-0.00042 0.00043,-0.00085 0,-0.00047 -0.00013,-0.00082 -0.0004,-0.00103 -0.00027,-0.00021 -0.00079,-0.00031 -0.00155,-0.00031l0 0.00356c0,0.00015 0.00004,0.00028 0.00013,0.0004 0.00009,0.00012 0.00024,0.00022 0.00045,0.0003l-0.00217 0c0.00025,-0.00005 0.00044,-0.00014 0.00058,-0.00027 0.00014,-0.00013 0.00021,-0.00029 0.00021,-0.00048l0 -0.00206c0,-0.00025 0.00005,-0.00051 0.00014,-0.00081 0.00009,-0.00029 0.00022,-0.00051 0.00037,-0.00064 -0.00092,0 -0.00153,0.00011 -0.00185,0.00033 -0.00031,0.00022 -0.00047,0.00052 -0.00047,0.0009 0,0.00037 0.0001,0.0007 0.0003,0.00099 0.0002,0.00029 0.00055,0.00054 0.00103,0.00074 -0.00053,0 -0.00094,-0.00015 -0.00122,-0.00043 -0.00029,-0.00029 -0.00043,-0.00065 -0.00043,-0.00108 0,-0.00055 0.00021,-0.00096 0.00064,-0.00123 0.00043,-0.00027 0.00116,-0.00041 0.00219,-0.00041l0.00009 -0.0001 0 0.0001c0.00102,0 0.00173,0.00009 0.00214,0.00028 0.00041,0.00019 0.00062,0.00053 0.00062,0.00104zm-0.00856 -0.00031c0,-0.0003 0.00008,-0.00056 0.00025,-0.00078 0.00017,-0.00021 0.00038,-0.00032 0.00065,-0.00032l0.00057 0c-0.00014,0.00025 -0.00031,0.00038 -0.00053,0.00039 -0.00022,0.00001 -0.00032,0.00005 -0.00032,0.00012l0 0.00323c0,0.00008 0.00003,0.00011 0.00009,0.00011 0.00005,0 0.00012,-0.00003 0.00021,-0.00009 0.00009,-0.00006 0.00018,-0.00013 0.00029,-0.00023 -0.00011,0.00019 -0.00024,0.00036 -0.0004,0.00051 -0.00016,0.00014 -0.00031,0.00022 -0.00044,0.00022 -0.00013,0 -0.00022,-0.00005 -0.00028,-0.00014 -0.00006,-0.0001 -0.00009,-0.00023 -0.00009,-0.00039l0 -0.00264zm-0.00229 0.00176c0,0.00021 0.00003,0.00036 0.0001,0.00046 0.00007,0.0001 0.00016,0.00015 0.00028,0.00015 0.0001,0 0.00021,-0.00003 0.00033,-0.00009 0.00012,-0.00006 0.00023,-0.00015 0.00035,-0.00025l0 -0.00142c-0.00032,0 -0.00057,0.00012 -0.00077,0.00035 -0.00019,0.00023 -0.00029,0.0005 -0.00029,0.0008zm0.00166 -0.00133l0 0.00235c0,0.00006 0.00003,0.00008 0.00008,0.00008 0.00004,0 0.00008,-0.00001 0.00014,-0.00004 0.00005,-0.00003 0.00014,-0.00008 0.00026,-0.00014 -0.00006,0.00011 -0.00015,0.00023 -0.00028,0.00034 -0.00013,0.00011 -0.00025,0.00017 -0.00037,0.00017 -0.00007,0 -0.00016,-0.00005 -0.00026,-0.00014 -0.00011,-0.00009 -0.00016,-0.00022 -0.00016,-0.00037l0 -0.00034c-0.00026,0.00026 -0.00048,0.00047 -0.00065,0.00062 -0.00018,0.00016 -0.00033,0.00023 -0.00046,0.00023 -0.00014,0 -0.00027,-0.00008 -0.00038,-0.00025 -0.00011,-0.00017 -0.00017,-0.0004 -0.00017,-0.00068 0,-0.00058 0.00016,-0.00102 0.00048,-0.00134 0.00032,-0.00032 0.00073,-0.00048 0.00124,-0.00048l0.00055 0zm-0.003 -0.00014c0.00006,0 0.00017,0.00009 0.00031,0.00027 0.00014,0.00018 0.00021,0.00037 0.00021,0.00057 0,0.0001 -0.00015,0.00042 -0.00046,0.00097 -0.00031,0.00054 -0.00054,0.00097 -0.00069,0.00128 -0.00015,0.00031 -0.00023,0.00059 -0.00023,0.00084 0,0.00021 0.00006,0.00039 0.00018,0.00056 0.00012,0.00017 0.00028,0.00025 0.00048,0.00025 0.00017,0 0.00029,-0.00004 0.00039,-0.00013 0.00009,-0.00009 0.00018,-0.00024 0.00028,-0.00046 0,0.00033 -0.0001,0.00055 -0.00029,0.00067 -0.00019,0.00012 -0.00042,0.00018 -0.00067,0.00018 -0.00033,0 -0.00057,-0.00005 -0.00072,-0.00016 -0.00015,-0.00011 -0.00023,-0.0003 -0.00023,-0.00058 0,-0.00022 0.00007,-0.00044 0.0002,-0.00066 0.00013,-0.00021 0.00032,-0.00048 0.00056,-0.0008 -0.00008,-0.00017 -0.00018,-0.0004 -0.00031,-0.0007 -0.00013,-0.0003 -0.00028,-0.00059 -0.00044,-0.00088 -0.00016,-0.00029 -0.00027,-0.00044 -0.00032,-0.00046 -0.00005,-0.00001 -0.0001,-0.00002 -0.00014,-0.00002 -0.0001,0 -0.0002,0.00002 -0.0003,0.00007 -0.00011,0.00004 -0.00021,0.0001 -0.0003,0.00016 0.00012,-0.00019 0.00027,-0.00038 0.00045,-0.00057 0.00018,-0.00019 0.00034,-0.00028 0.00049,-0.00028 0.00019,0 0.00043,0.0003 0.00071,0.0009 0.00028,0.0006 0.00048,0.00097 0.00058,0.00111 0.00007,-0.00012 0.00013,-0.00026 0.0002,-0.00041 0.00006,-0.00015 0.0001,-0.0003 0.0001,-0.00046 0,-0.00017 -0.00004,-0.00032 -0.00013,-0.00044 -0.00009,-0.00012 -0.00021,-0.00022 -0.00038,-0.0003 0.00006,-0.00011 0.00013,-0.00023 0.00021,-0.00034 0.00008,-0.00011 0.00017,-0.00017 0.00029,-0.00017zm-0.00454 0.00119c0,0.00035 0.00005,0.00066 0.00014,0.00096 0.00009,0.00029 0.0003,0.00044 0.00061,0.00044 0.00018,0 0.00033,-0.00008 0.00044,-0.00023 0.00011,-0.00015 0.00017,-0.00035 0.00017,-0.00058 0,-0.00034 -0.00006,-0.00066 -0.00017,-0.00094 -0.00011,-0.00028 -0.00031,-0.00043 -0.00058,-0.00043 -0.00019,0 -0.00033,0.00007 -0.00044,0.00022 -0.00011,0.00015 -0.00017,0.00034 -0.00017,0.00056zm0.00083 -0.00108c0.00035,0 0.00062,0.00012 0.00082,0.00037 0.0002,0.00025 0.0003,0.00056 0.0003,0.00093 0,0.00039 -0.00014,0.00073 -0.00043,0.00103 -0.00029,0.0003 -0.00061,0.00045 -0.00097,0.00045 -0.00033,0 -0.0006,-0.00013 -0.0008,-0.00038 -0.0002,-0.00025 -0.0003,-0.00057 -0.0003,-0.00095 0,-0.00038 0.00014,-0.00072 0.00042,-0.00101 0.00028,-0.0003 0.0006,-0.00044 0.00097,-0.00044zm-0.0017 -0.00008c0,0.00042 -0.00017,0.00076 -0.0005,0.001 -0.00033,0.00024 -0.00075,0.00037 -0.00125,0.00037 0.00016,0.00028 0.00038,0.00066 0.00067,0.00113 0.00028,0.00047 0.00067,0.00095 0.00116,0.00144 0.00049,0.00049 0.00099,0.00073 0.00149,0.00073 0.00026,0 0.00053,-0.00008 0.0008,-0.00023 0.00028,-0.00015 0.00047,-0.00029 0.00059,-0.00041 -0.00019,0.00028 -0.00042,0.0005 -0.0007,0.00066 -0.00028,0.00016 -0.00065,0.00024 -0.00111,0.00024 -0.00058,0 -0.00109,-0.00018 -0.00155,-0.00054 -0.00046,-0.00036 -0.00084,-0.0008 -0.00116,-0.00131 -0.00032,-0.00051 -0.00063,-0.00111 -0.00096,-0.0018 0.00056,0 0.00098,-0.00007 0.00127,-0.0002 0.00029,-0.00014 0.00043,-0.00042 0.00043,-0.00085 0,-0.00047 -0.00013,-0.00082 -0.0004,-0.00103 -0.00027,-0.00021 -0.00079,-0.00031 -0.00155,-0.00031l0 0.00356c0,0.00015 0.00004,0.00028 0.00013,0.0004 0.00009,0.00012 0.00024,0.00022 0.00045,0.0003l-0.00217 0c0.00025,-0.00005 0.00044,-0.00014 0.00058,-0.00027 0.00014,-0.00013 0.00021,-0.00029 0.00021,-0.00048l0 -0.00206c0,-0.00025 0.00005,-0.00051 0.00014,-0.00081 0.00009,-0.00029 0.00022,-0.00051 0.00037,-0.00064 -0.00092,0 -0.00153,0.00011 -0.00185,0.00033 -0.00031,0.00022 -0.00047,0.00052 -0.00047,0.0009 0,0.00037 0.0001,0.0007 0.0003,0.00099 0.0002,0.00029 0.00055,0.00054 0.00103,0.00074 -0.00053,0 -0.00094,-0.00015 -0.00122,-0.00043 -0.00029,-0.00029 -0.00043,-0.00065 -0.00043,-0.00108 0,-0.00055 0.00021,-0.00096 0.00064,-0.00123 0.00043,-0.00027 0.00116,-0.00041 0.00219,-0.00041l0.00009 -0.0001 0 0.0001c0.00102,0 0.00173,0.00009 0.00214,0.00028 0.00041,0.00019 0.00062,0.00053 0.00062,0.00104z"/>
 </g>
</svg>
