<?xml version="1.0" encoding="UTF-8"?>
<!DOCTYPE svg PUBLIC "-//W3C//DTD SVG 1.1//EN" "http://www.w3.org/Graphics/SVG/1.1/DTD/svg11.dtd">
<!-- Creator: CorelDRAW 2020 (64-Bit) -->
<svg xmlns="http://www.w3.org/2000/svg" xml:space="preserve" width="0.468319in" height="0.116661in" version="1.1" style="shape-rendering:geometricPrecision; text-rendering:geometricPrecision; image-rendering:optimizeQuality; fill-rule:evenodd; clip-rule:evenodd"
viewBox="0 0 0.01204 0.003"
 xmlns:xlink="http://www.w3.org/1999/xlink"
 xmlns:xodm="http://www.corel.com/coreldraw/odm/2003">
 <defs>
  <style type="text/css">
   <![CDATA[
    .fil0 {fill:#AAAAAA}
   ]]>
  </style>
 </defs>
 <g id="Layer_x0020_1">
  <metadata id="CorelCorpID_0Corel-Layer"/>
  <path class="fil0" d="M0.00226 0.00117l-0.00073 -0.00033c-0.00009,-0 -0.00017,0.00001 -0.00023,0.00003 -0.00023,0.00007 -0.00023,0.00027 -0.00023,0.00027l0.0003 -0.00016c0.00003,-0.00002 0.00004,-0.00001 0.00008,-0l0.00082 0.00036c0.00002,0.00001 0.00005,0.00001 0.00007,-0l0.00033 -0.00019 -0.00006 -0.00013 -0.0003 0.00016c-0.00002,0.00001 -0.00004,0.00001 -0.00006,-0zm-0.00066 0.0012c0.00017,-0.00004 0.00031,-0.00013 0.00043,-0.00025 -0.0002,-0.00036 -0.00041,-0.00071 -0.00061,-0.00107 -0.00018,0.00006 -0.00032,0.00015 -0.00043,0.00025 0.0002,0.00036 0.00041,0.00071 0.00061,0.00107zm-0.0016 0.00054l0.00136 -0.00078 -0.00013 -0.00024 -0.00121 0.0007 -0.00001 0.00032zm0.00057 0.00004l0.00094 -0.00054 -0.00013 -0.00024 -0.00136 0.00078 0.00055 0zm0.00207 -0.00205l0.00015 0.00028 0.00059 -0.00032c0.00008,-0.00004 0.00011,-0.00014 0.00007,-0.00022l0 -0c-0.00004,-0.00008 -0.00014,-0.00011 -0.00022,-0.00006l-0.00059 0.00032zm-0.00263 0.00163l0.00119 -0.00068 -0.00013 -0.00024 -0.00105 0.0006 -0.00001 0.00032zm0.00001 -0.00038l0.00102 -0.00059 -0.00013 -0.00024 -0.00088 0.0005 -0.00001 0.00032zm0.00228 -0.00077l-0.00004 0.00122 -0.00101 0 -0.0006 0.00034 0.00047 0 0.00034 0 0.00112 0 0.00004 -0.00122 0.00002 -0.00053 -0.00029 0.00017 -0.00001 0c-0.00002,0.00001 -0.00004,0.00001 -0.00006,0.00001zm-0.00192 0.00019l0.00001 -0.00043 0.00099 -0.00072 0.00092 0.0007 0.00031 -0.00017 -0.00003 -0.00006 -0.00118 -0.0009 -0.00134 0.00097 -0.00003 0.00078 -0 0.00003 0.00035 -0.0002zm0.00395 -0.00009c-0.00006,-0.00005 -0.00012,-0.00009 -0.00017,-0.00012 -0.00005,-0.00002 -0.00011,-0.00004 -0.00018,-0.00004 -0.00005,0 -0.0001,0.00001 -0.00015,0.00004 -0.00005,0.00003 -0.00007,0.00007 -0.00008,0.00011 -0,0.00007 0.00005,0.00012 0.00015,0.00016 0.0001,0.00004 0.00021,0.00008 0.00032,0.00012 0.00011,0.00004 0.00021,0.0001 0.00029,0.00019 0.00008,0.00009 0.00012,0.00021 0.00011,0.00038 -0.00001,0.00021 -0.00009,0.00038 -0.00024,0.00049 -0.00015,0.00012 -0.00034,0.00017 -0.00056,0.00017 -0.00013,0 -0.00026,-0.00002 -0.00037,-0.00006 -0.00012,-0.00004 -0.00023,-0.0001 -0.00032,-0.00018l0.00031 -0.00038c0.00009,0.00011 0.00022,0.00016 0.00037,0.00016 0.00006,0 0.00012,-0.00002 0.00018,-0.00005 0.00006,-0.00003 0.00009,-0.00007 0.00009,-0.00013 0,-0.00007 -0.00005,-0.00012 -0.00015,-0.00016 -0.00005,-0.00002 -0.0001,-0.00004 -0.00016,-0.00006l-0.00008 -0.00003 -0.00008 -0.00003c-0.00011,-0.00004 -0.00021,-0.0001 -0.00029,-0.00019 -0.00008,-0.00008 -0.00011,-0.00021 -0.00011,-0.00037 0,-0.00012 0.00004,-0.00023 0.00012,-0.00033 0.00007,-0.00009 0.00017,-0.00016 0.00028,-0.00021 0.00011,-0.00005 0.00023,-0.00007 0.00036,-0.00007 0.00012,0 0.00023,0.00002 0.00034,0.00006 0.00011,0.00004 0.00021,0.0001 0.0003,0.00017l-0.00029 0.00034zm0.00737 0.00099l-0.00001 0.00022c-0,0 0,0.00001 0.00001,0.00001l0.00005 0c0,0 0.00001,-0 0.00001,-0.00001l0.00001 -0.00017 0.00008 0c0.00004,0 0.00007,0.00003 0.00007,0.00007l-0.00001 0.00023c-0,0.00004 -0.00003,0.00006 -0.00008,0.00006l-0.00021 -0.00001c-0.00004,-0 -0.00007,-0.00003 -0.00007,-0.00007l0.00001 -0.00023c0,-0.00004 0.00003,-0.00006 0.00007,-0.00006 0,0 0.00001,-0 0.00001,-0.00001l0 -0.00004c0,-0 -0,-0 -0,-0 -0,-0 -0,-0 -0.00001,-0 -0.00008,-0 -0.00013,0.00004 -0.00014,0.00011l-0.00001 0.00023c-0,0.00007 0.00005,0.00012 0.00013,0.00013l0.00021 0.00001c0.00008,0.00001 0.00014,-0.00004 0.00014,-0.00011l0.00001 -0.00023c0,-0.00007 -0.00005,-0.00012 -0.00013,-0.00013l-0.00013 -0.00001c-0,-0 -0.00001,0 -0.00001,0.00001zm-0.0001 -0.00054l-0 0.00009c-0,0.00004 0.00002,0.00007 0.00005,0.0001 -0.00003,0.00002 -0.00005,0.00005 -0.00005,0.00009l-0 0.00009c-0,0.00002 0.00001,0.00005 0.00002,0.00007l-0.00002 -0c-0,-0 -0.00001,0 -0.00001,0.00001l-0 0.00004c-0,0 0,0.00001 0.00001,0.00001l0.00038 0.00002c0,0 0.00001,-0 0.00001,-0.00001l0 -0.00004c0,-0 -0,-0.00001 -0.00001,-0.00001l-0.00025 -0.00002c-0.00004,-0 -0.00007,-0.00003 -0.00007,-0.00007l0 -0.00009c0,-0.00004 0.00003,-0.00006 0.00008,-0.00006l0.00025 0.00002c0,0 0.00001,-0 0.00001,-0.00001l0 -0.00004c0,-0 -0,-0.00001 -0.00001,-0.00001l-0.00025 -0.00002c-0.00004,-0 -0.00007,-0.00003 -0.00007,-0.00007l0 -0.00009c0,-0.00004 0.00003,-0.00006 0.00008,-0.00006l0.00025 0.00002c0,0 0.00001,-0 0.00001,-0.00001l0 -0.00004c0,-0 -0,-0.00001 -0.00001,-0.00001l-0.00025 -0.00002c-0.00008,-0.00001 -0.00014,0.00004 -0.00014,0.00011zm0.00002 -0.00038l-0 0.00009c-0,0.00002 0.00001,0.00005 0.00002,0.00007l-0.00011 -0.00001c-0,-0 -0.00001,0 -0.00001,0.00001l-0 0.00004c-0,0 0,0.00001 0.00001,0.00001l0.00048 0.00003c0,0 0,-0 0,-0 0,-0 0,-0 0,-0l0 -0.00004c0,-0 -0,-0.00001 -0.00001,-0.00001l-0.00002 -0c0.00002,-0.00002 0.00002,-0.00004 0.00003,-0.00006l0 -0.00009c0,-0.00007 -0.00005,-0.00012 -0.00013,-0.00013l-0.00012 -0.00001c-0.00008,-0.00001 -0.00014,0.00004 -0.00014,0.00011zm0.00026 -0.00005c0.00004,0 0.00007,0.00003 0.00007,0.00007l-0 0.00009c-0,0.00004 -0.00003,0.00006 -0.00008,0.00006l-0.00012 -0.00001c-0.00004,-0 -0.00007,-0.00003 -0.00007,-0.00007l0 -0.00009c0,-0.00004 0.00003,-0.00006 0.00008,-0.00006l0.00012 0.00001zm-0.00033 -0.00054l-0 0.00004c-0,0 0,0.00001 0.00001,0.00001l0.00021 0.00001 -0.00001 0.00031 -0.00021 -0.00001c-0,-0 -0.00001,0 -0.00001,0.00001l-0 0.00004c-0,0 0,0 0,0 0,0 0,0 0,0l0.00047 0.00003c0,0 0,-0 0,-0 0,-0 0,-0 0,-0l0 -0.00004c0,-0 -0,-0.00001 -0.00001,-0.00001l-0.00021 -0.00001 0.00001 -0.00031 0.00021 0.00001c0,0 0.00001,-0 0.00001,-0.00001l0 -0.00004c0,-0 -0,-0.00001 -0.00001,-0.00001l-0.00047 -0.00003c-0,-0 -0.00001,0 -0.00001,0.00001zm-0.00437 0.00116l0.00002 0 0.00002 -0.00043 -0.00015 0 -0.00024 0 -0.00021 0 0.00001 -0.00031 0.00088 0 0.00001 -0.00042 -0.00071 0c-0.00033,0.00044 -0.00037,0.00075 -0.00041,0.00106 -0.00004,0.00028 -0.00007,0.00056 -0.00031,0.00093l0.00135 0 0.00001 -0.00042 -0.00088 0 0.00001 -0.0004 0.00024 0 0.00034 0zm-0.00047 -0.00116l-0.00063 0 -0.00003 0.00073 -0.00072 0 0.00003 -0.00073 -0.00056 0 -0.00007 0.00199 0.00056 0 0.00003 -0.00081 0.00072 0 -0.00003 0.0008c0.00024,-0.00037 0.00028,-0.00065 0.00031,-0.00093 0.00004,-0.00031 0.00008,-0.00061 0.00039,-0.00104zm0.00146 0.00117l0.00072 0 -0.00003 0.00081 0.00056 0 0.00007 -0.00199 -0.00056 0 -0.00003 0.00073 -0.00072 0 0.00003 -0.00073 -0.00056 0 -0.00007 0.00199 0.00056 0 0.00003 -0.00081zm0.0033 -0.00117l-0.00005 0.0013c-0.00001,0.00015 -0.00005,0.00028 -0.00014,0.00039 -0.00009,0.00011 -0.0002,0.0002 -0.00035,0.00025 -0.00015,0.00006 -0.00032,0.00009 -0.00051,0.00009 -0.00018,0 -0.00033,-0.00003 -0.00046,-0.00008 -0.00013,-0.00005 -0.00023,-0.00013 -0.0003,-0.00023 -0.00007,-0.0001 -0.0001,-0.00024 -0.0001,-0.00039l0.00005 -0.00133 0.00056 0 -0.00004 0.00119c-0,0.00008 0.00001,0.00014 0.00002,0.0002 0.00002,0.00006 0.00005,0.0001 0.0001,0.00014 0.00005,0.00003 0.00012,0.00005 0.00021,0.00005 0.00017,0 0.00028,-0.00004 0.00033,-0.00013 0.00005,-0.00009 0.00008,-0.00021 0.00009,-0.00037l0.00004 -0.00109 0.00056 0z"/>
 </g>
</svg>
