<?xml version="1.0" encoding="UTF-8"?>
<!DOCTYPE svg PUBLIC "-//W3C//DTD SVG 1.1//EN" "http://www.w3.org/Graphics/SVG/1.1/DTD/svg11.dtd">
<!-- Creator: CorelDRAW 2020 (64-Bit) -->
<svg xmlns="http://www.w3.org/2000/svg" xml:space="preserve" width="0.505102in" height="0.116665in" version="1.1" style="shape-rendering:geometricPrecision; text-rendering:geometricPrecision; image-rendering:optimizeQuality; fill-rule:evenodd; clip-rule:evenodd"
viewBox="0 0 0.15851 0.03661"
 xmlns:xlink="http://www.w3.org/1999/xlink"
 xmlns:xodm="http://www.corel.com/coreldraw/odm/2003">
 <defs>
  <style type="text/css">
   <![CDATA[
    .fil0 {fill:#AAAAAA;fill-rule:nonzero}
   ]]>
  </style>
 </defs>
 <g id="Layer_x0020_1">
  <metadata id="CorelCorpID_0Corel-Layer"/>
  <path class="fil0" d="M0.0013 0c0.00072,0 0.0013,0.00058 0.0013,0.0013 0,0.00072 -0.00058,0.0013 -0.0013,0.0013 -0.00072,0 -0.0013,-0.00058 -0.0013,-0.0013 0,-0.00072 0.00058,-0.0013 0.0013,-0.0013zm0.00357 0c0.00072,0 0.0013,0.00058 0.0013,0.0013 0,0.00072 -0.00058,0.0013 -0.0013,0.0013 -0.00072,0 -0.0013,-0.00058 -0.0013,-0.0013 0,-0.00072 0.00058,-0.0013 0.0013,-0.0013zm0.00357 0c0.00072,0 0.0013,0.00058 0.0013,0.0013 0,0.00072 -0.00058,0.0013 -0.0013,0.0013 -0.00072,0 -0.0013,-0.00058 -0.0013,-0.0013 0,-0.00072 0.00058,-0.0013 0.0013,-0.0013zm0.00357 0c0.00072,0 0.0013,0.00058 0.0013,0.0013 0,0.00072 -0.00058,0.0013 -0.0013,0.0013 -0.00072,0 -0.0013,-0.00058 -0.0013,-0.0013 0,-0.00072 0.00058,-0.0013 0.0013,-0.0013zm0.00357 0c0.00072,0 0.0013,0.00058 0.0013,0.0013 0,0.00072 -0.00058,0.0013 -0.0013,0.0013 -0.00072,0 -0.0013,-0.00058 -0.0013,-0.0013 0,-0.00072 0.00058,-0.0013 0.0013,-0.0013zm0.00357 0c0.00072,0 0.0013,0.00058 0.0013,0.0013 0,0.00072 -0.00058,0.0013 -0.0013,0.0013 -0.00072,0 -0.0013,-0.00058 -0.0013,-0.0013 0,-0.00072 0.00058,-0.0013 0.0013,-0.0013zm-0.01787 0.00378c0.00072,0 0.0013,0.00058 0.0013,0.0013 0,0.00072 -0.00058,0.0013 -0.0013,0.0013 -0.00072,0 -0.0013,-0.00058 -0.0013,-0.0013 0,-0.00072 0.00058,-0.0013 0.0013,-0.0013zm0 0.00378c0.00072,0 0.0013,0.00058 0.0013,0.0013 0,0.00072 -0.00058,0.0013 -0.0013,0.0013 -0.00072,0 -0.0013,-0.00058 -0.0013,-0.0013 0,-0.00072 0.00058,-0.0013 0.0013,-0.0013zm0 0.00378c0.00072,0 0.0013,0.00058 0.0013,0.0013 0,0.00072 -0.00058,0.0013 -0.0013,0.0013 -0.00072,0 -0.0013,-0.00058 -0.0013,-0.0013 0,-0.00072 0.00058,-0.0013 0.0013,-0.0013zm0 0.00378c0.00072,0 0.0013,0.00058 0.0013,0.0013 0,0.00072 -0.00058,0.0013 -0.0013,0.0013 -0.00072,0 -0.0013,-0.00058 -0.0013,-0.0013 0,-0.00072 0.00058,-0.0013 0.0013,-0.0013zm0 0.00378c0.00072,0 0.0013,0.00058 0.0013,0.0013 0,0.00072 -0.00058,0.0013 -0.0013,0.0013 -0.00072,0 -0.0013,-0.00058 -0.0013,-0.0013 0,-0.00072 0.00058,-0.0013 0.0013,-0.0013zm0 0.00378c0.00072,0 0.0013,0.00058 0.0013,0.0013 0,0.00072 -0.00058,0.0013 -0.0013,0.0013 -0.00072,0 -0.0013,-0.00058 -0.0013,-0.0013 0,-0.00072 0.00058,-0.0013 0.0013,-0.0013zm0 0.00378c0.00072,0 0.0013,0.00058 0.0013,0.0013 0,0.00072 -0.00058,0.0013 -0.0013,0.0013 -0.00072,0 -0.0013,-0.00058 -0.0013,-0.0013 0,-0.00072 0.00058,-0.0013 0.0013,-0.0013zm0 0.00378c0.00072,0 0.0013,0.00058 0.0013,0.0013 0,0.00072 -0.00058,0.0013 -0.0013,0.0013 -0.00072,0 -0.0013,-0.00058 -0.0013,-0.0013 0,-0.00072 0.00058,-0.0013 0.0013,-0.0013zm0 0.00378c0.00072,0 0.0013,0.00058 0.0013,0.0013 0,0.00072 -0.00058,0.0013 -0.0013,0.0013 -0.00072,0 -0.0013,-0.00058 -0.0013,-0.0013 0,-0.00072 0.00058,-0.0013 0.0013,-0.0013zm0.00357 -0.03023c0.00072,0 0.0013,0.00058 0.0013,0.0013 0,0.00072 -0.00058,0.0013 -0.0013,0.0013 -0.00072,0 -0.0013,-0.00058 -0.0013,-0.0013 0,-0.00072 0.00058,-0.0013 0.0013,-0.0013zm0 0.00378c0.00072,0 0.0013,0.00058 0.0013,0.0013 0,0.00072 -0.00058,0.0013 -0.0013,0.0013 -0.00072,0 -0.0013,-0.00058 -0.0013,-0.0013 0,-0.00072 0.00058,-0.0013 0.0013,-0.0013zm0 0.00378c0.00072,0 0.0013,0.00058 0.0013,0.0013 0,0.00072 -0.00058,0.0013 -0.0013,0.0013 -0.00072,0 -0.0013,-0.00058 -0.0013,-0.0013 0,-0.00072 0.00058,-0.0013 0.0013,-0.0013zm0 0.00378c0.00072,0 0.0013,0.00058 0.0013,0.0013 0,0.00072 -0.00058,0.0013 -0.0013,0.0013 -0.00072,0 -0.0013,-0.00058 -0.0013,-0.0013 0,-0.00072 0.00058,-0.0013 0.0013,-0.0013zm0 0.00378c0.00072,0 0.0013,0.00058 0.0013,0.0013 0,0.00072 -0.00058,0.0013 -0.0013,0.0013 -0.00072,0 -0.0013,-0.00058 -0.0013,-0.0013 0,-0.00072 0.00058,-0.0013 0.0013,-0.0013zm0 0.00378c0.00072,0 0.0013,0.00058 0.0013,0.0013 0,0.00072 -0.00058,0.0013 -0.0013,0.0013 -0.00072,0 -0.0013,-0.00058 -0.0013,-0.0013 0,-0.00072 0.00058,-0.0013 0.0013,-0.0013zm0 0.00378c0.00072,0 0.0013,0.00058 0.0013,0.0013 0,0.00072 -0.00058,0.0013 -0.0013,0.0013 -0.00072,0 -0.0013,-0.00058 -0.0013,-0.0013 0,-0.00072 0.00058,-0.0013 0.0013,-0.0013zm0 0.00378c0.00072,0 0.0013,0.00058 0.0013,0.0013 0,0.00072 -0.00058,0.0013 -0.0013,0.0013 -0.00072,0 -0.0013,-0.00058 -0.0013,-0.0013 0,-0.00072 0.00058,-0.0013 0.0013,-0.0013zm0 0.00378c0.00072,0 0.0013,0.00058 0.0013,0.0013 0,0.00072 -0.00058,0.0013 -0.0013,0.0013 -0.00072,0 -0.0013,-0.00058 -0.0013,-0.0013 0,-0.00072 0.00058,-0.0013 0.0013,-0.0013zm0.00357 -0.03023c0.00072,0 0.0013,0.00058 0.0013,0.0013 0,0.00072 -0.00058,0.0013 -0.0013,0.0013 -0.00072,0 -0.0013,-0.00058 -0.0013,-0.0013 0,-0.00072 0.00058,-0.0013 0.0013,-0.0013zm0 0.00378c0.00072,0 0.0013,0.00058 0.0013,0.0013 0,0.00072 -0.00058,0.0013 -0.0013,0.0013 -0.00072,0 -0.0013,-0.00058 -0.0013,-0.0013 0,-0.00072 0.00058,-0.0013 0.0013,-0.0013zm0 0.00378c0.00072,0 0.0013,0.00058 0.0013,0.0013 0,0.00072 -0.00058,0.0013 -0.0013,0.0013 -0.00072,0 -0.0013,-0.00058 -0.0013,-0.0013 0,-0.00072 0.00058,-0.0013 0.0013,-0.0013zm0 0.00378c0.00072,0 0.0013,0.00058 0.0013,0.0013 0,0.00072 -0.00058,0.0013 -0.0013,0.0013 -0.00072,0 -0.0013,-0.00058 -0.0013,-0.0013 0,-0.00072 0.00058,-0.0013 0.0013,-0.0013zm0 0.00378c0.00072,0 0.0013,0.00058 0.0013,0.0013 0,0.00072 -0.00058,0.0013 -0.0013,0.0013 -0.00072,0 -0.0013,-0.00058 -0.0013,-0.0013 0,-0.00072 0.00058,-0.0013 0.0013,-0.0013zm0 0.00378c0.00072,0 0.0013,0.00058 0.0013,0.0013 0,0.00072 -0.00058,0.0013 -0.0013,0.0013 -0.00072,0 -0.0013,-0.00058 -0.0013,-0.0013 0,-0.00072 0.00058,-0.0013 0.0013,-0.0013zm0 0.00378c0.00072,0 0.0013,0.00058 0.0013,0.0013 0,0.00072 -0.00058,0.0013 -0.0013,0.0013 -0.00072,0 -0.0013,-0.00058 -0.0013,-0.0013 0,-0.00072 0.00058,-0.0013 0.0013,-0.0013zm0 0.00378c0.00072,0 0.0013,0.00058 0.0013,0.0013 0,0.00072 -0.00058,0.0013 -0.0013,0.0013 -0.00072,0 -0.0013,-0.00058 -0.0013,-0.0013 0,-0.00072 0.00058,-0.0013 0.0013,-0.0013zm0 0.00378c0.00072,0 0.0013,0.00058 0.0013,0.0013 0,0.00072 -0.00058,0.0013 -0.0013,0.0013 -0.00072,0 -0.0013,-0.00058 -0.0013,-0.0013 0,-0.00072 0.00058,-0.0013 0.0013,-0.0013zm0.00357 -0.03023c0.00072,0 0.0013,0.00058 0.0013,0.0013 0,0.00072 -0.00058,0.0013 -0.0013,0.0013 -0.00072,0 -0.0013,-0.00058 -0.0013,-0.0013 0,-0.00072 0.00058,-0.0013 0.0013,-0.0013zm0 0.00378c0.00072,0 0.0013,0.00058 0.0013,0.0013 0,0.00072 -0.00058,0.0013 -0.0013,0.0013 -0.00072,0 -0.0013,-0.00058 -0.0013,-0.0013 0,-0.00072 0.00058,-0.0013 0.0013,-0.0013zm0 0.00378c0.00072,0 0.0013,0.00058 0.0013,0.0013 0,0.00072 -0.00058,0.0013 -0.0013,0.0013 -0.00072,0 -0.0013,-0.00058 -0.0013,-0.0013 0,-0.00072 0.00058,-0.0013 0.0013,-0.0013zm0 0.00378c0.00072,0 0.0013,0.00058 0.0013,0.0013 0,0.00072 -0.00058,0.0013 -0.0013,0.0013 -0.00072,0 -0.0013,-0.00058 -0.0013,-0.0013 0,-0.00072 0.00058,-0.0013 0.0013,-0.0013zm0 0.00378c0.00072,0 0.0013,0.00058 0.0013,0.0013 0,0.00072 -0.00058,0.0013 -0.0013,0.0013 -0.00072,0 -0.0013,-0.00058 -0.0013,-0.0013 0,-0.00072 0.00058,-0.0013 0.0013,-0.0013zm0 0.00378c0.00072,0 0.0013,0.00058 0.0013,0.0013 0,0.00072 -0.00058,0.0013 -0.0013,0.0013 -0.00072,0 -0.0013,-0.00058 -0.0013,-0.0013 0,-0.00072 0.00058,-0.0013 0.0013,-0.0013zm0 0.00378c0.00072,0 0.0013,0.00058 0.0013,0.0013 0,0.00072 -0.00058,0.0013 -0.0013,0.0013 -0.00072,0 -0.0013,-0.00058 -0.0013,-0.0013 0,-0.00072 0.00058,-0.0013 0.0013,-0.0013zm0 0.00378c0.00072,0 0.0013,0.00058 0.0013,0.0013 0,0.00072 -0.00058,0.0013 -0.0013,0.0013 -0.00072,0 -0.0013,-0.00058 -0.0013,-0.0013 0,-0.00072 0.00058,-0.0013 0.0013,-0.0013zm0 0.00378c0.00072,0 0.0013,0.00058 0.0013,0.0013 0,0.00072 -0.00058,0.0013 -0.0013,0.0013 -0.00072,0 -0.0013,-0.00058 -0.0013,-0.0013 0,-0.00072 0.00058,-0.0013 0.0013,-0.0013zm0.00357 -0.03023c0.00072,0 0.0013,0.00058 0.0013,0.0013 0,0.00072 -0.00058,0.0013 -0.0013,0.0013 -0.00072,0 -0.0013,-0.00058 -0.0013,-0.0013 0,-0.00072 0.00058,-0.0013 0.0013,-0.0013zm0 0.00378c0.00072,0 0.0013,0.00058 0.0013,0.0013 0,0.00072 -0.00058,0.0013 -0.0013,0.0013 -0.00072,0 -0.0013,-0.00058 -0.0013,-0.0013 0,-0.00072 0.00058,-0.0013 0.0013,-0.0013zm0 0.00378c0.00072,0 0.0013,0.00058 0.0013,0.0013 0,0.00072 -0.00058,0.0013 -0.0013,0.0013 -0.00072,0 -0.0013,-0.00058 -0.0013,-0.0013 0,-0.00072 0.00058,-0.0013 0.0013,-0.0013zm0 0.00378c0.00072,0 0.0013,0.00058 0.0013,0.0013 0,0.00072 -0.00058,0.0013 -0.0013,0.0013 -0.00072,0 -0.0013,-0.00058 -0.0013,-0.0013 0,-0.00072 0.00058,-0.0013 0.0013,-0.0013zm0 0.00378c0.00072,0 0.0013,0.00058 0.0013,0.0013 0,0.00072 -0.00058,0.0013 -0.0013,0.0013 -0.00072,0 -0.0013,-0.00058 -0.0013,-0.0013 0,-0.00072 0.00058,-0.0013 0.0013,-0.0013zm0 0.00378c0.00072,0 0.0013,0.00058 0.0013,0.0013 0,0.00072 -0.00058,0.0013 -0.0013,0.0013 -0.00072,0 -0.0013,-0.00058 -0.0013,-0.0013 0,-0.00072 0.00058,-0.0013 0.0013,-0.0013zm0 0.00378c0.00072,0 0.0013,0.00058 0.0013,0.0013 0,0.00072 -0.00058,0.0013 -0.0013,0.0013 -0.00072,0 -0.0013,-0.00058 -0.0013,-0.0013 0,-0.00072 0.00058,-0.0013 0.0013,-0.0013zm0 0.00378c0.00072,0 0.0013,0.00058 0.0013,0.0013 0,0.00072 -0.00058,0.0013 -0.0013,0.0013 -0.00072,0 -0.0013,-0.00058 -0.0013,-0.0013 0,-0.00072 0.00058,-0.0013 0.0013,-0.0013zm0 0.00378c0.00072,0 0.0013,0.00058 0.0013,0.0013 0,0.00072 -0.00058,0.0013 -0.0013,0.0013 -0.00072,0 -0.0013,-0.00058 -0.0013,-0.0013 0,-0.00072 0.00058,-0.0013 0.0013,-0.0013zm0.00357 -0.03023c0.00072,0 0.0013,0.00058 0.0013,0.0013 0,0.00072 -0.00058,0.0013 -0.0013,0.0013 -0.00072,0 -0.0013,-0.00058 -0.0013,-0.0013 0,-0.00072 0.00058,-0.0013 0.0013,-0.0013zm0 0.00378c0.00072,0 0.0013,0.00058 0.0013,0.0013 0,0.00072 -0.00058,0.0013 -0.0013,0.0013 -0.00072,0 -0.0013,-0.00058 -0.0013,-0.0013 0,-0.00072 0.00058,-0.0013 0.0013,-0.0013zm0 0.00378c0.00072,0 0.0013,0.00058 0.0013,0.0013 0,0.00072 -0.00058,0.0013 -0.0013,0.0013 -0.00072,0 -0.0013,-0.00058 -0.0013,-0.0013 0,-0.00072 0.00058,-0.0013 0.0013,-0.0013zm0 0.00378c0.00072,0 0.0013,0.00058 0.0013,0.0013 0,0.00072 -0.00058,0.0013 -0.0013,0.0013 -0.00072,0 -0.0013,-0.00058 -0.0013,-0.0013 0,-0.00072 0.00058,-0.0013 0.0013,-0.0013zm0 0.00378c0.00072,0 0.0013,0.00058 0.0013,0.0013 0,0.00072 -0.00058,0.0013 -0.0013,0.0013 -0.00072,0 -0.0013,-0.00058 -0.0013,-0.0013 0,-0.00072 0.00058,-0.0013 0.0013,-0.0013zm0 0.00378c0.00072,0 0.0013,0.00058 0.0013,0.0013 0,0.00072 -0.00058,0.0013 -0.0013,0.0013 -0.00072,0 -0.0013,-0.00058 -0.0013,-0.0013 0,-0.00072 0.00058,-0.0013 0.0013,-0.0013zm0 0.00378c0.00072,0 0.0013,0.00058 0.0013,0.0013 0,0.00072 -0.00058,0.0013 -0.0013,0.0013 -0.00072,0 -0.0013,-0.00058 -0.0013,-0.0013 0,-0.00072 0.00058,-0.0013 0.0013,-0.0013zm0 0.00378c0.00072,0 0.0013,0.00058 0.0013,0.0013 0,0.00072 -0.00058,0.0013 -0.0013,0.0013 -0.00072,0 -0.0013,-0.00058 -0.0013,-0.0013 0,-0.00072 0.00058,-0.0013 0.0013,-0.0013zm0 0.00378c0.00072,0 0.0013,0.00058 0.0013,0.0013 0,0.00072 -0.00058,0.0013 -0.0013,0.0013 -0.00072,0 -0.0013,-0.00058 -0.0013,-0.0013 0,-0.00072 0.00058,-0.0013 0.0013,-0.0013zm0.01947 -0.01583l-0.00744 0c-0.00001,0.00012 -0.00001,0.00021 -0.00001,0.00027 0,0.00074 0.00021,0.00133 0.00063,0.00178 0.00042,0.00045 0.00093,0.00068 0.00153,0.00068 0.00099,0 0.00177,-0.00051 0.00232,-0.00152l0.00264 0.00044c-0.00052,0.00106 -0.00121,0.00186 -0.00207,0.00239 -0.00087,0.00053 -0.00183,0.0008 -0.00291,0.0008 -0.00148,0 -0.00267,-0.00047 -0.0036,-0.0014 -0.00093,-0.00094 -0.00139,-0.00217 -0.00139,-0.00371 0,-0.0015 0.00042,-0.00284 0.00125,-0.00402 0.00113,-0.00159 0.00276,-0.00238 0.00486,-0.00238 0.00134,0 0.00241,0.00042 0.0032,0.00125 0.00079,0.00083 0.00119,0.002 0.00119,0.00349 0,0.00072 -0.00007,0.00136 -0.00021,0.00193zm-0.0025 -0.00179c0.00001,-0.00013 0.00001,-0.00023 0.00001,-0.0003 0,-0.00082 -0.00018,-0.00144 -0.00055,-0.00185 -0.00036,-0.00041 -0.00085,-0.00062 -0.00147,-0.00062 -0.00061,0 -0.00116,0.00023 -0.00165,0.0007 -0.00049,0.00046 -0.00081,0.00116 -0.00099,0.00207l0.00464 0zm0.00355 0.00636l0.00317 -0.01512 0.00295 0 -0.00317 0.01512 -0.00296 0zm0.01656 -0.00456l-0.00744 0c-0.00001,0.00012 -0.00001,0.00021 -0.00001,0.00027 0,0.00074 0.00021,0.00133 0.00063,0.00178 0.00042,0.00045 0.00093,0.00068 0.00153,0.00068 0.00099,0 0.00177,-0.00051 0.00232,-0.00152l0.00264 0.00044c-0.00052,0.00106 -0.00121,0.00186 -0.00207,0.00239 -0.00087,0.00053 -0.00183,0.0008 -0.00291,0.0008 -0.00148,0 -0.00267,-0.00047 -0.0036,-0.0014 -0.00093,-0.00094 -0.00139,-0.00217 -0.00139,-0.00371 0,-0.0015 0.00042,-0.00284 0.00125,-0.00402 0.00113,-0.00159 0.00276,-0.00238 0.00486,-0.00238 0.00134,0 0.00241,0.00042 0.0032,0.00125 0.00079,0.00083 0.00119,0.002 0.00119,0.00349 0,0.00072 -0.00007,0.00136 -0.00021,0.00193zm-0.0025 -0.00179c0.00001,-0.00013 0.00001,-0.00023 0.00001,-0.0003 0,-0.00082 -0.00018,-0.00144 -0.00055,-0.00185 -0.00036,-0.00041 -0.00085,-0.00062 -0.00147,-0.00062 -0.00061,0 -0.00116,0.00023 -0.00165,0.0007 -0.00049,0.00046 -0.00081,0.00116 -0.00098,0.00207l0.00464 0zm0.00353 0.00636l0.00317 -0.01512 0.00295 0 -0.00164 0.00786 0.00384 -0.0037 0.00384 0 -0.0044 0.00396 0.00235 0.007 -0.00296 0 -0.00152 -0.00509 -0.00199 0.00179 -0.00069 0.00329 -0.00296 0zm0.01255 -0.00876l0.00044 -0.0022 0.00146 0 0.00081 -0.00376 0.00289 0 -0.00076 0.00376 0.00179 0 -0.00044 0.0022 -0.0018 0 -0.00096 0.00462c-0.00018,0.00083 -0.00026,0.0013 -0.00026,0.00142 0,0.00023 0.00007,0.00041 0.00021,0.00053 0.00014,0.00013 0.0004,0.00019 0.00078,0.00019 0.00013,0 0.00045,-0.00002 0.00097,-0.00007l-0.00046 0.00219c-0.00051,0.0001 -0.00103,0.00016 -0.00156,0.00016 -0.00104,0 -0.0018,-0.00021 -0.00227,-0.00061 -0.00047,-0.00041 -0.00071,-0.00097 -0.00071,-0.00169 0,-0.00034 0.00013,-0.00111 0.0004,-0.00233l0.00094 -0.00442 -0.00146 0zm0.0084 -0.0022l0.00278 0 -0.00042 0.00206c0.00102,-0.00156 0.00213,-0.00234 0.00332,-0.00234 0.00042,0 0.00088,0.00011 0.00136,0.00032l-0.00114 0.00242c-0.00027,-0.00009 -0.00056,-0.00014 -0.00086,-0.00014 -0.00051,0 -0.00103,0.00019 -0.00156,0.00058 -0.00053,0.00039 -0.00094,0.0009 -0.00124,0.00155 -0.0003,0.00064 -0.00059,0.00167 -0.00088,0.00307l-0.00071 0.00344 -0.00296 0 0.0023 -0.01096zm0.00654 0.00641c0,-0.00204 0.00057,-0.00366 0.00171,-0.00487 0.00114,-0.00121 0.00265,-0.00182 0.00451,-0.00182 0.00161,0 0.00287,0.00045 0.00378,0.00134 0.0009,0.00089 0.00136,0.00209 0.00136,0.00361 0,0.00178 -0.00057,0.00332 -0.0017,0.00461 -0.00113,0.0013 -0.00265,0.00195 -0.00455,0.00195 -0.00103,0 -0.00195,-0.00021 -0.00274,-0.00062 -0.0008,-0.00042 -0.00139,-0.001 -0.00178,-0.00176 -0.00039,-0.00076 -0.00059,-0.00157 -0.00059,-0.00244zm0.00843 -0.00213c0,-0.00071 -0.00021,-0.00127 -0.00061,-0.0017 -0.00041,-0.00043 -0.00093,-0.00064 -0.00158,-0.00064 -0.00064,0 -0.0012,0.0002 -0.0017,0.0006 -0.00049,0.0004 -0.00088,0.00098 -0.00115,0.00174 -0.00027,0.00076 -0.00041,0.00146 -0.00041,0.0021 0,0.00079 0.00021,0.00142 0.00064,0.00188 0.00043,0.00047 0.00096,0.0007 0.0016,0.0007 0.00081,0 0.00149,-0.00035 0.00203,-0.00105 0.00078,-0.00099 0.00117,-0.0022 0.00117,-0.00362zm0.00624 -0.00428l0.0028 0 -0.00025 0.00131c0.00109,-0.00106 0.00223,-0.00159 0.00343,-0.00159 0.00083,0 0.00146,0.00017 0.00191,0.00051 0.00045,0.00034 0.00074,0.00082 0.00086,0.00143 0.00038,-0.00055 0.00092,-0.00101 0.00163,-0.00138 0.00071,-0.00037 0.00145,-0.00056 0.00221,-0.00056 0.00088,0 0.00156,0.00024 0.00205,0.00071 0.00049,0.00048 0.00073,0.0011 0.00073,0.00189 -0,0.00038 -0.00011,0.00103 -0.00031,0.00195l-0.00143 0.00668 -0.00296 0 0.00142 -0.00668c0.00018,-0.00084 0.00027,-0.00132 0.00028,-0.00143 0,-0.00031 -0.00009,-0.00056 -0.00028,-0.00074 -0.00018,-0.00018 -0.00046,-0.00027 -0.00083,-0.00027 -0.00074,0 -0.00141,0.00039 -0.00199,0.00118 -0.00043,0.00056 -0.00079,0.00156 -0.00109,0.00298l-0.00104 0.00497 -0.00296 0 0.00139 -0.00664c0.00016,-0.00076 0.00024,-0.00126 0.00024,-0.00149 0,-0.00029 -0.0001,-0.00053 -0.00029,-0.00071 -0.0002,-0.00019 -0.00047,-0.00028 -0.00081,-0.00028 -0.00032,0 -0.00066,0.0001 -0.001,0.00029 -0.00034,0.00019 -0.00065,0.00046 -0.0009,0.0008 -0.00026,0.00034 -0.00048,0.00077 -0.00067,0.0013 -0.00008,0.00025 -0.00023,0.00081 -0.00042,0.00169l-0.00105 0.00504 -0.00296 0 0.0023 -0.01096zm0.02723 0.0064l-0.00744 0c-0.00001,0.00012 -0.00001,0.00021 -0.00001,0.00027 0,0.00074 0.00021,0.00133 0.00063,0.00178 0.00042,0.00045 0.00093,0.00068 0.00153,0.00068 0.00099,0 0.00177,-0.00051 0.00232,-0.00152l0.00264 0.00044c-0.00052,0.00106 -0.00121,0.00186 -0.00207,0.00239 -0.00087,0.00053 -0.00183,0.0008 -0.00291,0.0008 -0.00147,0 -0.00267,-0.00047 -0.0036,-0.0014 -0.00093,-0.00094 -0.00139,-0.00217 -0.00139,-0.00371 0,-0.0015 0.00042,-0.00284 0.00125,-0.00402 0.00113,-0.00159 0.00276,-0.00238 0.00486,-0.00238 0.00134,0 0.00241,0.00042 0.0032,0.00125 0.00079,0.00083 0.00119,0.002 0.00119,0.00349 0,0.00072 -0.00007,0.00136 -0.00021,0.00193zm-0.00249 -0.00179c0.00001,-0.00013 0.00001,-0.00023 0.00001,-0.0003 0,-0.00082 -0.00018,-0.00144 -0.00055,-0.00185 -0.00036,-0.00041 -0.00085,-0.00062 -0.00147,-0.00062 -0.00061,0 -0.00116,0.00023 -0.00165,0.0007 -0.00049,0.00046 -0.00081,0.00116 -0.00098,0.00207l0.00464 0zm0.00433 -0.00241l0.00044 -0.0022 0.00146 0 0.00073 -0.00376 0.00298 0 -0.00076 0.00376 0.00179 0 -0.00044 0.0022 -0.00179 0 -0.00096 0.00462c-0.00018,0.00083 -0.00026,0.0013 -0.00026,0.00142 0,0.00023 0.00007,0.00041 0.00021,0.00053 0.00014,0.00013 0.0004,0.00019 0.00078,0.00019 0.00013,0 0.00045,-0.00002 0.00097,-0.00007l-0.00046 0.00219c-0.00051,0.0001 -0.00103,0.00016 -0.00156,0.00016 -0.00104,0 -0.0018,-0.00021 -0.00227,-0.00061 -0.00047,-0.00041 -0.00071,-0.00097 -0.00071,-0.00169 0,-0.00034 0.00013,-0.00111 0.0004,-0.00233l0.00094 -0.00442 -0.00146 0zm0.01045 0.00087l-0.00289 -0.00024c0.00033,-0.00097 0.00091,-0.00173 0.00173,-0.00227 0.00082,-0.00055 0.00191,-0.00082 0.00327,-0.00082 0.00141,0 0.00246,0.00029 0.00313,0.00085 0.00068,0.00057 0.00101,0.00126 0.00101,0.00208 0,0.00033 -0.00003,0.00068 -0.00009,0.00105 -0.00006,0.00037 -0.00026,0.00135 -0.00062,0.00294 -0.00029,0.00131 -0.00044,0.00223 -0.00044,0.00275 0,0.00047 0.00009,0.00099 0.00025,0.00156l-0.00289 0c-0.00011,-0.0004 -0.00018,-0.00081 -0.00021,-0.00124 -0.00043,0.00048 -0.00093,0.00085 -0.0015,0.00112 -0.00056,0.00026 -0.00113,0.0004 -0.0017,0.0004 -0.00091,0 -0.00166,-0.0003 -0.00225,-0.0009 -0.00059,-0.0006 -0.00089,-0.00137 -0.00089,-0.00231 0,-0.00105 0.00032,-0.00189 0.00097,-0.00252 0.00065,-0.00063 0.00181,-0.00101 0.00349,-0.00114 0.00141,-0.00012 0.00235,-0.00026 0.00283,-0.00043 0.00012,-0.00042 0.00019,-0.00075 0.00019,-0.00099 0,-0.00032 -0.00013,-0.00058 -0.00038,-0.0008 -0.00025,-0.00021 -0.00063,-0.00032 -0.00114,-0.00032 -0.00053,0 -0.00095,0.00011 -0.00125,0.00032 -0.00031,0.00021 -0.00052,0.00051 -0.00063,0.0009zm0.00282 0.00277c-0.00018,0.00005 -0.00042,0.0001 -0.00071,0.00014 -0.00149,0.00018 -0.00246,0.00044 -0.00291,0.00079 -0.00032,0.00025 -0.00049,0.00059 -0.00049,0.00101 0,0.00035 0.00012,0.00064 0.00037,0.00089 0.00025,0.00024 0.00057,0.00036 0.00098,0.00036 0.00045,0 0.00087,-0.00011 0.00126,-0.00033 0.0004,-0.00022 0.00069,-0.0005 0.00089,-0.00085 0.0002,-0.00034 0.00037,-0.00088 0.00052,-0.00161l0.00008 -0.0004zm0.00472 0.00513l0.00317 -0.01512 0.00295 0 -0.00316 0.01512 -0.00296 0zm0.00906 -0.01512l0.00295 0 -0.00056 0.00268 -0.00296 0 0.00056 -0.00268zm-0.00087 0.00416l0.00296 0 -0.00229 0.01096 -0.00296 0 0.0023 -0.01096zm-0.09253 0.02305l0.00126 -0.00603 0.00124 0 -0.00105 0.00502 0.00307 0 -0.00021 0.00101 -0.00431 0zm0.00637 -0.00603l0.00118 0 -0.00022 0.00107 -0.00118 0 0.00022 -0.00107zm-0.00035 0.00166l0.00118 0 -0.00092 0.00437 -0.00118 0 0.00092 -0.00437zm0.00137 0.00461l0.00125 0.00018c0,0.00013 0.00002,0.00022 0.00006,0.00028 0.00004,0.00007 0.00011,0.00012 0.0002,0.00017 0.00009,0.00005 0.00022,0.00007 0.00037,0.00007 0.00027,0 0.00048,-0.00005 0.00064,-0.00015 0.00012,-0.00008 0.00022,-0.0002 0.00029,-0.00037 0.00005,-0.00011 0.00011,-0.00034 0.00018,-0.0007l0.00004 -0.0002c-0.00043,0.00034 -0.00087,0.00051 -0.00133,0.00051 -0.00043,0 -0.00078,-0.00015 -0.00105,-0.00045 -0.00027,-0.0003 -0.00041,-0.00074 -0.00041,-0.00133 0,-0.00051 0.00009,-0.00098 0.00028,-0.00141 0.00019,-0.00043 0.00045,-0.00075 0.00079,-0.00097 0.00034,-0.00022 0.00068,-0.00033 0.00103,-0.00033 0.00029,0 0.00055,0.00008 0.0008,0.00023 0.00024,0.00016 0.00043,0.00037 0.00056,0.00065l0.00015 -0.00077 0.00111 0 -0.0007 0.00365c-0.00013,0.00058 -0.00023,0.001 -0.00032,0.00125 -0.00009,0.00025 -0.00019,0.00045 -0.0003,0.00059 -0.00011,0.00015 -0.00025,0.00027 -0.00042,0.00037 -0.00017,0.0001 -0.00037,0.00017 -0.00061,0.00021 -0.00023,0.00004 -0.00048,0.00007 -0.00076,0.00007 -0.00062,0 -0.00108,-0.00011 -0.0014,-0.00032 -0.00031,-0.00021 -0.00047,-0.00056 -0.00047,-0.00105 0,-0.00005 0,-0.00011 0.00001,-0.00017zm0.00139 -0.00212c0,0.00033 0.00007,0.00059 0.00022,0.00076 0.00015,0.00018 0.00034,0.00026 0.00056,0.00026 0.00021,0 0.00041,-0.00008 0.00061,-0.00024 0.0002,-0.00016 0.00035,-0.00038 0.00045,-0.00067 0.00011,-0.00029 0.00016,-0.00057 0.00016,-0.00084 0,-0.00031 -0.00009,-0.00056 -0.00026,-0.00075 -0.00017,-0.00019 -0.00037,-0.00028 -0.0006,-0.00028 -0.00021,0 -0.00041,0.00008 -0.00058,0.00025 -0.00018,0.00017 -0.00032,0.00043 -0.00044,0.00078 -0.00009,0.00027 -0.00013,0.00051 -0.00013,0.00073zm0.00501 0.00188l-0.00118 0 0.00126 -0.00603 0.00118 0 -0.00045 0.00215c0.00027,-0.00021 0.00052,-0.00036 0.00075,-0.00046 0.00023,-0.00009 0.00048,-0.00014 0.00075,-0.00014 0.00036,0 0.00064,0.0001 0.00085,0.00031 0.00021,0.00021 0.00031,0.00048 0.00031,0.00081 -0.00001,0.00017 -0.00005,0.00044 -0.00013,0.00081l-0.00055 0.00255 -0.00118 0 0.00056 -0.0026c0.00006,-0.00028 0.00009,-0.00046 0.0001,-0.00054 0,-0.00015 -0.00005,-0.00027 -0.00014,-0.00036 -0.00009,-0.00009 -0.00022,-0.00013 -0.00038,-0.00013 -0.0002,0 -0.00039,0.00007 -0.00058,0.00021 -0.00024,0.00018 -0.00042,0.00041 -0.00055,0.00067 -0.00007,0.00015 -0.00016,0.00049 -0.00027,0.00103l-0.00036 0.00173zm0.00425 -0.0035l0.00018 -0.00088 0.00058 0 0.00014 -0.00068 0.00133 -0.00082 -0.0003 0.0015 0.00071 0 -0.00018 0.00088 -0.00072 0 -0.00038 0.00184c-0.00007,0.00033 -0.00011,0.00052 -0.00011,0.00057 0,0.00009 0.00003,0.00016 0.00009,0.00021 0.00006,0.00005 0.00016,0.00008 0.00031,0.00008 0.00005,0 0.00018,-0.00001 0.00039,-0.00003l-0.00019 0.00087c-0.0002,0.00004 -0.00041,0.00006 -0.00062,0.00006 -0.00042,0 -0.00072,-0.00008 -0.00091,-0.00024 -0.00019,-0.00016 -0.00028,-0.00039 -0.00028,-0.00067 0,-0.00013 0.00005,-0.00044 0.00016,-0.00093l0.00037 -0.00176 -0.00058 0zm0.00377 -0.00254l0.00118 0 -0.00022 0.00107 -0.00118 0 0.00022 -0.00107zm-0.00035 0.00166l0.00118 0 -0.00092 0.00437 -0.00118 0 0.00092 -0.00437zm0.00236 0l0.00113 0 -0.00011 0.00057c0.00028,-0.00025 0.00054,-0.00042 0.00079,-0.00053 0.00024,-0.00011 0.0005,-0.00016 0.00077,-0.00016 0.00036,0 0.00065,0.0001 0.00085,0.00031 0.00021,0.00021 0.00031,0.00049 0.00031,0.00083 -0,0.00015 -0.00005,0.00044 -0.00015,0.00087l-0.00053 0.00247 -0.00118 0 0.00054 -0.00248c0.00008,-0.00037 0.00012,-0.00059 0.00012,-0.00066 0,-0.00016 -0.00005,-0.00028 -0.00013,-0.00037 -0.00009,-0.00009 -0.00022,-0.00013 -0.00038,-0.00013 -0.00018,0 -0.00037,0.00007 -0.00058,0.00022 -0.00021,0.00015 -0.00038,0.00034 -0.0005,0.00058 -0.00009,0.00017 -0.00019,0.00052 -0.00031,0.00105l-0.00037 0.00179 -0.00118 0 0.00091 -0.00437zm0.00415 0.00461l0.00125 0.00018c0,0.00013 0.00002,0.00022 0.00006,0.00028 0.00004,0.00007 0.00011,0.00012 0.0002,0.00017 0.00009,0.00005 0.00022,0.00007 0.00037,0.00007 0.00026,0 0.00048,-0.00005 0.00064,-0.00015 0.00012,-0.00008 0.00022,-0.0002 0.00029,-0.00037 0.00005,-0.00011 0.00011,-0.00034 0.00018,-0.0007l0.00004 -0.0002c-0.00043,0.00034 -0.00087,0.00051 -0.00133,0.00051 -0.00043,0 -0.00078,-0.00015 -0.00105,-0.00045 -0.00027,-0.0003 -0.00041,-0.00074 -0.00041,-0.00133 0,-0.00051 0.00009,-0.00098 0.00028,-0.00141 0.00019,-0.00043 0.00045,-0.00075 0.00079,-0.00097 0.00034,-0.00022 0.00068,-0.00033 0.00103,-0.00033 0.00029,0 0.00055,0.00008 0.0008,0.00023 0.00024,0.00016 0.00043,0.00037 0.00056,0.00065l0.00015 -0.00077 0.00111 0 -0.0007 0.00365c-0.00013,0.00058 -0.00023,0.001 -0.00032,0.00125 -0.00009,0.00025 -0.00019,0.00045 -0.0003,0.00059 -0.00011,0.00015 -0.00025,0.00027 -0.00042,0.00037 -0.00017,0.0001 -0.00037,0.00017 -0.00061,0.00021 -0.00023,0.00004 -0.00048,0.00007 -0.00076,0.00007 -0.00062,0 -0.00108,-0.00011 -0.0014,-0.00032 -0.00032,-0.00021 -0.00047,-0.00056 -0.00047,-0.00105 0,-0.00005 0,-0.00011 0.00001,-0.00017zm0.00139 -0.00212c0,0.00033 0.00007,0.00059 0.00022,0.00076 0.00015,0.00018 0.00033,0.00026 0.00056,0.00026 0.00021,0 0.00041,-0.00008 0.00061,-0.00024 0.0002,-0.00016 0.00035,-0.00038 0.00045,-0.00067 0.00011,-0.00029 0.00016,-0.00057 0.00016,-0.00084 0,-0.00031 -0.00009,-0.00056 -0.00026,-0.00075 -0.00017,-0.00019 -0.00037,-0.00028 -0.0006,-0.00028 -0.00021,0 -0.00041,0.00008 -0.00058,0.00025 -0.00018,0.00017 -0.00032,0.00043 -0.00044,0.00078 -0.00009,0.00027 -0.00013,0.00051 -0.00013,0.00073zm0.01052 -0.00028l0.00125 0.00019c-0.00024,0.00067 -0.00061,0.00119 -0.0011,0.00155 -0.00049,0.00036 -0.00106,0.00054 -0.00171,0.00054 -0.00074,0 -0.00131,-0.00022 -0.00172,-0.00067 -0.00041,-0.00044 -0.00062,-0.00109 -0.00062,-0.00194 0,-0.00069 0.00014,-0.00131 0.00042,-0.00188 0.00028,-0.00057 0.00066,-0.00101 0.00116,-0.00131 0.00049,-0.0003 0.00103,-0.00045 0.00161,-0.00045 0.00065,0 0.00118,0.00018 0.00158,0.00053 0.0004,0.00035 0.00064,0.00083 0.00071,0.00143l-0.00119 0.00011c-0.00007,-0.00035 -0.00019,-0.00061 -0.00038,-0.00076 -0.00019,-0.00016 -0.00044,-0.00024 -0.00075,-0.00024 -0.00034,0 -0.00066,0.0001 -0.00096,0.00031 -0.0003,0.00021 -0.00053,0.00054 -0.00071,0.00098 -0.00018,0.00044 -0.00027,0.00089 -0.00027,0.00133 0,0.00048 0.00011,0.00086 0.00034,0.00112 0.00023,0.00026 0.00052,0.0004 0.00086,0.0004 0.00032,0 0.00061,-0.0001 0.00088,-0.00031 0.00027,-0.00021 0.00046,-0.00052 0.0006,-0.00093zm0.00596 0.00035l-0.00297 0c-0,0.00005 -0,0.00008 -0,0.00011 0,0.00029 0.00008,0.00053 0.00025,0.00071 0.00017,0.00018 0.00037,0.00027 0.00061,0.00027 0.0004,0 0.0007,-0.0002 0.00093,-0.00061l0.00105 0.00018c-0.00021,0.00042 -0.00048,0.00074 -0.00083,0.00095 -0.00035,0.00021 -0.00073,0.00032 -0.00116,0.00032 -0.00059,0 -0.00107,-0.00019 -0.00143,-0.00056 -0.00037,-0.00037 -0.00055,-0.00087 -0.00055,-0.00148 0,-0.0006 0.00017,-0.00113 0.0005,-0.0016 0.00045,-0.00063 0.0011,-0.00095 0.00194,-0.00095 0.00053,0 0.00096,0.00017 0.00128,0.0005 0.00032,0.00033 0.00047,0.0008 0.00047,0.00139 0,0.00029 -0.00003,0.00054 -0.00008,0.00077zm-0.00099 -0.00072c0,-0.00005 0,-0.00009 0,-0.00012 0,-0.00033 -0.00007,-0.00057 -0.00022,-0.00074 -0.00014,-0.00016 -0.00034,-0.00024 -0.00059,-0.00024 -0.00024,0 -0.00046,0.00009 -0.00066,0.00028 -0.00019,0.00018 -0.00032,0.00046 -0.00039,0.00082l0.00185 0zm0.00236 -0.00184l0.00113 0 -0.00011 0.00057c0.00028,-0.00025 0.00054,-0.00042 0.00079,-0.00053 0.00024,-0.00011 0.0005,-0.00016 0.00077,-0.00016 0.00036,0 0.00064,0.0001 0.00085,0.00031 0.00021,0.00021 0.00031,0.00049 0.00031,0.00083 -0,0.00015 -0.00005,0.00044 -0.00015,0.00087l-0.00053 0.00247 -0.00118 0 0.00054 -0.00248c0.00008,-0.00037 0.00012,-0.00059 0.00012,-0.00066 0,-0.00016 -0.00004,-0.00028 -0.00013,-0.00037 -0.00009,-0.00009 -0.00022,-0.00013 -0.00038,-0.00013 -0.00018,0 -0.00037,0.00007 -0.00058,0.00022 -0.00021,0.00015 -0.00038,0.00034 -0.0005,0.00058 -0.00009,0.00017 -0.00019,0.00052 -0.00031,0.00105l-0.00037 0.00179 -0.00118 0 0.00092 -0.00437zm0.00452 0.00088l0.00018 -0.00088 0.00058 0 0.00014 -0.00068 0.00134 -0.00082 -0.00031 0.0015 0.00071 0 -0.00018 0.00088 -0.00072 0 -0.00039 0.00184c-0.00007,0.00033 -0.00011,0.00052 -0.00011,0.00057 0,0.00009 0.00003,0.00016 0.00009,0.00021 0.00006,0.00005 0.00016,0.00008 0.00031,0.00008 0.00005,0 0.00018,-0.00001 0.00039,-0.00003l-0.00019 0.00087c-0.0002,0.00004 -0.00041,0.00006 -0.00062,0.00006 -0.00041,0 -0.00072,-0.00008 -0.00091,-0.00024 -0.00019,-0.00016 -0.00028,-0.00039 -0.00028,-0.00067 0,-0.00013 0.00005,-0.00044 0.00016,-0.00093l0.00038 -0.00176 -0.00058 0zm0.00676 0.00168l-0.00297 0c-0,0.00005 -0,0.00008 -0,0.00011 0,0.00029 0.00008,0.00053 0.00025,0.00071 0.00017,0.00018 0.00037,0.00027 0.00061,0.00027 0.0004,0 0.0007,-0.0002 0.00093,-0.00061l0.00105 0.00018c-0.00021,0.00042 -0.00048,0.00074 -0.00083,0.00095 -0.00035,0.00021 -0.00073,0.00032 -0.00116,0.00032 -0.00059,0 -0.00107,-0.00019 -0.00143,-0.00056 -0.00037,-0.00037 -0.00055,-0.00087 -0.00055,-0.00148 0,-0.0006 0.00017,-0.00113 0.0005,-0.0016 0.00045,-0.00063 0.0011,-0.00095 0.00194,-0.00095 0.00053,0 0.00096,0.00017 0.00128,0.0005 0.00032,0.00033 0.00047,0.0008 0.00047,0.00139 0,0.00029 -0.00003,0.00054 -0.00008,0.00077zm-0.00099 -0.00072c0,-0.00005 0,-0.00009 0,-0.00012 0,-0.00033 -0.00007,-0.00057 -0.00022,-0.00074 -0.00014,-0.00016 -0.00034,-0.00024 -0.00059,-0.00024 -0.00024,0 -0.00046,0.00009 -0.00066,0.00028 -0.00019,0.00018 -0.00032,0.00046 -0.00039,0.00082l0.00185 0zm0.00227 -0.00184l0.00111 0 -0.00017 0.00082c0.00041,-0.00062 0.00085,-0.00093 0.00132,-0.00093 0.00017,0 0.00035,0.00004 0.00054,0.00013l-0.00045 0.00097c-0.00011,-0.00004 -0.00022,-0.00006 -0.00034,-0.00006 -0.0002,0 -0.00041,0.00008 -0.00062,0.00023 -0.00021,0.00015 -0.00038,0.00036 -0.00049,0.00062 -0.00012,0.00026 -0.00024,0.00066 -0.00035,0.00122l-0.00028 0.00137 -0.00118 0 0.00092 -0.00437z"/>
 </g>
</svg>
