<?xml version="1.0" encoding="UTF-8"?>
<!DOCTYPE svg PUBLIC "-//W3C//DTD SVG 1.1//EN" "http://www.w3.org/Graphics/SVG/1.1/DTD/svg11.dtd">
<!-- Creator: CorelDRAW 2020 (64-Bit) -->
<svg xmlns="http://www.w3.org/2000/svg" xml:space="preserve" width="0.410528in" height="0.116665in" version="1.1" style="shape-rendering:geometricPrecision; text-rendering:geometricPrecision; image-rendering:optimizeQuality; fill-rule:evenodd; clip-rule:evenodd"
viewBox="0 0 0.05236 0.01488"
 xmlns:xlink="http://www.w3.org/1999/xlink"
 xmlns:xodm="http://www.corel.com/coreldraw/odm/2003">
 <defs>
  <style type="text/css">
   <![CDATA[
    .fil0 {fill:#AAAAAA}
   ]]>
  </style>
 </defs>
 <g id="Layer_x0020_1">
  <metadata id="CorelCorpID_0Corel-Layer"/>
  <path class="fil0" d="M0.0109 0.00158c-0.00138,0 -0.00249,0.00112 -0.00249,0.00249l0 0 0 0 0 0.00249 0.00249 0 0 -0c0.00138,0 0.00249,-0.00111 0.00249,-0.00249 0,-0.00071 -0.0003,-0.00136 -0.00078,-0.00181l-0.00074 0.00095 0.00044 0.00034c0.00018,0.00014 0.00019,0.00034 -0,0.00062l-0.00031 0.0004 -0.00172 -0.00135 0.00042 -0.00054c0.00014,-0.00015 0.0003,-0.00015 0.00049,-0.00001l0.00043 0.00033 0.00075 -0.00095c-0.00041,-0.0003 -0.00091,-0.00047 -0.00146,-0.00047zm-0.00187 0.00281c0.00041,-0.00024 0.00078,-0.00058 0.00113,-0.00102l0.00001 -0.00001 0.00172 0.00135 -0.00002 0.00003c-0.00035,0.00041 -0.00063,0.00085 -0.00075,0.00134 -0.00037,-0.00034 -0.00076,-0.00067 -0.00116,-0.00099l0.00024 -0.00038 -0.00035 0.00029c-0.00005,-0.00004 -0.00009,-0.00007 -0.00014,-0.00011l0.00039 -0.00063 -0.0006 0.00047c-0.00015,-0.00012 -0.00031,-0.00023 -0.00047,-0.00034zm-0.00259 0.00402l0 0c-0,0.00027 -0.00022,0.00049 -0.00049,0.00049l0 0 0 0c0.00027,0 0.00049,0.00022 0.00049,0.00049l0 0 0 0c0,-0.00027 0.00022,-0.00049 0.00049,-0.00049l0 0 0 0c-0.00027,-0 -0.00049,-0.00022 -0.00049,-0.00049l0 0zm0.00055 -0.00098l0 0c-0,0.0002 -0.00016,0.00036 -0.00036,0.00036l0 0 0 0c0.0002,0 0.00036,0.00016 0.00036,0.00036l0 0 0 0c0,-0.0002 0.00016,-0.00036 0.00036,-0.00036l0 0 0 0c-0.0002,0 -0.00036,-0.00016 -0.00036,-0.00036l0 0zm-0.00124 0.00022l0 0c0,0.0002 -0.00016,0.00036 -0.00036,0.00036l0 0 0 0c0.0002,0 0.00036,0.00016 0.00036,0.00036l0 0 0 0c0,-0.0002 0.00016,-0.00036 0.00036,-0.00036l0 0 0 0c-0.0002,-0 -0.00036,-0.00016 -0.00036,-0.00036l0 0zm0.00045 0.00368c-0.00043,-0.00034 -0.00084,-0.00078 -0.00119,-0.0015 -0.00029,0.00028 -0.00054,0.00058 -0.00074,0.00092l0.00064 -0.00029c0.00042,0.00048 0.00086,0.00064 0.00129,0.00087zm-0.00101 -0.00265c0.00007,0.00015 0.00014,0.0003 0.00021,0.00045 -0.00013,0.0001 -0.00026,0.00021 -0.00039,0.00032l-0.00026 -0.00057 0.00044 -0.0002zm-0.00033 0.00091c-0.00036,0.00034 -0.00068,0.00073 -0.00092,0.00119 0.00004,0.00008 0.00008,0.00016 0.00011,0.00025 -0.00038,0.00018 -0.00077,0.00035 -0.00115,0.00053 -0.00005,-0.0001 -0.00009,-0.0002 -0.00014,-0.00031 -0.00017,-0.00038 -0.00071,-0.00049 -0.001,-0.00049 0.00014,-0.00038 0.00042,-0.0007 0.00081,-0.00088l0.00201 -0.00092 0.00029 0.00063zm0.00188 0.00429c0.00078,-0.00073 0.00127,-0.00177 0.00127,-0.00293l0 0 0 0 0 -0.00401 -0.00401 0 0 0c-0.00221,0 -0.00401,0.00179 -0.00401,0.00401 0,0.00193 0.00136,0.00353 0.00317,0.00392 -0.00015,-0.00066 -0.00013,-0.00132 0.00008,-0.00197 0.00053,-0.00025 0.00107,-0.00049 0.0016,-0.00074 0.00077,0.00032 0.00139,0.0009 0.00188,0.00171zm-0.00206 -0.00181l-0.00137 0.00063 -0.0004 -0.00088 0.00137 -0.00063 0.00041 0.00088zm0.00173 -0.01002l-0.00014 0.00009 0 0.00032 0.00014 -0.00007 0 -0.00033zm-0.00346 0.00183c-0.0002,0 -0.00037,0.00017 -0.00037,0.00037 0,0.0002 0.00016,0.00037 0.00037,0.00037 0.0002,0 0.00037,-0.00016 0.00037,-0.00037 0,-0.0002 -0.00016,-0.00037 -0.00037,-0.00037zm0 -0.00013c-0.00027,0 -0.0005,0.00022 -0.0005,0.0005 0,0.00027 0.00022,0.0005 0.0005,0.0005 0.00027,0 0.0005,-0.00022 0.0005,-0.0005 0,-0.00027 -0.00022,-0.0005 -0.0005,-0.0005zm0.00008 0.0004l0.00004 0.00007c0,0.00001 0.00001,0.00001 0.00002,0.00001l0.00013 -0.00006c0.00001,-0 0.00001,-0.00001 0.00001,-0.00002l-0.00005 -0.00009c-0,-0.00001 -0.00001,-0.00001 -0.00002,-0.00001l-0.00012 0.00008c-0.00001,0.00001 -0.00001,0.00001 -0.00001,0.00002zm-0.00021 0.00012l0.00004 0.00007c0,0.00001 0,0.00002 -0.00001,0.00002l-0.00012 0.00008c-0.00001,0.00001 -0.00002,0 -0.00002,-0.00001l-0.00005 -0.00009c-0,-0.00001 -0,-0.00002 0.00001,-0.00002l0.00013 -0.00006c0.00001,-0 0.00002,-0 0.00002,0.00001zm0.00004 -0.00012l-0.00004 0.00007c-0,0.00001 -0.00001,0.00001 -0.00002,0.00001l-0.00013 -0.00006c-0.00001,-0 -0.00001,-0.00001 -0.00001,-0.00002l0.00005 -0.00009c0,-0.00001 0.00001,-0.00001 0.00002,-0.00001l0.00012 0.00008c0.00001,0.00001 0.00001,0.00001 0.00001,0.00002zm0.00021 0.00012l-0.00004 0.00007c-0,0.00001 -0,0.00002 0.00001,0.00002l0.00012 0.00008c0.00001,0.00001 0.00002,0 0.00002,-0.00001l0.00005 -0.00009c0,-0.00001 0,-0.00002 -0.00001,-0.00002l-0.00013 -0.00006c-0.00001,-0 -0.00002,-0 -0.00002,0.00001zm-0.00008 -0.00014l-0.00008 0c-0.00001,0 -0.00002,-0.00001 -0.00002,-0.00002l-0.00001 -0.00015c-0,-0.00001 0.00001,-0.00002 0.00002,-0.00002l0.0001 0c0.00001,0 0.00002,0.00001 0.00002,0.00002l-0.00001 0.00015c-0,0.00001 -0.00001,0.00002 -0.00002,0.00002zm0 0.00024l-0.00008 0c-0.00001,0 -0.00002,0.00001 -0.00002,0.00002l-0.00001 0.00015c-0,0.00001 0.00001,0.00002 0.00002,0.00002l0.0001 0c0.00001,0 0.00002,-0.00001 0.00002,-0.00002l-0.00001 -0.00015c-0,-0.00001 -0.00001,-0.00002 -0.00002,-0.00002zm0.0026 -0.00049c-0.0002,0 -0.00037,0.00017 -0.00037,0.00037 0,0.0002 0.00016,0.00037 0.00037,0.00037 0.0002,0 0.00037,-0.00016 0.00037,-0.00037 0,-0.0002 -0.00017,-0.00037 -0.00037,-0.00037zm0 -0.00013c-0.00027,0 -0.0005,0.00022 -0.0005,0.0005 0,0.00027 0.00022,0.0005 0.0005,0.0005 0.00027,0 0.0005,-0.00022 0.0005,-0.0005 0,-0.00027 -0.00022,-0.0005 -0.0005,-0.0005zm0.00009 0.0004l0.00004 0.00007c0,0.00001 0.00001,0.00001 0.00002,0.00001l0.00013 -0.00006c0.00001,-0 0.00001,-0.00001 0.00001,-0.00002l-0.00005 -0.00009c-0,-0.00001 -0.00001,-0.00001 -0.00002,-0.00001l-0.00012 0.00008c-0.00001,0.00001 -0.00001,0.00001 -0.00001,0.00002zm-0.00021 0.00012l0.00004 0.00007c0,0.00001 0,0.00002 -0.00001,0.00002l-0.00012 0.00008c-0.00001,0.00001 -0.00002,0 -0.00002,-0.00001l-0.00005 -0.00009c-0,-0.00001 -0,-0.00002 0.00001,-0.00002l0.00013 -0.00006c0.00001,-0 0.00002,-0 0.00002,0.00001zm0.00004 -0.00012l-0.00004 0.00007c-0,0.00001 -0.00001,0.00001 -0.00002,0.00001l-0.00013 -0.00006c-0.00001,-0 -0.00001,-0.00001 -0.00001,-0.00002l0.00005 -0.00009c0,-0.00001 0.00001,-0.00001 0.00002,-0.00001l0.00012 0.00008c0.00001,0.00001 0.00001,0.00001 0.00001,0.00002zm0.00021 0.00012l-0.00004 0.00007c-0,0.00001 -0,0.00002 0.00001,0.00002l0.00012 0.00008c0.00001,0.00001 0.00002,0 0.00002,-0.00001l0.00005 -0.00009c0,-0.00001 0,-0.00002 -0.00001,-0.00002l-0.00013 -0.00006c-0.00001,-0 -0.00002,-0 -0.00002,0.00001zm-0.00008 -0.00014l-0.00008 0c-0.00001,0 -0.00002,-0.00001 -0.00002,-0.00002l-0.00001 -0.00015c-0,-0.00001 0.00001,-0.00002 0.00002,-0.00002l0.0001 0c0.00001,0 0.00002,0.00001 0.00002,0.00002l-0.00001 0.00015c-0,0.00001 -0.00001,0.00002 -0.00002,0.00002zm0 0.00024l-0.00008 0c-0.00001,0 -0.00002,0.00001 -0.00002,0.00002l-0.00001 0.00015c-0,0.00001 0.00001,0.00002 0.00002,0.00002l0.0001 0c0.00001,0 0.00002,-0.00001 0.00002,-0.00002l-0.00001 -0.00015c-0,-0.00001 -0.00001,-0.00002 -0.00002,-0.00002zm-0.00107 -0.0006c-0.00023,-0.00001 -0.00048,0.00002 -0.00068,0.00015 -0.00001,0.00001 -0.00002,0.00003 -0.00001,0.00004 0.00001,0.00001 0.00002,0.00002 0.00004,0.00001 0.00019,-0.00012 0.00043,-0.00015 0.00065,-0.00014 0.00002,0 0.00003,-0.00001 0.00003,-0.00003 0,-0.00002 -0.00001,-0.00003 -0.00003,-0.00003zm0.00017 -0.00022c-0.00036,-0.00002 -0.00074,0.00004 -0.00103,0.00025 -0.00001,0.00001 -0.00001,0.00003 -0.00001,0.00004 0.00001,0.00001 0.00003,0.00001 0.00004,0.00001 0.00029,-0.00021 0.00065,-0.00026 0.001,-0.00024 0.00001,0 0.00003,-0.00001 0.00003,-0.00003 0,-0.00001 -0.00001,-0.00003 -0.00003,-0.00003zm0.00011 -0.00021c-0.00048,-0 -0.00098,0.00009 -0.00137,0.00039 -0.00001,0.00001 -0.00001,0.00003 -0,0.00004 0.00001,0.00001 0.00003,0.00001 0.00004,0 0.00038,-0.00029 0.00087,-0.00038 0.00133,-0.00038 0.00001,0 0.00003,-0.00001 0.00003,-0.00003 0,-0.00002 -0.00001,-0.00003 -0.00003,-0.00003zm-0.00167 0.00042c0.00053,-0.00049 0.00124,-0.00058 0.00194,-0.00056 -0.00009,0.00013 -0.00015,0.00028 -0.00018,0.00045 -0.00003,0.00017 -0.00004,0.00036 -0.00002,0.00056 -0.00021,0.00006 -0.00042,0.0001 -0.00063,0.00012 -0.00026,0.00002 -0.00053,0.00001 -0.00079,-0.00004 0,-0.00001 0,-0.00002 0,-0.00004 0,-0.00022 -0.00013,-0.0004 -0.00031,-0.00049zm0.0019 0.0004c-0.00004,0.00001 -0.00009,0.00003 -0.00013,0.00004 -0.00002,-0.0002 -0.00001,-0.00038 0.00002,-0.00055 0.00003,-0.00017 0.00009,-0.00033 0.00019,-0.00045 0.00019,-0.00023 0.00115,-0.00077 0.00172,-0.00099l0 0.00134 -0.00082 0.00041c-0.00001,-0.00001 -0.00001,-0.00002 -0.00002,-0.00003l0.00082 -0.0004 0 -0.00039 -0.0009 0.00049c-0.00027,-0.00007 -0.00051,-0.00005 -0.00067,0.00005 -0.00012,0.00008 -0.0002,0.00021 -0.00021,0.00044l0 0.00003zm0.00001 0.0002c-0.00053,0.0002 -0.00108,0.00023 -0.00165,0.00013 0.00002,-0.00005 0.00004,-0.00011 0.00005,-0.00016 0.00027,0.00005 0.00053,0.00006 0.0008,0.00004 0.00026,-0.00002 0.00053,-0.00008 0.00079,-0.00016 -0,0.00002 -0,0.00003 -0,0.00005 0,0.00004 0,0.00007 0.00001,0.00011zm-0.00034 -0.00437c0.00106,0 0.00201,0.00051 0.00261,0.00129l-0.00248 0.00158 0 0.00032 0.00014 0 0 -0.00026 0.00241 -0.00154c0.00038,0.00053 0.0006,0.00118 0.0006,0.00189 0,0.00197 0,-0.00167 0,0.00328l-0.00328 0 0 -0c-0.00181,0 -0.00328,-0.00147 -0.00328,-0.00328 0,-0.00181 0.00147,-0.00328 0.00328,-0.00328zm0.00238 0.0023c0,0.00045 0,0.00091 0,0.00136l-0.00101 0.00049c-0.00001,-0.00005 -0.00003,-0.0001 -0.00005,-0.00014l0.00084 -0.00042 0 -0.00137c0.00016,-0.00004 0.00022,0 0.00022,0.00008zm0.04249 0.00751l0.00161 0c-0.00002,-0.00028 -0.00009,-0.0005 -0.00022,-0.00063 -0.00014,-0.00015 -0.00033,-0.00022 -0.00058,-0.00022 -0.00023,0 -0.00042,0.00007 -0.00057,0.00022 -0.00015,0.00015 -0.00023,0.00036 -0.00024,0.00063zm0.0019 0.00123l0.00079 0c-0.00012,0.00044 -0.00034,0.00078 -0.00066,0.00101 -0.00033,0.00024 -0.00074,0.00036 -0.00123,0.00036 -0.0006,0 -0.00107,-0.0002 -0.00141,-0.00059 -0.00034,-0.00038 -0.00051,-0.00092 -0.00051,-0.00163 0,-0.00067 0.00016,-0.0012 0.00049,-0.00158 0.00034,-0.00039 0.00081,-0.00059 0.00141,-0.00059 0.00063,0 0.00112,0.00019 0.00147,0.00057 0.00034,0.00039 0.00051,0.00093 0.00051,0.00163 0,0.00004 0,0.00008 0,0.00011 0,0.00003 0,0.00005 0,0.00006 0,0.00005 -0.00001,0.00009 -0.00002,0.00011l-0.00273 0c0.00001,0.00033 0.00009,0.00057 0.00024,0.00073 0.00014,0.00017 0.00034,0.00025 0.00062,0.00025 0.00018,0 0.00033,-0.00004 0.00046,-0.00011 0.00003,-0.00001 0.00006,-0.00003 0.00009,-0.00006 0.00003,-0.00003 0.00006,-0.00006 0.00009,-0.00009 0.00001,-0.00003 0.00005,-0.00007 0.00012,-0.00013 0.00007,-0.00005 0.00017,-0.00008 0.00029,-0.00008zm-0.00617 -0.00078c0,0.00073 0.00021,0.00113 0.00063,0.00121 0.00042,0.00008 0.00073,-0.00002 0.00093,-0.00029 0.00009,-0.00012 0.00016,-0.0003 0.0002,-0.00055 0.00004,-0.00025 0.00004,-0.00049 0.00001,-0.00074 -0.00004,-0.00024 -0.00012,-0.00046 -0.00026,-0.00065 -0.00014,-0.00019 -0.00034,-0.00028 -0.0006,-0.00028 -0.00036,0 -0.0006,0.00013 -0.00073,0.0004 -0.00013,0.00026 -0.00019,0.00056 -0.00019,0.0009zm0.0018 0.00182l0 -0.00027c-0.00019,0.0003 -0.00045,0.00048 -0.00077,0.00055 -0.00032,0.00007 -0.00064,0.00005 -0.00096,-0.00008 -0.00032,-0.00013 -0.00059,-0.00036 -0.00081,-0.0007 -0.00023,-0.00034 -0.00034,-0.00079 -0.00034,-0.00135 0,-0.00065 0.00015,-0.00118 0.00045,-0.00159 0.0003,-0.00041 0.00078,-0.00061 0.00145,-0.00061 0.00051,0 0.00098,0.00014 0.00141,0.00041 0.00043,0.00027 0.00065,0.00078 0.00065,0.00152l0 0.00223c0,0.00074 -0.00022,0.00124 -0.00065,0.00151 -0.00043,0.00027 -0.0009,0.0004 -0.00141,0.0004 -0.00097,-0 -0.00157,-0.00045 -0.0018,-0.00136l0.00115 0c0.00009,0.00015 0.00021,0.00026 0.00039,0.00034 0.00017,0.00008 0.00035,0.0001 0.00052,0.00006 0.00017,-0.00004 0.00033,-0.00014 0.00047,-0.00031 0.00014,-0.00017 0.00022,-0.00042 0.00025,-0.00076zm-0.00393 0.00008c-0.00022,0.00012 -0.00046,0.00019 -0.0007,0.00021 -0.00025,0.00003 -0.00047,0.00004 -0.00066,0.00004 -0.00038,0 -0.00071,-0.0001 -0.001,-0.00031 -0.00028,-0.0002 -0.00043,-0.00054 -0.00043,-0.00102 0,-0.00044 0.00013,-0.00076 0.00039,-0.00095 0.00026,-0.00019 0.00059,-0.00032 0.00099,-0.00038 0.00005,0 0.00012,-0.00001 0.00019,-0.00002 0.00007,-0.00001 0.00016,-0.00003 0.00025,-0.00004 0.00046,-0.00006 0.0007,-0.0002 0.0007,-0.00041 0,-0.00016 -0.00008,-0.00026 -0.00025,-0.00031 -0.00016,-0.00005 -0.00031,-0.00007 -0.00045,-0.00007 -0.00015,0 -0.00028,0.00002 -0.0004,0.00006 -0.00012,0.00004 -0.0002,0.00012 -0.00025,0.00024l-0.00106 0c0.00004,-0.00033 0.00019,-0.0006 0.00044,-0.00081 0.00028,-0.00024 0.00069,-0.00036 0.00122,-0.00036 0.00059,0 0.00103,0.0001 0.00133,0.0003 0.0003,0.00021 0.00046,0.00051 0.00046,0.00089l0 0.00144c0,0.00042 -0.00008,0.00075 -0.00023,0.00099 -0.00015,0.00024 -0.00033,0.00041 -0.00055,0.00051zm-0.00025 -0.00194c-0.00015,0.00007 -0.00035,0.00014 -0.00062,0.0002 -0.00024,0.00005 -0.00036,0.00008 -0.00036,0.00008 -0.00019,0.00005 -0.00033,0.00012 -0.00041,0.0002 -0.00007,0.00012 -0.00011,0.00023 -0.00011,0.00035 0,0.00016 0.00005,0.00028 0.00014,0.00038 0.00009,0.00009 0.00023,0.00013 0.00041,0.00013 0.00029,0 0.00053,-0.00009 0.00069,-0.00025 0.00017,-0.00017 0.00025,-0.0004 0.00025,-0.00069l0 -0.0004zm-0.0059 0.00351l0 -0.00087 0.0003 0c0.00021,0 0.00038,-0.00005 0.0005,-0.00015 0.00012,-0.0001 0.00015,-0.00026 0.00007,-0.00048l-0.00147 -0.00419 0.00122 0 0.00085 0.00297 0.00074 -0.00259 0 0c0.00006,-0.00025 0.00023,-0.00038 0.00051,-0.00038l0.00076 0 -0.00161 0.00479c-0.00013,0.00035 -0.00028,0.0006 -0.00047,0.00074 -0.00019,0.00013 -0.0005,0.00019 -0.00093,0.00019 -0.00003,0 -0.00007,0 -0.00011,0 -0.00004,0 -0.00008,0 -0.00011,0 -0.00003,-0.00001 -0.00007,-0.00002 -0.00012,-0.00002 -0.00005,-0 -0.00009,-0.00001 -0.00012,-0.00001zm-0.00282 -0.00455c-0.00022,0.00024 -0.00032,0.0006 -0.0003,0.00108 0.00002,0.00048 0.00011,0.00081 0.00027,0.001 0.00006,0.00008 0.00017,0.00016 0.00033,0.00021 0.00016,0.00006 0.00032,0.00006 0.00048,0.00002 0.00016,-0.00005 0.00031,-0.00017 0.00044,-0.00036 0.00013,-0.00019 0.00019,-0.0005 0.0002,-0.00092 0,-0.00038 -0.00006,-0.00066 -0.00018,-0.00085 -0.00012,-0.00019 -0.00026,-0.00031 -0.00042,-0.00036 -0.00016,-0.00005 -0.00032,-0.00006 -0.00048,-0.00001 -0.00016,0.00005 -0.00027,0.00011 -0.00035,0.00018zm-0.00076 0.00278c-0.00022,-0.00019 -0.00038,-0.00044 -0.00047,-0.00077 -0.00009,-0.00032 -0.00014,-0.00066 -0.00014,-0.001 0,-0.00028 0.00004,-0.00057 0.00012,-0.00085 0.00008,-0.00028 0.0002,-0.00052 0.00037,-0.00071 0.00027,-0.00032 0.00063,-0.0005 0.00106,-0.00056 0.00043,-0.00006 0.00082,-0.00002 0.00117,0.0001 0.0004,0.00016 0.0007,0.00043 0.00089,0.00082 0.00018,0.00035 0.00027,0.00075 0.00027,0.00122 0,0.00034 -0.00004,0.00063 -0.00011,0.00087 -0.00007,0.00024 -0.00017,0.00045 -0.00028,0.00062 -0.00025,0.00035 -0.00057,0.00056 -0.00096,0.00065 -0.00035,0.00009 -0.0007,0.0001 -0.00105,0.00002 -0.00035,-0.00008 -0.00064,-0.00021 -0.00085,-0.0004zm-0.00062 0.00044c-0.00035,0.00002 -0.00072,0.00002 -0.00113,-0.00002 -0.00041,-0.00003 -0.00061,-0.00029 -0.00061,-0.00077l0 -0.00465 0.00057 0c0.00014,0 0.00026,0.00005 0.00036,0.00016 0.00011,0.0001 0.00016,0.00023 0.00016,0.00038l0 0.00071 0.00065 0 0 0.00022c0,0.00016 -0.00005,0.00029 -0.00016,0.00039 -0.0001,0.0001 -0.00023,0.00015 -0.00038,0.00015l-0.00011 0 0 0.00234c0,0.00018 0.00011,0.00027 0.00032,0.00027l0.00033 0 0 0.00082zm-0.00202 0c-0.00035,0.00002 -0.00072,0.00002 -0.00113,-0.00002 -0.00041,-0.00003 -0.00061,-0.00029 -0.00061,-0.00077l0 -0.00465 0.00057 0c0.00014,0 0.00026,0.00005 0.00036,0.00016 0.0001,0.0001 0.00016,0.00023 0.00016,0.00038l0 0.00071 0.00065 0 0 0.00022c0,0.00016 -0.00005,0.00029 -0.00016,0.00039 -0.00011,0.0001 -0.00023,0.00015 -0.00038,0.00015l-0.00011 0 0 0.00234c0,0.00018 0.0001,0.00027 0.00032,0.00027l0.00033 0 0 0.00082zm-0.00477 -0.0026l0.00161 0c-0.00002,-0.00028 -0.00009,-0.0005 -0.00022,-0.00063 -0.00014,-0.00015 -0.00033,-0.00022 -0.00059,-0.00022 -0.00023,0 -0.00042,0.00007 -0.00057,0.00022 -0.00015,0.00015 -0.00023,0.00036 -0.00024,0.00063zm0.0019 0.00123l0.00079 0c-0.00012,0.00044 -0.00034,0.00078 -0.00066,0.00101 -0.00033,0.00024 -0.00074,0.00036 -0.00123,0.00036 -0.0006,0 -0.00107,-0.0002 -0.00141,-0.00059 -0.00034,-0.00038 -0.00051,-0.00092 -0.00051,-0.00163 0,-0.00067 0.00016,-0.0012 0.00049,-0.00158 0.00034,-0.00039 0.00081,-0.00059 0.00141,-0.00059 0.00063,0 0.00112,0.00019 0.00147,0.00057 0.00034,0.00039 0.00051,0.00093 0.00051,0.00163 0,0.00004 0,0.00008 0,0.00011 0,0.00003 0,0.00005 0,0.00006 0,0.00005 -0.00001,0.00009 -0.00002,0.00011l-0.00273 0c0.00001,0.00033 0.00009,0.00057 0.00024,0.00073 0.00014,0.00017 0.00034,0.00025 0.00062,0.00025 0.00018,0 0.00033,-0.00004 0.00046,-0.00011 0.00003,-0.00001 0.00006,-0.00003 0.00009,-0.00006 0.00003,-0.00003 0.00006,-0.00006 0.00009,-0.00009 0.00001,-0.00003 0.00005,-0.00007 0.00012,-0.00013 0.00007,-0.00005 0.00017,-0.00008 0.00029,-0.00008zm-0.00779 0.00138l0 -0.00487c0,-0.00016 0.00006,-0.00029 0.00017,-0.0004 0.00011,-0.00011 0.00025,-0.00017 0.0004,-0.00018l0.0006 0 0.00221 0.00375 0 -0.00375 0.00111 0 0 0.00545 -0.00115 0 -0.00223 -0.00375 0 0.00375 -0.00111 0zm-0.00477 -0.00098l0.00133 0c0.0003,0 0.00052,-0.00006 0.00068,-0.00017 0.00015,-0.00011 0.00022,-0.00028 0.00022,-0.00054 0,-0.00025 -0.00007,-0.00044 -0.00022,-0.00055 -0.00014,-0.00011 -0.00037,-0.00016 -0.00069,-0.00016l-0.00131 0 0 0.00142zm0 -0.00236l0.00128 0c0.00027,0 0.00048,-0.00005 0.0006,-0.00014 0.00013,-0.00009 0.00019,-0.00024 0.00019,-0.00044 0,-0.0002 -0.00006,-0.00035 -0.00019,-0.00044 -0.0001,-0.00008 -0.00031,-0.00013 -0.00062,-0.00013l-0.00126 0 0 0.00115zm-0.00108 0.00334l0 -0.00487c0,-0.00016 0.00006,-0.00029 0.00017,-0.0004 0.00011,-0.00011 0.00025,-0.00017 0.0004,-0.00017l0.00199 0c0.00056,0 0.00099,0.00012 0.00128,0.00035 0.00029,0.00025 0.00044,0.0006 0.00044,0.00103 0,0.00027 -0.00006,0.00051 -0.00017,0.0007 -0.00012,0.00018 -0.00028,0.00032 -0.00049,0.00043 0.00027,0.00012 0.00048,0.00028 0.00063,0.00049 0.00014,0.0002 0.00021,0.00046 0.00021,0.00079 0,0.00053 -0.00017,0.00094 -0.00051,0.00123 -0.00035,0.00028 -0.00084,0.00043 -0.00147,0.00043l-0.00248 0zm-0.00082 -0.00087l0.00054 0 0 0.00087 -0.00087 0 0 -0.00054c0,-0.00022 0.00011,-0.00033 0.00033,-0.00033zm-0.00512 0.00087c0,-0.00181 0,-0.00362 0,-0.00544l0.00112 0 0 0.00202 0.00225 0 0 -0.00202 0.00114 0 0 0.00544 -0.00114 0 0 -0.00242 -0.00225 0 0 0.00242 -0.00112 0z"/>
 </g>
</svg>
