<?xml version="1.0" encoding="UTF-8"?>
<!DOCTYPE svg PUBLIC "-//W3C//DTD SVG 1.1//EN" "http://www.w3.org/Graphics/SVG/1.1/DTD/svg11.dtd">
<!-- Creator: CorelDRAW 2020 (64-Bit) -->
<svg xmlns="http://www.w3.org/2000/svg" xml:space="preserve" width="0.438555in" height="0.125941in" version="1.1" style="shape-rendering:geometricPrecision; text-rendering:geometricPrecision; image-rendering:optimizeQuality; fill-rule:evenodd; clip-rule:evenodd"
viewBox="0 0 2.91236 0.83635"
 xmlns:xlink="http://www.w3.org/1999/xlink"
 xmlns:xodm="http://www.corel.com/coreldraw/odm/2003">
 <defs>
  <style type="text/css">
   <![CDATA[
    .fil0 {fill:#AAAAAA}
   ]]>
  </style>
 </defs>
 <g id="Layer_x0020_1">
  <metadata id="CorelCorpID_0Corel-Layer"/>
  <path id="aldecor.cdr" class="fil0" d="M0.68327 0.42598c0.12398,-0.1725 0.01992,-0.26887 -0.03454,-0.30448 -0.04615,-0.03012 -0.1622,-0.04489 -0.24558,0.07386 -0.05341,-0.13708 -0.16226,-0.15177 -0.22728,-0.13193 -0.04902,0.01495 -0.13896,0.06881 -0.12055,0.20427 0.00376,0.04523 0.0457,0.10359 0.10552,0.16809 0.01812,0.00604 0.03713,0.01127 0.06021,0.0126 0.00139,0.00863 0.00034,0.02045 -0.00139,0.03315 0.0873,-0.00387 0.06489,-0.06008 0.12887,-0.0691 -0.00763,-0.02981 -0.0011,-0.04181 0.01119,-0.04667 0.00295,-0.02931 0.01414,-0.05877 0.0252,-0.08311 -0.01569,-0.00745 -0.01472,-0.01948 0.00421,-0.01893 0.00769,-0.03001 0.02881,-0.03694 0.04113,-0.03692 0.01563,0.00003 0.03726,0.0098 0.04071,0.0429 0.0056,-0.0068 0.01331,-0.00915 0.02086,-0.01025 0.02228,-0.00327 0.04081,0.01116 0.04222,0.03396 0.00058,0.00881 -0.00387,0.01851 -0.0212,0.02656 0.00546,0.02803 0.00217,0.04701 -0.01354,0.05323 -0.00847,0.03974 -0.02693,0.0623 -0.04667,0.08264 -0.01608,0.02157 -0.01454,0.05056 -0.01122,0.08029 -0.03088,0.02343 -0.0274,0.08016 -0.01587,0.14474 0.00306,0.02544 0.00481,0.05519 0.00539,0.08871 0.00055,0.01401 0.00295,0.02604 0.00081,0.03205 -0.00196,0.00557 -0.00816,0.00884 -0.01459,0.00926 -0.01697,0.00217 -0.03501,0.00829 -0.05132,0.00766 -0.00727,-0.00029 -0.02241,0.00363 -0.02348,-0.0046 -0.00031,-0.00235 -0.00178,-0.00834 0.01059,-0.01004 0.0102,-0.00209 0.01801,-0.00531 0.02194,-0.01051 -0.0098,-0.00031 -0.01958,-0.00063 -0.02939,-0.00094 -0.00816,-0.00018 -0.0056,-0.01299 0.00536,-0.01425 0.0102,-0.00003 0.02102,-0.00484 0.03247,-0.01422 -0.00063,-0.03012 -0.00348,-0.05781 -0.00842,-0.08327 -0.00515,-0.02677 -0.01822,-0.04314 -0.02217,-0.07315 -0.00573,0.01064 -0.00868,0.0389 -0.00672,0.06667 0.00235,0.03263 0.00217,0.06829 -0.01639,0.08578 -0.00418,0.00821 -0.01488,0.00358 -0.01354,-0.00442 0.00065,-0.01365 -0.00238,-0.0263 -0.0154,-0.03618 -0.01943,-0.01362 -0.0326,-0.03169 -0.03645,-0.05653 -0.01673,0.02154 -0.05182,0.05315 -0.0532,0.08149 -0.00047,0.01156 -0.00748,0.01346 -0.0119,0.00651 -0.00541,-0.01333 -0.00701,-0.02599 -0.004,-0.03778 -0.01305,-0.02186 -0.01213,-0.03496 0.00654,-0.03689 0.02361,-0.00031 0.03464,-0.01896 0.04201,-0.04298 -0.01448,-0.02382 -0.016,-0.05754 -0.01728,-0.09148 -0.01258,-0.03561 -0.03799,-0.06641 -0.07049,-0.09454 -0.12314,-0.0982 -0.16158,-0.18338 -0.15525,-0.26166 0.01208,-0.12743 0.09674,-0.17172 0.15439,-0.18218 0.07143,-0.01299 0.16835,0.00638 0.23734,0.14853 0.10597,-0.13642 0.23028,-0.10181 0.28095,-0.07407 0.06782,0.03715 0.17614,0.1906 0.00991,0.34812zm1.91219 0.32265l0.26315 0c0.00285,0 0.00515,0.00272 0.00515,0.00609l0 0c0,0.00337 -0.0023,0.00609 -0.00515,0.00609l-0.26315 0c-0.00282,0 -0.00515,-0.00272 -0.00515,-0.00609l0 0c0,-0.00337 0.00233,-0.00609 0.00515,-0.00609zm-1.80811 0l0.2894 0c0.00311,0 0.00565,0.00272 0.00565,0.00609l0 0c0,0.00337 -0.00254,0.00609 -0.00565,0.00609l-0.2894 0c-0.00311,0 -0.00565,-0.00272 -0.00565,-0.00609l0 0c0,-0.00337 0.00254,-0.00609 0.00565,-0.00609zm1.45596 -0.21031c0.02954,-0.01158 0.0605,-0.03103 0.0941,-0.06502 0.02301,-0.02063 0.00468,-0.03464 -0.01566,-0.0218 -0.03375,0.01838 -0.05794,0.05004 -0.07843,0.08683zm0.41602 -0.05224c-0.02588,0.02123 -0.04638,0.04863 -0.05697,0.07498 -0.00465,0.01404 -0.00416,0.02246 0.00029,0.02648 0.00554,0.00497 0.01762,0.00774 0.03299,-0.00314 0.01503,-0.01595 0.03007,-0.03192 0.04513,-0.04785 -0.02209,-0.00722 -0.0274,-0.02413 -0.02144,-0.05049zm0.01932 0.10921c-0.00808,0.00322 -0.00442,0.01218 0.00324,0.00824 0.05449,-0.02272 0.10947,-0.0673 0.16929,-0.1314 0.00465,-0.00455 0.01354,-0.0096 0.02214,-0.01109 0.01046,-0.00186 0.02141,0.00342 0.01574,0.0103 -0.02706,0.02879 -0.05239,0.05958 -0.07692,0.09143 -0.02139,0.03075 0.00753,0.04795 0.03198,0.04285 0.00225,-0.00034 0.00225,-0.00282 -0.00016,-0.00515 -0.00186,-0.0018 -0.00515,-0.00353 -0.00991,-0.00416 -0.00612,-0.00078 -0.0075,0.00193 -0.00886,-0.00518 -0.00081,-0.0041 0.00013,-0.00952 0.00873,-0.01851 0.02413,-0.03046 0.05007,-0.05467 0.07326,-0.08607 0.00894,-0.01286 0.01067,-0.04549 -0.03177,-0.04609 0.02186,-0.01963 0.00301,-0.02996 -0.00418,-0.02374 -0.01174,0.01148 -0.02345,0.02298 -0.03522,0.03446 -0.00413,0.0102 -0.00374,0.01673 -0.00209,0.0218 -0.04941,0.0582 -0.10176,0.09574 -0.15527,0.12231zm0.00902 -0.06981c0.01344,-0.01407 0.02586,-0.02954 0.03519,-0.04973 0.00724,-0.02562 -0.01367,-0.03203 -0.03422,-0.01263 -0.01488,0.01383 -0.02013,0.02821 -0.02055,0.03828 -0.00047,0.01095 0.00907,0.02573 0.01958,0.02408zm-0.80968 -0.02199c-0.00617,0.04489 -0.00549,0.08142 0.02107,0.08646 0.05109,0.00816 0.10808,-0.01676 0.16976,-0.06819 0.05344,-0.04452 0.10183,-0.09645 0.13538,-0.15768 0.02131,-0.0389 0.02886,-0.06845 0.0234,-0.08902 -0.00847,-0.03203 -0.04847,-0.04251 -0.11739,-0.03323 -0.07739,0.08725 -0.1548,0.17444 -0.23222,0.26166zm0.17907 -0.25112c-0.09206,0.10727 -0.18414,0.21447 -0.2762,0.32171 -0.01835,0.0195 0.00115,0.04134 0.01838,0.02411 0.0223,-0.02641 0.04463,-0.05279 0.06696,-0.07919 -0.00672,0.03645 -0.00447,0.06387 0.00865,0.08047 0.05415,0.0685 0.23191,-0.06361 0.26976,-0.10353 0.05294,-0.05582 0.14649,-0.17394 0.08505,-0.2507 -0.02196,-0.02745 -0.06178,-0.03164 -0.10489,-0.0315 0.00719,-0.01448 0.00834,-0.02238 0.00384,-0.02411 -0.01247,-0.00371 -0.02565,0.01579 -0.03864,0.02983 -0.05995,0.01278 -0.1199,0.03048 -0.1798,0.05548 -0.01498,0.00944 -0.0074,0.02578 0.00724,0.02029 0.04656,-0.01856 0.0931,-0.03449 0.13964,-0.04285zm0.03864 0.34726l0.00703 -0.00254c0.0131,-0.00468 0.02761,-0.00991 0.03906,-0.01597 0.00353,-0.00186 0.00878,-0.00494 0.0149,-0.00855 0.01963,-0.01156 0.04805,-0.02831 0.05985,-0.02831 0.00105,0 0.00204,0.00039 0.0028,0.00102 0.01145,-0.0262 0.03064,-0.05279 0.04063,-0.06335 0.01778,-0.01877 0.05169,-0.04787 0.07898,-0.04884 0.00719,-0.00024 0.01294,0.00149 0.01715,0.00447 0.03088,0.0218 -0.0028,0.05174 -0.02199,0.06617 -0.02967,0.02235 -0.06053,0.03788 -0.09271,0.04604 -0.00698,0.03396 0.00018,0.05208 0.02735,0.04782 0.03046,-0.00178 0.04934,-0.01817 0.07454,-0.03485 0.01969,-0.0131 0.03966,-0.02965 0.05992,-0.05049 0.00044,-0.00047 0.0075,-0.00523 0.01569,-0.01069 0.01135,-0.01336 0.02607,-0.02481 0.04063,-0.03611 0.01707,-0.01323 0.03498,-0.02473 0.05404,-0.03407 0.0388,-0.01229 0.05287,0.02042 0.04515,0.03059 -0.01004,0.01916 -0.02207,0.03341 -0.03506,0.04526 -0.00813,0.00737 -0.02526,0.02547 -0.03433,0.0103 -0.00361,-0.00593 -0.0034,-0.01516 0.00282,-0.02188 0.01707,-0.02178 0.03415,-0.03561 0.05124,-0.04669 0.00599,-0.00518 -0.00716,-0.01302 -0.01762,-0.00497 -0.03433,0.02492 -0.06358,0.05998 -0.09177,0.09718 -0.0154,0.0199 -0.01679,0.03328 -0.00881,0.04233 0.01726,0.01961 0.04079,0.01143 0.06034,0.00188 0.02413,-0.01174 0.05313,-0.03184 0.08654,-0.05951 0.02552,-0.0222 0.05101,-0.04437 0.07653,-0.06657 0.01477,-0.01315 0.02651,-0.01454 0.03516,-0.00421 0.02003,-0.01501 0.03198,-0.01655 0.04089,-0.01286 0.00999,0.00416 0.01624,0.02058 0.00275,0.05148 -0.01663,0.0251 -0.03412,0.0473 -0.05253,0.06651 -0.01909,0.01992 -0.06756,0.06983 -0.097,0.04241 -0.01116,-0.01038 -0.01001,-0.03266 0.00643,-0.06952 -0.02016,0.01467 -0.04029,0.02936 -0.06045,0.044 -0.01773,0.01451 -0.03469,0.02298 -0.05098,0.02675 -0.03767,0.00871 -0.07172,-0.00123 -0.07457,-0.04437 -0.00084,-0.01281 0.00131,-0.02405 0.00557,-0.03415 -0.03247,0.03056 -0.06675,0.05425 -0.10223,0.07375 -0.01799,0.01025 -0.06392,0.01451 -0.07891,0.00633 -0.01647,-0.00902 -0.01501,-0.02999 -0.00659,-0.05245 -0.00967,0.00039 -0.03686,0.01637 -0.05548,0.02732 -0.00612,0.00358 -0.01132,0.00667 -0.0148,0.0085 -0.01229,0.00654 -0.0279,0.01211 -0.04165,0.01702l-0.0056 0.00199c-0.00112,0.00042 -0.0023,0.00031 -0.00332,-0.00016 -0.00099,-0.0005 -0.00186,-0.00136 -0.00225,-0.00246 -0.00042,-0.00115 -0.00034,-0.00235 0.00016,-0.00332 0.00047,-0.00102 0.00133,-0.00186 0.00246,-0.00225zm-0.80563 -0.0416c-0.02465,0.02944 -0.05103,0.04596 -0.07893,0.0519 -0.02688,0.00573 -0.06986,0.00175 -0.06949,-0.03391 0.00029,-0.03213 0.04458,-0.04021 0.06923,-0.04037 0.02863,-0.00016 0.05475,0.00824 0.07919,0.02238zm0.3967 -0.29878c-0.02395,0.07179 -0.07075,0.12866 -0.1274,0.17904 -0.01211,0.00748 -0.02586,-0.00288 -0.0195,-0.01987 0.03195,-0.07229 0.08335,-0.12257 0.14691,-0.15917zm-0.17389 0.32605c-0.07613,0.01197 -0.1159,-0.02463 -0.16874,-0.03864 0.08667,-0.10047 0.17386,-0.19954 0.26362,-0.29188 0.03733,-0.0395 0.08743,-0.05106 0.08641,-0.01221 -0.07943,0.03932 -0.12385,0.09187 -0.15376,0.14989 -0.00591,0.01148 -0.01694,0.02999 -0.01472,0.04296 0.00105,0.0063 0.00434,0.01169 0.00905,0.01561 0.02756,0.02306 0.05741,-0.01239 0.07585,-0.03035 0.04907,-0.04785 0.08787,-0.10173 0.09663,-0.17313 0.00771,-0.00714 0.01647,-0.01051 0.02526,-0.01378 -0.00878,-0.00118 -0.01754,-0.00193 -0.02604,0.00073 -0.00447,-0.02479 -0.02199,-0.03015 -0.03762,-0.03114 -0.02397,-0.00152 -0.05888,0.01051 -0.0867,0.04034 -0.08808,0.08827 -0.17726,0.18542 -0.26741,0.28997 -0.04748,-0.01822 -0.09036,-0.02316 -0.1274,-0.0115 -0.01689,0.00533 -0.03778,0.01556 -0.04798,0.03067 -0.00583,0.00863 -0.00858,0.01812 -0.00844,0.02575 0.00105,0.05205 0.07948,0.05459 0.11718,0.0417 0.02764,-0.00946 0.05294,-0.02795 0.07624,-0.05449 0.05901,0.01414 0.11768,0.06962 0.18858,0.0195zm-0.52708 -0.15175c0.0519,-0.00139 0.1038,-0.0028 0.15569,-0.00421 0.05917,-0.07574 0.11765,-0.14992 0.17483,-0.22111 0.01686,-0.01937 0.00735,-0.03326 -0.00763,-0.02144 -0.10981,0.07692 -0.21719,0.15969 -0.32289,0.24676zm-0.10923 0.04076c-0.02384,-0.00029 -0.04769,-0.00052 -0.07153,-0.00078 -0.02191,0.00039 -0.01603,-0.01171 0,-0.0126 0.04058,-0.00217 0.0811,-0.00437 0.12165,-0.00651 -0.04999,0.04539 -0.09995,0.09078 -0.14997,0.13619 -0.00852,0.0075 0.01143,0.01943 0.02831,0.00418 0.05054,-0.04819 0.10168,-0.0964 0.15839,-0.14461 0.05394,-0.00136 0.10787,-0.00277 0.16181,-0.00418 -0.02646,0.04118 -0.05877,0.08238 -0.09219,0.12353 -0.01276,0.01616 -0.00842,0.02526 0.00458,0.03713 0.04154,-0.04839 0.08301,-0.09634 0.12665,-0.16027 0.01958,0.00225 0.04058,0.00217 0.06272,0.00037 -0.00499,-0.01278 -0.02099,-0.01846 -0.04894,-0.01645 0.05449,-0.06994 0.10897,-0.13985 0.16346,-0.20979 0.0102,-0.0131 0.02596,-0.03524 0.01535,-0.05182 -0.01271,-0.01992 -0.03663,-0.00314 -0.05083,0.0056 -0.12343,0.07606 -0.24119,0.16372 -0.35541,0.26116 -0.02693,0.00131 -0.05386,0.00267 -0.08076,0.00397 -0.02316,0.0011 -0.05454,0.00044 -0.0765,0.00651 -0.01733,0.00476 -0.02803,0.01278 -0.03143,0.02021 -0.00892,0.01971 0.03088,0.01814 0.04139,0.01869 0.02933,0.00159 0.07088,0.00217 0.07326,-0.01054zm1.38696 0.28621c-0.00031,0.00246 -0.0005,0.00492 -0.0005,0.00737 0,0.00222 0.00029,0.00604 0.00222,0.00756 0.00175,0.00133 0.00366,0.00199 0.00588,0.00199 0.00209,0 0.00429,-0.00047 0.00627,-0.00107 0.00207,-0.0006 0.00426,-0.00133 0.00614,-0.00241 0.00348,-0.00191 0.00698,-0.00421 0.01033,-0.00638l0.00102 -0.00065 0.00397 0.00039 0.0034 0.00604 -0.00094 0.00358 -0.00105 0.00073c-0.0069,0.00492 -0.01495,0.01038 -0.02275,0.01373 -0.00507,0.00217 -0.01072,0.0039 -0.01626,0.0039 -0.00426,0 -0.00837,-0.00092 -0.01221,-0.00277 -0.0039,-0.00186 -0.0069,-0.00473 -0.00876,-0.00863 -0.00165,-0.0035 -0.00246,-0.00722 -0.00246,-0.01111 0,-0.00735 0.00154,-0.01524 0.00329,-0.02235 0.0017,-0.00698 0.00437,-0.01511 0.00884,-0.02086 0.00437,-0.00557 0.01106,-0.01012 0.01715,-0.0136 0.00617,-0.00353 0.0137,-0.00682 0.02092,-0.00682 0.00478,0 0.00946,0.00118 0.01326,0.00421 0.00395,0.00322 0.0056,0.00769 0.0056,0.01268 0,0.00607 -0.00183,0.01156 -0.00544,0.01645 -0.00416,0.00567 -0.01082,0.00941 -0.01726,0.01197 -0.00669,0.00267 -0.01362,0.00471 -0.02068,0.00607zm0.00217 -0.01224c0.00536,-0.00165 0.01109,-0.00421 0.01412,-0.00829 0.00248,-0.00332 0.00489,-0.00758 0.00489,-0.01184 0,-0.00112 -0.00018,-0.00238 -0.00105,-0.00319 -0.00081,-0.00078 -0.00178,-0.00107 -0.00293,-0.00107 -0.00356,0 -0.00612,0.00235 -0.00808,0.00518 -0.00306,0.00439 -0.00539,0.01258 -0.00695,0.01922zm0.05404 -0.01608l0.00052 -0.00306 0.00081 -0.00068c0.00311,-0.00264 0.00627,-0.00518 0.00952,-0.00771 0.00324,-0.00248 0.00654,-0.00489 0.00999,-0.00709 0.00214,-0.00139 0.00481,-0.00301 0.00727,-0.00384 0.00165,-0.00058 0.0034,-0.00092 0.00512,-0.00092 0.00518,0 0.00782,0.00363 0.00782,0.0086 0,0.00361 -0.00076,0.00771 -0.00146,0.01127 -0.00026,0.00136 -0.00055,0.00272 -0.00084,0.00405 0.00342,-0.00413 0.00719,-0.00797 0.01129,-0.01153 0.00612,-0.00528 0.01545,-0.01234 0.02392,-0.01234 0.00677,0 0.0102,0.00447 0.0102,0.01093 0,0.004 -0.00099,0.00852 -0.00191,0.01237 -0.00178,0.0074 -0.00376,0.01477 -0.00575,0.02214 -0.00131,0.00481 -0.00267,0.0098 -0.00358,0.01469 -0.00024,0.00136 -0.00063,0.00332 -0.00081,0.00497 0.00254,-0.00128 0.0063,-0.00408 0.00748,-0.00497l0.0011 -0.00084 0.00416 0.00037 0.00329 0.00583 -0.00076 0.00361 -0.00107 0.00081c-0.00578,0.00434 -0.0131,0.01004 -0.01958,0.01323 -0.00348,0.0017 -0.00753,0.00319 -0.01145,0.00319 -0.00335,0 -0.0062,-0.00149 -0.00766,-0.00468 -0.00092,-0.00212 -0.00141,-0.00434 -0.00141,-0.00667 0,-0.0074 0.00353,-0.01945 0.00557,-0.02656 0.00159,-0.00562 0.00316,-0.01129 0.00442,-0.01699 0.00052,-0.00243 0.00131,-0.00575 0.00141,-0.00834 -0.0006,0.00021 -0.00136,0.00058 -0.0017,0.00073 -0.00186,0.00092 -0.00473,0.00392 -0.00617,0.00539 -0.00309,0.00322 -0.0058,0.00672 -0.00816,0.01046 -0.00259,0.00403 -0.00473,0.00829 -0.00654,0.01271 -0.00199,0.00478 -0.00353,0.00973 -0.00471,0.01477 -0.00097,0.00403 -0.00196,0.00842 -0.0023,0.01252l-0.00029 0.00298 -0.00301 0.00024c-0.00531,0.00042 -0.01088,0.0012 -0.01597,0.0028l-0.00204 0.00063 -0.00526 -0.00507 0.00089 -0.0022c0.00248,-0.00625 0.00434,-0.01336 0.00607,-0.01984 0.00217,-0.00797 0.00413,-0.01613 0.00549,-0.02429 0.0005,-0.00311 0.00139,-0.00743 0.00162,-0.01093 -0.00251,0.00144 -0.00607,0.00403 -0.00722,0.00486l-0.00105 0.00078 -0.00429 -0.00026 -0.00303 -0.00531 0.00005 -0.00081zm0.18547 0.03948c0.00183,0.00196 0.00421,0.00348 0.00654,0.00468 0.00309,0.00159 0.0063,0.00238 0.00973,0.00238 0.0022,0 0.00439,-0.00029 0.00643,-0.00107 0.00146,-0.0005 0.00251,-0.00136 0.00324,-0.00272 0.00081,-0.00146 0.00131,-0.00298 0.00131,-0.00468 0,-0.00112 -0.00021,-0.00217 -0.00084,-0.00314 -0.00068,-0.00099 -0.00152,-0.0017 -0.00261,-0.0023 -0.00178,-0.00097 -0.00484,-0.00165 -0.0068,-0.00209 -0.00374,-0.00084 -0.00763,-0.00173 -0.01132,-0.00282 -0.00254,-0.00076 -0.00489,-0.00193 -0.00695,-0.00358 -0.00227,-0.00183 -0.00395,-0.00426 -0.00518,-0.00688 -0.00139,-0.00293 -0.00201,-0.00604 -0.00201,-0.00928 0,-0.00327 0.0006,-0.00641 0.00186,-0.00941 0.00123,-0.00295 0.00303,-0.0056 0.00533,-0.00782 0.00285,-0.00272 0.00667,-0.00515 0.01001,-0.00724 0.00322,-0.00199 0.00719,-0.00434 0.0108,-0.00552 0.00306,-0.00099 0.00641,-0.00128 0.00962,-0.00128 0.00748,0 0.01456,0.00173 0.0211,0.00541l0.0023 0.00125 -0.00055 0.00259c-0.00123,0.00586 -0.00207,0.01184 -0.00269,0.0178l-0.00016 0.00136 -0.00272 0.00243 -0.00607 0 -0.0028 -0.00235 -0.00086 -0.00724c-0.00183,-0.00159 -0.00392,-0.00277 -0.00625,-0.00369 -0.00256,-0.00099 -0.00526,-0.00157 -0.00805,-0.00157 -0.00251,0 -0.00481,0.00058 -0.00675,0.00222 -0.00167,0.00149 -0.00241,0.00322 -0.00241,0.00544 0,0.00188 0.00037,0.00366 0.00201,0.00473 0.00293,0.00191 0.00949,0.00324 0.01286,0.0039 0.00374,0.00071 0.00821,0.00167 0.01169,0.00332 0.00316,0.00149 0.0056,0.00395 0.0074,0.00695 0.00199,0.00329 0.00282,0.00701 0.00282,0.01085 0,0.0039 -0.00078,0.00771 -0.00267,0.01116 -0.00222,0.0041 -0.00648,0.00784 -0.01009,0.01069 -0.0039,0.00303 -0.00837,0.00614 -0.01294,0.00803 -0.0046,0.00193 -0.00996,0.00246 -0.0149,0.00246 -0.00303,0 -0.00604,-0.00024 -0.00905,-0.00065 -0.00429,-0.00063 -0.00902,-0.00238 -0.01307,-0.00395l-0.00139 -0.00058 -0.00139 -0.00335 0.00037 -0.0012c0.00084,-0.00277 0.00131,-0.00627 0.00173,-0.00912 0.00044,-0.00311 0.00102,-0.00661 0.00115,-0.00975l0.00005 -0.00144 0.00277 -0.00269 0.00643 0 0.00272 0.00272 0.00024 0.00703zm-0.04228 -0.05969l0.00356 0c0.0039,0 0.00868,0.00005 0.01252,-0.00058l0.00222 -0.00039 0.00309 0.00455 -0.00047 0.00162c-0.00068,0.0023 -0.00125,0.00468 -0.00167,0.00706l-0.00024 0.00139 -0.00329 0.00246 -0.00139 -0.00016c-0.00405,-0.00037 -0.0081,-0.00052 -0.01218,-0.00052l-0.00544 0c-0.00081,0.004 -0.00167,0.00803 -0.00251,0.01203l-0.00327 0.01516 -0.00238 0.01174c-0.00037,0.00207 -0.00081,0.00424 -0.0011,0.0063 -0.00008,0.00068 -0.00013,0.00141 -0.00013,0.00212 0,0.00016 0,0.00052 -0.00008,0.00052 0.00003,0 0.0001,0 0.00013,0 0.00052,0 0.0012,-0.00021 0.0017,-0.00042 0.00128,-0.00052 0.00267,-0.00139 0.00387,-0.00214 0.00324,-0.00199 0.00643,-0.00426 0.00954,-0.00646l0.00107 -0.00073 0.00434 0.00034 0.00298 0.00591 -0.0006 0.0035 -0.00115 0.00084c-0.00492,0.00358 -0.00986,0.00716 -0.01493,0.01054 -0.00285,0.00188 -0.00601,0.00405 -0.0091,0.00554 -0.00316,0.00149 -0.00709,0.00309 -0.01061,0.00309 -0.00371,0 -0.00719,-0.00115 -0.00954,-0.0041 -0.00222,-0.00272 -0.00309,-0.00612 -0.00309,-0.00957 0,-0.00256 0.00034,-0.00523 0.00084,-0.00777 0.00123,-0.00682 0.00288,-0.0138 0.00434,-0.02063 0.00154,-0.00709 0.00309,-0.0142 0.00455,-0.02128 0.00026,-0.00136 0.00065,-0.00293 0.00099,-0.00452l-0.01388 0 -0.00248 -0.00348 0.00092 -0.00526 0.00241 -0.00251 0.00105 -0.00021c0.00502,-0.00118 0.01004,-0.00275 0.01495,-0.00437 0.00024,-0.00186 0.00058,-0.00369 0.00086,-0.00549 0.00078,-0.0045 0.00152,-0.00928 0.00152,-0.01383l0 -0.0029 0.0028 -0.0006c0.00447,-0.00094 0.00933,-0.00269 0.01362,-0.00429 0.00175,-0.00063 0.00358,-0.00133 0.00539,-0.00188l0.0022 -0.00071 0.00473 0.00515 -0.00068 0.00199c-0.00235,0.00732 -0.00421,0.01532 -0.00596,0.02296zm-0.28566 0.0159c-0.0018,0.00003 -0.00361,0 -0.00518,0l-0.0069 -0.00016c-0.00086,0 -0.00186,0.0001 -0.00282,0.00018l-0.00455 0.00905 -0.00248 0.0018 -0.00614 0 -0.00282 -0.0035 0.00758 -0.02418 0.00217 -0.00034c0.00282,-0.00052 0.00648,-0.00123 0.00936,-0.00123 0.00243,0 0.00486,0.00016 0.00724,0.00042 0.0045,0.00034 0.00923,0.00073 0.01375,0.00073 0.00207,0 0.00604,-0.00018 0.00777,-0.00146l0.00293 -0.00214 0.00599 0.00829 -0.00196 0.00212c-0.00332,0.00371 -0.0063,0.0085 -0.00884,0.01281 -0.00332,0.0056 -0.00586,0.01158 -0.00769,0.01786 -0.00167,0.00565 -0.00269,0.01153 -0.00269,0.01746 0,0.00293 0.00029,0.00732 0.00214,0.00978 0.0012,0.00165 0.00269,0.00238 0.00473,0.00238 0.00424,0 0.00771,-0.00269 0.01041,-0.0057 0.00447,-0.00492 0.00748,-0.0114 0.00962,-0.01765 0.00207,-0.00612 0.0039,-0.0131 0.0039,-0.01958 0,-0.00261 -0.0001,-0.00567 -0.00327,-0.00567 -0.00089,0 -0.00175,0.00039 -0.00243,0.00084l-0.00136 0.00084 -0.00421 -0.00115 -0.00209 -0.00465 0.00081 -0.00348 0.00107 -0.00078c0.0018,-0.00131 0.00356,-0.00311 0.0051,-0.00468 0.00112,-0.00118 0.00295,-0.00306 0.00374,-0.00447l0.00068 -0.00128 0.00141 -0.00044c0.00146,-0.00042 0.00301,-0.00071 0.00452,-0.00071 0.01156,0 0.01519,0.00944 0.01519,0.01958 0,0.01095 -0.00371,0.02157 -0.00876,0.03114 -0.00507,0.00962 -0.01156,0.01877 -0.02003,0.02573 -0.00656,0.00539 -0.01441,0.00967 -0.02314,0.00967 -0.00638,0 -0.01197,-0.00222 -0.01631,-0.00688 -0.00489,-0.00526 -0.00635,-0.01242 -0.00635,-0.01937 0,-0.0046 0.00068,-0.00912 0.00196,-0.01357 0.00149,-0.00507 0.00397,-0.00988 0.0069,-0.01425 0.00301,-0.00447 0.00698,-0.00905 0.01106,-0.01333zm-0.08714 0.03263c-0.00029,0.00246 -0.0005,0.00492 -0.0005,0.00737 0,0.00222 0.00029,0.00604 0.00222,0.00756 0.00178,0.00133 0.00369,0.00199 0.00591,0.00199 0.00207,0 0.00429,-0.00047 0.00625,-0.00107 0.00207,-0.0006 0.00426,-0.00133 0.00617,-0.00241 0.00348,-0.00191 0.00698,-0.00421 0.0103,-0.00638l0.00107 -0.00065 0.00395 0.00039 0.00337 0.00604 -0.00092 0.00358 -0.00107 0.00073c-0.0069,0.00492 -0.01493,0.01038 -0.02272,0.01373 -0.00507,0.00217 -0.01072,0.0039 -0.01626,0.0039 -0.00429,0 -0.00839,-0.00092 -0.01224,-0.00277 -0.00384,-0.00186 -0.0069,-0.00473 -0.00873,-0.00863 -0.00167,-0.0035 -0.00248,-0.00722 -0.00248,-0.01111 0,-0.00735 0.00157,-0.01524 0.00332,-0.02235 0.0017,-0.00698 0.00434,-0.01511 0.00884,-0.02086 0.00434,-0.00557 0.01106,-0.01012 0.01712,-0.0136 0.00617,-0.00353 0.0137,-0.00682 0.02092,-0.00682 0.00484,0 0.00946,0.00118 0.01328,0.00421 0.00395,0.00322 0.00557,0.00769 0.00557,0.01268 0,0.00607 -0.0018,0.01156 -0.00539,0.01645 -0.00421,0.00567 -0.01085,0.00941 -0.01726,0.01197 -0.00672,0.00267 -0.01365,0.00471 -0.02073,0.00607zm-0.09208 -0.01801c0.00261,0.00306 0.004,0.00698 0.004,0.01163 0,0.00779 -0.00329,0.01456 -0.00842,0.02031 -0.00607,0.00677 -0.01412,0.01143 -0.02243,0.01482 -0.00954,0.00387 -0.01948,0.00578 -0.02973,0.00578 -0.00533,0 -0.01067,-0.00058 -0.01584,-0.00188 -0.00497,-0.00128 -0.0096,-0.00345 -0.01375,-0.00651 -0.00408,-0.00298 -0.00732,-0.00675 -0.00952,-0.01129 -0.00225,-0.00463 -0.00319,-0.00965 -0.00319,-0.0148 0,-0.01705 0.01177,-0.02724 0.02588,-0.03352 -0.00112,-0.00081 -0.0022,-0.00173 -0.00316,-0.0028 -0.00363,-0.00384 -0.00528,-0.00868 -0.00528,-0.01399 0,-0.00455 0.0012,-0.00884 0.00361,-0.01273 0.00264,-0.00431 0.00672,-0.00805 0.01069,-0.01116 0.00421,-0.00332 0.00884,-0.00638 0.0137,-0.00868 0.00494,-0.00227 0.01038,-0.00319 0.01579,-0.00319 0.00669,0 0.0131,0.00144 0.01906,0.00442l0.0011 0.00052 0.00175 0.00363 -0.00071 0.00149c-0.00071,0.00178 -0.00128,0.00609 -0.00157,0.00803 -0.00052,0.00295 -0.0012,0.00656 -0.00131,0.00957l-0.00003 0.00128 -0.00254 0.00288 -0.0068 0 -0.00246 -0.00293 -0.00031 -0.00863c-0.00332,-0.00298 -0.00719,-0.00434 -0.01177,-0.00434 -0.00426,0 -0.00803,0.00112 -0.01124,0.00397 -0.00295,0.00267 -0.00431,0.00593 -0.00431,0.00991 0,0.00259 0.0006,0.00499 0.00199,0.00716 0.00125,0.00199 0.00285,0.00353 0.00497,0.00452 0.00207,0.00099 0.00429,0.00152 0.00659,0.00152 0.0011,0 0.00225,-0.00016 0.00332,-0.00034l0.00183 -0.00034 0.0034 0.00345 -0.00055 0.00199c-0.0006,0.0022 -0.00162,0.00567 -0.0017,0.00795l-0.00016 0.00293c0.00235,-0.00159 0.00489,-0.00288 0.00761,-0.00376 0.00573,-0.0018 0.01237,-0.00277 0.0183,-0.00356 0.00544,-0.00068 0.01111,-0.00141 0.01642,-0.00264 0.00235,-0.00052 0.00512,-0.00149 0.00682,-0.00324 0.00115,-0.00118 0.00183,-0.00251 0.00183,-0.00416 0,-0.00233 -0.00086,-0.00353 -0.00309,-0.00431l-0.00241 -0.00081 0 -0.00476 0.00356 -0.00458 0.00322 -0.00071 0.00107 0.00052c0.00706,0.00329 0.0109,0.00902 0.0109,0.01684 0,0.00387 -0.00081,0.00756 -0.00251,0.01103 -0.00159,0.00314 -0.00371,0.00599 -0.00659,0.00805 -0.00277,0.00196 -0.00591,0.00327 -0.0092,0.004 -0.00225,0.00055 -0.00452,0.00099 -0.00685,0.00144zm-0.04039 -0.00842l-0.00277 -0.0005c-0.00144,-0.00026 -0.00288,-0.00042 -0.00434,-0.00042 -0.00447,0 -0.00873,0.00094 -0.01286,0.00269 -0.00395,0.00167 -0.00698,0.00426 -0.0092,0.0079 -0.0023,0.00382 -0.0034,0.00795 -0.0034,0.01242 0,0.00431 0.00097,0.00844 0.00324,0.01213 0.00222,0.00358 0.00531,0.0062 0.00907,0.00803 0.00455,0.00222 0.0097,0.00295 0.01472,0.00295 0.00387,0 0.00779,-0.00042 0.0115,-0.00157 0.00319,-0.00099 0.0062,-0.00248 0.00886,-0.0046 0.00246,-0.00191 0.0045,-0.00421 0.00599,-0.00698 0.00144,-0.00259 0.00217,-0.00539 0.00217,-0.00834 0,-0.00204 -0.00042,-0.00403 -0.00139,-0.00586 -0.00078,-0.00152 -0.00186,-0.00267 -0.0034,-0.0034 -0.00146,-0.00073 -0.00309,-0.00123 -0.00473,-0.00123 -0.00123,0 -0.00248,0.00031 -0.00361,0.00073 -0.00099,0.00037 -0.0018,0.00094 -0.00243,0.0018 -0.00055,0.00073 -0.0012,0.00167 -0.00149,0.00259 -0.00052,0.00136 -0.00084,0.00309 -0.00118,0.00452l-0.00024 0.00097 -0.00243 0.00248 -0.00591 0 -0.00254 -0.00314 0.00196 -0.01932 0.00094 -0.00089c0.00107,-0.00105 0.00225,-0.00207 0.00345,-0.00298zm-0.16108 0.0376c0.00183,0.00199 0.00418,0.00348 0.00651,0.00468 0.00311,0.00159 0.00633,0.00238 0.00978,0.00238 0.00217,0 0.00434,-0.00029 0.00638,-0.00107 0.00144,-0.0005 0.00251,-0.00136 0.00327,-0.00272 0.00081,-0.00146 0.00128,-0.00298 0.00128,-0.00468 0,-0.00112 -0.00021,-0.00217 -0.00086,-0.00314 -0.00065,-0.00099 -0.00149,-0.0017 -0.00254,-0.00227 -0.00183,-0.00099 -0.00484,-0.00167 -0.00685,-0.00212 -0.00374,-0.00084 -0.00763,-0.00173 -0.01132,-0.00282 -0.00251,-0.00076 -0.00484,-0.00193 -0.00698,-0.00363 -0.00225,-0.00183 -0.00392,-0.00421 -0.00515,-0.00682 -0.00139,-0.00293 -0.00201,-0.00604 -0.00201,-0.00928 0,-0.00327 0.0006,-0.00641 0.00186,-0.00941 0.00123,-0.00295 0.00303,-0.0056 0.00533,-0.00782 0.00285,-0.00272 0.00669,-0.00518 0.01001,-0.00724 0.00324,-0.00199 0.00719,-0.00434 0.01082,-0.00552 0.00309,-0.00099 0.00641,-0.00128 0.00965,-0.00128 0.00745,0 0.01451,0.00173 0.02105,0.00541l0.00227 0.00125 -0.0005 0.00259c-0.00123,0.00586 -0.00204,0.01184 -0.00269,0.0178l-0.00016 0.00139 -0.00272 0.00241 -0.00609 0 -0.00277 -0.00235 -0.00086 -0.00724c-0.00186,-0.00159 -0.00395,-0.00277 -0.00625,-0.00369 -0.00259,-0.00099 -0.00531,-0.00157 -0.00805,-0.00157 -0.00251,0 -0.00484,0.00058 -0.00675,0.00222 -0.00167,0.00149 -0.00243,0.00322 -0.00243,0.00544 0,0.00188 0.00039,0.00366 0.00204,0.00473 0.0029,0.00191 0.00949,0.00324 0.01286,0.0039 0.00374,0.00071 0.00821,0.00167 0.01166,0.00332 0.00319,0.00149 0.00562,0.00395 0.00743,0.00695 0.00196,0.00329 0.0028,0.00701 0.0028,0.01085 0,0.0039 -0.00078,0.00771 -0.00267,0.01116 -0.00222,0.0041 -0.00646,0.00784 -0.01009,0.01067 -0.0039,0.00306 -0.00837,0.00617 -0.01294,0.00805 -0.00458,0.00193 -0.00994,0.00246 -0.01488,0.00246 -0.00303,0 -0.00607,-0.00024 -0.00905,-0.00065 -0.00429,-0.00063 -0.00902,-0.00238 -0.01307,-0.00395l-0.00139 -0.00055 -0.00141 -0.00335 0.00037 -0.00123c0.00084,-0.00277 0.00133,-0.00627 0.00175,-0.00912 0.00044,-0.00311 0.00102,-0.00661 0.00112,-0.00975l0.00005 -0.00144 0.0028 -0.00269 0.00641 0 0.00275 0.00272 0.00024 0.00703zm-0.09117 0.01318c-0.00105,-0.0018 -0.0017,-0.00384 -0.0017,-0.00609 0,-0.00102 0.00018,-0.00207 0.00047,-0.00303 0.00026,-0.00086 0.0006,-0.00178 0.00118,-0.00248 0.00052,-0.00073 0.00133,-0.00123 0.00214,-0.00175 0.00123,-0.00073 0.00264,-0.00157 0.0041,-0.00246 -0.00353,-0.00084 -0.00685,-0.00233 -0.00988,-0.0046 -0.00578,-0.00431 -0.00774,-0.01098 -0.00774,-0.01796 0,-0.00379 0.00058,-0.0075 0.00175,-0.01109 0.00107,-0.00337 0.00264,-0.00656 0.00468,-0.00944 0.0017,-0.00243 0.00374,-0.00481 0.00617,-0.00656 0.00261,-0.00196 0.00601,-0.0035 0.00902,-0.00484 0.00337,-0.00146 0.00682,-0.0028 0.0103,-0.00395 0.00275,-0.00089 0.00573,-0.00157 0.00863,-0.00157 0.00186,0 0.00371,0.00013 0.00554,0.00039 0.00128,0.00018 0.00272,0.00039 0.00397,0.00076 0.00139,0.00037 0.00288,0.00105 0.00418,0.00159l0.00199 0.00073c0.00123,0.00016 0.00272,0.00018 0.00395,0.00024 0.00217,0.00013 0.00434,0.00026 0.00651,0.00026 0.0022,0 0.00444,-0.00018 0.00659,-0.00031 0.00157,-0.0001 0.00314,-0.00024 0.00468,-0.00024l0.00188 0 0.0028 0.00405 -0.00288 0.01312 -0.00348 -0.00073c-0.00157,-0.00034 -0.00382,-0.00039 -0.00544,-0.00047 -0.00089,-0.00003 -0.00183,-0.0001 -0.00275,-0.00016 0.00037,0.0018 0.0005,0.00366 0.0005,0.00552 0,0.00413 -0.00071,0.00818 -0.00214,0.01203 -0.00128,0.00345 -0.00293,0.00682 -0.00515,0.00975 -0.00204,0.00267 -0.00452,0.00484 -0.00743,0.00651 -0.00335,0.00191 -0.00709,0.00345 -0.01067,0.00484 -0.00201,0.00078 -0.00413,0.00165 -0.00599,0.00264 -0.00086,0.00044 -0.00173,0.00105 -0.00235,0.0018 -0.00016,0.00021 -0.00044,0.0006 -0.0005,0.00047 0.00003,0.00034 0.00052,0.00105 0.00071,0.00128 0.0012,0.00157 0.00677,0.00531 0.00852,0.00648 0.00505,0.0035 0.01179,0.00831 0.01571,0.0131 0.00311,0.00376 0.00458,0.00826 0.00458,0.01315 0,0.00996 -0.00518,0.01736 -0.01346,0.02259 -0.00918,0.0057 -0.01969,0.0079 -0.03038,0.0079 -0.00638,0 -0.01289,-0.00068 -0.01901,-0.00267 -0.00505,-0.00165 -0.00983,-0.00429 -0.01318,-0.00858 -0.00285,-0.00363 -0.00444,-0.00784 -0.00444,-0.01252 0,-0.00601 0.00282,-0.01122 0.00682,-0.01561 0.00533,-0.00586 0.01378,-0.0096 0.02118,-0.01211zm-0.09946 -0.05192c-0.00251,0.00144 -0.00607,0.00403 -0.00722,0.00486l-0.00105 0.00078 -0.00431 -0.00026 -0.00301 -0.00531 0.00021 -0.00356 0.00118 -0.00099c0.00311,-0.00264 0.00627,-0.00518 0.00952,-0.00771 0.00322,-0.00248 0.00654,-0.00489 0.00994,-0.00709 0.0022,-0.00139 0.00486,-0.00301 0.00732,-0.00384 0.00165,-0.00058 0.00335,-0.00092 0.00512,-0.00092 0.00518,0 0.00782,0.00363 0.00782,0.0086 0,0.00361 -0.00076,0.00771 -0.00146,0.01127 -0.00026,0.00136 -0.00058,0.00272 -0.00086,0.00405 0.00342,-0.00413 0.00719,-0.00797 0.01129,-0.01153 0.00614,-0.00528 0.01545,-0.01234 0.02395,-0.01234 0.00675,0 0.01017,0.00444 0.01017,0.01093 0,0.004 -0.00097,0.00852 -0.00188,0.01237 -0.00178,0.0074 -0.00376,0.01477 -0.00575,0.02214 -0.00133,0.00481 -0.00272,0.0098 -0.00358,0.01469 -0.00024,0.00136 -0.00065,0.00332 -0.00081,0.00497 0.00254,-0.00133 0.0063,-0.00408 0.00748,-0.00497l0.00107 -0.00084 0.00418 0.00034 0.00329 0.00586 -0.00076 0.00361 -0.0011 0.00081c-0.00575,0.00434 -0.01312,0.01004 -0.01958,0.01323 -0.00348,0.0017 -0.00753,0.00319 -0.01145,0.00319 -0.00335,0 -0.00622,-0.00149 -0.00763,-0.00463 -0.00097,-0.00214 -0.00141,-0.00439 -0.00141,-0.00672 0,-0.0074 0.0035,-0.01943 0.00554,-0.02656 0.00159,-0.00565 0.00314,-0.01129 0.00444,-0.01699 0.00052,-0.00243 0.00128,-0.00575 0.00136,-0.00834 -0.00055,0.00021 -0.00131,0.00055 -0.00167,0.00073 -0.00183,0.00092 -0.00473,0.00392 -0.00617,0.00539 -0.00309,0.00322 -0.0058,0.00672 -0.00818,0.01046 -0.00256,0.00403 -0.00468,0.00829 -0.00651,0.01271 -0.00196,0.00478 -0.0035,0.00973 -0.00471,0.0148 -0.00094,0.004 -0.00193,0.00839 -0.00233,0.0125l-0.00026 0.00298 -0.00298 0.00024c-0.00533,0.00042 -0.01088,0.0012 -0.016,0.0028l-0.00201 0.00063 -0.00528 -0.00507 0.00092 -0.0022c0.00246,-0.00625 0.00434,-0.01336 0.00607,-0.01984 0.00214,-0.00797 0.00413,-0.01613 0.00549,-0.02429 0.0005,-0.00309 0.00136,-0.00743 0.00162,-0.01093zm-0.04348 0.04113c0.00285,-0.00154 0.0074,-0.00478 0.00884,-0.0058l0.00105 -0.00076 0.00413 0.00037 0.0034 0.00607 -0.00115 0.00363 -0.00097 0.00068c-0.00431,0.00306 -0.00868,0.00604 -0.01305,0.00894 -0.00329,0.0022 -0.00777,0.0052 -0.01148,0.00661 -0.00214,0.00084 -0.00455,0.00149 -0.0069,0.00149 -0.00309,0 -0.00575,-0.00125 -0.0075,-0.00387 -0.00149,-0.00233 -0.00204,-0.00505 -0.00204,-0.00779 0,-0.00295 0.00039,-0.00591 0.00097,-0.00878 0.00105,-0.00531 0.00254,-0.01069 0.0039,-0.01595 0.00173,-0.00651 0.00342,-0.01307 0.00489,-0.01966 0.00039,-0.0017 0.00102,-0.00437 0.00133,-0.00661 -0.00311,0.00159 -0.00805,0.00505 -0.00949,0.00607l-0.00105 0.00073 -0.00429 -0.00034 -0.00309 -0.00546 0.0006 -0.00363 0.0011 -0.00086c0.0068,-0.00531 0.01425,-0.01098 0.0217,-0.01529 0.00387,-0.00225 0.00918,-0.00492 0.01373,-0.00492 0.00243,0 0.00452,0.00107 0.00607,0.00293 0.00157,0.00186 0.0022,0.0041 0.0022,0.00651 0,0.00311 -0.00058,0.00641 -0.00125,0.00944 -0.00154,0.00664 -0.00337,0.01328 -0.00512,0.01984 -0.00178,0.00651 -0.0035,0.01307 -0.00505,0.01963 -0.00039,0.00162 -0.00115,0.00458 -0.00146,0.0068zm-0.00641 -0.08544c0,-0.00403 0.00128,-0.00758 0.00392,-0.01059 0.00277,-0.00309 0.00633,-0.0046 0.01046,-0.0046 0.0034,0 0.00656,0.00105 0.00892,0.00353 0.00233,0.00243 0.00335,0.00549 0.00335,0.00878 0,0.00392 -0.0012,0.00753 -0.0035,0.01069 -0.00261,0.00356 -0.00635,0.00531 -0.01075,0.00531 -0.00371,0 -0.00727,-0.00107 -0.0096,-0.00413 -0.00201,-0.00261 -0.0028,-0.00573 -0.0028,-0.00899zm-0.05017 0.08505c0.00243,-0.00149 0.0056,-0.00387 0.00675,-0.00471l0.0011 -0.00078 0.00418 0.00037 0.00319 0.00591 -0.00084 0.00356 -0.00102 0.00078c-0.00557,0.00421 -0.01328,0.01038 -0.01945,0.01357 -0.00272,0.00141 -0.00599,0.00269 -0.0091,0.00269 -0.00303,0 -0.00552,-0.00136 -0.00719,-0.00384 -0.00146,-0.00212 -0.00214,-0.0046 -0.00214,-0.00719 0,-0.00363 0.00102,-0.00844 0.00204,-0.01265 -0.00314,0.00403 -0.00659,0.00784 -0.0103,0.01137 -0.00557,0.00526 -0.01428,0.01255 -0.02241,0.01255 -0.00439,0 -0.0079,-0.00214 -0.01022,-0.00586 -0.00248,-0.00392 -0.00319,-0.00876 -0.00319,-0.01333 0,-0.00706 0.00097,-0.01409 0.00256,-0.02092 0.00149,-0.00614 0.00337,-0.01247 0.00614,-0.01812 0.00159,-0.00327 0.00392,-0.00779 0.00664,-0.01025 0.00311,-0.00285 0.00753,-0.00565 0.01106,-0.00797 0.00387,-0.00251 0.00871,-0.00562 0.01305,-0.00722 0.00319,-0.00118 0.00659,-0.00175 0.01001,-0.00175 0.00251,0 0.00512,0.00037 0.00766,0.00089l0.00191 -0.0126c0.00044,-0.00298 0.00105,-0.00661 0.00105,-0.00962 0,-0.00008 0,-0.00024 0,-0.00034 -0.00034,-0.0001 -0.00084,-0.00013 -0.00105,-0.00013 -0.00264,-0.00008 -0.00531,-0.0001 -0.00792,-0.00013l-0.00159 -0.00005 -0.00272 -0.00309 0.00084 -0.00627 0.00264 -0.0023 0.00107 -0.00013c0.01048,-0.00131 0.02084,-0.00363 0.03085,-0.00714l0.00199 -0.00071 0.00505 0.00452 -0.00601 0.02625c-0.00306,0.01433 -0.00596,0.02871 -0.00886,0.04309 -0.00193,0.0096 -0.00431,0.02005 -0.00554,0.0297 -0.00005,0.0006 -0.00016,0.00123 -0.00021,0.00186zm-0.10374 0c0.00243,-0.00149 0.0056,-0.00387 0.00677,-0.00471l0.00107 -0.00078 0.00418 0.00037 0.00319 0.00593 -0.00086 0.00353 -0.00099 0.00078c-0.00557,0.00421 -0.01328,0.01038 -0.01945,0.01357 -0.00272,0.00141 -0.00599,0.00269 -0.0091,0.00269 -0.00301,0 -0.00552,-0.00136 -0.00719,-0.00384 -0.00146,-0.00212 -0.00212,-0.0046 -0.00212,-0.00719 0,-0.00363 0.00097,-0.00844 0.00201,-0.01263 -0.00314,0.004 -0.00659,0.00782 -0.01033,0.01135 -0.00554,0.00526 -0.01428,0.01255 -0.02238,0.01255 -0.00439,0 -0.0079,-0.00214 -0.01022,-0.00586 -0.00248,-0.00392 -0.00319,-0.00876 -0.00319,-0.01333 0,-0.00706 0.00097,-0.01409 0.00256,-0.02092 0.00144,-0.00614 0.00337,-0.01247 0.00612,-0.01812 0.00162,-0.00327 0.00395,-0.00779 0.00667,-0.01025 0.00311,-0.00285 0.0075,-0.00565 0.01103,-0.00797 0.0039,-0.00251 0.00873,-0.0056 0.01307,-0.00722 0.00322,-0.00118 0.00659,-0.00175 0.01001,-0.00175 0.00251,0 0.00512,0.00037 0.00766,0.00089l0.00191 -0.0126c0.00044,-0.00298 0.00105,-0.00661 0.00105,-0.00962 0,-0.00008 0,-0.00024 -0.00003,-0.00034 -0.00031,-0.0001 -0.00081,-0.00013 -0.00102,-0.00013 -0.00264,-0.00008 -0.00531,-0.0001 -0.00792,-0.00013l-0.00157 -0.00005 -0.00275 -0.00309 0.00084 -0.00627 0.00264 -0.0023 0.00107 -0.00013c0.01048,-0.00131 0.02084,-0.00363 0.03085,-0.00714l0.00199 -0.00071 0.00505 0.00452 -0.00604 0.02625c-0.00306,0.01433 -0.00593,0.02871 -0.00884,0.04309 -0.00196,0.00967 -0.00426,0.02 -0.00554,0.02967 -0.00005,0.0006 -0.00016,0.00123 -0.00021,0.00188zm-0.12406 -0.01315c-0.00031,0.00246 -0.00047,0.00492 -0.00047,0.00737 0,0.00222 0.00026,0.00604 0.00217,0.00756 0.00178,0.00133 0.00369,0.00199 0.00591,0.00199 0.00207,0 0.00429,-0.00047 0.0063,-0.00107 0.00207,-0.0006 0.00421,-0.00133 0.00612,-0.00241 0.00348,-0.00188 0.00698,-0.00421 0.01033,-0.00638l0.00105 -0.00065 0.00395 0.00039 0.00337 0.00604 -0.00092 0.00358 -0.00105 0.00073c-0.00693,0.00492 -0.01495,0.01038 -0.02275,0.01373 -0.00505,0.00217 -0.01072,0.0039 -0.01626,0.0039 -0.00426,0 -0.00837,-0.00092 -0.01221,-0.00277 -0.00387,-0.00186 -0.00693,-0.00471 -0.00876,-0.00863 -0.00167,-0.0035 -0.00246,-0.00722 -0.00246,-0.01111 0,-0.00735 0.00157,-0.01524 0.00329,-0.02235 0.0017,-0.00698 0.00434,-0.01511 0.00884,-0.02086 0.00437,-0.00557 0.01106,-0.01012 0.01718,-0.0136 0.00612,-0.00353 0.01365,-0.00682 0.02086,-0.00682 0.00484,0 0.00946,0.00118 0.01328,0.00421 0.00395,0.00322 0.00557,0.00769 0.00557,0.01268 0,0.00607 -0.0018,0.01156 -0.00539,0.01645 -0.00421,0.00567 -0.01085,0.00941 -0.01726,0.01197 -0.00672,0.00267 -0.01365,0.00471 -0.02071,0.00607zm-0.10351 0.01556c-0.00039,0.00052 -0.00078,0.00105 -0.00118,0.00154 -0.00214,0.00277 -0.00452,0.00533 -0.00706,0.00771 -0.00233,0.00214 -0.00489,0.00424 -0.00758,0.00593 -0.00207,0.00128 -0.00437,0.00248 -0.00672,0.00314 -0.00207,0.0006 -0.00416,0.00089 -0.00627,0.00089 -0.0058,0 -0.01069,-0.00246 -0.01443,-0.00688 -0.00439,-0.00523 -0.0056,-0.01231 -0.0056,-0.0189 0,-0.00771 0.00191,-0.01506 0.00541,-0.02191 0.00332,-0.00643 0.00905,-0.01336 0.01472,-0.01945 -0.00073,0.00005 -0.00146,0.00008 -0.0022,0.00008 -0.0011,0 -0.00225,-0.0001 -0.00324,-0.00016 -0.0018,-0.00008 -0.00363,-0.00018 -0.00546,-0.00018 -0.00128,0 -0.00256,0.0001 -0.00382,0.00024 -0.00058,0.00118 -0.00115,0.00238 -0.00165,0.00361 -0.00063,0.00144 -0.00146,0.00369 -0.00227,0.00497l-0.00039 0.00063 -0.00246 0.00167 -0.00612 0 -0.00301 -0.00361 0.00071 -0.00193c0.00201,-0.00554 0.0051,-0.01388 0.00567,-0.01977l0.00029 -0.00254 0.00251 -0.00058c0.00282,-0.0006 0.0057,-0.00099 0.00855,-0.00099 0.00288,0 0.00575,0.00016 0.00858,0.00042 0.00426,0.00039 0.00873,0.00084 0.01299,0.00084 0.00324,0 0.00701,-0.00031 0.01007,-0.00159l0.00235 -0.00097 0.00601 0.00685 -0.00212 0.00233c-0.00609,0.00675 -0.01088,0.01448 -0.01467,0.02269 -0.00363,0.00784 -0.00591,0.01624 -0.00591,0.02494 0,0.00329 0.00005,0.01244 0.00512,0.01244 0.00089,0 0.00186,-0.00039 0.00259,-0.00081 0.00159,-0.00084 0.00439,-0.00413 0.00554,-0.00552 0.00293,-0.00337 0.00528,-0.00724 0.00719,-0.01127 0.00209,-0.00431 0.00379,-0.00878 0.0051,-0.01336 0.00157,-0.00554 0.00285,-0.01119 0.00403,-0.01684 0.00065,-0.00314 0.00201,-0.00886 0.00201,-0.012l0 -0.00392 0.00295 -0.00052c0.00549,-0.00097 0.01111,-0.0022 0.01637,-0.00405l0.0017 -0.00058 0.00562 0.00384 -0.00071 0.00246c-0.00447,0.01556 -0.01048,0.0372 -0.01048,0.05344 0,0.00212 0.00021,0.00601 0.00173,0.00761 0.0011,0.00115 0.00222,0.0018 0.00382,0.0018 0.00188,0 0.00413,-0.00141 0.00557,-0.00248 0.00316,-0.00235 0.00601,-0.00607 0.00821,-0.00933 0.00319,-0.00478 0.00544,-0.01017 0.00701,-0.01569 0.00141,-0.00494 0.00264,-0.01048 0.00264,-0.01566 0,-0.00162 -0.00021,-0.00363 -0.0012,-0.00499 -0.00065,-0.00092 -0.00149,-0.00115 -0.00261,-0.00115 -0.00086,0 -0.00165,0.00024 -0.00238,0.00065l-0.00105 0.00063 -0.00416 -0.00052 -0.00261 -0.00507 0.00084 -0.00361 0.00107 -0.00078c0.0035,-0.00256 0.00701,-0.00539 0.00994,-0.0086l0.00068 -0.00073 0.00094 -0.00026c0.00159,-0.00047 0.00322,-0.00078 0.00486,-0.00078 0.00463,0 0.00847,0.00188 0.01122,0.00562 0.00295,0.00395 0.00379,0.00905 0.00379,0.01386 0,0.0086 -0.00227,0.01699 -0.00578,0.02479 -0.00363,0.0081 -0.00837,0.01563 -0.01428,0.02228 -0.00478,0.00546 -0.01041,0.0108 -0.01673,0.01441 -0.00484,0.00277 -0.01027,0.00492 -0.01592,0.00492 -0.00497,0 -0.00928,-0.00193 -0.01281,-0.00541 -0.00374,-0.00366 -0.00518,-0.00876 -0.00552,-0.0138zm0.91771 -0.02779c0.00536,-0.00165 0.01111,-0.00421 0.01414,-0.00829 0.00246,-0.00332 0.00489,-0.00758 0.00489,-0.01184 0,-0.00112 -0.00018,-0.00238 -0.00105,-0.00319 -0.00084,-0.00078 -0.00178,-0.00107 -0.0029,-0.00107 -0.00361,0 -0.00614,0.00235 -0.0081,0.00518 -0.00306,0.00439 -0.00539,0.01258 -0.00698,0.01922zm-0.37471 -0.00207c0,0.00261 0.00031,0.00677 0.00227,0.00876 0.00162,0.00165 0.00361,0.00227 0.00588,0.00227 0.00251,0 0.0046,-0.00081 0.00635,-0.00264 0.00227,-0.00243 0.00369,-0.0057 0.00458,-0.00886 0.00112,-0.00387 0.00175,-0.00784 0.00175,-0.01187 0,-0.00251 -0.00031,-0.00656 -0.00227,-0.00842 -0.0017,-0.00154 -0.00361,-0.0022 -0.00588,-0.0022 -0.00431,0 -0.00695,0.00256 -0.00884,0.00625 -0.00269,0.0052 -0.00384,0.01085 -0.00384,0.01671zm-0.00298 0.04753l-0.00497 0.00248c-0.00175,0.00089 -0.00356,0.00191 -0.0051,0.00309 -0.00123,0.00089 -0.00233,0.00196 -0.00324,0.00316 -0.00084,0.00112 -0.00152,0.00235 -0.00199,0.00374 -0.00044,0.00133 -0.00068,0.00275 -0.00068,0.0041 0,0.00243 0.00055,0.00473 0.00207,0.00667 0.00162,0.00212 0.00397,0.00353 0.00643,0.00452 0.00319,0.00125 0.00656,0.0018 0.00999,0.0018 0.0045,0 0.00931,-0.00078 0.01294,-0.00366 0.00259,-0.00207 0.00426,-0.00463 0.00426,-0.00797 0,-0.00183 -0.00092,-0.00345 -0.00201,-0.00481 -0.00128,-0.00157 -0.00421,-0.00366 -0.0058,-0.00486 -0.00387,-0.00288 -0.0079,-0.0056 -0.0119,-0.00826zm-0.22325 -0.06714c-0.00301,-0.00099 -0.00614,-0.00136 -0.00928,-0.00136 -0.00196,0 -0.0051,0.00018 -0.00672,0.00139 -0.0018,0.00128 -0.00437,0.00784 -0.00512,0.00986 -0.00235,0.0063 -0.00418,0.01276 -0.00554,0.01932 -0.0012,0.0056 -0.00209,0.01153 -0.00209,0.01728 0,0.00037 0,0.00115 0.00013,0.00178 0.00125,-0.00042 0.0029,-0.00159 0.00363,-0.0022 0.00342,-0.00264 0.00685,-0.00701 0.00941,-0.01038 0.00382,-0.00505 0.00701,-0.01043 0.00957,-0.01618 0.00222,-0.00494 0.0041,-0.0102 0.00518,-0.0155l0.00084 -0.004zm-0.10374 0c-0.00301,-0.00099 -0.00614,-0.00136 -0.00928,-0.00136 -0.00196,0 -0.00507,0.00018 -0.00672,0.00139 -0.0018,0.00131 -0.00437,0.00784 -0.00512,0.00988 -0.00235,0.00627 -0.00418,0.01273 -0.00554,0.01929 -0.0012,0.0056 -0.00209,0.01153 -0.00209,0.01728 0,0.00037 0,0.00115 0.00013,0.00178 0.00125,-0.00042 0.0029,-0.00159 0.00363,-0.0022 0.00342,-0.00264 0.00685,-0.00698 0.00941,-0.01038 0.00382,-0.00505 0.00698,-0.01043 0.00957,-0.01618 0.00222,-0.00494 0.0041,-0.0102 0.00518,-0.0155l0.00084 -0.004zm-0.10738 0.02167c0.00541,-0.00165 0.01114,-0.00421 0.01414,-0.00829 0.00248,-0.00332 0.00489,-0.00756 0.00489,-0.01184 0,-0.00112 -0.00018,-0.00238 -0.00105,-0.00319 -0.00084,-0.00078 -0.00178,-0.00107 -0.0029,-0.00107 -0.00361,0 -0.00614,0.00235 -0.0081,0.00518 -0.00303,0.00439 -0.00539,0.01258 -0.00698,0.01922z"/>
 </g>
</svg>
