<?xml version="1.0" encoding="UTF-8"?>
<!DOCTYPE svg PUBLIC "-//W3C//DTD SVG 1.1//EN" "http://www.w3.org/Graphics/SVG/1.1/DTD/svg11.dtd">
<!-- Creator: CorelDRAW 2020 (64-Bit) -->
<svg xmlns="http://www.w3.org/2000/svg" xml:space="preserve" width="0.547618in" height="0.116661in" version="1.1" style="shape-rendering:geometricPrecision; text-rendering:geometricPrecision; image-rendering:optimizeQuality; fill-rule:evenodd; clip-rule:evenodd"
viewBox="0 0 0.01808 0.00385"
 xmlns:xlink="http://www.w3.org/1999/xlink"
 xmlns:xodm="http://www.corel.com/coreldraw/odm/2003">
 <defs>
  <style type="text/css">
   <![CDATA[
    .fil0 {fill:#AAAAAA}
   ]]>
  </style>
 </defs>
 <g id="Layer_x0020_1">
  <metadata id="CorelCorpID_0Corel-Layer"/>
  <path class="fil0" d="M0.00768 0.00316l0.00271 0 0 0.00017 -0.00271 0 0 -0.00017zm0.00769 0l0.00271 0 0 0.00017 -0.00271 0 0 -0.00017zm0.00235 -0.00156c0,-0.00014 -0.00002,-0.00024 -0.00005,-0.00031 -0.00003,-0.00007 -0.0001,-0.0001 -0.00019,-0.0001 -0.00007,0 -0.00012,0.00002 -0.00016,0.00005 -0.00004,0.00003 -0.00006,0.00008 -0.00007,0.00014 -0.00001,0.00006 -0.00002,0.00013 -0.00002,0.00022 0,0.00009 0.00001,0.00016 0.00002,0.00022 0.00001,0.00006 0.00003,0.0001 0.00007,0.00014 0.00004,0.00003 0.00009,0.00005 0.00015,0.00005 0.0001,0 0.00016,-0.00003 0.00019,-0.0001 0.00003,-0.00007 0.00005,-0.00017 0.00005,-0.00031zm0.00036 0c0,0.00015 -0.00001,0.00027 -0.00003,0.00037 -0.00002,0.0001 -0.00006,0.00018 -0.00012,0.00024 -0.00004,0.00004 -0.00009,0.00007 -0.00015,0.00009 -0.00006,0.00002 -0.00013,0.00003 -0.0002,0.00003 -0.00008,0 -0.00014,-0.00001 -0.0002,-0.00003 -0.00006,-0.00002 -0.00011,-0.00006 -0.00016,-0.00012l0 0.00013 -0.00035 0 0 -0.00195 0.00036 0 0 0.00065c0.00008,-0.00009 0.0002,-0.00014 0.00035,-0.00014 0.00007,0 0.00013,0.00001 0.0002,0.00003 0.00006,0.00002 0.00011,0.00005 0.00015,0.00009 0.00006,0.00006 0.0001,0.00014 0.00012,0.00024 0.00002,0.00009 0.00003,0.00022 0.00003,0.00036zm-0.00189 0c0,-0.00009 -0.00001,-0.00016 -0.00002,-0.00021 -0.00001,-0.00005 -0.00003,-0.0001 -0.00007,-0.00013 -0.00004,-0.00004 -0.0001,-0.00006 -0.00017,-0.00006 -0.00007,0 -0.00012,0.00002 -0.00016,0.00006 -0.00003,0.00004 -0.00006,0.00008 -0.00007,0.00014 -0.00001,0.00005 -0.00002,0.00012 -0.00002,0.00021 0,0.00009 0.00001,0.00016 0.00002,0.00021 0.00001,0.00006 0.00003,0.0001 0.00007,0.00014 0.00004,0.00004 0.0001,0.00006 0.00016,0.00006 0.00007,0 0.00012,-0.00002 0.00017,-0.00006 0.00003,-0.00003 0.00006,-0.00008 0.00007,-0.00013 0.00001,-0.00005 0.00002,-0.00013 0.00002,-0.00022zm0.00036 0c0,0.00009 -0,0.00017 -0.00001,0.00023 -0.00001,0.00007 -0.00003,0.00013 -0.00005,0.00018 -0.00002,0.00005 -0.00006,0.0001 -0.0001,0.00014 -0.00011,0.00012 -0.00026,0.00018 -0.00044,0.00018 -0.00018,0 -0.00033,-0.00006 -0.00044,-0.00018 -0.00003,-0.00003 -0.00006,-0.00007 -0.00008,-0.0001 -0.00002,-0.00004 -0.00004,-0.00008 -0.00005,-0.00012 -0.00001,-0.00005 -0.00002,-0.0001 -0.00003,-0.00016 -0.00001,-0.00006 -0.00001,-0.00012 -0.00001,-0.00017 0,-0.00006 0,-0.00012 0.00001,-0.00017 0,-0.00006 0.00001,-0.00011 0.00003,-0.00015 0.00001,-0.00004 0.00003,-0.00008 0.00005,-0.00012 0.00002,-0.00004 0.00005,-0.00007 0.00008,-0.0001 0.00011,-0.00012 0.00026,-0.00018 0.00044,-0.00018 0.00019,0 0.00033,0.00006 0.00044,0.00018 0.00006,0.00006 0.0001,0.00014 0.00013,0.00022 0.00002,0.00008 0.00003,0.00019 0.00003,0.00033zm-0.00153 0.00072l-0.00036 0 0 -0.00086c0,-0.00009 -0.00002,-0.00016 -0.00007,-0.0002 -0.00005,-0.00004 -0.0001,-0.00006 -0.00017,-0.00006 -0.00006,0 -0.00012,0.00002 -0.00017,0.00006 -0.00005,0.00004 -0.00007,0.0001 -0.00007,0.00019l0 0.00087 -0.00036 0 0 -0.00086c0,-0.00009 -0.00002,-0.00016 -0.00007,-0.0002 -0.00005,-0.00004 -0.0001,-0.00006 -0.00017,-0.00006 -0.00007,0 -0.00012,0.00002 -0.00017,0.00006 -0.00005,0.00004 -0.00007,0.00011 -0.00007,0.0002l0 0.00086 -0.00036 0 0 -0.00143 0.00035 0 0 0.00013c0.00004,-0.00005 0.0001,-0.00008 0.00016,-0.00011 0.00006,-0.00003 0.00013,-0.00004 0.00019,-0.00004 0.00016,0 0.00029,0.00006 0.00038,0.00018 0.00006,-0.00006 0.00013,-0.00011 0.00019,-0.00014 0.00007,-0.00003 0.00014,-0.00004 0.00023,-0.00004 0.00007,0 0.00014,0.00001 0.0002,0.00003 0.00006,0.00002 0.00011,0.00005 0.00015,0.00009 0.0001,0.0001 0.00016,0.00024 0.00016,0.00041l0 0.00091zm0.00006 0.00101l0 -0.00006 -0.00015 0c-0.00008,0 -0.00012,0.00003 -0.00012,0.0001 0,0.00003 0.00001,0.00006 0.00003,0.00007 0.00002,0.00002 0.00005,0.00002 0.0001,0.00002 0.00003,0 0.00005,-0 0.00007,-0.00001 0.00002,-0 0.00004,-0.00001 0.00005,-0.00003 0.00002,-0.00002 0.00003,-0.00005 0.00003,-0.0001zm0.00008 0.0002l-0.00008 0 0 -0.00005c-0.00002,0.00002 -0.00005,0.00004 -0.00007,0.00005 -0.00002,0.00001 -0.00005,0.00001 -0.00009,0.00001 -0.00004,0 -0.00007,-0 -0.00009,-0.00001 -0.00002,-0.00001 -0.00005,-0.00002 -0.00006,-0.00004 -0.00003,-0.00003 -0.00004,-0.00007 -0.00004,-0.00011 0,-0.00005 0.00002,-0.00009 0.00005,-0.00012 0.00003,-0.00003 0.00008,-0.00004 0.00014,-0.00004l0.00017 0 0 -0.00005c0,-0.00004 -0.00001,-0.00007 -0.00003,-0.00009 -0.00002,-0.00002 -0.00006,-0.00003 -0.00011,-0.00003 -0.00003,0 -0.00006,0 -0.00008,0.00001 -0.00002,0.00001 -0.00004,0.00003 -0.00006,0.00005l-0.00006 -0.00005c0.00002,-0.00002 0.00003,-0.00004 0.00005,-0.00005 0.00002,-0.00001 0.00004,-0.00002 0.00006,-0.00003 0.00002,-0 0.00005,-0.00001 0.00008,-0.00001 0.00004,0 0.00007,0 0.0001,0.00001 0.00003,0.00001 0.00005,0.00002 0.00007,0.00003 0.00002,0.00002 0.00003,0.00003 0.00004,0.00006 0.00001,0.00002 0.00001,0.00005 0.00001,0.00008l0 0.00037zm-0.0006 0l-0.00008 0 0 -0.00055 0.00008 0 0 0.00055zm0.00002 -0.00076c0,0.00001 -0,0.00002 -0.00001,0.00003 -0.00001,0.00001 -0.00001,0.00001 -0.00002,0.00002 -0.00001,0.00001 -0.00002,0.00001 -0.00003,0.00001 -0.00001,0 -0.00002,-0 -0.00003,-0.00001 -0.00001,-0 -0.00001,-0.00001 -0.00002,-0.00002 -0,-0.00001 -0.00001,-0.00002 -0.00001,-0.00003 0,-0.00001 0,-0.00002 0.00001,-0.00003 0.00001,-0.00001 0.00001,-0.00001 0.00002,-0.00002 0.00001,-0.00001 0.00002,-0.00001 0.00003,-0.00001 0.00001,0 0.00001,0 0.00002,0 0.00001,0 0.00001,0.00001 0.00002,0.00001 0.00001,0.00001 0.00001,0.00001 0.00001,0.00002 0,0.00001 0,0.00001 0,0.00002zm-0.0002 0.00025l-0.00006 0.00006c-0.00001,-0.00001 -0.00003,-0.00003 -0.00004,-0.00003 -0.00001,-0.00001 -0.00003,-0.00001 -0.00005,-0.00001 -0.00003,0 -0.00005,0.00001 -0.00007,0.00002 -0.00002,0.00001 -0.00004,0.00003 -0.00005,0.00005 -0.00001,0.00002 -0.00002,0.00005 -0.00002,0.00008l0 0.00034 -0.00008 0 0 -0.00055 0.00008 0 0 0.00007c0.00002,-0.00002 0.00004,-0.00004 0.00006,-0.00005 0.00003,-0.00001 0.00006,-0.00002 0.00009,-0.00002 0.00005,0 0.0001,0.00002 0.00013,0.00005zm-0.00062 0.00019c-0,-0.00004 -0.00001,-0.00007 -0.00002,-0.00009 -0.00001,-0.00003 -0.00003,-0.00005 -0.00005,-0.00006 -0.00002,-0.00002 -0.00005,-0.00002 -0.00008,-0.00002 -0.00003,0 -0.00005,0.00001 -0.00008,0.00002 -0.00002,0.00001 -0.00004,0.00004 -0.00005,0.00006 -0.00001,0.00002 -0.00001,0.00005 -0.00002,0.00009l0.00029 0zm0.00008 0.00006l-0.00037 0c0,0.00006 0.00001,0.00011 0.00004,0.00014 0.00003,0.00003 0.00007,0.00005 0.00012,0.00005 0.00003,0 0.00006,-0 0.00008,-0.00001 0.00002,-0.00001 0.00004,-0.00003 0.00007,-0.00005l0.00005 0.00005c-0.00003,0.00003 -0.00006,0.00005 -0.00009,0.00006 -0.00003,0.00001 -0.00007,0.00002 -0.00011,0.00002 -0.00005,0 -0.00009,-0.00001 -0.00013,-0.00003 -0.00004,-0.00002 -0.00006,-0.00005 -0.00008,-0.00009 -0.00002,-0.00004 -0.00003,-0.0001 -0.00003,-0.00016 0,-0.00004 0.00001,-0.00008 0.00002,-0.00012 0.00001,-0.00003 0.00003,-0.00006 0.00005,-0.00009 0.00002,-0.00002 0.00004,-0.00004 0.00007,-0.00006 0.00003,-0.00001 0.00006,-0.00002 0.00009,-0.00002 0.00005,0 0.00009,0.00001 0.00012,0.00003 0.00003,0.00002 0.00006,0.00005 0.00008,0.00009 0.00002,0.00004 0.00003,0.00009 0.00003,0.00014l0 0.00004zm-0.00056 0.00025l-0.00006 0c-0.00005,0 -0.00008,-0.00001 -0.0001,-0.00004 -0.00002,-0.00003 -0.00004,-0.00006 -0.00004,-0.00011l0 -0.00065 0.00008 0 0 0.00065c0,0.00003 0.00001,0.00005 0.00002,0.00006 0.00001,0.00001 0.00003,0.00002 0.00006,0.00002l0.00004 0 0 0.00007zm-0.0004 0l-0.00008 0 0 -0.00055 0.00008 0 0 0.00055zm0.00002 -0.00076c0,0.00001 -0,0.00002 -0.00001,0.00003 -0.00001,0.00001 -0.00001,0.00001 -0.00002,0.00002 -0.00001,0.00001 -0.00002,0.00001 -0.00003,0.00001 -0.00001,0 -0.00002,-0 -0.00003,-0.00001 -0.00001,-0 -0.00001,-0.00001 -0.00002,-0.00002 -0,-0.00001 -0.00001,-0.00002 -0.00001,-0.00003 0,-0.00001 0,-0.00002 0.00001,-0.00003 0.00001,-0.00001 0.00001,-0.00001 0.00002,-0.00002 0.00001,-0.00001 0.00002,-0.00001 0.00003,-0.00001 0.00001,0 0.00001,0 0.00002,0 0.00001,0 0.00001,0.00001 0.00002,0.00001 0.00001,0.00001 0.00001,0.00001 0.00001,0.00002 0,0.00001 0,0.00001 0,0.00002zm-0.00035 0.00048c0,-0.00007 -0.00001,-0.00012 -0.00003,-0.00015 -0.00002,-0.00004 -0.00006,-0.00006 -0.00011,-0.00006 -0.00005,0 -0.00009,0.00002 -0.00011,0.00006 -0.00002,0.00004 -0.00003,0.00009 -0.00003,0.00015 0,0.00006 0.00001,0.00012 0.00003,0.00015 0.00002,0.00004 0.00006,0.00006 0.00011,0.00006 0.00005,0 0.00009,-0.00002 0.00011,-0.00006 0.00002,-0.00004 0.00003,-0.00009 0.00003,-0.00015zm0.00008 0c0,0.00005 -0,0.0001 -0.00001,0.00014 -0.00001,0.00004 -0.00003,0.00007 -0.00005,0.0001 -0.00001,0.00001 -0.00003,0.00003 -0.00006,0.00003 -0.00002,0.00001 -0.00005,0.00001 -0.00008,0.00001 -0.00002,0 -0.00004,-0 -0.00006,-0.00001 -0.00002,-0 -0.00003,-0.00001 -0.00005,-0.00002 -0.00002,-0.00001 -0.00003,-0.00003 -0.00005,-0.00004l0 0.00007 -0.00008 0 0 -0.0008 0.00008 0 0 0.00031c0.00002,-0.00003 0.00004,-0.00004 0.00007,-0.00006 0.00002,-0.00001 0.00005,-0.00002 0.00009,-0.00002 0.00003,0 0.00005,0 0.00008,0.00001 0.00002,0.00001 0.00004,0.00002 0.00006,0.00004 0.00003,0.00002 0.00004,0.00006 0.00005,0.0001 0.00001,0.00004 0.00001,0.00009 0.00001,0.00014zm-0.00069 0c0,-0.00004 -0,-0.00007 -0.00001,-0.0001 -0.00001,-0.00003 -0.00002,-0.00005 -0.00004,-0.00007 -0.00003,-0.00003 -0.00006,-0.00004 -0.0001,-0.00004 -0.00004,0 -0.00007,0.00001 -0.0001,0.00004 -0.00002,0.00002 -0.00003,0.00004 -0.00004,0.00007 -0.00001,0.00003 -0.00001,0.00006 -0.00001,0.0001 0,0.00004 0,0.00007 0.00001,0.0001 0.00001,0.00003 0.00002,0.00005 0.00004,0.00007 0.00003,0.00003 0.00006,0.00004 0.0001,0.00004 0.00004,0 0.00007,-0.00001 0.0001,-0.00004 0.00002,-0.00002 0.00003,-0.00004 0.00004,-0.00007 0.00001,-0.00003 0.00001,-0.00006 0.00001,-0.0001zm0.00008 0c0,0.00003 -0,0.00006 -0.00001,0.00009 -0,0.00002 -0.00001,0.00005 -0.00002,0.00007 -0.00001,0.00002 -0.00002,0.00004 -0.00004,0.00006 -0.00004,0.00004 -0.00009,0.00006 -0.00016,0.00006 -0.00006,0 -0.00012,-0.00002 -0.00016,-0.00006 -0.00002,-0.00002 -0.00003,-0.00004 -0.00004,-0.00006 -0.00001,-0.00002 -0.00002,-0.00005 -0.00002,-0.00007 -0,-0.00003 -0.00001,-0.00005 -0.00001,-0.00009 0,-0.00005 0,-0.00009 0.00001,-0.00013 0.00001,-0.00004 0.00003,-0.00007 0.00005,-0.00009 0.00004,-0.00004 0.0001,-0.00006 0.00016,-0.00006 0.00006,0 0.00012,0.00002 0.00016,0.00006 0.00003,0.00003 0.00004,0.00006 0.00005,0.00009 0.00001,0.00004 0.00001,0.00008 0.00001,0.00013zm-0.00062 0.00028l-0.00008 0 0 -0.00034c0,-0.00005 -0.00001,-0.00008 -0.00004,-0.00011 -0.00002,-0.00003 -0.00006,-0.00004 -0.0001,-0.00004 -0.00003,0 -0.00005,0.00001 -0.00007,0.00002 -0.00002,0.00001 -0.00004,0.00003 -0.00005,0.00005 -0.00001,0.00002 -0.00002,0.00005 -0.00002,0.00007l0 0.00035 -0.00008 0 0 -0.00034c0,-0.00002 -0,-0.00005 -0.00001,-0.00006 -0.00001,-0.00002 -0.00002,-0.00003 -0.00003,-0.00005 -0.00001,-0.00001 -0.00002,-0.00002 -0.00004,-0.00003 -0.00002,-0.00001 -0.00004,-0.00001 -0.00006,-0.00001 -0.00004,0 -0.00008,0.00001 -0.0001,0.00004 -0.00002,0.00003 -0.00004,0.00006 -0.00004,0.00011l0 0.00034 -0.00008 0 0 -0.00055 0.00008 0 0 0.00006c0.00004,-0.00004 0.00009,-0.00007 0.00016,-0.00007 0.00004,0 0.00007,0.00001 0.0001,0.00002 0.00003,0.00002 0.00005,0.00004 0.00007,0.00007 0.00004,-0.00006 0.0001,-0.00009 0.00018,-0.00009 0.00006,0 0.00011,0.00002 0.00014,0.00005 0.00004,0.00004 0.00006,0.00009 0.00006,0.00015l0 0.00035zm-0.00681 -0.00352l-0.00112 0.00193 0.00056 0.00097 0.00056 -0.00096 0.00112 0.00192 0.00113 0 -0.00224 -0.00385zm-0.00235 -0l-0.00056 0.00096 0.00168 0.00289 0.00112 0 -0.00224 -0.00385zm-0.00224 0.00385l0.00113 0 0.00106 -0.00182 -0.00057 -0.00097 -0.00163 0.0028zm0.0126 -0.00149l-0.0002 0 0 -0.00135 0.0002 0 0 0.00135zm0.00004 -0.00185c0,0.00002 -0.00001,0.00005 -0.00002,0.00007 -0.00001,0.00002 -0.00003,0.00004 -0.00005,0.00005 -0.00002,0.00001 -0.00004,0.00002 -0.00007,0.00002 -0.00002,0 -0.00005,-0.00001 -0.00007,-0.00002 -0.00002,-0.00001 -0.00004,-0.00003 -0.00005,-0.00005 -0.00001,-0.00002 -0.00002,-0.00004 -0.00002,-0.00007 0,-0.00002 0.00001,-0.00005 0.00002,-0.00007 0.00001,-0.00002 0.00003,-0.00004 0.00005,-0.00005 0.00002,-0.00001 0.00004,-0.00002 0.00007,-0.00002 0.00002,0 0.00004,0 0.00005,0.00001 0.00002,0.00001 0.00003,0.00002 0.00004,0.00003 0.00001,0.00001 0.00002,0.00003 0.00003,0.00004 0.00001,0.00002 0.00001,0.00003 0.00001,0.00005zm-0.00057 0.00185l-0.00014 0c-0.00011,0 -0.0002,-0.00003 -0.00026,-0.0001 -0.00006,-0.00007 -0.00009,-0.00015 -0.00009,-0.00026l0 -0.00159 0.0002 0 0 0.00158c0,0.00007 0.00001,0.00012 0.00004,0.00015 0.00003,0.00003 0.00007,0.00005 0.00014,0.00005l0.00011 0 0 0.00017zm-0.00097 0l-0.00019 0 0 -0.00015c-0.00005,0.00005 -0.0001,0.0001 -0.00017,0.00012 -0.00007,0.00003 -0.00014,0.00004 -0.00021,0.00004 -0.00015,0 -0.00027,-0.00004 -0.00035,-0.00013 -0.00005,-0.00005 -0.00008,-0.0001 -0.0001,-0.00016 -0.00002,-0.00006 -0.00003,-0.00013 -0.00003,-0.00021l0 -0.00086 0.0002 0 0 0.00083c0,0.00012 0.00003,0.0002 0.00009,0.00027 0.00006,0.00006 0.00014,0.00009 0.00024,0.00009 0.0001,0 0.00019,-0.00003 0.00025,-0.00009 0.00006,-0.00006 0.00009,-0.00015 0.00009,-0.00027l0 -0.00083 0.0002 0 0 0.00135zm-0.00153 0l-0.0002 0 0 -0.00083c0,-0.00012 -0.00003,-0.00021 -0.00009,-0.00027 -0.00006,-0.00006 -0.00014,-0.00009 -0.00024,-0.00009 -0.00007,0 -0.00012,0.00001 -0.00018,0.00004 -0.00005,0.00003 -0.00009,0.00006 -0.00012,0.00012 -0.00003,0.00005 -0.00004,0.00011 -0.00004,0.00018l0 0.00085 -0.0002 0 0 -0.00083c0,-0.00006 -0.00001,-0.00011 -0.00002,-0.00016 -0.00002,-0.00005 -0.00004,-0.00008 -0.00006,-0.00011 -0.00003,-0.00003 -0.00006,-0.00005 -0.0001,-0.00007 -0.00004,-0.00002 -0.00009,-0.00002 -0.00014,-0.00002 -0.0001,0 -0.00019,0.00003 -0.00025,0.00009 -0.00006,0.00006 -0.00009,0.00015 -0.00009,0.00027l0 0.00083 -0.0002 0 0 -0.00135 0.0002 0 0 0.00015c0.00009,-0.00011 0.00022,-0.00016 0.00038,-0.00016 0.00009,0 0.00018,0.00002 0.00025,0.00006 0.00007,0.00004 0.00013,0.00009 0.00017,0.00017 0.00011,-0.00015 0.00025,-0.00022 0.00044,-0.00022 0.00014,0 0.00026,0.00004 0.00035,0.00013 0.0001,0.00009 0.00014,0.00022 0.00014,0.00038l0 0.00086z"/>
 </g>
</svg>
