<?xml version="1.0" encoding="UTF-8"?>
<!DOCTYPE svg PUBLIC "-//W3C//DTD SVG 1.1//EN" "http://www.w3.org/Graphics/SVG/1.1/DTD/svg11.dtd">
<!-- Creator: CorelDRAW 2020 (64-Bit) -->
<svg xmlns="http://www.w3.org/2000/svg" xml:space="preserve" width="0.541882in" height="0.116661in" version="1.1" style="shape-rendering:geometricPrecision; text-rendering:geometricPrecision; image-rendering:optimizeQuality; fill-rule:evenodd; clip-rule:evenodd"
viewBox="0 0 0.02587 0.00557"
 xmlns:xlink="http://www.w3.org/1999/xlink"
 xmlns:xodm="http://www.corel.com/coreldraw/odm/2003">
 <defs>
  <style type="text/css">
   <![CDATA[
    .fil0 {fill:#AAAAAA}
   ]]>
  </style>
 </defs>
 <g id="Layer_x0020_1">
  <metadata id="CorelCorpID_0Corel-Layer"/>
  <path class="fil0" d="M0.02538 0.00557c-0.00026,0 -0.00048,-0.00021 -0.00048,-0.00048l0 -0.00011c0,-0.00026 0.00022,-0.00048 0.00048,-0.00048l0.00001 0c0.00026,0 0.00048,0.00021 0.00048,0.00048l0 0.00011c0,0.00026 -0.00022,0.00048 -0.00048,0.00048l-0.00001 0zm-0.00073 -0.00106l0 0.00106 -0.00023 0 0 -0.00106 0.00023 0zm-0.00138 -0l0.00042 0c0.00026,0 0.00048,0.00021 0.00048,0.00048l0 0.00011c0,0.00026 -0.00022,0.00048 -0.00048,0.00048l-0.00042 0 0 -0.00106zm-0.00114 0l0.00023 0 0 0.00062c0,0.00012 0.0001,0.00021 0.00021,0.00021 0.00012,0 0.00021,-0.0001 0.00021,-0.00021l0 -0.00062 0.00023 0 0 0.00062c0,0.00025 -0.0002,0.00045 -0.00045,0.00045 -0.00025,0 -0.00045,-0.0002 -0.00045,-0.00045l0 -0.00062zm-0.00058 0.00023l0 0.00083 -0.00023 0 0 -0.00083 -0.00033 0 0 -0.00023 0.00002 0c0.00029,0 0.00058,0 0.00086,0l0.00002 0 0 0.00023 -0.00033 0zm-0.00141 0.00041c-0.00018,0 -0.00033,-0.00015 -0.00033,-0.00032 0,-0.00018 0.00015,-0.00032 0.00033,-0.00032l0.00059 0 0 0.00023 -0.00059 0c-0.00005,0 -0.00009,0.00004 -0.00009,0.00009 0,0.00005 0.00004,0.00009 0.00009,0.00009 0.00012,0 0.00025,0 0.00037,0 0.00018,0 0.00033,0.00015 0.00033,0.00032 0,0.00018 -0.00015,0.00032 -0.00033,0.00032l-0.00069 0 0 -0.00023 0.00069 0c0.00005,0 0.00009,-0.00004 0.00009,-0.00009 0,-0.00005 -0.00004,-0.00009 -0.00009,-0.00009 -0.00012,0 -0.00025,0 -0.00037,0zm0.00525 0.00018c0.00013,0 0.00024,-0.00011 0.00024,-0.00024l0 -0.00011c0,-0.00013 -0.00011,-0.00024 -0.00024,-0.00024l-0.00001 0c-0.00013,0 -0.00024,0.00011 -0.00024,0.00024l0 0.00011c0,0.00013 0.00011,0.00024 0.00024,0.00024l0.00001 0zm-0.00188 -0.00059l0 0.00059 0.00018 0c0.00013,0 0.00024,-0.00011 0.00024,-0.00024l0 -0.00011c0,-0.00013 -0.00011,-0.00024 -0.00024,-0.00024l-0.00018 0zm-0.02178 0.00011l0.00398 0 0 -0.00186 -0.00128 0.00128 -0.00101 0c0.001,-0.001 0.002,-0.002 0.003,-0.00301l0 0.0043 -0.00642 0 0.00484 -0.00485 -0.00398 0 0 0.00186c0.00043,-0.00043 0.00085,-0.00085 0.00128,-0.00128l0.00101 0 -0.003 0.00301 0 -0.0043 0.00642 0 -0.00484 0.00485zm0.0131 -0.00188l0.00118 0.00131 -0.00094 0 -0.00172 -0.0019 0.00104 0c0.0002,0 0.00044,-0.00003 0.00057,-0.0002 0.00007,-0.00009 0.0001,-0.00021 0.0001,-0.00032 0,-0.00012 -0.00002,-0.00023 -0.0001,-0.00032 -0.00013,-0.00016 -0.00038,-0.0002 -0.00057,-0.0002l-0.00123 0c0,0.00096 0,0.00193 0,0.00289l0 0.00005 -0.00067 0 0 -0.00356 0.00203 0c0.00033,0 0.00065,0.00008 0.00089,0.00031 0.00023,0.00022 0.00032,0.00052 0.00032,0.00083 0,0.00032 -0.00009,0.00061 -0.00032,0.00083 -0.00017,0.00016 -0.00037,0.00024 -0.00059,0.00028zm-0.00597 0.00069l0.00202 0 0 0.00062 -0.00327 0 0.00206 -0.00294 -0.00192 0 0 -0.00062 0.00317 0 -0.00206 0.00294zm0.00887 -0.00294c0.00047,0 0.00092,0.00019 0.00126,0.00052l0.00003 0.00003 -0.00047 0.00047 -0.00003 -0.00003c-0.00021,-0.00021 -0.00049,-0.00032 -0.00078,-0.00032 -0.00061,0 -0.00111,0.0005 -0.00111,0.00111 0,0.00061 0.0005,0.00111 0.00111,0.00111 0.00029,0 0.00057,-0.00012 0.00078,-0.00032l0.00003 -0.00003 0.00047 0.00047 -0.00003 0.00003c-0.00033,0.00033 -0.00078,0.00052 -0.00126,0.00052 -0.00098,0 -0.00178,-0.0008 -0.00178,-0.00178 0,-0.00098 0.0008,-0.00178 0.00178,-0.00178zm0.00748 0.00251l0 -0.00251 0.00067 0 0 0.00356 -0.00064 0 -0.00164 -0.00187 0.00001 0.00187 -0.00067 0 0 -0.00364 0.00228 0.00259zm-0.00424 -0.00251c0.00098,0 0.00178,0.0008 0.00178,0.00178 0,0.00098 -0.0008,0.00178 -0.00178,0.00178 -0.00098,0 -0.00178,-0.0008 -0.00178,-0.00178 0,-0.00098 0.0008,-0.00178 0.00178,-0.00178zm-0.00962 0.00356l0 -0.00356 0.00067 0 0 0.00356 -0.00067 0zm0.00962 -0.00289c-0.00061,0 -0.00111,0.0005 -0.00111,0.00111 0,0.00061 0.0005,0.00111 0.00111,0.00111 0.00061,0 0.00111,-0.0005 0.00111,-0.00111 0,-0.00061 -0.0005,-0.00111 -0.00111,-0.00111z"/>
 </g>
</svg>
