<?xml version="1.0" encoding="UTF-8"?>
<!DOCTYPE svg PUBLIC "-//W3C//DTD SVG 1.1//EN" "http://www.w3.org/Graphics/SVG/1.1/DTD/svg11.dtd">
<!-- Creator: CorelDRAW 2020 (64-Bit) -->
<svg xmlns="http://www.w3.org/2000/svg" xml:space="preserve" width="0.37822in" height="0.116665in" version="1.1" style="shape-rendering:geometricPrecision; text-rendering:geometricPrecision; image-rendering:optimizeQuality; fill-rule:evenodd; clip-rule:evenodd"
viewBox="0 0 0.03128 0.00965"
 xmlns:xlink="http://www.w3.org/1999/xlink"
 xmlns:xodm="http://www.corel.com/coreldraw/odm/2003">
 <defs>
  <style type="text/css">
   <![CDATA[
    .fil0 {fill:#AAAAAA;fill-rule:nonzero}
   ]]>
  </style>
 </defs>
 <g id="Layer_x0020_1">
  <metadata id="CorelCorpID_0Corel-Layer"/>
  <path class="fil0" d="M0.00124 0.00413c0,0.00008 0.00001,0.00013 0.00004,0.00016 0.00003,0.00003 0.00009,0.00006 0.00018,0.00008l0 0.00012 -0.00146 0 0 -0.00012c0.00009,-0.00002 0.00015,-0.00005 0.00018,-0.00008 0.00003,-0.00003 0.00004,-0.00009 0.00004,-0.00016l0 -0.00372c0,-0.00008 -0.00001,-0.00014 -0.00004,-0.00017 -0.00003,-0.00003 -0.00009,-0.00006 -0.00018,-0.00008l0 -0.00012 0.00217 0 0 0.00012c-0.00006,0.00002 -0.0001,0.00004 -0.00013,0.00007 -0.00003,0.00002 -0.00005,0.00005 -0.00005,0.00009 0,0.00003 0.00002,0.00008 0.00005,0.00017l0.00001 0.00002 0.00069 0.00162 0.00079 -0.00162c0.00001,-0.00003 0.00003,-0.00007 0.00004,-0.0001 0.00001,-0.00003 0.00001,-0.00006 0.00001,-0.00008 0,-0.00003 -0.00001,-0.00006 -0.00004,-0.00009 -0.00003,-0.00003 -0.00007,-0.00005 -0.00013,-0.00007l0 -0.00012 0.00222 0 0 0.00012c-0.00009,0.00002 -0.00015,0.00005 -0.00018,0.00008 -0.00003,0.00003 -0.00004,0.00009 -0.00004,0.00017l0 0.00372c0,0.00008 0.00001,0.00013 0.00004,0.00016 0.00003,0.00003 0.00009,0.00006 0.00018,0.00008l0 0.00012 -0.00161 0 0 -0.00012c0.00009,-0.00002 0.00015,-0.00005 0.00018,-0.00008 0.00003,-0.00003 0.00004,-0.00009 0.00004,-0.00016l0 -0.00299 -0.00153 0.00325 -0.00147 -0.00325 0 0.00299zm0.00688 -0.00097l0.00115 0 -0.0006 -0.00146 -0.00055 0.00146zm0.00156 -0.00218l0 0.00012c-0.00004,0.00001 -0.00008,0.00002 -0.00009,0.00003 -0.00002,0.00002 -0.00003,0.00004 -0.00003,0.00008 0,0.00004 0.00001,0.00008 0.00002,0.00012 0.00001,0.00004 0.00003,0.00009 0.00005,0.00015l0.00109 0.00267 0 0.00001c0.00004,0.00011 0.00011,0.00019 0.0002,0.00023l0 0.00012 -0.00139 0 0 -0.00012c0.00005,-0.00001 0.00009,-0.00003 0.00011,-0.00006 0.00003,-0.00003 0.00004,-0.00007 0.00004,-0.00011 0,-0.00002 -0,-0.00004 -0.00001,-0.00007 -0.00001,-0.00003 -0.00002,-0.00006 -0.00003,-0.00009l-0.00012 -0.0003 -0.00161 0 -0.00012 0.0003c-0,0.00001 -0.00001,0.00002 -0.00001,0.00004 -0.00001,0.00004 -0.00002,0.00008 -0.00002,0.0001 0,0.00005 0.00001,0.00009 0.00004,0.00012 0.00003,0.00003 0.00007,0.00006 0.00013,0.00007l0 0.00012 -0.00131 0 0 -0.00012c0.00007,-0.00003 0.00013,-0.00008 0.00018,-0.00016 0.00005,-0.00007 0.00012,-0.00022 0.0002,-0.00043l0.00087 -0.00232c0.00002,-0.00006 0.00004,-0.00011 0.00005,-0.00015 0.00001,-0.00004 0.00002,-0.00007 0.00002,-0.0001 0,-0.00005 -0.00001,-0.00008 -0.00003,-0.0001 -0.00002,-0.00002 -0.00005,-0.00003 -0.00009,-0.00004l0 -0.00011 0.00186 0zm0.00381 0l0 0.00012c-0.00005,0.00001 -0.00009,0.00003 -0.00012,0.00005 -0.00003,0.00002 -0.00004,0.00006 -0.00004,0.00009 0,0.00003 0.00001,0.00006 0.00002,0.0001 0.00001,0.00004 0.00002,0.00006 0.00004,0.00007l0.00144 0.00152 0 -0.00161c0,-0.00007 -0.00001,-0.00013 -0.00004,-0.00016 -0.00003,-0.00003 -0.00008,-0.00006 -0.00017,-0.00008l0 -0.00012 0.00124 0 0 0.00012c-0.00008,0.00002 -0.00014,0.00005 -0.00016,0.00008 -0.00003,0.00003 -0.00004,0.00008 -0.00004,0.00016l0 0.0028c0,0.00008 0.00001,0.00013 0.00004,0.00016 0.00002,0.00003 0.00008,0.00005 0.00016,0.00007l0 0.00012 -0.00148 0 0 -0.00012c0.00006,-0.00002 0.0001,-0.00004 0.00013,-0.00006 0.00003,-0.00003 0.00004,-0.00006 0.00004,-0.00009 0,-0.00003 -0.00001,-0.00006 -0.00002,-0.0001 -0.00001,-0.00004 -0.00002,-0.00007 -0.00004,-0.00008l-0.00177 -0.00187 0 0.00197c0,0.00007 0.00001,0.00013 0.00004,0.00016 0.00003,0.00003 0.00009,0.00006 0.00017,0.00008l0 0.00012 -0.00125 0 0 -0.00012c0.00008,-0.00002 0.00014,-0.00004 0.00017,-0.00007 0.00003,-0.00003 0.00004,-0.00008 0.00004,-0.00016l0 -0.0028c0,-0.00008 -0.00001,-0.00013 -0.00004,-0.00017 -0.00003,-0.00003 -0.00008,-0.00005 -0.00016,-0.00007l0 -0.00012 0.00181 0zm0.00468 0.00179c0,0.0003 0.00006,0.00052 0.00018,0.00065 0.00012,0.00013 0.00032,0.0002 0.0006,0.0002 0.00029,0 0.0005,-0.00006 0.00063,-0.00019 0.00013,-0.00013 0.00019,-0.00034 0.00019,-0.00065l0 -0.00152c0,-0.00008 -0.00001,-0.00013 -0.00004,-0.00016 -0.00003,-0.00003 -0.00008,-0.00006 -0.00017,-0.00008l0 -0.00012 0.00148 0 0 0.00011c-0.00008,0.00002 -0.00014,0.00005 -0.00016,0.00008 -0.00003,0.00003 -0.00004,0.00009 -0.00004,0.00017l0 0.00172c0,0.0005 -0.00016,0.00087 -0.00047,0.00112 -0.00032,0.00025 -0.00078,0.00038 -0.0014,0.00038 -0.00062,0 -0.00109,-0.00013 -0.00139,-0.00038 -0.0003,-0.00025 -0.00045,-0.00064 -0.00045,-0.00117l0 -0.00168c0,-0.00008 -0.00001,-0.00013 -0.00004,-0.00016 -0.00003,-0.00003 -0.00009,-0.00006 -0.00017,-0.00008l0 -0.00012 0.00148 0 0 0.00011c-0.00008,0.00002 -0.00013,0.00005 -0.00016,0.00008 -0.00003,0.00003 -0.00004,0.00009 -0.00004,0.00017l0 0.0015zm0.00514 -0.00091l0 0.0005 0.00113 0c0.00008,0 0.00013,-0.00001 0.00016,-0.00004 0.00003,-0.00002 0.00006,-0.00008 0.00008,-0.00017l0.00011 0 0 0.00117 -0.00011 0c-0.00003,-0.00009 -0.00006,-0.00014 -0.00009,-0.00017 -0.00003,-0.00003 -0.00008,-0.00004 -0.00016,-0.00004l-0.00113 0 0 0.00051 0.00196 0c0.00008,0 0.00013,-0.00001 0.00016,-0.00004 0.00003,-0.00003 0.00005,-0.00008 0.00008,-0.00016l0.00011 0 0 0.00128 -0.00011 0c-0.00002,-0.00008 -0.00005,-0.00014 -0.00008,-0.00016 -0.00003,-0.00003 -0.00008,-0.00004 -0.00016,-0.00004l-0.00323 0 0 -0.00012c0.00009,-0.00002 0.00015,-0.00005 0.00017,-0.00008 0.00003,-0.00003 0.00004,-0.00008 0.00004,-0.00016l0 -0.0028c0,-0.00008 -0.00001,-0.00013 -0.00004,-0.00016 -0.00003,-0.00003 -0.00009,-0.00006 -0.00017,-0.00008l0 -0.00012 0.00323 0c0.00008,0 0.00013,-0.00001 0.00016,-0.00004 0.00003,-0.00002 0.00005,-0.00008 0.00008,-0.00016l0.00011 0 0 0.00128 -0.00011 0c-0.00002,-0.00008 -0.00005,-0.00014 -0.00008,-0.00017 -0.00003,-0.00003 -0.00008,-0.00004 -0.00016,-0.00004l-0.00196 0zm0.00761 0.00159c0.00008,0 0.00013,-0.00001 0.00016,-0.00004 0.00003,-0.00003 0.00006,-0.00008 0.00008,-0.00017l0.00012 0 0 0.00147 -0.00012 0c-0.00002,-0.00009 -0.00005,-0.00015 -0.00008,-0.00017 -0.00003,-0.00003 -0.00008,-0.00004 -0.00017,-0.00004l-0.0042 0 0 -0.00012c0.00009,-0.00002 0.00015,-0.00004 0.00017,-0.00007 0.00003,-0.00003 0.00004,-0.00009 0.00004,-0.00017l0 -0.00372c0,-0.00008 -0.00001,-0.00014 -0.00004,-0.00017 -0.00003,-0.00003 -0.00008,-0.00006 -0.00017,-0.00008l0 -0.00012 0.00168 0 0 0.00012c-0.00009,0.00002 -0.00015,0.00005 -0.00018,0.00008 -0.00003,0.00003 -0.00004,0.00009 -0.00004,0.00017l0 0.00303 0.00274 0zm-0.00215 -0.00305l0 -0.00033 -0.00014 0 0 -0.00007 0.00038 0 0 0.00007 -0.00014 0 0 0.00033 -0.0001 0zm0.0003 0l0 -0.0004 0.00015 0 0.00009 0.00027 0.00009 -0.00027 0.00015 0 0 0.0004 -0.00009 0 0 -0.00032 -0.0001 0.00032 -0.00009 0 -0.0001 -0.00032 0 0.00032 -0.00009 0zm-0.01784 0.00772c-0.00002,0.00011 -0.00004,0.00021 -0.00005,0.00029 -0.00001,0.00008 -0.00002,0.00014 -0.00002,0.00018 -0,0.00013 0.00003,0.00022 0.0001,0.00028 0.00007,0.00006 0.00017,0.00009 0.00031,0.00009 0.00019,0 0.00037,-0.00005 0.00053,-0.00015 0.00016,-0.0001 0.00029,-0.00024 0.00037,-0.0004 0.00002,-0.00004 0.00004,-0.0001 0.00006,-0.00016 0.00002,-0.00007 0.00005,-0.0001 0.00008,-0.0001 0.00002,0 0.00003,0.00001 0.00004,0.00002 0.00001,0.00001 0.00002,0.00003 0.00002,0.00006 0,0.00004 -0.00001,0.00008 -0.00004,0.00015 -0.00003,0.00006 -0.00006,0.00013 -0.0001,0.00018 -0.00014,0.00018 -0.00029,0.00032 -0.00046,0.0004 -0.00017,0.00008 -0.00038,0.00012 -0.00063,0.00012 -0.00042,0 -0.00075,-0.00011 -0.001,-0.00034 -0.00024,-0.00022 -0.00037,-0.00052 -0.00037,-0.0009 0,-0.00021 0.00004,-0.0004 0.00011,-0.00059 0.00007,-0.00019 0.00018,-0.00037 0.00033,-0.00053 0.00016,-0.00018 0.00036,-0.00033 0.00058,-0.00043 0.00023,-0.00011 0.00046,-0.00016 0.0007,-0.00016 0.00011,0 0.00023,0.00002 0.00038,0.00005 0.00015,0.00003 0.00024,0.00005 0.00027,0.00005 0.00009,0 0.00017,-0.00003 0.00024,-0.00008 0.00007,-0.00005 0.00011,-0.00008 0.00012,-0.00008 0.00001,0 0.00002,0 0.00002,0.00001 0,0 0.00001,0.00001 0.00001,0.00002l0 0.00003 -0.00013 0.00115c-0,0.00002 -0.00001,0.00003 -0.00001,0.00004 -0.00001,0.00001 -0.00002,0.00001 -0.00003,0.00001 -0.00002,0 -0.00005,-0.00006 -0.00007,-0.00017 -0.00003,-0.00011 -0.00005,-0.00022 -0.00009,-0.00031 -0.00008,-0.00022 -0.00017,-0.00038 -0.00025,-0.00047 -0.00009,-0.00009 -0.00019,-0.00014 -0.00031,-0.00014 -0.00012,0 -0.00022,0.00005 -0.00029,0.00015 -0.00007,0.0001 -0.00013,0.00028 -0.00019,0.00055l-0.00024 0.0012zm0.00274 0.00067c0.00006,0 0.00012,-0.00003 0.00017,-0.00009 0.00006,-0.00006 0.00011,-0.00015 0.00014,-0.00025 0.00007,-0.0002 0.00012,-0.00039 0.00016,-0.00058 0.00004,-0.00019 0.00006,-0.00034 0.00006,-0.00044 0,-0.00007 -0.00002,-0.00013 -0.00005,-0.00017 -0.00003,-0.00004 -0.00008,-0.00007 -0.00013,-0.00007 -0.00006,0 -0.00011,0.00003 -0.00015,0.00008 -0.00004,0.00005 -0.00009,0.00015 -0.00013,0.00028 -0.00007,0.00021 -0.00013,0.00041 -0.00017,0.0006 -0.00004,0.00019 -0.00006,0.00033 -0.00006,0.00042 -0,0.00007 0.00001,0.00012 0.00004,0.00016 0.00003,0.00004 0.00007,0.00006 0.00011,0.00006zm0.00036 -0.00023c-0.00005,0.00013 -0.00013,0.00024 -0.00023,0.00031 -0.0001,0.00007 -0.00023,0.00011 -0.00037,0.00011 -0.00022,0 -0.0004,-0.00007 -0.00053,-0.00021 -0.00013,-0.00014 -0.0002,-0.00032 -0.0002,-0.00054 0,-0.00014 0.00003,-0.00028 0.0001,-0.00043 0.00007,-0.00014 0.00016,-0.00027 0.00028,-0.00039 0.00012,-0.00011 0.00025,-0.0002 0.00039,-0.00026 0.00014,-0.00006 0.00028,-0.00009 0.00043,-0.00009 0.0001,0 0.00019,0.00002 0.00025,0.00007 0.00006,0.00004 0.00011,0.00011 0.00014,0.00021l0.00003 -0.00014c0,-0.00003 0.00001,-0.00005 0.00003,-0.00006 0.00001,-0.00001 0.00003,-0.00002 0.00006,-0.00002l0.00003 0 0.00012 0.00001 0.00018 0c0.00004,0 0.00008,-0 0.00013,-0 0.00005,-0 0.00008,-0 0.00009,-0l0.00013 -0 0.00002 0c0.00003,0 0.00006,0 0.00007,0.00001 0.00001,0.00001 0.00002,0.00002 0.00002,0.00004 0,0.00001 -0,0.00002 -0.00001,0.00004 -0,0.00001 -0,0.00001 -0,0.00002l-0.00023 0.0011c-0.00001,0.00003 -0.00001,0.00005 -0.00001,0.00008 -0,0.00002 -0.00001,0.00004 -0.00001,0.00005 -0,0.00005 0.00001,0.00008 0.00003,0.0001 0.00002,0.00002 0.00005,0.00004 0.00008,0.00004 0.00004,0 0.00007,-0.00001 0.00011,-0.00005 0.00003,-0.00003 0.00007,-0.00008 0.00011,-0.00015 0.00001,-0.00001 0.00002,-0.00003 0.00003,-0.00005 0.00003,-0.00005 0.00005,-0.00008 0.00006,-0.00008 0.00001,0 0.00002,0 0.00002,0.00001 0.00001,0 0.00001,0.00001 0.00001,0.00002 0,0.00003 -0.00001,0.00008 -0.00004,0.00014 -0.00003,0.00006 -0.00007,0.00012 -0.00012,0.00018 -0.00009,0.00012 -0.00019,0.00021 -0.00031,0.00027 -0.00012,0.00006 -0.00024,0.00009 -0.00038,0.00009 -0.00014,0 -0.00025,-0.00004 -0.00033,-0.00011 -0.00008,-0.00007 -0.00013,-0.00017 -0.00015,-0.0003zm0.00338 -0.00135l-0.00064 0 -0.00012 0.00063c-0.00007,0.00036 -0.00014,0.00063 -0.00021,0.00081 -0.00007,0.00018 -0.00017,0.00032 -0.00028,0.00045 -0.00017,0.00018 -0.00036,0.00031 -0.00058,0.0004 -0.00022,0.00009 -0.00046,0.00014 -0.00071,0.00014 -0.00012,0 -0.00021,-0.00001 -0.00028,-0.00002 -0.00007,-0.00002 -0.0001,-0.00004 -0.0001,-0.00006 0,-0.00001 0,-0.00002 0.00001,-0.00002 0.00001,-0.00001 0.00002,-0.00001 0.00003,-0.00001 0.00001,0 0.00003,0 0.00007,0.00001 0.00004,0.00001 0.00008,0.00001 0.00012,0.00001 0.00028,0 0.0005,-0.00012 0.00065,-0.00036 0.00015,-0.00024 0.00029,-0.00068 0.00039,-0.00133l0.00011 -0.00065 -0.00047 0c-0.00001,0 -0.00001,-0 -0.00002,-0.00001 -0.00001,-0.00001 -0.00001,-0.00001 -0.00001,-0.00002 0,-0.00002 0.00001,-0.00004 0.00002,-0.00005 0.00001,-0.00002 0.00002,-0.00002 0.00004,-0.00002l0.00017 0c0.00007,0 0.00013,-0 0.00017,-0.00001 0.00004,-0.00001 0.00007,-0.00002 0.00009,-0.00004 0.00003,-0.00003 0.00007,-0.0001 0.0001,-0.00022 0.00002,-0.00005 0.00003,-0.00009 0.00004,-0.00012 0.00008,-0.00024 0.00021,-0.00041 0.00037,-0.00052 0.00017,-0.00011 0.00039,-0.00016 0.00066,-0.00016 0.00021,0 0.00038,0.00004 0.0005,0.00012 0.0001,0.00006 0.00016,0.00014 0.00018,0.00024 0.00006,-0.00008 0.00013,-0.00014 0.0002,-0.00019 0.00017,-0.00011 0.00039,-0.00016 0.00066,-0.00016 0.00021,0 0.00038,0.00004 0.0005,0.00012 0.00012,0.00008 0.00018,0.00019 0.00018,0.00032 -0,0.00012 -0.00005,0.00022 -0.00015,0.0003 -0.0001,0.00008 -0.00022,0.00012 -0.00037,0.00012 -0.00012,0 -0.00021,-0.00003 -0.00029,-0.00009 -0.00007,-0.00006 -0.00011,-0.00014 -0.00011,-0.00024 0,-0.00005 0.00001,-0.00009 0.00003,-0.00013 0.00002,-0.00004 0.00005,-0.00008 0.00008,-0.00011 0.00001,-0.00001 0.00004,-0.00003 0.00006,-0.00005 0.00004,-0.00003 0.00007,-0.00006 0.00007,-0.00008 0,-0.00002 -0.00001,-0.00003 -0.00002,-0.00004 -0.00001,-0.00001 -0.00003,-0.00001 -0.00006,-0.00001 -0.00012,0 -0.00023,0.00006 -0.00033,0.00017 -0.0001,0.00011 -0.00015,0.00024 -0.00015,0.00038 -0,0.00016 0.00005,0.00027 0.00015,0.00034 0.0001,0.00007 0.00027,0.00011 0.0005,0.00011l0.00021 0c0.00001,0 0.00001,0 0.00002,0.00001 0.00001,0.00001 0.00001,0.00001 0.00001,0.00002 -0,0.00002 -0.00001,0.00004 -0.00002,0.00005 -0.00001,0.00001 -0.00002,0.00002 -0.00004,0.00002l-0.00056 0 -0.00012 0.00063c-0.00007,0.00036 -0.00014,0.00063 -0.00021,0.00081 -0.00007,0.00018 -0.00017,0.00032 -0.00028,0.00045 -0.00017,0.00018 -0.00036,0.00031 -0.00058,0.0004 -0.00022,0.00009 -0.00046,0.00014 -0.00071,0.00014 -0.00012,0 -0.00021,-0.00001 -0.00028,-0.00002 -0.00007,-0.00002 -0.0001,-0.00004 -0.0001,-0.00006 0,-0.00001 0,-0.00002 0.00001,-0.00002 0.00001,-0.00001 0.00002,-0.00001 0.00003,-0.00001 0,0 0.00003,0 0.00007,0.00001 0.00004,0.00001 0.00008,0.00001 0.00012,0.00001 0.00028,0 0.0005,-0.00012 0.00065,-0.00036 0.00015,-0.00024 0.00029,-0.00068 0.00039,-0.00133l0.00011 -0.00065zm-0.00029 -0.0001l0.00003 0c0.00006,-0 0.00011,-0 0.00014,-0.00001 0.00004,-0.00001 0.00007,-0.00002 0.00009,-0.00004 0.00003,-0.00003 0.00007,-0.0001 0.0001,-0.00022l0.00001 -0.00002c-0.00009,0.00005 -0.00019,0.00008 -0.00031,0.00008 -0.00012,0 -0.00021,-0.00003 -0.00029,-0.00009 -0.00007,-0.00006 -0.00011,-0.00014 -0.00011,-0.00024 0,-0.00005 0.00001,-0.00009 0.00003,-0.00013 0.00002,-0.00004 0.00005,-0.00008 0.00008,-0.00011 0.00001,-0.00001 0.00004,-0.00003 0.00007,-0.00005 0.00004,-0.00003 0.00007,-0.00006 0.00007,-0.00008 0,-0.00002 -0.00001,-0.00003 -0.00002,-0.00004 -0.00001,-0.00001 -0.00003,-0.00001 -0.00006,-0.00001 -0.00012,0 -0.00023,0.00006 -0.00033,0.00017 -0.0001,0.00011 -0.00015,0.00024 -0.00015,0.00038 -0,0.00016 0.00005,0.00027 0.00015,0.00034 0.0001,0.00007 0.00026,0.0001 0.00049,0.00011zm0.00237 -0.00028l0.00062 -0.00057c0.00004,-0.00004 0.00009,-0.00007 0.00013,-0.00009 0.00004,-0.00002 0.00007,-0.00003 0.0001,-0.00003 0.00005,0 0.0001,0.00002 0.00013,0.00006 0.00004,0.00004 0.00005,0.00009 0.00005,0.00014 0,0.00005 -0.00002,0.0001 -0.00005,0.00014 -0.00004,0.00004 -0.00009,0.00007 -0.00015,0.00009l-0.00082 0.00025zm0.00005 0.00117c0.00001,0.00017 0.00006,0.0003 0.00016,0.0004 0.0001,0.0001 0.00023,0.00015 0.00039,0.00015 0.0001,0 0.00019,-0.00001 0.00027,-0.00004 0.00008,-0.00003 0.00016,-0.00008 0.00023,-0.00014 0.00003,-0.00003 0.00007,-0.00006 0.00011,-0.00011 0.00004,-0.00004 0.00007,-0.00007 0.00008,-0.00007 0.00001,0 0.00001,0 0.00002,0.00001 0.00001,0 0.00001,0.00001 0.00001,0.00001 -0,0.00002 -0.00002,0.00006 -0.00006,0.00012 -0.00004,0.00006 -0.0001,0.00013 -0.00016,0.00019 -0.00015,0.00015 -0.00031,0.00026 -0.00048,0.00034 -0.00017,0.00008 -0.00035,0.00011 -0.00055,0.00011 -0.00026,0 -0.00047,-0.00007 -0.00063,-0.00022 -0.00016,-0.00015 -0.00024,-0.00034 -0.00024,-0.00057 0,-0.00031 0.00014,-0.00056 0.0004,-0.00076 0.00027,-0.0002 0.00061,-0.0003 0.00103,-0.0003 0.00024,0 0.00043,0.00004 0.00058,0.00012 0.00015,0.00008 0.00022,0.00018 0.00022,0.0003 -0,0.00015 -0.00011,0.00026 -0.00034,0.00034 -0.00023,0.00007 -0.00057,0.00011 -0.00103,0.00011zm0 -0.00008c0.00022,-0.00001 0.00041,-0.00006 0.00057,-0.00017 0.00016,-0.00011 0.00023,-0.00023 0.00023,-0.00035 0,-0.00006 -0.00002,-0.0001 -0.00005,-0.00013 -0.00004,-0.00003 -0.00009,-0.00005 -0.00015,-0.00005 -0.00014,0 -0.00027,0.00007 -0.00039,0.0002 -0.00012,0.00013 -0.00019,0.0003 -0.00021,0.0005z"/>
 </g>
</svg>
