<?xml version="1.0" encoding="UTF-8"?>
<!DOCTYPE svg PUBLIC "-//W3C//DTD SVG 1.1//EN" "http://www.w3.org/Graphics/SVG/1.1/DTD/svg11.dtd">
<!-- Creator: CorelDRAW 2020 (64-Bit) -->
<svg xmlns="http://www.w3.org/2000/svg" xml:space="preserve" width="0.670496in" height="0.116665in" version="1.1" style="shape-rendering:geometricPrecision; text-rendering:geometricPrecision; image-rendering:optimizeQuality; fill-rule:evenodd; clip-rule:evenodd"
viewBox="0 0 0.3344 0.05818"
 xmlns:xlink="http://www.w3.org/1999/xlink"
 xmlns:xodm="http://www.corel.com/coreldraw/odm/2003">
 <defs>
  <style type="text/css">
   <![CDATA[
    .fil0 {fill:#AAAAAA;fill-rule:nonzero}
   ]]>
  </style>
 </defs>
 <g id="Layer_x0020_1">
  <metadata id="CorelCorpID_0Corel-Layer"/>
  <path class="fil0" d="M0.06289 0l-0.02165 0 -0.04124 0.05818 0.02165 0 0.00566 -0.00798 0.03018 0 -0.00876 -0.01236 -0.01267 0 0.02682 -0.03784zm0.02706 0.05818l-0.02165 0 -0.02062 -0.02909c0.00687,-0.0097 0.01375,-0.01939 0.02062,-0.02909l0.02165 0 -0.02062 0.02909 0.02062 0.02909zm0.03832 -0.03468l-0.006 -0.01447 -0.006 0.01447 0.012 0zm-0.02333 0.02425c0.00299,0 0.0051,0.00222 0.0051,0.00518 0,0.00297 -0.00215,0.00518 -0.00514,0.00518l-0.00406 0 0 -0.01036 0.0041 0zm0.00873 0l0.00214 0 0 0.01036 -0.00214 0 0 -0.01036zm0.00868 0.00205l0 0.00208 0.00455 0 0 0.00205 -0.00455 0 0 0.00213 0.00524 0 0 0.00205 -0.00737 0 0 -0.01036 0.00721 0 0 0.00205 -0.00508 0zm0.01607 -0.00093l-0.00088 0.00197 -0.00028 -0.00018c-0.00072,-0.00046 -0.0017,-0.00086 -0.00257,-0.00086 -0.00048,0 -0.00123,0.00012 -0.00123,0.00074 0,0.00016 0.00003,0.0003 0.00011,0.00043 0.00019,0.0003 0.0006,0.00049 0.00092,0.00061 0.00051,0.0002 0.00104,0.00034 0.00155,0.00052 0.00058,0.00021 0.00116,0.00047 0.00161,0.0009 0.00059,0.00055 0.00082,0.00126 0.00082,0.00205 -0,0.0006 -0.00016,0.00117 -0.0005,0.00166 -0.00073,0.00106 -0.00206,0.00145 -0.00329,0.00145 -0.00147,0 -0.00294,-0.00061 -0.004,-0.00163l-0.00015 -0.00014 0.00093 -0.00197 0.00028 0.00027c0.00076,0.00073 0.00188,0.00135 0.00295,0.00135 0.0006,0 0.00146,-0.00015 0.00146,-0.00091 0,-0.00016 -0.00004,-0.00032 -0.00012,-0.00045 -0.00019,-0.0003 -0.00059,-0.00048 -0.00091,-0.0006 -0.00049,-0.00019 -0.00102,-0.00032 -0.00152,-0.00049 -0.0006,-0.0002 -0.00121,-0.00047 -0.00168,-0.00091 -0.00057,-0.00054 -0.00079,-0.00122 -0.00079,-0.00199 0,-0.00057 0.00015,-0.00112 0.00047,-0.0016 0.00071,-0.00104 0.002,-0.00141 0.0032,-0.00141 0.00119,0 0.00244,0.00038 0.00342,0.00106l0.00019 0.00014zm0.00598 0.00093l0 0.00208 0.00455 0 0 0.00205 -0.00455 0 0 0.00213 0.00524 0 0 0.00205 -0.00737 0 0 -0.01036 0.00721 0 0 0.00205 -0.00508 0zm0.01125 0.00624l0.00403 0 0 0.00206 -0.00616 0 0 -0.01036 0.00214 0 0 0.00829zm0.01344 -0.00829l0.00214 0 0 0.01036 -0.00214 0 0 -0.01036zm0.00868 0.00395l0 0.00641 -0.00214 0 0 -0.01036 0.00197 0 0.00455 0.00643 0 -0.00643 0.00211 0 0 0.01036 -0.00197 0 -0.00453 -0.00641zm0.01372 -0.0019l-0.00322 0 0 -0.00205 0.00537 0 0 0.00705c0,0.00201 -0.00112,0.00338 -0.00318,0.00338 -0.00122,0 -0.00223,-0.00057 -0.00296,-0.00152l-0.00012 -0.00015 0.00104 -0.00176 0.00026 0.00029c0.00043,0.00049 0.00109,0.00098 0.00177,0.00098 0.00078,0 0.00104,-0.00056 0.00104,-0.00127l0 -0.00495zm0.00849 0l0 0.00208 0.00455 0 0 0.00205 -0.00455 0 0 0.00213 0.00524 0 0 0.00205 -0.00737 0 0 -0.01036 0.00722 0 0 0.00205 -0.00508 0zm0.01742 -0.00032l-0.00127 0.00167 -0.00023 -0.00026c-0.00059,-0.00067 -0.00147,-0.00115 -0.00238,-0.00115 -0.00175,0 -0.00304,0.00144 -0.00304,0.00316 0,0.00172 0.00128,0.00317 0.00304,0.00317 0.00089,0 0.00177,-0.00045 0.00239,-0.00108l0.00022 -0.00022 0.0013 0.00152 -0.00018 0.00018c-0.00098,0.00101 -0.00239,0.00169 -0.00381,0.00169 -0.00294,0 -0.00512,-0.00236 -0.00512,-0.00526 0,-0.00292 0.00225,-0.00521 0.00517,-0.00521 0.00139,0 0.00278,0.0006 0.00374,0.0016l0.00017 0.00017zm0.00745 0.00032l0 0.00831 -0.00214 0 0 -0.00831 -0.00294 0 0 -0.00205 0.00802 0 0 0.00205 -0.00295 0zm0.00625 -0.00205l0.00214 0 0 0.01036 -0.00214 0 0 -0.01036zm0.0162 0.00518c0,0.00294 -0.00226,0.00525 -0.00522,0.00525 -0.00295,0 -0.00522,-0.00231 -0.00522,-0.00525 0,-0.00295 0.00226,-0.00522 0.00522,-0.00522 0.00295,0 0.00522,0.00228 0.00522,0.00522zm0.00577 -0.00123l0 0.00641 -0.00214 0 0 -0.01036 0.00197 0 0.00455 0.00643 0 -0.00643 0.00211 0 0 0.01036 -0.00197 0 -0.00453 -0.00641zm0.02383 -0.00282l-0.00088 0.00197 -0.00028 -0.00018c-0.00072,-0.00046 -0.0017,-0.00086 -0.00257,-0.00086 -0.00048,0 -0.00123,0.00012 -0.00123,0.00074 0,0.00016 0.00003,0.0003 0.00011,0.00043 0.00019,0.0003 0.0006,0.00049 0.00092,0.00061 0.0005,0.0002 0.00103,0.00034 0.00155,0.00052 0.00058,0.00021 0.00116,0.00047 0.00161,0.0009 0.00059,0.00055 0.00082,0.00126 0.00082,0.00205 -0,0.0006 -0.00016,0.00117 -0.0005,0.00166 -0.00073,0.00106 -0.00206,0.00145 -0.00329,0.00145 -0.00147,0 -0.00294,-0.00061 -0.004,-0.00163l-0.00015 -0.00014 0.00093 -0.00197 0.00028 0.00027c0.00076,0.00073 0.00188,0.00135 0.00295,0.00135 0.0006,0 0.00146,-0.00015 0.00146,-0.00091 0,-0.00016 -0.00004,-0.00032 -0.00012,-0.00045 -0.00019,-0.0003 -0.00059,-0.00048 -0.00091,-0.0006 -0.00049,-0.00019 -0.00102,-0.00032 -0.00152,-0.00049 -0.0006,-0.0002 -0.00121,-0.00047 -0.00168,-0.00091 -0.00057,-0.00054 -0.00079,-0.00122 -0.00079,-0.00199 0,-0.00057 0.00015,-0.00112 0.00047,-0.0016 0.0007,-0.00104 0.002,-0.00141 0.0032,-0.00141 0.00119,0 0.00244,0.00038 0.00342,0.00106l0.00019 0.00014zm0.0061 0.00582l-0.00366 -0.00694 0.00222 0 0.00249 0.00446 0.00244 -0.00446 0.00223 0 -0.0036 0.00688 0 0.00347 -0.00212 0 0 -0.00342zm0.01569 -0.00582l-0.00088 0.00197 -0.00028 -0.00018c-0.00072,-0.00046 -0.0017,-0.00086 -0.00257,-0.00086 -0.00048,0 -0.00123,0.00012 -0.00123,0.00074 0,0.00016 0.00003,0.0003 0.00011,0.00043 0.00019,0.0003 0.0006,0.00049 0.00092,0.00061 0.0005,0.0002 0.00103,0.00034 0.00155,0.00052 0.00058,0.00021 0.00116,0.00047 0.00161,0.0009 0.00059,0.00055 0.00082,0.00126 0.00082,0.00205 0,0.0006 -0.00016,0.00117 -0.0005,0.00166 -0.00073,0.00106 -0.00206,0.00145 -0.00329,0.00145 -0.00147,0 -0.00294,-0.00061 -0.004,-0.00163l-0.00015 -0.00014 0.00093 -0.00197 0.00028 0.00027c0.00076,0.00073 0.00188,0.00135 0.00295,0.00135 0.0006,0 0.00146,-0.00015 0.00146,-0.00091 0,-0.00016 -0.00004,-0.00032 -0.00012,-0.00045 -0.00019,-0.0003 -0.00059,-0.00048 -0.00091,-0.0006 -0.00049,-0.00019 -0.00102,-0.00032 -0.00152,-0.00049 -0.0006,-0.0002 -0.00121,-0.00047 -0.00168,-0.00091 -0.00057,-0.00054 -0.00079,-0.00122 -0.00079,-0.00199 0,-0.00057 0.00015,-0.00112 0.00047,-0.0016 0.0007,-0.00104 0.002,-0.00141 0.0032,-0.00141 0.00119,0 0.00244,0.00038 0.00342,0.00106l0.00019 0.00014zm0.00781 0.00093l0 0.00831 -0.00214 0 0 -0.00831 -0.00294 0 0 -0.00205 0.00802 0 0 0.00205 -0.00295 0zm0.00839 0l0 0.00208 0.00455 0 0 0.00205 -0.00455 0 0 0.00213 0.00524 0 0 0.00205 -0.00737 0 0 -0.01036 0.00721 0 0 0.00205 -0.00508 0zm0.01749 0.00198l-0.00248 0.0053 -0.00138 0 -0.00247 -0.0053 0 0.00632 -0.00204 0 0 -0.01036 0.00232 0 0.00289 0.00612 0.00288 -0.00612 0.00231 0 0 0.01036 -0.00201 0 -0.00001 -0.00632zm-0.22939 0.00427l0.002 0c0.00061,0 0.00121,-0.00018 0.0017,-0.00054 0.00082,-0.0006 0.0012,-0.00157 0.0012,-0.00257 0,-0.00099 -0.00039,-0.00195 -0.0012,-0.00256 -0.00051,-0.00039 -0.00113,-0.00058 -0.00178,-0.00058l-0.00194 0 0 0.00626zm0.13605 -0.00313c0,0.00112 0.00056,0.00218 0.00153,0.00276 0.00047,0.00028 0.001,0.00044 0.00154,0.00044 0.00055,0 0.00109,-0.00016 0.00155,-0.00045 0.00094,-0.00059 0.00147,-0.00165 0.00147,-0.00275 0,-0.00106 -0.00049,-0.00207 -0.00138,-0.00267 -0.00049,-0.00033 -0.00106,-0.0005 -0.00165,-0.0005 -0.00174,0 -0.00307,0.00145 -0.00307,0.00317zm-0.108 -0.02278l-0.01757 0 -0.00335 0.0081 -0.00898 0 0.01687 -0.03781 0.00865 0 0.01693 0.03781 -0.00919 0 -0.00335 -0.0081zm0.02812 -0.00675l-0.00508 0.00529 0 0.00956 -0.00871 0 0 -0.03781 0.00871 0 0 0.01766 0.01676 -0.01766 0.00973 0 -0.01568 0.01685 0.0166 0.02096 -0.01022 0 -0.01211 -0.01485zm0.05229 0.00108l-0.00816 -0.01853 -0.00817 0.01853 0.01633 0zm0.00189 0.00432l-0.02011 0 -0.00416 0.00945 -0.00557 0 0.01714 -0.03781 0.00535 0 0.01719 0.03781 -0.00568 0 -0.00416 -0.00945zm0.01217 -0.00686l0 -0.0215 0.00541 0 0 0.02128c0,0.00837 0.00384,0.01215 0.01065,0.01215 0.00681,0 0.01071,-0.00378 0.01071,-0.01215l0 -0.02128 0.00525 0 0 0.0215c0,0.01096 -0.006,0.01674 -0.01601,0.01674 -0.00995,0 -0.016,-0.00578 -0.016,-0.01674zm0.04888 -0.0168l-0.01298 0 0 -0.0047 0.03131 0 0 0.0047 -0.01298 0 0 0.03311 -0.00535 0 0 -0.03311zm0.05434 0.0142c0,-0.00837 -0.00627,-0.01453 -0.01465,-0.01453 -0.00849,0 -0.01476,0.00616 -0.01476,0.01453 0,0.00837 0.00627,0.01453 0.01476,0.01453 0.00838,0 0.01465,-0.00616 0.01465,-0.01453zm-0.03482 0c0,-0.01107 0.00855,-0.01934 0.02017,-0.01934 0.01152,0 0.02006,0.00821 0.02006,0.01934 0,0.01113 -0.00854,0.01934 -0.02006,0.01934 -0.01162,0 -0.02017,-0.00826 -0.02017,-0.01934z"/>
 </g>
</svg>
