<?xml version="1.0" encoding="UTF-8"?>
<!DOCTYPE svg PUBLIC "-//W3C//DTD SVG 1.1//EN" "http://www.w3.org/Graphics/SVG/1.1/DTD/svg11.dtd">
<!-- Creator: CorelDRAW 2020 (64-Bit) -->
<svg xmlns="http://www.w3.org/2000/svg" xml:space="preserve" width="0.850827in" height="0.116669in" version="1.1" style="shape-rendering:geometricPrecision; text-rendering:geometricPrecision; image-rendering:optimizeQuality; fill-rule:evenodd; clip-rule:evenodd"
viewBox="0 0 0.07942 0.01089"
 xmlns:xlink="http://www.w3.org/1999/xlink"
 xmlns:xodm="http://www.corel.com/coreldraw/odm/2003">
 <defs>
  <style type="text/css">
   <![CDATA[
    .fil0 {fill:#AAAAAA}
   ]]>
  </style>
 </defs>
 <g id="Layer_x0020_1">
  <metadata id="CorelCorpID_0Corel-Layer"/>
  <path class="fil0" d="M0.07492 0.00808l0.00075 -0.00193 0.00074 0.00193 -0.0015 0zm-0.00297 0.00268l0.00195 0 0.00048 -0.00121 0.00258 0 0.00049 0.00121 0.00199 0 -0.00284 -0.00685 -0.00179 0 -0.00284 0.00685zm-0.00696 0l0.00183 0 0 -0.00376 0.00285 0.00376 0.00162 0 0 -0.00685 -0.00183 0 0 0.00362 -0.00275 -0.00362 -0.00173 0 0 0.00685zm-0.00308 0l0.00186 0 0 -0.00645c-0.00008,0.00008 -0.00016,0.00015 -0.00025,0.00021 -0.0002,0.00014 -0.00047,0.00025 -0.00072,0.00025 -0.00021,-0 -0.00044,-0.00007 -0.00062,-0.00017 -0.0001,-0.00006 -0.00019,-0.00012 -0.00027,-0.0002l0 0.00637zm-0.00832 0l0.00181 0 0 -0.00391 0.0017 0.00266 0.00004 0 0.00171 -0.00268 0 0.00393 0.00184 0 0 -0.00685 -0.00196 0 -0.00159 0.00265 -0.00159 -0.00265 -0.00196 0 0 0.00685zm-0.00487 -0.00268l0.00075 -0.00193 0.00074 0.00193 -0.0015 0zm-0.00297 0.00268l0.00195 0 0.00048 -0.00121 0.00258 0 0.00049 0.00121 0.00199 0 -0.00284 -0.00685 -0.00179 0 -0.00284 0.00685zm-0.00681 0l0.00185 0 0 -0.00177 0.00068 -0.00077 0.00168 0.00254 0.00222 0 -0.00262 -0.0039 0.00253 -0.00294 -0.0022 0 -0.0023 0.00278 0 -0.00278 -0.00185 0 0 0.00685zm0.02359 -0.00985c0.0004,0.00043 0.00034,0.00111 0.0001,0.00191 0.00022,-0.00027 0.00042,-0.00057 0.00048,-0.0014 0.00059,0.0004 -0.00006,0.00175 0,0.00212 0.00021,-0.00014 0.00049,-0.00095 0.0005,-0.00135 0.00015,0.00018 0.00023,0.00043 0.00026,0.00075 0.00003,0.00027 0.00004,0.0006 -0.00007,0.00086 -0.0002,0.00047 -0.00071,0.00073 -0.00099,0.00073 -0.00025,-0 -0.00067,-0.00015 -0.00087,-0.00057 -0.00018,-0.00038 -0.00016,-0.00082 0,-0.0012 0.00024,-0.00056 0.00072,-0.00121 0.00059,-0.00184zm-0.06051 -0.00064c0.00075,0 0.00136,0.00062 0.00136,0.00139 0,0.00077 -0.00061,0.00139 -0.00136,0.00139 -0.00075,0 -0.00136,-0.00062 -0.00136,-0.00139 0,-0.00077 0.00061,-0.00139 0.00136,-0.00139zm0.03526 0.00043c-0.00025,-0.00025 -0.00059,-0.0004 -0.00097,-0.0004 -0.00038,0 -0.00072,0.00015 -0.00097,0.0004 -0.00025,0.00025 -0.0004,0.00059 -0.0004,0.00096 0,0.00037 0.00015,0.00071 0.0004,0.00096 0.00025,0.00025 0.00059,0.0004 0.00097,0.0004 0.00038,0 0.00072,-0.00015 0.00097,-0.0004 0.00025,-0.00025 0.0004,-0.00059 0.0004,-0.00096 0,-0.00037 -0.00015,-0.00071 -0.0004,-0.00096zm-0.00097 -0.00069c0.00046,0 0.00088,0.00018 0.00118,0.00048 0.0003,0.0003 0.00049,0.00071 0.00049,0.00117 0,0.00046 -0.00019,0.00087 -0.00049,0.00117 -0.0003,0.0003 -0.00072,0.00048 -0.00118,0.00048 -0.00046,0 -0.00088,-0.00018 -0.00118,-0.00048 -0.0003,-0.0003 -0.00049,-0.00071 -0.00049,-0.00117 0,-0.00046 0.00019,-0.00087 0.00049,-0.00117 0.0003,-0.0003 0.00072,-0.00048 0.00118,-0.00048zm0.00013 0.00109c0.00021,0 0.0003,0.00014 0.0003,0.00028 0,0.00014 -0.00009,0.00028 -0.0003,0.00028l-0.0005 0 0 -0.00056 0.0005 0zm0.00072 0.00141l-0.00053 -0.00059c0.00033,-0.00007 0.00044,-0.00031 0.00044,-0.00055 0,-0.0003 -0.00022,-0.00057 -0.00063,-0.00058 -0.00028,0 -0.00056,0 -0.00084,0l0 0.00174 0.00033 0 0 -0.00058 0.00032 0 0.00051 0.00058 0.00039 0 0 -0.00002zm-0.03714 0.00826l0 -0.00911 0.0002 0c0,0.00102 0.00081,0.00185 0.00181,0.00185 0.00009,0 0.00017,-0.00001 0.00025,-0.00002l0 0.00728 -0.00226 0zm0.00986 0l0 -0.00135c-0.00015,0.00059 -0.00046,0.00098 -0.00095,0.00118 -0.00048,0.0002 -0.00108,0.0003 -0.00178,0.0003 -0.00073,0 -0.00137,-0.00004 -0.00192,-0.00013 -0.00055,-0.00008 -0.00097,-0.00026 -0.00125,-0.00054 -0.00029,-0.00028 -0.00047,-0.0006 -0.00054,-0.00097 -0.00007,-0.00037 -0.00011,-0.00081 -0.00011,-0.00131l0 -0.00045c0,-0.0006 0.00004,-0.0011 0.00012,-0.0015 0.00008,-0.00041 0.00029,-0.00073 0.00062,-0.00097 0.00033,-0.00025 0.00076,-0.00041 0.00127,-0.00049 0.00052,-0.00008 0.00106,-0.00013 0.00164,-0.00013 0.00091,0 0.00155,0.00009 0.00193,0.00027 0.00038,0.00018 0.00071,0.00047 0.00097,0.00086l0 -0.00387 0.00221 0 0 0.00911 -0.00221 0zm-0.00187 -0.00159c0.00072,0 0.00121,-0.00008 0.00147,-0.00024 0.00027,-0.00016 0.0004,-0.00057 0.0004,-0.00122 0,-0.0007 -0.00011,-0.00115 -0.00034,-0.00133 -0.00023,-0.00018 -0.00072,-0.00027 -0.00148,-0.00027l-0.0005 0c-0.00033,0 -0.00063,0.00002 -0.0009,0.00005 -0.00027,0.00004 -0.00048,0.00011 -0.00063,0.00023 -0.00016,0.00012 -0.00026,0.00027 -0.0003,0.00045 -0.00004,0.00019 -0.00007,0.00042 -0.00007,0.00071 0,0.00068 0.0001,0.00112 0.0003,0.00132 0.0002,0.00021 0.00063,0.00031 0.0013,0.00031l0.00075 -0.00001zm0.00986 0.00172l-0.00218 -0.00008c-0.00105,0 -0.00176,-0.00027 -0.00214,-0.00081 -0.00038,-0.00054 -0.00057,-0.00139 -0.00057,-0.00254 0,-0.00105 0.0002,-0.00182 0.0006,-0.0023 0.0004,-0.00049 0.0011,-0.00073 0.00209,-0.00073l0.00214 -0.00004c0.00064,0 0.00118,0.00004 0.00161,0.00011 0.00043,0.00007 0.00079,0.00024 0.0011,0.00049 0.00031,0.00026 0.00051,0.00058 0.00061,0.00096 0.0001,0.00038 0.00015,0.00082 0.00015,0.00131 0,0.00011 -0,0.00023 -0.00001,0.00036 -0,0.00013 -0.00001,0.00028 -0.00001,0.00045l-0.00598 0c0,0.00049 0.00009,0.00083 0.00026,0.00103 0.00018,0.0002 0.0005,0.0003 0.00097,0.0003l0.00128 0.00003c0.00029,0 0.00053,-0.00002 0.00072,-0.00005 0.00019,-0.00004 0.00032,-0.0001 0.00039,-0.00019 0.00007,-0.00009 0.00011,-0.00025 0.00012,-0.00048l0.00223 0c0,0.00093 -0.00029,0.00153 -0.00088,0.00179 -0.00059,0.00026 -0.00143,0.00039 -0.00251,0.00039zm-0.00107 -0.00512c-0.00048,0 -0.00085,0.00005 -0.00112,0.00015 -0.00027,0.0001 -0.0004,0.00036 -0.0004,0.00077l0.00001 0.00017 0.00375 0c0,-0.00045 -0.00011,-0.00075 -0.00033,-0.00089 -0.00022,-0.00014 -0.00057,-0.00021 -0.00106,-0.00021l-0.00085 0zm0.00818 -0.00134l0.00236 -0.00005c0.00094,0 0.00167,0.00014 0.00217,0.00043 0.00051,0.00028 0.00076,0.00086 0.00076,0.00174l0 0.00421 -0.00226 0 0 -0.00102c-0.00017,0.0005 -0.00049,0.00081 -0.00095,0.00095 -0.00046,0.00013 -0.00105,0.0002 -0.00177,0.0002l-0.00042 0c-0.00098,0 -0.0017,-0.00012 -0.00215,-0.00037 -0.00046,-0.00025 -0.00069,-0.00083 -0.00069,-0.00174 0,-0.00066 0.00018,-0.00116 0.00053,-0.00149 0.00035,-0.00033 0.00085,-0.0005 0.0015,-0.0005 0.00034,-0.00003 0.00069,-0.00004 0.00103,-0.00004l0.00035 0 0.00067 0c0.00046,0 0.00084,0.00004 0.00115,0.00012 0.0003,0.00008 0.00055,0.00026 0.00075,0.00055l0 -0.00068c0,-0.00037 -0.00008,-0.00063 -0.00023,-0.00075 -0.00016,-0.00013 -0.00042,-0.00019 -0.0008,-0.00019l-0.00104 -0.00003 -0.00074 0.00003c-0.00022,0 -0.00038,0.00003 -0.00048,0.00009 -0.0001,0.00006 -0.00016,0.0002 -0.00016,0.0004l-0.00226 0c0,-0.00071 0.00025,-0.0012 0.00075,-0.00146 0.0005,-0.00026 0.00114,-0.00039 0.00193,-0.00039zm0.00086 0.00498l0.0002 0c0.0005,0 0.00091,-0.00002 0.00123,-0.00007 0.00032,-0.00005 0.00053,-0.00012 0.00062,-0.00022 0.0001,-0.0001 0.00014,-0.00025 0.00014,-0.00045 0,-0.00025 -0.0001,-0.00042 -0.00029,-0.0005 -0.0002,-0.00008 -0.00044,-0.00013 -0.00072,-0.00013l-0.0013 -0.00003c-0.0004,0 -0.00074,0.00004 -0.00102,0.00011 -0.00028,0.00008 -0.00042,0.00026 -0.00042,0.00057 0,0.00029 0.00011,0.00049 0.00033,0.00058 0.00022,0.00009 0.0005,0.00014 0.00085,0.00014l0.00038 0zm0.00558 0.00134l0 -0.00911 0.00226 0 0 0.00911 -0.00226 0z"/>
 </g>
</svg>
