<?xml version="1.0" encoding="UTF-8"?>
<!DOCTYPE svg PUBLIC "-//W3C//DTD SVG 1.1//EN" "http://www.w3.org/Graphics/SVG/1.1/DTD/svg11.dtd">
<!-- Creator: CorelDRAW 2020 (64-Bit) -->
<svg xmlns="http://www.w3.org/2000/svg" xml:space="preserve" width="0.638047in" height="0.116669in" version="1.1" style="shape-rendering:geometricPrecision; text-rendering:geometricPrecision; image-rendering:optimizeQuality; fill-rule:evenodd; clip-rule:evenodd"
viewBox="0 0 0.07639 0.01397"
 xmlns:xlink="http://www.w3.org/1999/xlink"
 xmlns:xodm="http://www.corel.com/coreldraw/odm/2003">
 <defs>
  <style type="text/css">
   <![CDATA[
    .fil0 {fill:#AAAAAA}
   ]]>
  </style>
 </defs>
 <g id="Layer_x0020_1">
  <metadata id="CorelCorpID_0Corel-Layer"/>
  <path class="fil0" d="M0.07222 0.00404c0.00153,0 0.00277,0.00124 0.00277,0.00278 0,0.00153 -0.00124,0.00278 -0.00277,0.00278 -0.00153,0 -0.00277,-0.00124 -0.00277,-0.00278 0,-0.00153 0.00124,-0.00278 0.00277,-0.00278zm-0.06806 -0c0.00154,0 0.00278,0.00124 0.00278,0.00278 0,0.00153 -0.00125,0.00278 -0.00278,0.00278 -0.00154,0 -0.00278,-0.00124 -0.00278,-0.00278 0,-0.00153 0.00125,-0.00278 0.00278,-0.00278zm0.00361 0.0007c-0.00072,-0.00125 -0.00207,-0.00209 -0.00361,-0.00209 -0.0023,0 -0.00416,0.00186 -0.00416,0.00416 0,0.0023 0.00186,0.00416 0.00416,0.00416 0.00107,0 0.00205,-0.0004 0.00278,-0.00107l-0 0.00001 0.00139 0.00106 0 -0.00119c-0.00064,-0.00082 -0.00103,-0.00185 -0.00103,-0.00297 0,-0.00074 0.00017,-0.00144 0.00047,-0.00207zm0.00434 -0.0007c0.00154,0 0.00278,0.00124 0.00278,0.00278 0,0.00153 -0.00125,0.00278 -0.00278,0.00278 -0.00154,0 -0.00278,-0.00124 -0.00278,-0.00278 0,-0.00153 0.00125,-0.00278 0.00278,-0.00278zm0.00417 0.00278l-0.00001 0c0,-0.0023 -0.00186,-0.00416 -0.00416,-0.00416 -0.0023,0 -0.00416,0.00186 -0.00416,0.00416 0,0.0023 0.00186,0.00416 0.00416,0.00416 0.00107,0 0.00205,-0.0004 0.00278,-0.00107l-0 0.00001 0.00138 0.00106 0 -0.00416zm0.05594 -0.00416c0.0023,0 0.00416,0.00186 0.00416,0.00416 0,0.0023 -0.00186,0.00416 -0.00416,0.00416 -0.0023,0 -0.00416,-0.00186 -0.00416,-0.00416 0,-0.0023 0.00186,-0.00416 0.00416,-0.00416zm-0.00515 0.00058l0 -0.00217 -0.00138 0 0 0.00111 0.00138 0.00106zm0 0.00096l0 0.00678 -0.00138 0 0 -0.00784 0.00138 0.00106zm-0.00376 0.00045c-0.00172,-0.00136 -0.00431,-0.0003 -0.00451,0.00192 -0.00022,0.00242 0.00259,0.00394 0.00451,0.00242l0 -0.00434zm0.00052 0.00567c-0.00149,0.00096 -0.00334,0.00087 -0.0048,-0.0002l0 -0c-0.00214,-0.00164 -0.00217,-0.00485 -0.00008,-0.00653l-0 -0c0.00132,-0.00097 0.00288,-0.00123 0.00437,-0.00055l0 -0.00303 0.00138 0 0 0.01097 -0.00087 -0.00066zm-0.0071 -0.00766c0,0.00277 0,0.00554 0,0.00832l-0.00113 -0.00086c-0.0006,0.00053 -0.00138,0.00086 -0.00224,0.00086l0 0c-0.00185,0 -0.00337,-0.00152 -0.00337,-0.00337l0 -0.00495 0.00138 0 0 0.00495c0,0.00109 0.0009,0.00199 0.00199,0.00199 0.00109,0 0.00199,-0.0009 0.00199,-0.00199l0 -0.00495 0.00138 0zm-0.01187 0.00589c0,-0.00366 0,-0.00489 0,-0.00855l0.00139 0.00106 0 0.00159 0.00196 0 0 0.00139 -0.00196 0 0 0.00451c0,0.00057 0.00047,0.00104 0.00104,0.00104l0.00202 0 0 0.00138 -0.00202 0c-0.00133,0 -0.00243,-0.00109 -0.00243,-0.00243l0 0zm-0.00493 -0.00589l0.00423 0 0 0.00139 -0.00423 0c-0.00057,0 -0.00104,0.00047 -0.00104,0.00104 0,0.00057 0.00047,0.00104 0.00104,0.00104 0.00081,0 0.001,0 0.00181,0 0.00133,0 0.00243,0.00109 0.00243,0.00243l0 0c0,0.00133 -0.00109,0.00243 -0.00243,0.00243l-0.00242 0 -0.00181 -0.00139 0.00423 0c0.00057,0 0.00104,-0.00047 0.00104,-0.00104 0,-0.00057 -0.00047,-0.00104 -0.00104,-0.00104 -0.00081,0 -0.001,0 -0.00181,0 -0.00133,0 -0.00243,-0.00109 -0.00243,-0.00243l0 -0c0,-0.00133 0.00109,-0.00243 0.00243,-0.00243zm-0.01204 0.00746l0 0 -0.00007 0.00005c-0.00147,0.00108 -0.00347,0.00108 -0.00494,0l-0.00007 -0.00005 0 -0c-0.00214,-0.00164 -0.00217,-0.00485 -0.00008,-0.00653l-0 -0 0.00016 -0.00012c0.00147,-0.00108 0.00347,-0.00108 0.00494,0l0.00016 0.00012 -0 0c0.00016,0.00013 0.0003,0.00026 0.00044,0.00041l0.00006 0.00007 -0.0011 0.00084 -0.0001 -0.00009c-0.00021,-0.0002 -0.00045,-0.00037 -0.00072,-0.00049 -0.00076,-0.00037 -0.00166,-0.00037 -0.00242,0 -0.00089,0.00043 -0.00147,0.00127 -0.00156,0.00225 -0.00009,0.00096 0.00031,0.00187 0.00108,0.00245 0.00103,0.00079 0.00247,0.00076 0.00347,-0.00007 0.00005,-0.00004 0.0001,-0.00008 0.00015,-0.00013l0.0001 -0.00009 0.0011 0.00084 -0.00006 0.00007c-0.00016,0.00017 -0.00033,0.00033 -0.00052,0.00047zm-0.00953 -0.0064c0.00073,-0.00065 0.00166,-0.00103 0.00264,-0.00106l0.00018 -0.00001 0 0.00138 -0.00017 0.00001c-0.00148,0.00007 -0.00265,0.00129 -0.00265,0.00277l0 0.00416 -0.00138 0 0 -0.00832 0.00138 0.00106zm0.01219 0.00726l-0.00139 0 0 -0.01097 0.00139 0.00106 0 0.00195c0.00045,-0.00023 0.00096,-0.00035 0.0015,-0.00035l0 0c0.00185,0 0.00337,0.00152 0.00337,0.00337l0 0.00495 -0.00138 0 0 -0.00495c0,-0.00109 -0.0009,-0.00199 -0.00199,-0.00199 -0.00059,0 -0.00113,0.00027 -0.0015,0.00069l0 0.00625zm-0.00765 0.00257l-0.00017 0.00038 -0.0003 0 0.00074 -0.00167 0.0003 0 0.00074 0.00167 -0.0003 0 -0.00017 -0.00038 -0.00084 0zm0.00072 -0.00026l-0.0003 -0.00069 -0.0003 0.00069 0.00061 0zm0.00215 -0.00049c0,0.00028 -0.00012,0.00045 -0.00036,0.00052l0.00044 0.00061 -0.00036 0 -0.0004 -0.00056 -0.00037 0 0 0.00056 -0.00028 0 0 -0.00167 0.00062 0c0.00026,0 0.00044,0.00004 0.00055,0.00013 0.00011,0.00009 0.00017,0.00022 0.00017,0.00041zm-0.0007 0.00031c0.00016,0 0.00027,-0.00002 0.00033,-0.00007 0.00006,-0.00005 0.00009,-0.00013 0.00009,-0.00024 0,-0.00011 -0.00003,-0.00018 -0.00009,-0.00023 -0.00006,-0.00004 -0.00016,-0.00006 -0.00032,-0.00006l-0.00036 0 0 0.0006 0.00035 0zm0.00187 0.00056c0.0001,0 0.00018,-0.00002 0.00025,-0.00005 0.00007,-0.00003 0.00014,-0.00009 0.00022,-0.00016l0.00018 0.00019c-0.00018,0.0002 -0.00039,0.0003 -0.00065,0.0003 -0.00025,0 -0.00046,-0.00008 -0.00063,-0.00024 -0.00017,-0.00016 -0.00025,-0.00037 -0.00025,-0.00062 0,-0.00025 0.00008,-0.00046 0.00025,-0.00062 0.00017,-0.00017 0.00039,-0.00025 0.00064,-0.00025 0.00026,0 0.00048,0.0001 0.00065,0.00029l-0.00018 0.0002c-0.00008,-0.00008 -0.00016,-0.00013 -0.00023,-0.00016 -0.00007,-0.00003 -0.00015,-0.00005 -0.00025,-0.00005 -0.00017,0 -0.00031,0.00005 -0.00043,0.00016 -0.00012,0.00011 -0.00017,0.00025 -0.00017,0.00042 0,0.00017 0.00006,0.00031 0.00017,0.00043 0.00011,0.00011 0.00025,0.00017 0.00041,0.00017zm0.001 0.00026l0 -0.00167 0.00028 0 0 0.00073 0.00083 0 0 -0.00073 0.00028 0 0 0.00167 -0.00028 0 0 -0.00069 -0.00083 0 0 0.00069 -0.00028 0zm0.00186 -0.00167l0.00028 0 0 0.00167 -0.00028 0 0 -0.00167zm0.00138 0.00026l0 0.00142 -0.00028 0 0 -0.00142 -0.00051 0 0 -0.00026 0.0013 0 0 0.00026 -0.00051 0zm0.00199 -0.00026l0 0.00027 -0.00089 0 0 0.00044 0.0008 0 0 0.00025 -0.0008 0 0 0.00045 0.00092 0 0 0.00027 -0.00121 0 0 -0.00167 0.00118 0zm0.00116 0.00142c0.0001,0 0.00018,-0.00002 0.00025,-0.00005 0.00007,-0.00003 0.00014,-0.00009 0.00022,-0.00016l0.00018 0.00019c-0.00018,0.0002 -0.00039,0.0003 -0.00065,0.0003 -0.00025,0 -0.00046,-0.00008 -0.00063,-0.00024 -0.00017,-0.00016 -0.00025,-0.00037 -0.00025,-0.00062 0,-0.00025 0.00008,-0.00046 0.00025,-0.00062 0.00017,-0.00017 0.00039,-0.00025 0.00064,-0.00025 0.00026,0 0.00048,0.0001 0.00065,0.00029l-0.00018 0.0002c-0.00008,-0.00008 -0.00016,-0.00013 -0.00023,-0.00016 -0.00007,-0.00003 -0.00015,-0.00005 -0.00025,-0.00005 -0.00017,0 -0.00031,0.00005 -0.00043,0.00016 -0.00012,0.00011 -0.00017,0.00025 -0.00017,0.00042 0,0.00017 0.00006,0.00031 0.00017,0.00043 0.00011,0.00011 0.00025,0.00017 0.00041,0.00017zm0.00163 -0.00116l0 0.00142 -0.00028 0 0 -0.00142 -0.00051 0 0 -0.00026 0.0013 0 0 0.00026 -0.00051 0zm0.00119 0.00103c0.00008,0.00009 0.00018,0.00013 0.00031,0.00013 0.00013,0 0.00023,-0.00005 0.00031,-0.00013 0.00008,-0.00009 0.00012,-0.00021 0.00012,-0.00036l0 -0.00093 0.00028 0 0 0.00094c0,0.00024 -0.00007,0.00043 -0.0002,0.00056 -0.00013,0.00013 -0.0003,0.0002 -0.00051,0.0002 -0.00021,0 -0.00038,-0.00007 -0.00051,-0.0002 -0.00013,-0.00013 -0.0002,-0.00032 -0.0002,-0.00056l0 -0.00094 0.00028 0 0 0.00093c0,0.00015 0.00004,0.00027 0.00012,0.00036zm0.0028 -0.00075c0,0.00028 -0.00012,0.00045 -0.00036,0.00052l0.00044 0.00061 -0.00036 0 -0.0004 -0.00056 -0.00037 0 0 0.00056 -0.00028 0 0 -0.00167 0.00062 0c0.00026,0 0.00044,0.00004 0.00055,0.00013 0.00011,0.00009 0.00017,0.00022 0.00017,0.00041zm-0.0007 0.00031c0.00016,0 0.00027,-0.00002 0.00033,-0.00007 0.00006,-0.00005 0.00009,-0.00013 0.00009,-0.00024 0,-0.00011 -0.00003,-0.00018 -0.00009,-0.00023 -0.00006,-0.00004 -0.00016,-0.00006 -0.00032,-0.00006l-0.00036 0 0 0.0006 0.00035 0zm0.00229 -0.00086l0 0.00027 -0.00089 0 0 0.00044 0.0008 0 0 0.00025 -0.0008 0 0 0.00045 0.00092 0 0 0.00027 -0.00121 0 0 -0.00167 0.00118 0zm0.0015 0.00169c-0.00016,0 -0.00029,-0.00004 -0.0004,-0.00013 -0.00011,-0.00009 -0.00017,-0.00021 -0.00017,-0.00036 0,-0.00018 0.00013,-0.00034 0.00039,-0.00048 -0.00007,-0.00007 -0.00011,-0.00014 -0.00014,-0.00018 -0.00003,-0.00005 -0.00004,-0.00011 -0.00004,-0.00018 0,-0.00013 0.00005,-0.00023 0.00014,-0.00029 0.00009,-0.00007 0.00021,-0.0001 0.00033,-0.0001 0.00013,0 0.00024,0.00003 0.00033,0.0001 0.00009,0.00007 0.00013,0.00016 0.00013,0.00028 0,0.00016 -0.00013,0.00031 -0.00038,0.00045 0.00013,0.00016 0.00023,0.00028 0.00031,0.00036 0.00005,-0.00007 0.00009,-0.00016 0.00012,-0.00026l0.0002 0.00014c-0.00004,0.00011 -0.00009,0.00021 -0.00014,0.00029 0.00006,0.00007 0.00015,0.00014 0.00024,0.00024l-0.00018 0.00017 -0.00022 -0.00022c-0.00014,0.00013 -0.00032,0.00019 -0.00053,0.00019zm-0.0003 -0.00048c0,0.00007 0.00003,0.00013 0.00009,0.00018 0.00006,0.00005 0.00014,0.00007 0.00024,0.00007 0.0001,0 0.00021,-0.00005 0.00032,-0.00014 -0.00016,-0.00017 -0.00029,-0.00031 -0.00038,-0.00043 -0.00018,0.0001 -0.00027,0.0002 -0.00027,0.00032zm0.00042 -0.00104c-0.00005,0 -0.0001,0.00002 -0.00014,0.00005 -0.00004,0.00003 -0.00006,0.00007 -0.00006,0.00012 0,0.00005 0.00001,0.00009 0.00003,0.00012 0.00002,0.00004 0.00006,0.00009 0.00011,0.00015 0.00018,-0.00009 0.00027,-0.00017 0.00027,-0.00025 0,-0.00006 -0.00002,-0.00011 -0.00006,-0.00014 -0.00004,-0.00003 -0.00009,-0.00005 -0.00014,-0.00005zm0.00232 -0.00017c0.0003,0 0.00053,0.00007 0.00069,0.00022 0.00016,0.00015 0.00024,0.00035 0.00024,0.00061 0,0.00026 -0.00008,0.00047 -0.00023,0.00062 -0.00016,0.00015 -0.0004,0.00023 -0.00072,0.00023l-0.00056 0 0 -0.00167 0.00058 0zm0.00065 0.00084c0,-0.00038 -0.00022,-0.00058 -0.00066,-0.00058l-0.00028 0 0 0.00115 0.00031 0c0.0002,0 0.00036,-0.00005 0.00047,-0.00015 0.00011,-0.0001 0.00016,-0.00024 0.00016,-0.00043zm0.00183 -0.00084l0 0.00027 -0.00089 0 0 0.00044 0.0008 0 0 0.00025 -0.0008 0 0 0.00045 0.00092 0 0 0.00027 -0.00121 0 0 -0.00167 0.00118 0zm0.0009 0.00022c-0.00008,0 -0.00015,0.00002 -0.0002,0.00005 -0.00005,0.00003 -0.00008,0.00008 -0.00008,0.00015 0,0.00007 0.00003,0.00012 0.00008,0.00016 0.00005,0.00004 0.00016,0.00007 0.00034,0.00012 0.00017,0.00004 0.0003,0.0001 0.00039,0.00017 0.00009,0.00007 0.00013,0.00019 0.00013,0.00033 0,0.00015 -0.00006,0.00026 -0.00017,0.00036 -0.00011,0.00009 -0.00025,0.00014 -0.00043,0.00014 -0.00026,0 -0.00049,-0.00009 -0.0007,-0.00027l0.00018 -0.00021c0.00017,0.00015 0.00035,0.00022 0.00053,0.00022 0.00009,0 0.00016,-0.00002 0.00022,-0.00006 0.00005,-0.00004 0.00008,-0.00009 0.00008,-0.00016 0,-0.00006 -0.00002,-0.00012 -0.00008,-0.00015 -0.00005,-0.00004 -0.00014,-0.00007 -0.00026,-0.0001 -0.00012,-0.00003 -0.00022,-0.00006 -0.00028,-0.00008 -0.00006,-0.00002 -0.00012,-0.00006 -0.00017,-0.0001 -0.0001,-0.00007 -0.00015,-0.00019 -0.00015,-0.00035 0,-0.00016 0.00006,-0.00027 0.00017,-0.00036 0.00011,-0.00008 0.00025,-0.00013 0.00042,-0.00013 0.00011,0 0.00021,0.00002 0.00032,0.00005 0.00011,0.00003 0.0002,0.00008 0.00027,0.00015l-0.00015 0.00021c-0.00005,-0.00004 -0.00012,-0.00008 -0.0002,-0.00011 -0.00008,-0.00003 -0.00017,-0.00004 -0.00025,-0.00004zm0.001 -0.00022l0.00028 0 0 0.00167 -0.00028 0 0 -0.00167zm0.00191 0.00086l0.00028 0 0 0.00057c-0.00016,0.00017 -0.00038,0.00026 -0.00068,0.00026 -0.00025,0 -0.00045,-0.00008 -0.00062,-0.00024 -0.00017,-0.00016 -0.00025,-0.00037 -0.00025,-0.00062 0,-0.00025 0.00009,-0.00046 0.00026,-0.00062 0.00017,-0.00017 0.00038,-0.00025 0.00062,-0.00025 0.00024,0 0.00044,0.00007 0.0006,0.00021l-0.00015 0.00022c-0.00007,-0.00006 -0.00013,-0.00009 -0.0002,-0.00012 -0.00007,-0.00002 -0.00014,-0.00003 -0.00023,-0.00003 -0.00017,0 -0.00031,0.00005 -0.00043,0.00016 -0.00012,0.00011 -0.00017,0.00025 -0.00017,0.00043 0,0.00018 0.00006,0.00032 0.00017,0.00043 0.00011,0.00011 0.00025,0.00016 0.00041,0.00016 0.00016,0 0.00029,-0.00003 0.0004,-0.0001l0 -0.00046zm0.00191 -0.00086l0.00028 0 0 0.00167 -0.00031 0 -0.00095 -0.00122 0 0.00122 -0.00028 0 0 -0.00167 0.00028 0 0.00097 0.00125 0 -0.00125zm0.00147 0.00066l0.01506 0 -0.00027 0.00035 -0.01506 0 0.00027 -0.00035zm-0.0487 0l0.01506 0 -0.00027 0.00035 -0.01506 0 0.00027 -0.00035z"/>
 </g>
</svg>
