<?xml version="1.0" encoding="UTF-8"?>
<!DOCTYPE svg PUBLIC "-//W3C//DTD SVG 1.1//EN" "http://www.w3.org/Graphics/SVG/1.1/DTD/svg11.dtd">
<!-- Creator: CorelDRAW 2020 (64-Bit) -->
<svg xmlns="http://www.w3.org/2000/svg" xml:space="preserve" width="1.02083in" height="0.116661in" version="1.1" style="shape-rendering:geometricPrecision; text-rendering:geometricPrecision; image-rendering:optimizeQuality; fill-rule:evenodd; clip-rule:evenodd"
viewBox="0 0 0.04559 0.00521"
 xmlns:xlink="http://www.w3.org/1999/xlink"
 xmlns:xodm="http://www.corel.com/coreldraw/odm/2003">
 <defs>
  <style type="text/css">
   <![CDATA[
    .fil0 {fill:#AAAAAA}
   ]]>
  </style>
 </defs>
 <g id="Layer_x0020_1">
  <metadata id="CorelCorpID_0Corel-Layer"/>
  <path class="fil0" d="M0.02441 0.00351l-0.00095 0 0.00047 -0.0014 0.00048 0.0014zm0.00161 0.0017l-0.00161 -0.0043 -0.0009 0 -0.00163 0.0043c0.00034,0 0.00067,0 0.00101,0l0.00033 -0.00094 0.00145 0 0.00032 0.00094c0.00035,0 0.0007,0 0.00104,0zm-0.01009 -0.00296c0,0.0003 -0.00018,0.00048 -0.00049,0.00048l-0.00082 0 0 -0.00095 0.00082 0c0.00031,0 0.00049,0.00017 0.00049,0.00048zm-0.0013 0.00132l0.00024 0c0.00034,0 0.00045,0.00008 0.00058,0.00034l0.00063 0.0013c0.00037,0 0.00074,0 0.00111,0l-0.00083 -0.00157c-0.00004,-0.00007 -0.00008,-0.00014 -0.00012,-0.0002 0.00043,-0.0002 0.00068,-0.00061 0.00068,-0.00119 0,-0.00084 -0.00053,-0.00134 -0.00139,-0.00134 -0.00062,0 -0.00124,0 -0.00186,0 0,0.00137 0,0.00292 0,0.0043 0.00032,0 0.00064,0 0.00096,0 0,-0.00049 -0,-0.00115 -0,-0.00164zm-0.00226 -0.00112l0 0.00121c0,0.00045 -0.00028,0.00068 -0.00078,0.00068 -0.00049,0 -0.00078,-0.00023 -0.00078,-0.00068l0 -0.00121c0,-0.00045 0.00028,-0.00068 0.00078,-0.00068 0.0005,0 0.00078,0.00023 0.00078,0.00068zm-0.00252 0.00002l0 0.00117c0,0.00096 0.00062,0.00156 0.00173,0.00156 0.00112,0 0.00174,-0.0006 0.00174,-0.00156l0 -0.00117c0,-0.00096 -0.00062,-0.00156 -0.00174,-0.00156 -0.00111,0 -0.00173,0.0006 -0.00173,0.00156zm0.01076 0.00018l-0.001 0.0018 -0.00027 0 -0.00101 -0.00183c0,0.00085 0,0.00173 0,0.00258 -0.0003,0 -0.00059,0 -0.00089,0l0 -0.0043 0.00086 0 0.00117 0.00214 0.00118 -0.00214c0.00029,0 0.00058,0 0.00087,0l0 0.0043c-0.00031,0 -0.00061,0 -0.00092,0 0,-0.00084 0,-0.00171 0,-0.00256zm-0.01393 -0.00174l0 0.00039 0 0.00007 0 0.00338 0 0.00007 0 0.00039c0.00032,0 0.00064,0 0.00096,0 0,-0.00052 0,-0.00122 0,-0.00175 0.00053,0 0.00106,0 0.00159,0l0 -0.00086c-0.00053,0 -0.00106,0 -0.00159,0l0 -0.00083 0.00187 0 0 -0.00086 -0.00282 0zm0.03171 0.0013c0,0.00107 0.00092,0.00119 0.00163,0.00127 0.00043,0.00005 0.00079,0.00013 0.00079,0.00042 0,0.00033 -0.00028,0.00046 -0.00078,0.00046 -0.00038,0 -0.00064,-0.00015 -0.00076,-0.0004l-0.00009 -0.00022 -0.00088 0.00031 0.00008 0.00022c0.00023,0.00061 0.00073,0.00094 0.00165,0.00094 0.00108,0 0.00174,-0.00053 0.00174,-0.00133 0,-0.00102 -0.00083,-0.0012 -0.00152,-0.00128 -0.00048,-0.00005 -0.00088,-0.00012 -0.00088,-0.00043 0,-0.00028 0.00021,-0.0004 0.00069,-0.0004 0.00037,0 0.00057,0.00014 0.00069,0.00038l0.00011 0.00021 0.00088 -0.00039 -0.00011 -0.00021c-0.00027,-0.00057 -0.00072,-0.00085 -0.00157,-0.00085 -0.0011,0 -0.00167,0.00055 -0.00167,0.0013zm-0.00738 -0.0013l0 0.0043c0.0009,0 0.00181,0 0.00271,0l0 -0.00087 -0.00175 0 0 -0.00343c-0.00032,0 -0.00064,0 -0.00096,0zm-0.00043 0.00188c-0.00063,0 -0.00127,0 -0.0019,0 0,0.00028 0,0.00056 0,0.00084 0.00032,0 0.00063,0 0.00095,0l0 0.00021c0,0.00029 -0.00029,0.00051 -0.00079,0.00051 -0.00051,0 -0.00077,-0.00023 -0.00077,-0.00069l0 -0.00119c0,-0.00046 0.00026,-0.00069 0.00077,-0.00069 0.00055,0 0.0007,0.00024 0.00083,0.00065l0.00089 -0.00031c-0.00028,-0.00087 -0.00077,-0.0012 -0.00172,-0.0012 -0.00111,0 -0.00173,0.0006 -0.00173,0.00156l0 0.00117c0,0.00096 0.00062,0.00156 0.00173,0.00156 0.00112,0 0.00174,-0.0006 0.00174,-0.00138l0 -0.00103zm0.01163 -0.00058c0,0.00107 0.00092,0.00119 0.00163,0.00127 0.00043,0.00005 0.00079,0.00013 0.00079,0.00042 0,0.00033 -0.00028,0.00046 -0.00078,0.00046 -0.00038,0 -0.00064,-0.00015 -0.00076,-0.0004l-0.00009 -0.00022 -0.00088 0.00031 0.00008 0.00022c0.00023,0.00061 0.00073,0.00094 0.00165,0.00094 0.00108,0 0.00174,-0.00053 0.00174,-0.00133 0,-0.00102 -0.00083,-0.0012 -0.00152,-0.00128 -0.00048,-0.00005 -0.00088,-0.00012 -0.00088,-0.00043 0,-0.00028 0.00021,-0.0004 0.00069,-0.0004 0.00037,0 0.00057,0.00014 0.00069,0.00038l0.00011 0.00021 0.00088 -0.00039 -0.00011 -0.00021c-0.00027,-0.00057 -0.00072,-0.00085 -0.00157,-0.00085 -0.0011,0 -0.00167,0.00055 -0.00167,0.0013zm-0.00551 0.0013l-0.00095 0 0.00047 -0.0014 0.00048 0.0014zm0.00161 0.0017l-0.00161 -0.0043 -0.0009 0 -0.00163 0.0043c0.00034,0 0.00067,0 0.00101,0l0.00033 -0.00094 0.00145 0 0.00032 0.00094c0.00035,0 0.0007,0 0.00104,0zm-0.03293 -0.00181l0 0.00181 -0.00357 0 0 -0.00181 0.00357 0zm-0.00357 -0.00163l0.00357 0 0 0.00123 -0.00357 0 0 -0.00123zm-0.00182 -0.00177l0.00538 0 0 0.00115 -0.0042 0 0 0.00406 -0.00119 0 0 -0.00521z"/>
 </g>
</svg>
