<?xml version="1.0" encoding="UTF-8"?>
<!DOCTYPE svg PUBLIC "-//W3C//DTD SVG 1.1//EN" "http://www.w3.org/Graphics/SVG/1.1/DTD/svg11.dtd">
<!-- Creator: CorelDRAW 2020 (64-Bit) -->
<svg xmlns="http://www.w3.org/2000/svg" xml:space="preserve" width="0.305665in" height="0.116661in" version="1.1" style="shape-rendering:geometricPrecision; text-rendering:geometricPrecision; image-rendering:optimizeQuality; fill-rule:evenodd; clip-rule:evenodd"
viewBox="0 0 0.01172 0.00447"
 xmlns:xlink="http://www.w3.org/1999/xlink"
 xmlns:xodm="http://www.corel.com/coreldraw/odm/2003">
 <defs>
  <style type="text/css">
   <![CDATA[
    .fil0 {fill:#AAAAAA}
   ]]>
  </style>
 </defs>
 <g id="Layer_x0020_1">
  <metadata id="CorelCorpID_0Corel-Layer"/>
  <path class="fil0" d="M0.0035 0.00365c0,-0.0009 0,-0.00179 0,-0.00269 0.00056,0 0.00113,0 0.00169,0 0.00007,0 0.00014,0.00003 0.00019,0.00008 0.00005,0.00005 0.00008,0.00011 0.00008,0.00018l0 0.0002c-0.00047,0 -0.00094,0 -0.00141,0l0 0.00058 0.00105 0 0 0.00046c-0.00035,0 -0.0007,0 -0.00105,0l0 0.00069c0.00038,0 0.00076,0 0.00114,0 0.00007,0 0.00014,0.00003 0.00019,0.00008 0.00005,0.00005 0.00008,0.00011 0.00008,0.00018 0,0.00008 0,0.00016 0,0.00024l-0.00196 0zm0.00278 -0.00208l0 0 0 0.00077 0.00066 -0.00077 0.00066 0 -0.00074 0.0008 0.00075 0.00128 -0.00066 0 -0.00038 -0.0007c-0.00008,-0.00014 -0.00015,-0.0002 -0.0002,-0.00018 -0.00006,0.00002 -0.00009,0.00005 -0.00009,0.00009l0 0.00029 0 0.0005 -0.00055 0 0 -0.00269 0.00028 0c0.00007,0 0.00014,0.00003 0.00019,0.00008 0.00005,0.00005 0.00008,0.00011 0.00008,0.00018l0 0.00035zm0.00215 0.00018l0 0.0019 -0.00055 0 0 -0.0019c0.00008,0.00005 0.00017,0.00008 0.00027,0.00008 0.0001,0 0.00019,-0.00003 0.00027,-0.00008zm0.00266 0.00041c-0.00008,-0.00011 -0.00018,-0.00016 -0.00032,-0.00016 -0.00015,0 -0.00026,0.00005 -0.00034,0.00016 -0.00008,0.0001 -0.00012,0.00025 -0.00012,0.00043l0 0.00107 -0.00053 0 0 -0.00269 0.00027 0c0.00007,0 0.00014,0.00003 0.00019,0.00008 0.00005,0.00005 0.00008,0.00011 0.00008,0.00019l0 0.00062c0.00009,-0.00016 0.00023,-0.00026 0.0004,-0.0003 0.00017,-0.00004 0.00034,-0.00003 0.00049,0.00003 0.00015,0.00006 0.00027,0.00016 0.00037,0.0003 0.0001,0.00014 0.00015,0.00032 0.00015,0.00056l0 0.00121 -0.00052 0 0 -0.00108c0,-0.00008 -0.00001,-0.00015 -0.00002,-0.00021 -0.00001,-0.00007 -0.00004,-0.00013 -0.00009,-0.0002zm-0.00294 -0.0012c0.00019,0 0.00034,0.00015 0.00034,0.00034 0,0.00019 -0.00015,0.00034 -0.00034,0.00034 -0.00019,0 -0.00034,-0.00015 -0.00034,-0.00034 0,-0.00019 0.00015,-0.00034 0.00034,-0.00034zm0.00136 0.00143l-0.00081 0 0 0.00044 0.00081 0 0 -0.00044zm-0.00338 0.00178c0.00006,0 0.00009,-0.00002 0.00009,-0.00007 0,-0.00003 -0.00001,-0.00004 -0.00002,-0.00006 -0.00002,-0.00001 -0.00004,-0.00002 -0.00007,-0.00002l-0.0003 0 0 0.00015 0.0003 0zm0.00009 0.00028l-0.00014 -0.00019 -0.00026 0 0 0.00019 -0.0001 0 0 -0.00052 0.00042 0c0.00003,0 0.00005,0 0.00008,0.00001 0.00002,0.00001 0.00004,0.00002 0.00006,0.00003 0.00002,0.00001 0.00003,0.00003 0.00004,0.00005 0.00001,0.00002 0.00001,0.00004 0.00001,0.00007 0,0.00004 -0.00001,0.00008 -0.00003,0.0001 -0.00002,0.00003 -0.00005,0.00005 -0.0001,0.00005l0.00014 0.0002 -0.00012 0zm0.00026 0l0 -0.00052 0.00054 0 0 0.00009 -0.00044 0 0 0.00011 0.00031 0 0 0.00009 -0.00031 0 0 0.00013 0.00046 0 0 0.00009 -0.00056 0zm0.00115 -0.00039c-0.00004,-0.00002 -0.00007,-0.00003 -0.00011,-0.00004 -0.00004,-0.00001 -0.00007,-0.00001 -0.00011,-0.00001 -0.00012,0 -0.00017,0.00002 -0.00017,0.00006 0,0.00001 0.00001,0.00002 0.00002,0.00003 0.00001,0.00001 0.00003,0.00001 0.00005,0.00002 0.00002,0 0.00005,0.00001 0.00008,0.00001 0.00003,0 0.00006,0 0.0001,0.00001 0.00004,0 0.00008,0.00001 0.00011,0.00002 0.00003,0.00001 0.00006,0.00002 0.00008,0.00003 0.00002,0.00001 0.00004,0.00003 0.00004,0.00005 0.00001,0.00002 0.00001,0.00004 0.00001,0.00007 0,0.00006 -0.00002,0.0001 -0.00007,0.00013 -0.00005,0.00003 -0.00012,0.00005 -0.00022,0.00005 -0.00013,0 -0.00024,-0.00003 -0.00032,-0.00009l0.00006 -0.00007c0.00004,0.00002 0.00008,0.00004 0.00012,0.00006 0.00004,0.00001 0.00009,0.00002 0.00015,0.00002 0.00006,0 0.00011,-0.00001 0.00014,-0.00002 0.00003,-0.00001 0.00005,-0.00003 0.00005,-0.00006 0,-0.00003 -0.00002,-0.00005 -0.00006,-0.00006 -0.00003,-0.00001 -0.00006,-0.00001 -0.0001,-0.00001 -0.00004,-0 -0.00008,-0 -0.00013,-0.00001 -0.00006,-0.00001 -0.00011,-0.00002 -0.00014,-0.00004 -0.00003,-0.00002 -0.00005,-0.00005 -0.00005,-0.00009 0,-0.00005 0.00002,-0.00009 0.00007,-0.00012 0.00005,-0.00003 0.00012,-0.00004 0.00021,-0.00004 0.00012,0 0.00021,0.00003 0.00029,0.00008l-0.00006 0.00007zm0.00022 0.00039l0 -0.00052 0.0001 0 0 0.00052 -0.0001 0zm0.00064 -0.00009c0.00002,0 0.00005,-0 0.00007,-0.00001 0.00002,-0.00001 0.00004,-0.00002 0.00005,-0.00003 0.00002,-0.00001 0.00003,-0.00003 0.00004,-0.00005 0.00001,-0.00002 0.00001,-0.00004 0.00001,-0.00007 0,-0.00003 -0,-0.00005 -0.00001,-0.00007 -0.00001,-0.00002 -0.00002,-0.00004 -0.00004,-0.00005 -0.00002,-0.00002 -0.00004,-0.00003 -0.00006,-0.00003 -0.00002,-0.00001 -0.00005,-0.00001 -0.00008,-0.00001l-0.00024 0 0 0.00034 0.00026 0zm-0.00002 -0.00043c0.00005,0 0.00009,0.00001 0.00013,0.00002 0.00004,0.00001 0.00007,0.00003 0.0001,0.00005 0.00003,0.00002 0.00005,0.00005 0.00006,0.00008 0.00001,0.00003 0.00002,0.00007 0.00002,0.0001 0,0.00002 -0,0.00004 -0.00001,0.00006 -0,0.00002 -0.00001,0.00003 -0.00002,0.00005 -0.00001,0.00002 -0.00002,0.00003 -0.00003,0.00005 -0.00001,0.00001 -0.00002,0.00003 -0.00004,0.00005 -0.00001,0.00001 -0.00002,0.00002 -0.00003,0.00002 -0.00001,0.00001 -0.00003,0.00002 -0.00005,0.00002 -0.00002,0.00001 -0.00004,0.00001 -0.00006,0.00002 -0.00002,0 -0.00004,0.00001 -0.00006,0.00001l-0.00035 0 0 -0.00052 0.00034 0zm0.00044 0.00052l0 -0.00052 0.00054 0 0 0.00009 -0.00044 0 0 0.00011 0.00031 0 0 0.00009 -0.00031 0 0 0.00013 0.00046 0 0 0.00009 -0.00056 0zm0.00115 0l-0.00035 -0.00044 0 0.00044 -0.0001 0 0 -0.00052 0.00015 0 0.00035 0.00044 0 -0.00044 0.0001 0 0 0.00052 -0.00015 0zm0.00086 -0.00036c-0.00003,-0.00003 -0.00006,-0.00005 -0.00009,-0.00006 -0.00003,-0.00001 -0.00008,-0.00002 -0.00012,-0.00002 -0.00004,0 -0.00007,0 -0.0001,0.00001 -0.00003,0.00001 -0.00006,0.00002 -0.00008,0.00004 -0.00002,0.00002 -0.00004,0.00004 -0.00005,0.00006 -0.00001,0.00002 -0.00002,0.00005 -0.00002,0.00007 0,0.00003 0.00001,0.00005 0.00002,0.00008 0.00001,0.00002 0.00003,0.00004 0.00005,0.00006 0.00002,0.00002 0.00005,0.00003 0.00008,0.00004 0.00003,0.00001 0.00006,0.00001 0.0001,0.00001 0.00004,0 0.00008,-0.00001 0.00012,-0.00002 0.00003,-0.00001 0.00007,-0.00004 0.00009,-0.00007l0.00009 0.00005c-0.00004,0.00005 -0.00009,0.00008 -0.00013,0.0001 -0.00005,0.00002 -0.0001,0.00003 -0.00017,0.00003 -0.00005,0 -0.0001,-0.00001 -0.00014,-0.00002 -0.00004,-0.00001 -0.00008,-0.00003 -0.00011,-0.00006 -0.00003,-0.00002 -0.00005,-0.00005 -0.00007,-0.00009 -0.00002,-0.00003 -0.00003,-0.00007 -0.00003,-0.00011 0,-0.00008 0.00004,-0.00015 0.00011,-0.00021 0.00003,-0.00002 0.00006,-0.00004 0.0001,-0.00005 0.00004,-0.00001 0.00008,-0.00002 0.00013,-0.00002 0.00007,0 0.00012,0.00001 0.00018,0.00003 0.00005,0.00002 0.0001,0.00006 0.00014,0.00011l-0.00009 0.00003zm0.00024 0.00036l0 -0.00052 0.00054 0 0 0.00009 -0.00044 0 0 0.00011 0.00031 0 0 0.00009 -0.00031 0 0 0.00013 0.00046 0 0 0.00009 -0.00056 0zm-0.00822 -0.00446l-0.00294 0.00166 0 0.00096 0.00294 -0.00166 0 -0.00096zm0 0.00143l-0.00294 0.00166 0 0.00044 0.00046 0.00026 0.00248 -0.0014 0 -0.00096zm0 0.00135l-0.00213 0.0012 0.00085 0.00048 0.00128 -0.00072 0 -0.00096z"/>
 </g>
</svg>
