<?xml version="1.0" encoding="UTF-8"?>
<!DOCTYPE svg PUBLIC "-//W3C//DTD SVG 1.1//EN" "http://www.w3.org/Graphics/SVG/1.1/DTD/svg11.dtd">
<!-- Creator: CorelDRAW 2020 (64-Bit) -->
<svg xmlns="http://www.w3.org/2000/svg" xml:space="preserve" width="0.688606in" height="0.116665in" version="1.1" style="shape-rendering:geometricPrecision; text-rendering:geometricPrecision; image-rendering:optimizeQuality; fill-rule:evenodd; clip-rule:evenodd"
viewBox="0 0 0.1347 0.02282"
 xmlns:xlink="http://www.w3.org/1999/xlink"
 xmlns:xodm="http://www.corel.com/coreldraw/odm/2003">
 <defs>
  <style type="text/css">
   <![CDATA[
    .fil0 {fill:#AAAAAA}
   ]]>
  </style>
 </defs>
 <g id="Layer_x0020_1">
  <metadata id="CorelCorpID_0Corel-Layer"/>
  <path class="fil0" d="M0.13187 0.01365c0,0.00206 -0.00069,0.00323 -0.00227,0.00323 -0.00162,0 -0.00283,-0.00153 -0.00283,-0.00389 0,-0.00183 0.00092,-0.00321 0.00235,-0.00321 0.00151,0 0.00275,0.00103 0.00275,0.00386zm0.00284 0.00013l0 -0.00798c0,-0.00113 -0.00059,-0.00191 -0.00193,-0.00191l-0.00086 0 0 0.00531c-0.00044,-0.00099 -0.00168,-0.00179 -0.00281,-0.00179 -0.0033,0 -0.0051,0.00242 -0.0051,0.00613 0,0.00311 0.00229,0.00571 0.00527,0.00571 0.00389,0 0.00544,-0.00218 0.00544,-0.00548zm-0.01579 -0.00013c0,0.00206 -0.00069,0.00323 -0.00227,0.00323 -0.00162,0 -0.00284,-0.00153 -0.00284,-0.00389 0,-0.00183 0.00092,-0.00321 0.00235,-0.00321 0.00151,0 0.00275,0.00103 0.00275,0.00386zm0.00284 0.00013l0 -0.00798c0,-0.00113 -0.00059,-0.00191 -0.00193,-0.00191l-0.00086 0 0 0.00531c-0.00044,-0.00099 -0.00168,-0.00179 -0.00281,-0.00179 -0.0033,0 -0.0051,0.00242 -0.0051,0.00613 0,0.00311 0.00229,0.00571 0.00527,0.00571 0.00389,0 0.00544,-0.00218 0.00544,-0.00548zm-0.01334 -0.00141c0.00094,-0.00229 0.00197,-0.00571 0.00197,-0.00651 0,-0.0008 -0.00055,-0.00124 -0.00124,-0.00124l-0.0016 0c-0.00055,0.00363 -0.00168,0.00716 -0.00321,0.01048 -0.0017,-0.00361 -0.00244,-0.00626 -0.0029,-0.00891 -0.00015,-0.00086 -0.00076,-0.00157 -0.00183,-0.00157l-0.00166 0c0.00065,0.00458 0.00254,0.00964 0.00481,0.01334 0.0005,0.00082 0.00122,0.00116 0.00208,0.00116l0.00025 0c0.00145,-0.00229 0.00246,-0.00464 0.00332,-0.00674zm-0.01642 0.00504l0 -0.00061 -0.00053 0c-0.00124,0 -0.00172,-0.00036 -0.00172,-0.00149l0 -0.00529c0,-0.00143 -0.00076,-0.0021 -0.00202,-0.0021l-0.0008 0c0,0 0,0.00701 0,0.00767 0,0.00229 0.0012,0.00353 0.00338,0.00353 0.0012,0 0.00168,-0.00048 0.00168,-0.0017zm-0.00202 -0.0122c0,-0.0009 -0.00076,-0.00164 -0.00166,-0.00164 -0.0009,0 -0.00164,0.00074 -0.00164,0.00164 0,0.0009 0.00073,0.00166 0.00164,0.00166 0.0009,0 0.00166,-0.00076 0.00166,-0.00166zm-0.00528 0.0138l0 -0.00681c0,-0.00321 -0.0021,-0.00479 -0.0047,-0.00479 -0.00136,0 -0.0026,0.00071 -0.00326,0.00176 -0.00082,-0.00109 -0.00197,-0.00176 -0.00344,-0.00176 -0.00342,0 -0.00504,0.00206 -0.00504,0.00515l0 0.00439c0,0.0013 0.00088,0.00206 0.00204,0.00206l0.00076 0 0 -0.00668c0,-0.00155 0.00082,-0.00242 0.00191,-0.00242 0.00124,0 0.0021,0.0008 0.0021,0.00267l0 0.00437c0,0.00134 0.00082,0.00206 0.00206,0.00206l0.00076 0 0 -0.00674c0,-0.00155 0.00078,-0.00235 0.00191,-0.00235 0.00124,0 0.00208,0.0008 0.00208,0.00267l0 0.00437c0,0.00134 0.00061,0.00206 0.00214,0.00206l0.00069 0zm-0.01868 -0.0016l0 -0.00061 -0.00053 0c-0.00124,0 -0.00172,-0.00036 -0.00172,-0.00149l0 -0.00529c0,-0.00143 -0.00076,-0.0021 -0.00202,-0.0021l-0.0008 0c0,0 0,0.00701 0,0.00767 0,0.00229 0.0012,0.00353 0.00338,0.00353 0.0012,0 0.00168,-0.00048 0.00168,-0.0017zm-0.00202 -0.0122c0,-0.0009 -0.00076,-0.00164 -0.00166,-0.00164 -0.0009,0 -0.00164,0.00074 -0.00164,0.00164 0,0.0009 0.00074,0.00166 0.00164,0.00166 0.0009,0 0.00166,-0.00076 0.00166,-0.00166zm-0.00528 0.00521l0 -0.00101c0,-0.00086 -0.00061,-0.00185 -0.00235,-0.00185 -0.00298,0 -0.00418,0.00216 -0.00418,0.00443l0 0.00521c0,0.00118 0.0008,0.00181 0.00206,0.00181l0.00078 0 0 -0.00651c0,-0.00172 0.00069,-0.00242 0.00195,-0.00242 0.00074,0 0.00122,0.00017 0.00164,0.00034l0.0001 0zm-0.00877 0.00351l0 -0.00424c0,-0.00132 -0.00069,-0.00202 -0.00233,-0.00202l-0.0005 0 0 0.00636c0,0.00193 -0.00082,0.00273 -0.00197,0.00273 -0.00128,0 -0.00229,-0.00084 -0.00229,-0.00292l0 -0.00416c0,-0.00132 -0.00071,-0.00202 -0.00233,-0.00202l-0.00053 0 0 0.00645c0,0.0033 0.00221,0.00515 0.005,0.00515 0.0033,0 0.00496,-0.00181 0.00496,-0.00533zm-0.01509 0.00071c0,0.00109 -0.00076,0.00181 -0.00231,0.00181l-0.00118 0c-0.00071,0 -0.00126,-0.0004 -0.00126,-0.0009l0 -0.00296 0.00229 0c0.00168,0 0.00246,0.0005 0.00246,0.00206zm-0.00023 -0.00603c0,0.00124 -0.00105,0.00174 -0.00233,0.00174l-0.0022 0 0 -0.00326c0.0004,-0.00006 0.00088,-0.00015 0.00124,-0.00015l0.00107 0c0.00107,0 0.00223,0.0004 0.00223,0.00166zm0.00313 0.00594c0,-0.00126 -0.00109,-0.00275 -0.00254,-0.00315 0.00143,-0.00042 0.00229,-0.00145 0.00229,-0.00305 0,-0.00235 -0.00195,-0.0038 -0.0047,-0.0038l-0.00174 0c-0.0012,0 -0.00311,0.0004 -0.0038,0.00065l0 0.01044c0,0.00225 0.00132,0.00342 0.00401,0.00342l0.00155 0c0.00263,0 0.00494,-0.00162 0.00494,-0.00452zm-0.02459 -0.00194c-0.00075,-0.00004 -0.00076,0.00003 -0.00085,-0.00051 -0.00002,-0.00014 -0.00001,-0.00019 0.00002,-0.00033 0.00003,-0.00009 0.0001,-0.00032 0.00011,-0.00042 0.00006,-0.00037 -0.00015,-0.00123 -0.00012,-0.00134 0.00001,-0.00005 0.00002,-0.00005 0.00002,-0.00011 0,-0.00011 -0,-0.00059 0.00004,-0.00066 -0.00001,-0.00007 0.00002,-0.00017 0.00003,-0.00024 0.00002,-0.00015 -0.00004,-0.00006 0.00004,-0.00034 0.00005,-0.00019 0.00007,-0.00027 0.00015,-0.00046 0.00004,-0.00009 0.00011,-0.00043 0.00014,-0.00046 0.00003,-0.00018 0.00005,-0.00032 0.00004,-0.00052 -0.00006,-0.00001 -0.00005,-0.00005 -0.00003,-0.0001 0.00001,-0.00004 0.00003,-0.00009 0.00004,-0.00013 -0.00005,0 -0.00005,0 -0.00005,-0.00004 -0.00001,-0.00024 0.00023,-0.00022 0.00043,-0.00022 0.00019,-0 0.00043,-0.00002 0.00043,0.00022 -0,0.00005 0,0.00005 -0.00005,0.00004 0.00001,0.00004 0.00003,0.00009 0.00004,0.00013 0.00002,0.00005 0.00003,0.00009 -0.00003,0.0001 -0,0.0002 0.00002,0.00033 0.00004,0.00052 0.00002,0.00004 0.0001,0.00038 0.00014,0.00046 0.00007,0.00018 0.00009,0.00027 0.00015,0.00046 0.00008,0.00028 0.00002,0.00019 0.00004,0.00034 0.00001,0.00007 0.00004,0.00018 0.00003,0.00024 0.00005,0.00007 0.00004,0.00054 0.00004,0.00066 -0,0.00006 0.00001,0.00006 0.00002,0.00011 0.00003,0.00011 -0.00018,0.00097 -0.00012,0.00134 0.00001,0.0001 0.00008,0.00034 0.00011,0.00042 0.00002,0.00014 0.00004,0.00019 0.00002,0.00033 -0.00009,0.00054 -0.0001,0.00048 -0.00085,0.00051zm0.00656 -0.00317c0,-0.00028 -0.00017,-0.00043 -0.0004,-0.00043 -0.00023,0 -0.0004,0.00014 -0.0004,0.00043l0 0.00274c0,0.00028 0.00017,0.00043 0.0004,0.00043 0.00023,0 0.0004,-0.00014 0.0004,-0.00043l0 -0.00274zm-0.0052 0.0019c-0.00006,0.00037 -0.00013,0.00077 -0.00013,0.00089 0,0.00018 0.00014,0.00038 0.00038,0.00038 0.00036,0 0.00043,-0.00026 0.00047,-0.00053l0.00024 -0.00157 0.00001 0 0.00054 0.00174c0.00008,0.00026 0.0002,0.00036 0.00044,0.00036 0.00024,0 0.00036,-0.0001 0.00044,-0.00036l0.00054 -0.00174 0.00001 0 0.00024 0.00157c0.00004,0.00027 0.0001,0.00053 0.00047,0.00053 0.00024,0 0.00038,-0.0002 0.00038,-0.00038 0,-0.00012 -0.00007,-0.00052 -0.00013,-0.00089l-0.00032 -0.00182c-0.00007,-0.00042 -0.00033,-0.00051 -0.00053,-0.00051 -0.0004,0 -0.00049,0.00023 -0.0007,0.00087l-0.00039 0.00122 -0.00001 0 -0.00039 -0.00122c-0.0002,-0.00064 -0.00029,-0.00087 -0.0007,-0.00087 -0.0002,0 -0.00046,0.00008 -0.00053,0.00051l-0.00032 0.00182zm-0.01083 -0.00158l0.00037 0c0.00023,0 0.00037,0.00011 0.00037,0.00033 0,0.00022 -0.00014,0.00033 -0.00037,0.00033l-0.00037 0 0 -0.00066zm-0.00081 0.00242c0,0.00026 0.00019,0.0004 0.0004,0.0004l0.001 0c0.00087,0 0.00123,-0.00051 0.00123,-0.00107 0,-0.00044 -0.00028,-0.00079 -0.00071,-0.00087 0.00017,-0.0001 0.00042,-0.00031 0.00042,-0.00067 0,-0.00055 -0.00038,-0.00092 -0.00099,-0.00092l-0.00095 0c-0.00021,0 -0.0004,0.00014 -0.0004,0.0004l0 0.00273zm0.00081 -0.00104l0.00051 0c0.00024,0 0.00049,0.0001 0.00049,0.00037 0,0.00027 -0.00022,0.00037 -0.00049,0.00037l-0.00051 0 0 -0.00073zm0.003 -0.0017c0,-0.00028 -0.00017,-0.00043 -0.0004,-0.00043 -0.00023,0 -0.0004,0.00014 -0.0004,0.00043l0 0.00172c0,0.00093 0.00064,0.0015 0.00153,0.0015 0.00089,0 0.00154,-0.00057 0.00154,-0.0015l0 -0.00172c0,-0.00028 -0.00017,-0.00043 -0.0004,-0.00043 -0.00023,0 -0.0004,0.00014 -0.0004,0.00043l0 0.00172c0,0.00047 -0.00033,0.00073 -0.00073,0.00073 -0.0004,0 -0.00073,-0.00025 -0.00073,-0.00073l0 -0.00172zm0.00263 0.00274c0,0.00028 0.00017,0.00043 0.0004,0.00043 0.00023,0 0.0004,-0.00014 0.0004,-0.00043l0 -0.00102 0.00001 0 0.00099 0.00125c0.0001,0.00012 0.00017,0.0002 0.00038,0.0002 0.00031,0 0.00041,-0.00026 0.00041,-0.00037 0,-0.00013 -0.00006,-0.00023 -0.00017,-0.00035l-0.0007 -0.00076c0.00051,-0.00009 0.00083,-0.00047 0.00083,-0.00099 0,-0.00066 -0.00047,-0.0011 -0.00118,-0.0011l-0.00097 0c-0.00021,0 -0.0004,0.00014 -0.0004,0.0004l0 0.00274zm0.00081 -0.0024l0.00053 0c0.00023,0 0.00041,0.00014 0.00041,0.00038 0,0.00022 -0.00015,0.0004 -0.00041,0.0004l-0.00053 0 0 -0.00078zm0.00398 -0.00147l0.00612 0c0.00005,0.00008 0.00009,0.00016 0.00014,0.00024l-0.00618 0c-0.00002,-0.00008 -0.00005,-0.00016 -0.00007,-0.00024zm-0.01174 0l0.00983 0c-0.00002,0.00008 -0.00005,0.00016 -0.00007,0.00024l-0.00989 0c0.00004,-0.00008 0.00009,-0.00016 0.00014,-0.00024zm0 0.00504l0.01786 0c0.00005,-0.00008 0.00009,-0.00016 0.00014,-0.00024l-0.01813 0c0.00004,0.00008 0.00009,0.00016 0.00014,0.00024zm0.00586 0.00245l-0.00062 -0.00164c-0.00007,-0.00017 -0.00013,-0.00033 -0.00041,-0.00033 -0.00021,0 -0.00036,0.00017 -0.00036,0.00036 0,0.00007 0.00005,0.00021 0.00008,0.00027l0.00089 0.00225c0.00007,0.00018 0.00013,0.00039 0.0004,0.00039 0.00027,0 0.00033,-0.00021 0.00041,-0.00039l0.00091 -0.00225c0.00002,-0.00005 0.00008,-0.0002 0.00008,-0.00027 0,-0.00018 -0.00014,-0.00036 -0.00036,-0.00036 -0.00027,0 -0.00034,0.00016 -0.0004,0.00033l-0.00062 0.00164zm0.00244 -0.00126l0.00042 0c0.00053,0 0.0008,0.00036 0.0008,0.0009 0,0.00056 -0.00027,0.00095 -0.00083,0.00095l-0.00039 0 0 -0.00185zm-0.00073 0.00216c0,0.00023 0.00018,0.00036 0.00036,0.00036l0.00087 0c0.00079,0 0.00149,-0.00058 0.00149,-0.00163 0,-0.00082 -0.00054,-0.00158 -0.00149,-0.00158l-0.00087 0c-0.00019,0 -0.00036,0.00013 -0.00036,0.00037l0 0.00248zm0.00379 -0.00216l0.00042 0c0.00053,0 0.0008,0.00036 0.0008,0.0009 0,0.00056 -0.00027,0.00095 -0.00083,0.00095l-0.00039 0 0 -0.00185zm-0.00073 0.00216c0,0.00023 0.00018,0.00036 0.00037,0.00036l0.00087 0c0.00079,0 0.00149,-0.00058 0.00149,-0.00163 0,-0.00082 -0.00054,-0.00158 -0.00149,-0.00158l-0.00087 0c-0.00019,0 -0.00037,0.00013 -0.00037,0.00037l0 0.00248zm-0.01138 -0.00697c0.00045,-0.00182 -0.00026,-0.00129 -0.00026,-0.00198 0,-0.00121 0.00085,-0.00082 0.00136,-0.00128 0.0003,-0.00027 0.00085,-0.00107 0.00085,-0.00158 0,-0.00006 -0.00035,-0.00103 0.00051,-0.00132 0.00071,-0.00025 0.00064,0.00038 0.00148,-0.00018 0.00029,-0.00019 0.00097,-0.00058 0.00109,-0.00091 0.00012,-0.00032 -0.00001,-0.00044 0.00025,-0.00078 0.00021,-0.00027 0.00048,-0.00031 0.00082,-0.00031 0.00067,0 0.00022,0.00069 0.00203,0.00025 0.00047,-0.00012 0.00058,-0.00013 0.00081,-0.00049 0.00018,-0.00028 0.00034,-0.00052 0.00078,-0.00052 0.00024,0 0.00041,0.00002 0.00063,0.00018 0.00049,0.00036 -0.00001,0.0006 0.0011,0.00084 0.00197,0.00043 0.00122,-0.00027 0.00199,-0.00027 0.00056,0 0.00094,0.00022 0.00102,0.00081 0.00004,0.00032 0.00003,0.00039 0.00025,0.00056 0.00031,0.00026 0.00116,0.00089 0.00152,0.00086 0.00002,-0 0.00135,-0.00046 0.00144,0.00075 0.00004,0.00056 -0.00046,0.00043 0.00044,0.00168 0.00046,0.00063 0.00048,0.0006 0.00094,0.00068 0.00039,0.00006 0.00076,0.00038 0.00076,0.00085 0,0.00069 -0.00043,0.00072 -0.00043,0.00102 0,0.00044 0.00019,0.00133 0.00032,0.00162 0.00015,0.00032 0.00024,0.00027 0.00051,0.00046 0.00021,0.00014 0.00033,0.00038 0.00035,0.00063l0 0.00017c-0.00001,0.00018 -0.00008,0.00035 -0.00018,0.00049 -0.00022,0.0003 -0.00054,0.0002 -0.00069,0.0006 -0.00012,0.00033 -0.00033,0.00132 -0.00029,0.00161 0.00005,0.00039 0.00041,0.00048 0.00041,0.00088 0,0.00056 -0.00022,0.00094 -0.00081,0.00102 -0.00032,0.00004 -0.00039,0.00003 -0.00056,0.00025 -0.00026,0.00032 -0.00089,0.00116 -0.00086,0.00152 0.00002,0.00022 0.00014,0.0004 0.0001,0.00064 -0.00016,0.00117 -0.00147,0.00069 -0.00148,0.00069 -0.00032,-0.00001 -0.00121,0.00063 -0.00149,0.00091 -0.00024,0.00024 -0.00017,0.00019 -0.00023,0.00057 -0.00006,0.00039 -0.00038,0.00076 -0.00085,0.00076 -0.00069,0 -0.00072,-0.00043 -0.00102,-0.00043 -0.00044,0 -0.00133,0.00019 -0.00162,0.00032 -0.00034,0.00016 -0.00026,0.00024 -0.00046,0.00051 -0.00015,0.00021 -0.00037,0.00033 -0.00062,0.00035l-0.00018 0c-0.00017,-0.00002 -0.00034,-0.00008 -0.00049,-0.00019 -0.00055,-0.0004 0.00009,-0.00053 -0.00112,-0.00082 -0.00186,-0.00046 -0.00126,0.00026 -0.00198,0.00026 -0.00056,0 -0.00094,-0.00022 -0.00102,-0.00081 -0.00004,-0.00029 -0.00004,-0.00041 -0.00024,-0.00057 -0.00015,-0.00012 -0.00032,-0.00024 -0.00047,-0.00034 -0.00125,-0.00089 -0.0012,-0.00031 -0.00175,-0.00041 -0.00045,-0.00007 -0.00075,-0.00048 -0.00076,-0.00089 -0.00002,-0.00055 0.00049,-0.00041 -0.00044,-0.00167 -0.00012,-0.00017 -0.00022,-0.00029 -0.00037,-0.00044 -0.00038,-0.00037 -0.00131,-0.00006 -0.00131,-0.00112 0,-0.00061 0.00043,-0.00069 0.00043,-0.00097 0,-0.00043 -0.00019,-0.00133 -0.00032,-0.00162 -0.00015,-0.00032 -0.00024,-0.00027 -0.00051,-0.00046 -0.00021,-0.00014 -0.00033,-0.00038 -0.00035,-0.00063l0 -0.00017c0.00002,-0.00018 0.00008,-0.00035 0.00018,-0.00049 0.00041,-0.00055 0.00053,0.0001 0.00083,-0.00111zm0.02117 0.00168c0,-0.0063 -0.00511,-0.01141 -0.01141,-0.01141 -0.0063,0 -0.01141,0.00511 -0.01141,0.01141 0,0.0063 0.00511,0.01141 0.01141,0.01141 0.0063,0 0.01141,-0.00511 0.01141,-0.01141z"/>
 </g>
</svg>
