<?xml version="1.0" encoding="UTF-8"?>
<!DOCTYPE svg PUBLIC "-//W3C//DTD SVG 1.1//EN" "http://www.w3.org/Graphics/SVG/1.1/DTD/svg11.dtd">
<!-- Creator: CorelDRAW 2020 (64-Bit) -->
<svg xmlns="http://www.w3.org/2000/svg" xml:space="preserve" width="0.309996in" height="0.31in" version="1.1" style="shape-rendering:geometricPrecision; text-rendering:geometricPrecision; image-rendering:optimizeQuality; fill-rule:evenodd; clip-rule:evenodd"
viewBox="0 0 0.0447 0.0447"
 xmlns:xlink="http://www.w3.org/1999/xlink"
 xmlns:xodm="http://www.corel.com/coreldraw/odm/2003">
 <defs>
  <style type="text/css">
   <![CDATA[
    .fil0 {fill:#FAAA32;fill-rule:nonzero}
   ]]>
  </style>
 </defs>
 <g id="Layer_x0020_1">
  <metadata id="CorelCorpID_0Corel-Layer"/>
  <path class="fil0" d="M0.00821 0.02119l-0.00393 0 0 0.02207 0.00131 0 0 0.00144 -0.00405 0 0 -0.00144 0.00131 0 0 -0.02208c-0.00077,-0.00004 -0.00146,-0.00038 -0.00197,-0.00089 -0.00055,-0.00055 -0.00089,-0.00131 -0.00089,-0.00215l0 -0.00825c0,-0.00084 0.00034,-0.0016 0.00089,-0.00216 0.00055,-0.00055 0.0013,-0.0009 0.00214,-0.0009l0.03865 0c0.00083,0 0.00159,0.00034 0.00214,0.0009 0.00055,0.00055 0.00089,0.00132 0.00089,0.00216l0 0.00825c0,0.00084 -0.00034,0.0016 -0.00089,0.00215 -0.00051,0.00052 -0.0012,0.00085 -0.00197,0.00089l0 0.02208 0.00131 0 0 0.00144 -0.00405 0 0 -0.00144 0.00131 0 0 -0.02207 -0.00405 0 0 0.00663 -0.00818 0.00825 -0.01997 0 0 -0.01488zm-0.00519 -0.00144l0.00519 0 0 -0.00396 -0.00204 0 0 -0.00144 0.03224 0 0 0.00144 -0.00204 0 0 0.00396 0.00531 0c0.00044,0 0.00084,-0.00018 0.00113,-0.00047 0.00029,-0.00029 0.00047,-0.00069 0.00047,-0.00114l0 -0.00825c0,-0.00044 -0.00018,-0.00085 -0.00047,-0.00114 -0.00029,-0.00029 -0.00069,-0.00047 -0.00113,-0.00047l-0.03865 0c-0.00044,0 -0.00084,0.00018 -0.00113,0.00047 -0.00029,0.00029 -0.00047,0.00069 -0.00047,0.00114l0 0.00825c0,0.00044 0.00018,0.00084 0.00047,0.00114 0.00029,0.00029 0.00069,0.00047 0.00113,0.00047zm0.00519 -0.01524l0 -0.00451 0.02815 0 0 0.00451 -0.00143 0 0 -0.00307 -0.0253 0 0 0.00307 -0.00143 0zm0.02672 0.02228l0 -0.01101 -0.0253 0 0 0.01884 0.01753 0 0 -0.00783 0.00776 0zm-0.00634 0.00681l0.00533 -0.00537 -0.00533 0 0 0.00537z"/>
 </g>
</svg>
