<?xml version="1.0" encoding="UTF-8"?>
<!DOCTYPE svg PUBLIC "-//W3C//DTD SVG 1.1//EN" "http://www.w3.org/Graphics/SVG/1.1/DTD/svg11.dtd">
<!-- Creator: CorelDRAW 2020 (64-Bit) -->
<svg xmlns="http://www.w3.org/2000/svg" xml:space="preserve" width="0.112264in" height="0.0833228in" version="1.1" style="shape-rendering:geometricPrecision; text-rendering:geometricPrecision; image-rendering:optimizeQuality; fill-rule:evenodd; clip-rule:evenodd"
viewBox="0 0 0.00287 0.00213"
 xmlns:xlink="http://www.w3.org/1999/xlink"
 xmlns:xodm="http://www.corel.com/coreldraw/odm/2003">
 <defs>
  <style type="text/css">
   <![CDATA[
    .fil0 {fill:#FAAA32;fill-rule:nonzero}
   ]]>
  </style>
 </defs>
 <g id="Layer_x0020_1">
  <metadata id="CorelCorpID_0Corel-Layer"/>
  <path class="fil0" d="M0.00281 0.00168l-0.0002 0 0 -0.00129c0,-0.00003 -0.00003,-0.00006 -0.00006,-0.00006l-0.00082 0 0 -0.00028c0,-0.00003 -0.00003,-0.00006 -0.00006,-0.00006l-0.0005 0c-0.00003,0 -0.00006,0.00003 -0.00006,0.00006l0 0.00028 -0.00082 0c-0.00003,0 -0.00006,0.00003 -0.00006,0.00006l0 0.00129 -0.0002 0c-0.00003,0 -0.00006,0.00003 -0.00006,0.00006 0,0.00022 0.00018,0.00039 0.00039,0.00039l0.00079 0c0.00003,0 0.00006,-0.00003 0.00006,-0.00006 0,-0.00003 -0.00003,-0.00006 -0.00006,-0.00006l-0.00079 0c-0.00014,0 -0.00025,-0.0001 -0.00027,-0.00022l0.00263 0c-0.00003,0.00013 -0.00014,0.00022 -0.00027,0.00022l-0.00079 0c-0.00003,0 -0.00006,0.00003 -0.00006,0.00006 0,0.00003 0.00003,0.00006 0.00006,0.00006l0.00079 0c0.00022,0 0.00039,-0.00018 0.00039,-0.00039 0,-0.00003 -0.00003,-0.00006 -0.00006,-0.00006zm-0.00132 0.00039c0,-0.00003 -0.00003,-0.00006 -0.00006,-0.00006 -0.00003,0 -0.00006,0.00003 -0.00006,0.00006 0,0.00003 0.00003,0.00006 0.00006,0.00006 0.00003,0 0.00006,-0.00003 0.00006,-0.00006zm-0.00031 -0.00129c0.00003,0 0.00006,-0.00003 0.00006,-0.00006l0 -0.00062 0.00039 0 0 0.00062c0,0.00003 0.00003,0.00006 0.00006,0.00006l0.00014 0 -0.00039 0.00052 -0.00039 -0.00052 0.00014 0zm0.00132 0.0009l-0.00214 0 0 -0.00123 0.00076 0 0 0.00022 -0.0002 0c-0.00002,0 -0.00004,0.00001 -0.00005,0.00003 -0.00001,0.00002 -0.00001,0.00004 0.00001,0.00006l0.0005 0.00067c0.00001,0.00001 0.00003,0.00002 0.00004,0.00002 0.00002,0 0.00003,-0.00001 0.00004,-0.00002l0.0005 -0.00067c0.00001,-0.00002 0.00001,-0.00004 0.00001,-0.00006 -0.00001,-0.00002 -0.00003,-0.00003 -0.00005,-0.00003l-0.0002 0 0 -0.00022 0.00076 0 0 0.00123z"/>
 </g>
</svg>
