<?xml version="1.0" encoding="UTF-8"?>
<!DOCTYPE svg PUBLIC "-//W3C//DTD SVG 1.1//EN" "http://www.w3.org/Graphics/SVG/1.1/DTD/svg11.dtd">
<!-- Creator: CorelDRAW 2020 (64-Bit) -->
<svg xmlns="http://www.w3.org/2000/svg" xml:space="preserve" width="0.173331in" height="0.133335in" version="1.1" style="shape-rendering:geometricPrecision; text-rendering:geometricPrecision; image-rendering:optimizeQuality; fill-rule:evenodd; clip-rule:evenodd"
viewBox="0 0 0.10228 0.07868"
 xmlns:xlink="http://www.w3.org/1999/xlink"
 xmlns:xodm="http://www.corel.com/coreldraw/odm/2003">
 <defs>
  <style type="text/css">
   <![CDATA[
    .fil0 {fill:black;fill-rule:nonzero}
   ]]>
  </style>
 </defs>
 <g id="Layer_x0020_1">
  <metadata id="CorelCorpID_0Corel-Layer"/>
  <path class="fil0" d="M0.0875 0l-0.07273 0c-0.00407,0 -0.00776,0.00165 -0.01044,0.0043 -0.00268,0.00266 -0.00434,0.00633 -0.00434,0.01036l0 0.04935c0,0.00404 0.00166,0.00771 0.00434,0.01036 0.00268,0.00266 0.00637,0.0043 0.01044,0.0043l0.07273 0c0.00407,0 0.00776,-0.00165 0.01044,-0.0043 0.00268,-0.00266 0.00434,-0.00633 0.00434,-0.01036l0 -0.04935c0,-0.00404 -0.00166,-0.00771 -0.00434,-0.01036 -0.00268,-0.00266 -0.00637,-0.0043 -0.01044,-0.0043zm-0.07376 0.0167l0.02567 0.02239 -0.02564 0.02237 -0.00005 0.00004c-0.00121,0.00108 -0.00134,0.00292 -0.00027,0.00415 0.00108,0.00125 0.00299,0.00139 0.00424,0.00031l0.02626 -0.0229 0.00521 0.00454c0.00116,0.00101 0.00287,0.00097 0.00399,-0.00003l0.00517 -0.00451 0.02627 0.02292c0.00126,0.00108 0.00316,0.00094 0.00424,-0.00031 0.00108,-0.00124 0.00094,-0.00309 -0.00029,-0.00417l-0.00003 -0.00002 -0.02566 -0.02238 0.02565 -0.02237 0.00003 -0.00002c0.00123,-0.00108 0.00137,-0.00293 0.00029,-0.00417 -0.00108,-0.00125 -0.00299,-0.00139 -0.00424,-0.00031l-0.03345 0.02917 -0.03347 -0.02919c-0.00126,-0.00108 -0.00316,-0.00094 -0.00424,0.00031 -0.00108,0.00125 -0.00094,0.00311 0.00032,0.00419zm0.00103 -0.01073l0.07273 0c0.00241,0 0.0046,0.00098 0.00619,0.00256 0.00159,0.00158 0.00258,0.00375 0.00258,0.00614l0 0.04935c0,0.00239 -0.00099,0.00456 -0.00258,0.00614 -0.00159,0.00158 -0.00378,0.00256 -0.00619,0.00256l-0.07273 0c-0.0024,0 -0.0046,-0.00098 -0.00619,-0.00256 -0.00159,-0.00158 -0.00258,-0.00375 -0.00258,-0.00614l0 -0.04935c0,-0.00239 0.00099,-0.00457 0.00258,-0.00614 0.00159,-0.00158 0.00378,-0.00256 0.00619,-0.00256z"/>
 </g>
</svg>
