<?xml version="1.0" encoding="UTF-8"?>
<!DOCTYPE svg PUBLIC "-//W3C//DTD SVG 1.1//EN" "http://www.w3.org/Graphics/SVG/1.1/DTD/svg11.dtd">
<!-- Creator: CorelDRAW 2020 (64-Bit) -->
<svg xmlns="http://www.w3.org/2000/svg" xml:space="preserve" width="0.0666654in" height="0.0666614in" version="1.1" style="shape-rendering:geometricPrecision; text-rendering:geometricPrecision; image-rendering:optimizeQuality; fill-rule:evenodd; clip-rule:evenodd"
viewBox="0 0 0.00084 0.00084"
 xmlns:xlink="http://www.w3.org/1999/xlink"
 xmlns:xodm="http://www.corel.com/coreldraw/odm/2003">
 <defs>
  <style type="text/css">
   <![CDATA[
    .fil0 {fill:black;fill-rule:nonzero}
   ]]>
  </style>
 </defs>
 <g id="Layer_x0020_1">
  <metadata id="CorelCorpID_0Corel-Layer"/>
  <path class="fil0" d="M0.00084 0.00025c-0,-0.00004 -0.00001,-0.00008 -0.00002,-0.0001 -0.00001,-0.00003 -0.00003,-0.00005 -0.00005,-0.00007 -0.00002,-0.00002 -0.00005,-0.00004 -0.00007,-0.00005 -0.00003,-0.00001 -0.00006,-0.00002 -0.0001,-0.00002 -0.00004,-0 -0.00006,-0 -0.00017,-0 -0.00011,0 -0.00013,0 -0.00017,0 -0.00004,0 -0.00008,0.00001 -0.0001,0.00002 -0.00003,0.00001 -0.00005,0.00003 -0.00007,0.00005 -0.00002,0.00002 -0.00004,0.00005 -0.00005,0.00007 -0.00001,0.00003 -0.00002,0.00006 -0.00002,0.0001 -0,0.00004 -0,0.00006 -0,0.00017 0,0.00011 0,0.00013 0,0.00017 0,0.00004 0.00001,0.00008 0.00002,0.0001 0.00001,0.00003 0.00003,0.00005 0.00005,0.00007 0.00002,0.00002 0.00005,0.00004 0.00007,0.00005 0.00003,0.00001 0.00006,0.00002 0.0001,0.00002 0.00004,0 0.00006,0 0.00017,0 0.00011,0 0.00013,-0 0.00017,-0 0.00004,-0 0.00008,-0.00001 0.0001,-0.00002 0.00006,-0.00002 0.0001,-0.00007 0.00012,-0.00012 0.00001,-0.00003 0.00002,-0.00006 0.00002,-0.0001 0,-0.00004 0,-0.00006 0,-0.00017 0,-0.00011 -0,-0.00013 -0,-0.00017l0 -0zm-0.00008 0.00034c-0,0.00004 -0.00001,0.00006 -0.00001,0.00008 -0.00001,0.00004 -0.00004,0.00007 -0.00008,0.00008 -0.00001,0.00001 -0.00004,0.00001 -0.00008,0.00001 -0.00004,0 -0.00006,0 -0.00017,0 -0.00011,0 -0.00013,-0 -0.00017,-0 -0.00004,-0 -0.00006,-0.00001 -0.00008,-0.00001 -0.00002,-0.00001 -0.00003,-0.00002 -0.00005,-0.00003 -0.00001,-0.00001 -0.00002,-0.00003 -0.00003,-0.00005 -0.00001,-0.00001 -0.00001,-0.00004 -0.00001,-0.00008 -0,-0.00004 -0,-0.00006 -0,-0.00017 0,-0.00011 0,-0.00013 0,-0.00017 0,-0.00004 0.00001,-0.00006 0.00001,-0.00008 0.00001,-0.00002 0.00002,-0.00003 0.00003,-0.00005 0.00001,-0.00001 0.00003,-0.00002 0.00005,-0.00003 0.00001,-0.00001 0.00004,-0.00001 0.00008,-0.00001 0.00004,-0 0.00006,-0 0.00017,-0 0.00011,0 0.00013,0 0.00017,0 0.00004,0 0.00006,0.00001 0.00008,0.00001 0.00002,0.00001 0.00003,0.00002 0.00005,0.00003 0.00001,0.00001 0.00002,0.00003 0.00003,0.00005 0.00001,0.00001 0.00001,0.00004 0.00001,0.00008 0,0.00004 0,0.00006 0,0.00017 0,0.00011 -0,0.00013 -0,0.00017l0 0zm-0.00034 -0.00039c-0.00012,0 -0.00022,0.0001 -0.00022,0.00022 0,0.00012 0.0001,0.00022 0.00022,0.00022 0.00012,0 0.00022,-0.0001 0.00022,-0.00022 0,-0.00012 -0.0001,-0.00022 -0.00022,-0.00022zm0 0.00036c-0.00008,0 -0.00014,-0.00006 -0.00014,-0.00014 0,-0.00008 0.00006,-0.00014 0.00014,-0.00014 0.00008,0 0.00014,0.00006 0.00014,0.00014 0,0.00008 -0.00006,0.00014 -0.00014,0.00014zm0.00027 -0.00036c0,0.00003 -0.00002,0.00005 -0.00005,0.00005 -0.00003,0 -0.00005,-0.00002 -0.00005,-0.00005 0,-0.00003 0.00002,-0.00005 0.00005,-0.00005 0.00003,0 0.00005,0.00002 0.00005,0.00005z"/>
 </g>
</svg>
