<?xml version="1.0" encoding="UTF-8"?>
<!DOCTYPE svg PUBLIC "-//W3C//DTD SVG 1.1//EN" "http://www.w3.org/Graphics/SVG/1.1/DTD/svg11.dtd">
<!-- Creator: CorelDRAW 2020 (64-Bit) -->
<svg xmlns="http://www.w3.org/2000/svg" xml:space="preserve" width="0.176661in" height="0.166665in" version="1.1" style="shape-rendering:geometricPrecision; text-rendering:geometricPrecision; image-rendering:optimizeQuality; fill-rule:evenodd; clip-rule:evenodd"
viewBox="0 0 0.01095 0.01033"
 xmlns:xlink="http://www.w3.org/1999/xlink"
 xmlns:xodm="http://www.corel.com/coreldraw/odm/2003">
 <defs>
  <style type="text/css">
   <![CDATA[
    .fil0 {fill:black;fill-rule:nonzero}
   ]]>
  </style>
 </defs>
 <g id="Layer_x0020_1">
  <metadata id="CorelCorpID_0Corel-Layer"/>
  <path class="fil0" d="M0.00805 0.0054c0.00048,-0.00064 0.00068,-0.00148 0.00063,-0.00229 -0.00005,-0.00082 -0.00037,-0.00162 -0.00094,-0.00218 -0.0003,-0.0003 -0.00066,-0.00053 -0.00104,-0.00069l-0.00002 -0.00001c-0.00038,-0.00015 -0.00079,-0.00024 -0.00121,-0.00024 -0.00043,0 -0.00084,0.00008 -0.00123,0.00024 -0.00039,0.00016 -0.00074,0.00039 -0.00104,0.00069 -0.00057,0.00056 -0.00088,0.00136 -0.00094,0.00218 -0.00005,0.00081 0.00015,0.00165 0.00064,0.00229l0.00032 0.00046 -0.00107 -0c-0.00012,0 -0.00023,0.00007 -0.00028,0.00018l-0.00185 0.00385c-0.00007,0.00015 -0.00001,0.00033 0.00014,0.0004 0.00004,0.00002 0.00009,0.00003 0.00013,0.00003l0.01034 0c0.00017,0 0.0003,-0.00014 0.0003,-0.0003 0,-0.00005 -0.00001,-0.0001 -0.00003,-0.00014l-0.00185 -0.00385c-0.00005,-0.00011 -0.00016,-0.00017 -0.00027,-0.00017l-0.00106 0c0.00011,-0.00016 0.00021,-0.00031 0.00032,-0.00047zm-0.0044 0.00107l0.00157 0.00225 0 0 0 0 0 0 0 0 0 0 0 0 0 0 0 0 0 0.00001 0 0 0 0 0 0 0 0 0 0 0 0 0 0 0 0 0 0 0 0 0 0 0 0 0 0 0 0 0 0 0 0 0 0 0 0 0 0 0 0 0 0 0 0 0 0 0 0 0 0 0 0 0 0 0 0 0 0 0 0 0 0 0 0 0 0 0 0 0 0 0 0 0 0 0 0 0 0 0 0 0 0 0 0 0 0 0 0 0 0 0 0 0 0 0.00001 0 0 0 0 0 0 0 0 0 0 0 0 0 0 0 0 0 0 0 0 0 0 0 0 0 0 0 0 0 0 0 0 0 0 0 0 0 0 0 0 0 0 0 0.00001 0 0 0 0 0 0.00001 0 0 0 0.00001 0 0 0 0.00001 0 0 0 0.00001 0 0 0 0.00001 0 0 0 0.00001 0 0 0 0.00001 0 0 0 0.00001 0 0 0 0.00001 0 0 0 0.00001 0 0 0 0.00001 0 0 0 0.00001 0 0 0 0.00001 0 0 0 0.00001 0 0 0 0.00001 0 0 0 0.00001 0 0 0 0.00001 0 0 0 0.00001 -0 0 0 0.00001 -0 0 0 0.00001 -0 0 -0 0.00001 -0 0 -0 0.00001 -0 0 0 0.00001 -0 0 -0 0.00001 -0 0 0 0.00001 -0 0 0 0.00001 -0 0 0 0.00001 -0 0 0 0.00001 -0 0 0 0.00001 -0 0 -0 0.00001 -0 0 -0 0.00001 -0 0 -0 0.00001 -0 0 -0 0.00001 -0 0 -0 0 -0 0.00001 -0 0 -0 0 -0 0 -0 0 -0 0 -0 0 -0 0 -0 0 -0 0 -0 0 -0 0 -0 0 0 0 -0 0 -0 0 -0 0 -0 0 -0 0 -0 0 -0 0 -0 0 -0 0.00001 -0 0 -0 0 -0 0 -0 0 -0 0 0 0 -0 0 -0 0 -0 0 -0 0 -0 0 -0 0 -0 0 -0 0 -0 0 -0 0 -0 0 -0 0 -0 0 -0 0 -0 0 -0 0 -0 0 -0 0 -0 0 -0 0 -0 0 -0 0 -0 0 -0 0 -0 0 -0 0 -0 0 -0 0 -0 0 -0 0 -0 0 -0 0 -0 0 -0 0 -0 0 -0 0 -0 0 -0 0 -0 0 -0 0 -0 0 -0 0 -0.00001 0 -0 0 -0 0 -0 0 -0 0 0 0 -0 0 -0 0 -0 0.00004 -0.00005 0.00004 -0.00005c0.0005,-0.00072 0.00101,-0.00143 0.00151,-0.00215l0.00129 0 0.00156 0.00325 -0.00938 0 0.00156 -0.00325 0.0013 0zm0.00329 -0.00053c-0.00003,0.00002 -0.00005,0.00005 -0.00006,0.00008l-0.00124 0.00178 -0.00016 0.00023 -0.00208 -0.00297 -0.00001 -0.00001c-0.0004,-0.00053 -0.00056,-0.00124 -0.00052,-0.00189 0.00004,-0.00065 0.00029,-0.00133 0.00076,-0.0018 0.00024,-0.00024 0.00053,-0.00043 0.00084,-0.00056 0.00032,-0.00013 0.00065,-0.0002 0.00099,-0.0002 0.00034,0 0.00067,0.00006 0.00098,0.00019l0.00001 0c0.00032,0.00013 0.0006,0.00032 0.00084,0.00056 0.00047,0.00047 0.00072,0.00114 0.00076,0.0018 0.00004,0.00065 -0.00011,0.00136 -0.00051,0.00189l-0.00001 0.00001 -0.00001 0.00001c-0.0002,0.00029 -0.0004,0.00059 -0.0006,0.00088zm-0.00147 -0.00407c-0.00035,0 -0.00068,0.00014 -0.00091,0.00037 -0.00023,0.00023 -0.00038,0.00055 -0.00038,0.0009 0,0.00035 0.00014,0.00067 0.00038,0.0009 0.00023,0.00023 0.00055,0.00037 0.00091,0.00037 0.00035,0 0.00068,-0.00014 0.00091,-0.00037 0.00023,-0.00023 0.00038,-0.00055 0.00038,-0.0009 0,-0.00035 -0.00014,-0.00067 -0.00038,-0.0009 -0.00023,-0.00023 -0.00055,-0.00037 -0.00091,-0.00037zm-0.00048 0.0008c0.00012,-0.00012 0.00029,-0.0002 0.00048,-0.0002 0.00019,0 0.00036,0.00008 0.00048,0.0002 0.00012,0.00012 0.0002,0.00029 0.0002,0.00047 0,0.00018 -0.00008,0.00035 -0.0002,0.00047 -0.00012,0.00012 -0.00029,0.0002 -0.00048,0.0002 -0.00019,0 -0.00036,-0.00008 -0.00048,-0.0002 -0.00012,-0.00012 -0.0002,-0.00029 -0.0002,-0.00047 0,-0.00019 0.00008,-0.00035 0.0002,-0.00047z"/>
 </g>
</svg>
