<?xml version="1.0" encoding="UTF-8"?>
<!DOCTYPE svg PUBLIC "-//W3C//DTD SVG 1.1//EN" "http://www.w3.org/Graphics/SVG/1.1/DTD/svg11.dtd">
<!-- Creator: CorelDRAW 2020 (64-Bit) -->
<svg xmlns="http://www.w3.org/2000/svg" xml:space="preserve" width="0.276669in" height="0.276669in" version="1.1" style="shape-rendering:geometricPrecision; text-rendering:geometricPrecision; image-rendering:optimizeQuality; fill-rule:evenodd; clip-rule:evenodd"
viewBox="0 0 0.03447 0.03447"
 xmlns:xlink="http://www.w3.org/1999/xlink"
 xmlns:xodm="http://www.corel.com/coreldraw/odm/2003">
 <defs>
  <style type="text/css">
   <![CDATA[
    .fil0 {fill:#FAAA32}
   ]]>
  </style>
 </defs>
 <g id="Layer_x0020_1">
  <metadata id="CorelCorpID_0Corel-Layer"/>
  <path class="fil0" d="M0.02272 0.01536c0.00103,0 0.00187,0.00084 0.00187,0.00187 0,0.00103 -0.00084,0.00187 -0.00187,0.00187 -0.00103,0 -0.00187,-0.00084 -0.00187,-0.00187 0,-0.00103 0.00084,-0.00187 0.00187,-0.00187zm-0.01811 -0.01536l0.02525 0c0.00127,0 0.00242,0.00052 0.00326,0.00135 0.00083,0.00083 0.00135,0.00199 0.00135,0.00326l0 0.02525c0,0.00127 -0.00052,0.00242 -0.00135,0.00326 -0.00083,0.00083 -0.00199,0.00135 -0.00326,0.00135l-0.02525 0c-0.00127,0 -0.00242,-0.00052 -0.00326,-0.00135 -0.00083,-0.00083 -0.00135,-0.00199 -0.00135,-0.00326l0 -0.02525c0,-0.00127 0.00052,-0.00242 0.00135,-0.00326 0.00083,-0.00083 0.00199,-0.00135 0.00326,-0.00135zm0.02525 0.00149l-0.02525 0c-0.00086,0 -0.00164,0.00035 -0.0022,0.00092 -0.00057,0.00057 -0.00092,0.00135 -0.00092,0.0022l0 0.02525c0,0.00086 0.00035,0.00164 0.00092,0.0022 0.00057,0.00057 0.00135,0.00092 0.0022,0.00092l0.02525 0c0.00086,0 0.00164,-0.00035 0.0022,-0.00092 0.00057,-0.00057 0.00092,-0.00135 0.00092,-0.0022l0 -0.02525c0,-0.00086 -0.00035,-0.00164 -0.00092,-0.0022 -0.00057,-0.00057 -0.00135,-0.00092 -0.0022,-0.00092zm-0.01263 0.01388c0.00103,0 0.00187,0.00084 0.00187,0.00187 0,0.00103 -0.00084,0.00187 -0.00187,0.00187 -0.00103,0 -0.00187,-0.00084 -0.00187,-0.00187 0,-0.00103 0.00084,-0.00187 0.00187,-0.00187zm-0.00549 0c0.00103,0 0.00187,0.00084 0.00187,0.00187 0,0.00103 -0.00084,0.00187 -0.00187,0.00187 -0.00103,0 -0.00187,-0.00084 -0.00187,-0.00187 0,-0.00103 0.00084,-0.00187 0.00187,-0.00187z"/>
 </g>
</svg>
