<?xml version="1.0" encoding="UTF-8"?>
<!DOCTYPE svg PUBLIC "-//W3C//DTD SVG 1.1//EN" "http://www.w3.org/Graphics/SVG/1.1/DTD/svg11.dtd">
<!-- Creator: CorelDRAW 2020 (64-Bit) -->
<svg xmlns="http://www.w3.org/2000/svg" xml:space="preserve" width="0.156669in" height="0.156665in" version="1.1" style="shape-rendering:geometricPrecision; text-rendering:geometricPrecision; image-rendering:optimizeQuality; fill-rule:evenodd; clip-rule:evenodd"
viewBox="0 0 0.00823 0.00823"
 xmlns:xlink="http://www.w3.org/1999/xlink"
 xmlns:xodm="http://www.corel.com/coreldraw/odm/2003">
 <defs>
  <style type="text/css">
   <![CDATA[
    .fil0 {fill:black;fill-rule:nonzero}
   ]]>
  </style>
 </defs>
 <g id="Layer_x0020_1">
  <metadata id="CorelCorpID_0Corel-Layer"/>
  <path class="fil0" d="M0.00822 0.00632c0.00001,0.0001 0,0.0002 -0.00003,0.00029 -0.00003,0.00009 -0.00008,0.00017 -0.00016,0.00024l-0.00108 0.00107c-0.00004,0.00004 -0.00008,0.00008 -0.00012,0.00011 -0.00005,0.00003 -0.00009,0.00006 -0.00014,0.00009 -0.00005,0.00002 -0.0001,0.00004 -0.00015,0.00006 -0.00005,0.00002 -0.0001,0.00003 -0.00015,0.00004 -0.00004,0 -0.00008,0.00001 -0.00012,0.00001l-0.00007 0c-0.00006,0 -0.00013,-0.00001 -0.00023,-0.00002 -0.0001,-0.00001 -0.0002,-0.00002 -0.00031,-0.00004 -0.00013,-0.00002 -0.00027,-0.00005 -0.00042,-0.0001 -0.00015,-0.00005 -0.00031,-0.00011 -0.00049,-0.00018 -0.00018,-0.00007 -0.00036,-0.00016 -0.00056,-0.00027 -0.0002,-0.00011 -0.0004,-0.00023 -0.00062,-0.00038 -0.00022,-0.00014 -0.00045,-0.00032 -0.00068,-0.00051 -0.00024,-0.0002 -0.00047,-0.00042 -0.00072,-0.00067 -0.00019,-0.00019 -0.00037,-0.00038 -0.00053,-0.00056 -0.00016,-0.00018 -0.00031,-0.00036 -0.00044,-0.00055 -0.00026,-0.00035 -0.00047,-0.00068 -0.00063,-0.00099 -0.00008,-0.00015 -0.00015,-0.0003 -0.00021,-0.00043 -0.00006,-0.00014 -0.00011,-0.00027 -0.00015,-0.0004 -0.00004,-0.00013 -0.00007,-0.00024 -0.0001,-0.00035 -0.00003,-0.00011 -0.00005,-0.00021 -0.00006,-0.0003 -0.00002,-0.0001 -0.00003,-0.00018 -0.00003,-0.00025 -0.00001,-0.00008 -0.00001,-0.00015 -0,-0.00021 0,-0.00006 0.00001,-0.00012 0.00001,-0.00018 0.00001,-0.00005 0.00002,-0.0001 0.00004,-0.00015 0.00002,-0.00005 0.00004,-0.0001 0.00006,-0.00015 0.00003,-0.00005 0.00005,-0.0001 0.00009,-0.00014 0.00003,-0.00004 0.00006,-0.00008 0.0001,-0.00011l0.00109 -0.00109c0.00006,-0.00006 0.00013,-0.0001 0.0002,-0.00014 0.00008,-0.00003 0.00015,-0.00005 0.00024,-0.00005 0.00006,0 0.00012,0.00001 0.00018,0.00003 0.00006,0.00002 0.00011,0.00005 0.00016,0.00008 0.00004,0.00003 0.00008,0.00006 0.00011,0.0001 0.00003,0.00004 0.00006,0.00008 0.00009,0.00012l0.00088 0.00168c0.00004,0.00007 0.00006,0.00014 0.00008,0.00022 0.00001,0.00008 0.00001,0.00015 -0.00001,0.00023 -0.00002,0.00008 -0.00004,0.00015 -0.00007,0.00021 -0.00003,0.00007 -0.00008,0.00012 -0.00013,0.00018l-0.00036 0.00036c0.00001,0.00003 0.00002,0.00005 0.00003,0.00008 0.00002,0.00005 0.00005,0.00012 0.00008,0.00018l0 0c0.00003,0.00006 0.00007,0.00012 0.00011,0.0002 0.00005,0.00007 0.0001,0.00015 0.00017,0.00025 0.00007,0.00009 0.00014,0.00019 0.00023,0.00029 0.00009,0.0001 0.0002,0.00021 0.00032,0.00034l0 0c0.00012,0.00012 0.00023,0.00023 0.00034,0.00032 0.0001,0.00009 0.0002,0.00017 0.00029,0.00024 0.00009,0.00006 0.00017,0.00012 0.00025,0.00017 0.00008,0.00005 0.00014,0.00009 0.0002,0.00011 0.00006,0.00003 0.00011,0.00005 0.00015,0.00007 0.00004,0.00001 0.00006,0.00002 0.00008,0.00003l0 -0 0.00003 0.00001 0.00044 -0.00045c0.00007,-0.00006 0.00015,-0.00011 0.00023,-0.00014 0.00009,-0.00003 0.00018,-0.00005 0.00027,-0.00005 0.00006,0 0.00012,0.00001 0.00018,0.00002 0.00006,0.00001 0.00011,0.00003 0.00016,0.00006l0.00002 0 0.00159 0.00094c0.00008,0.00005 0.00015,0.00011 0.0002,0.00018 0.00006,0.00008 0.00009,0.00016 0.00011,0.00025l0 0.00002zm-0.00048 0.00013c0.00001,-0.00002 0.00001,-0.00003 0.00001,-0.00005 -0,-0.00002 -0.00001,-0.00003 -0.00002,-0.00005 -0.00002,-0.00002 -0.00004,-0.00004 -0.00007,-0.00006l-0.00158 -0.00093 -0.00001 -0c-0.00001,-0 -0.00001,-0.00001 -0.00002,-0.00001 -0.00002,-0 -0.00004,-0.00001 -0.00007,-0.00001 -0.00004,0 -0.00007,0.00001 -0.0001,0.00002 -0.00003,0.00001 -0.00006,0.00003 -0.00008,0.00005l-0.00046 0.00047c-0.00002,0.00002 -0.00005,0.00004 -0.00008,0.00006l-0 0c-0.00002,0.00001 -0.00005,0.00002 -0.00007,0.00003l-0.00006 0.00002c-0.00003,0.00001 -0.00005,0.00001 -0.00008,0.00001l-0.00005 -0 -0.0001 -0.00002c-0.00005,-0.00001 -0.00011,-0.00003 -0.00017,-0.00005 -0.00006,-0.00002 -0.00012,-0.00005 -0.00019,-0.00009 -0.00007,-0.00004 -0.00015,-0.00008 -0.00024,-0.00014 -0.00008,-0.00005 -0.00017,-0.00011 -0.00027,-0.00019 -0.0001,-0.00007 -0.00021,-0.00016 -0.00033,-0.00027 -0.00012,-0.0001 -0.00024,-0.00022 -0.00036,-0.00035 -0.00013,-0.00012 -0.00024,-0.00024 -0.00034,-0.00036 -0.00011,-0.00012 -0.00019,-0.00023 -0.00026,-0.00032 -0.00007,-0.0001 -0.00013,-0.00019 -0.00019,-0.00027 -0.00005,-0.00008 -0.0001,-0.00016 -0.00014,-0.00024 -0.00004,-0.00008 -0.00008,-0.00016 -0.00011,-0.00024 -0.00003,-0.00008 -0.00005,-0.00015 -0.00006,-0.00022l-0 -0.00004c0,-0.00002 0,-0.00005 0.00001,-0.00007 0,-0.00002 0.00001,-0.00004 0.00002,-0.00006 0.00002,-0.00006 0.00005,-0.00011 0.00009,-0.00015l0.0004 -0.0004c0.00002,-0.00002 0.00003,-0.00004 0.00005,-0.00006 0.00001,-0.00002 0.00002,-0.00005 0.00003,-0.00008 0,-0.00002 0.00001,-0.00005 0,-0.00007 -0,-0.00002 -0.00001,-0.00004 -0.00002,-0.00005l-0.00087 -0.00166c-0.00001,-0.00002 -0.00002,-0.00003 -0.00003,-0.00005 -0.00001,-0.00002 -0.00003,-0.00003 -0.00004,-0.00004 -0.00001,-0 -0.00001,-0.00001 -0.00002,-0.00001 -0.00001,-0 -0.00002,-0 -0.00003,-0 -0.00002,0 -0.00003,0 -0.00004,0.00001 -0.00002,0.00001 -0.00003,0.00002 -0.00005,0.00004l-0.00109 0.00109 -0.00001 0.00001c-0.00001,0.00001 -0.00003,0.00003 -0.00004,0.00005 -0.00002,0.00002 -0.00003,0.00004 -0.00004,0.00007 -0.00001,0.00003 -0.00003,0.00006 -0.00003,0.00009 -0.00001,0.00003 -0.00001,0.00005 -0.00002,0.00007l-0.00001 0.00015c-0,0.00004 -0,0.00009 0,0.00014 0.00001,0.00007 0.00001,0.00014 0.00003,0.00021 0.00001,0.00008 0.00003,0.00016 0.00006,0.00026 0.00003,0.0001 0.00006,0.00021 0.00009,0.00032 0.00004,0.00011 0.00008,0.00023 0.00013,0.00036 0.00005,0.00013 0.00012,0.00026 0.00019,0.0004 0.00015,0.00028 0.00034,0.00059 0.00059,0.00093 0.00012,0.00016 0.00026,0.00033 0.00041,0.00051 0.00015,0.00018 0.00032,0.00036 0.00051,0.00054l0 0c0.00024,0.00024 0.00047,0.00045 0.00068,0.00064 0.00022,0.00018 0.00043,0.00034 0.00064,0.00048 0.00021,0.00014 0.00041,0.00026 0.00059,0.00036 0.00018,0.0001 0.00035,0.00018 0.00051,0.00025 0.00016,0.00007 0.00031,0.00012 0.00044,0.00016 0.00013,0.00004 0.00025,0.00007 0.00035,0.00008 0.00012,0.00002 0.00022,0.00003 0.00029,0.00004 0.00007,0.00001 0.00013,0.00001 0.00018,0.00001l0.00005 -0 0.00008 -0.00001c0.00002,-0 0.00005,-0.00001 0.00007,-0.00002 0.00003,-0.00001 0.00006,-0.00002 0.00009,-0.00003 0.00003,-0.00001 0.00005,-0.00003 0.00007,-0.00004 0.00002,-0.00001 0.00003,-0.00003 0.00005,-0.00004l0.0011 -0.00109c0.00002,-0.00002 0.00003,-0.00004 0.00004,-0.00006z"/>
 </g>
</svg>
