<?xml version="1.0" encoding="UTF-8"?>
<!DOCTYPE svg PUBLIC "-//W3C//DTD SVG 1.1//EN" "http://www.w3.org/Graphics/SVG/1.1/DTD/svg11.dtd">
<!-- Creator: CorelDRAW 2020 (64-Bit) -->
<svg xmlns="http://www.w3.org/2000/svg" xml:space="preserve" width="1.40666in" height="0.183335in" version="1.1" style="shape-rendering:geometricPrecision; text-rendering:geometricPrecision; image-rendering:optimizeQuality; fill-rule:evenodd; clip-rule:evenodd"
viewBox="0 0 0.35334 0.04605"
 xmlns:xlink="http://www.w3.org/1999/xlink"
 xmlns:xodm="http://www.corel.com/coreldraw/odm/2003">
 <defs>
  <style type="text/css">
   <![CDATA[
    .fil0 {fill:black;fill-rule:nonzero}
   ]]>
  </style>
 </defs>
 <g id="Layer_x0020_1">
  <metadata id="CorelCorpID_0Corel-Layer"/>
  <path class="fil0" d="M0.34821 0.03624c0.00083,0 0.00151,-0.00028 0.00205,-0.00083 0.00054,-0.00055 0.00081,-0.00128 0.00081,-0.00218 0,-0.0009 -0.00027,-0.00163 -0.00081,-0.00218 -0.00054,-0.00055 -0.00123,-0.00083 -0.00205,-0.00083 -0.00083,0 -0.00151,0.00028 -0.00204,0.00083 -0.00054,0.00055 -0.0008,0.00128 -0.0008,0.00218 0,0.0009 0.00027,0.00163 0.0008,0.00218 0.00053,0.00055 0.00122,0.00083 0.00204,0.00083zm0 0.00193c-0.00097,0 -0.00185,-0.00021 -0.00263,-0.00063 -0.00078,-0.00042 -0.00139,-0.00101 -0.00183,-0.00176 -0.00044,-0.00075 -0.00066,-0.0016 -0.00066,-0.00255 0,-0.00095 0.00022,-0.00179 0.00066,-0.00254 0.00044,-0.00074 0.00105,-0.00133 0.00183,-0.00175 0.00078,-0.00042 0.00166,-0.00063 0.00263,-0.00063 0.00098,0 0.00187,0.00021 0.00265,0.00063 0.00078,0.00042 0.00139,0.001 0.00183,0.00175 0.00044,0.00074 0.00066,0.00159 0.00066,0.00254 0,0.00095 -0.00022,0.0018 -0.00066,0.00255 -0.00044,0.00075 -0.00105,0.00134 -0.00183,0.00176 -0.00078,0.00042 -0.00166,0.00063 -0.00265,0.00063zm-0.00839 -0.01133c-0.00041,0 -0.00075,-0.00013 -0.00103,-0.00039 -0.00028,-0.00026 -0.00041,-0.00058 -0.00041,-0.00096 0,-0.00038 0.00014,-0.00071 0.00041,-0.00096 0.00028,-0.00026 0.00062,-0.00039 0.00103,-0.00039 0.00041,0 0.00075,0.00012 0.00103,0.00037 0.00028,0.00025 0.00041,0.00056 0.00041,0.00093 0,0.0004 -0.00014,0.00073 -0.00041,0.001 -0.00027,0.00027 -0.00062,0.00041 -0.00104,0.00041zm-0.00114 0.00158l0.00225 0 0 0.00962 -0.00225 0 0 -0.00962zm-0.00803 0.00782c0.00054,0 0.00103,-0.00012 0.00146,-0.00037 0.00043,-0.00025 0.00078,-0.0006 0.00103,-0.00105 0.00025,-0.00046 0.00038,-0.00099 0.00038,-0.00159 0,-0.0006 -0.00013,-0.00113 -0.00038,-0.00158 -0.00025,-0.00046 -0.0006,-0.00081 -0.00103,-0.00105 -0.00043,-0.00025 -0.00092,-0.00037 -0.00146,-0.00037 -0.00054,0 -0.00103,0.00012 -0.00146,0.00037 -0.00043,0.00025 -0.00078,0.0006 -0.00103,0.00105 -0.00025,0.00046 -0.00038,0.00098 -0.00038,0.00158 0,0.0006 0.00013,0.00113 0.00038,0.00159 0.00025,0.00045 0.00059,0.00081 0.00103,0.00105 0.00043,0.00025 0.00092,0.00037 0.00146,0.00037zm0.00508 -0.01156l0 0.01336 -0.00216 0 0 -0.00124c-0.00037,0.00046 -0.00083,0.0008 -0.00138,0.00103 -0.00055,0.00023 -0.00115,0.00034 -0.00181,0.00034 -0.00092,0 -0.00176,-0.0002 -0.00249,-0.00061 -0.00074,-0.00041 -0.00132,-0.00099 -0.00174,-0.00174 -0.00042,-0.00075 -0.00063,-0.00161 -0.00063,-0.00259 0,-0.00097 0.00021,-0.00183 0.00063,-0.00258 0.00042,-0.00074 0.001,-0.00132 0.00174,-0.00173 0.00074,-0.00041 0.00157,-0.00061 0.00249,-0.00061 0.00064,0 0.00122,0.00011 0.00175,0.00032 0.00053,0.00022 0.00098,0.00054 0.00135,0.00097l0 -0.00493 0.00225 0zm-0.01237 0.00375l0 0.00962 -0.00214 0 0 -0.00122c-0.00036,0.00043 -0.00081,0.00076 -0.00135,0.001 -0.00054,0.00023 -0.00112,0.00035 -0.00175,0.00035 -0.00128,0 -0.0023,-0.00036 -0.00304,-0.00107 -0.00074,-0.00071 -0.00111,-0.00177 -0.00111,-0.00318l0 -0.00549 0.00225 0 0 0.00519c0,0.00086 0.00019,0.00151 0.00059,0.00194 0.00039,0.00043 0.00095,0.00064 0.00167,0.00064 0.0008,0 0.00144,-0.00025 0.00192,-0.00075 0.00047,-0.0005 0.00071,-0.00122 0.00071,-0.00215l0 -0.00486 0.00225 0zm-0.01117 0.0091c-0.00026,0.00022 -0.00059,0.00038 -0.00096,0.00049 -0.00038,0.00011 -0.00078,0.00016 -0.0012,0.00016 -0.00106,0 -0.00187,-0.00028 -0.00245,-0.00083 -0.00058,-0.00055 -0.00086,-0.00136 -0.00086,-0.00241l0 -0.00463 -0.00159 0 0 -0.0018 0.00159 0 0 -0.0022 0.00225 0 0 0.0022 0.00258 0 0 0.0018 -0.00258 0 0 0.00458c0,0.00047 0.00011,0.00082 0.00034,0.00107 0.00023,0.00025 0.00056,0.00037 0.00099,0.00037 0.0005,0 0.00093,-0.00013 0.00126,-0.0004l0.00063 0.0016zm-0.01209 0.00065c-0.00078,0 -0.00154,-0.0001 -0.00229,-0.00031 -0.00074,-0.0002 -0.00134,-0.00046 -0.00178,-0.00078l0.00087 -0.00171c0.00043,0.00029 0.00095,0.00052 0.00156,0.00069 0.00061,0.00017 0.0012,0.00026 0.00179,0.00026 0.00134,0 0.00202,-0.00035 0.00202,-0.00106 0,-0.00034 -0.00017,-0.00057 -0.00051,-0.0007 -0.00034,-0.00013 -0.00089,-0.00026 -0.00165,-0.00038 -0.00079,-0.00012 -0.00144,-0.00026 -0.00194,-0.00041 -0.0005,-0.00016 -0.00093,-0.00043 -0.0013,-0.00082 -0.00037,-0.00039 -0.00055,-0.00093 -0.00055,-0.00163 0,-0.00091 0.00038,-0.00164 0.00114,-0.00219 0.00076,-0.00055 0.00179,-0.00082 0.00309,-0.00082 0.00066,0 0.00132,0.00007 0.00198,0.00022 0.00066,0.00015 0.0012,0.00035 0.00162,0.0006l-0.00086 0.00171c-0.00082,-0.00048 -0.00174,-0.00072 -0.00276,-0.00072 -0.00066,0 -0.00116,0.0001 -0.0015,0.0003 -0.00034,0.0002 -0.00051,0.00046 -0.00051,0.00078 0,0.00036 0.00018,0.00062 0.00055,0.00076 0.00037,0.00015 0.00093,0.00029 0.0017,0.00042 0.00077,0.00012 0.0014,0.00026 0.00189,0.00041 0.00049,0.00016 0.00091,0.00042 0.00127,0.00079 0.00035,0.00037 0.00053,0.0009 0.00053,0.00159 0,0.0009 -0.00039,0.00162 -0.00117,0.00216 -0.00078,0.00054 -0.00184,0.00081 -0.00319,0.00081zm-0.00483 -0.00065c-0.00026,0.00022 -0.00059,0.00038 -0.00096,0.00049 -0.00038,0.00011 -0.00078,0.00016 -0.0012,0.00016 -0.00106,0 -0.00187,-0.00028 -0.00245,-0.00083 -0.00058,-0.00055 -0.00086,-0.00136 -0.00086,-0.00241l0 -0.00463 -0.00159 0 0 -0.0018 0.00159 0 0 -0.0022 0.00225 0 0 0.0022 0.00258 0 0 0.0018 -0.00258 0 0 0.00458c0,0.00047 0.00011,0.00082 0.00034,0.00107 0.00023,0.00025 0.00056,0.00037 0.00099,0.00037 0.0005,0 0.00092,-0.00013 0.00126,-0.0004l0.00063 0.0016zm-0.01266 -0.0092c0.00121,0 0.00218,0.00035 0.00292,0.00106 0.00073,0.00071 0.0011,0.00176 0.0011,0.00315l0 0.00551 -0.00225 0 0 -0.00522c0,-0.00084 -0.0002,-0.00147 -0.00059,-0.0019 -0.0004,-0.00043 -0.00096,-0.00064 -0.00169,-0.00064 -0.00083,0 -0.00148,0.00025 -0.00196,0.00075 -0.00048,0.0005 -0.00072,0.00122 -0.00072,0.00215l0 0.00486 -0.00225 0 0 -0.00962 0.00214 0 0 0.00124c0.00037,-0.00045 0.00084,-0.00078 0.00141,-0.00101 0.00056,-0.00023 0.0012,-0.00034 0.00191,-0.00034zm-0.00953 -0.00148c-0.00041,0 -0.00075,-0.00013 -0.00103,-0.00039 -0.00027,-0.00026 -0.00041,-0.00058 -0.00041,-0.00096 0,-0.00038 0.00014,-0.00071 0.00041,-0.00096 0.00028,-0.00026 0.00062,-0.00039 0.00103,-0.00039 0.00041,0 0.00075,0.00012 0.00103,0.00037 0.00028,0.00025 0.00041,0.00056 0.00041,0.00093 0,0.0004 -0.00014,0.00073 -0.00041,0.001 -0.00027,0.00027 -0.00062,0.00041 -0.00104,0.00041zm-0.00114 0.00158l0.00225 0 0 0.00962 -0.00225 0 0 -0.00962zm-0.00533 0.00141c0.00065,-0.00101 0.00179,-0.00151 0.00342,-0.00151l0 0.00214c-0.00019,-0.00004 -0.00037,-0.00005 -0.00052,-0.00005 -0.00088,0 -0.00156,0.00026 -0.00205,0.00077 -0.00049,0.00051 -0.00074,0.00125 -0.00074,0.00221l0 0.00467 -0.00225 0 0 -0.00962 0.00214 0 0 0.00141zm-0.00942 0.00641c0.00083,0 0.00151,-0.00028 0.00204,-0.00083 0.00053,-0.00055 0.0008,-0.00128 0.0008,-0.00218 0,-0.0009 -0.00027,-0.00163 -0.0008,-0.00218 -0.00054,-0.00055 -0.00122,-0.00083 -0.00204,-0.00083 -0.00054,0 -0.00103,0.00012 -0.00146,0.00037 -0.00043,0.00025 -0.00077,0.0006 -0.00103,0.00105 -0.00025,0.00046 -0.00038,0.00098 -0.00038,0.00158 0,0.0006 0.00013,0.00113 0.00038,0.00159 0.00025,0.00045 0.0006,0.00081 0.00103,0.00105 0.00043,0.00025 0.00092,0.00037 0.00146,0.00037zm0.00025 -0.00792c0.00094,0 0.00177,0.0002 0.00251,0.00061 0.00074,0.00041 0.00132,0.00098 0.00174,0.00173 0.00042,0.00074 0.00063,0.0016 0.00063,0.00258 0,0.00097 -0.00021,0.00184 -0.00063,0.00259 -0.00042,0.00075 -0.001,0.00133 -0.00174,0.00174 -0.00074,0.00041 -0.00158,0.00061 -0.00251,0.00061 -0.0013,0 -0.00232,-0.00043 -0.00308,-0.0013l0 0.00467 -0.00225 0 0 -0.01311 0.00214 0 0 0.00126c0.00037,-0.00046 0.00083,-0.0008 0.00138,-0.00103 0.00055,-0.00023 0.00115,-0.00034 0.00181,-0.00034zm-0.01054 -0.00364l0.00225 0 0 0.01336 -0.00225 0 0 -0.01336zm-0.00756 0.01185c0.00056,0 0.00107,-0.00013 0.0015,-0.00039 0.00044,-0.00026 0.00075,-0.00063 0.00093,-0.00111l0 -0.00112 -0.00232 0c-0.0013,0 -0.00195,0.00043 -0.00195,0.00128 0,0.00041 0.00016,0.00073 0.00049,0.00097 0.00032,0.00024 0.00077,0.00036 0.00135,0.00036zm0.00031 -0.00821c0.00142,0 0.0025,0.00034 0.00325,0.00102 0.00075,0.00068 0.00113,0.0017 0.00113,0.00307l0 0.00564 -0.00213 0 0 -0.00117c-0.00028,0.00042 -0.00067,0.00074 -0.00118,0.00096 -0.00051,0.00022 -0.00113,0.00033 -0.00185,0.00033 -0.00072,0 -0.00135,-0.00012 -0.00189,-0.00037 -0.00054,-0.00025 -0.00096,-0.00059 -0.00125,-0.00103 -0.00029,-0.00044 -0.00044,-0.00093 -0.00044,-0.00149 0,-0.00086 0.00032,-0.00156 0.00096,-0.00208 0.00064,-0.00052 0.00165,-0.00078 0.00304,-0.00078l0.00249 0 0 -0.00014c0,-0.00067 -0.0002,-0.00119 -0.0006,-0.00155 -0.0004,-0.00036 -0.001,-0.00054 -0.00179,-0.00054 -0.00054,0 -0.00107,0.00009 -0.00159,0.00025 -0.00052,0.00017 -0.00096,0.0004 -0.00132,0.0007l-0.00088 -0.00164c0.0005,-0.00038 0.00111,-0.00068 0.00182,-0.00088 0.00071,-0.0002 0.00146,-0.00031 0.00225,-0.00031zm-0.00553 0.0092c-0.00026,0.00022 -0.00059,0.00038 -0.00096,0.00049 -0.00038,0.00011 -0.00078,0.00016 -0.0012,0.00016 -0.00106,0 -0.00187,-0.00028 -0.00245,-0.00083 -0.00058,-0.00055 -0.00086,-0.00136 -0.00086,-0.00241l0 -0.00463 -0.00159 0 0 -0.0018 0.00159 0 0 -0.0022 0.00225 0 0 0.0022 0.00258 0 0 0.0018 -0.00258 0 0 0.00458c0,0.00047 0.00011,0.00082 0.00034,0.00107 0.00023,0.00025 0.00056,0.00037 0.00099,0.00037 0.0005,0 0.00093,-0.00013 0.00126,-0.0004l0.00063 0.0016zm-0.00985 -0.01068c-0.00041,0 -0.00075,-0.00013 -0.00103,-0.00039 -0.00028,-0.00026 -0.00041,-0.00058 -0.00041,-0.00096 0,-0.00038 0.00014,-0.00071 0.00041,-0.00096 0.00028,-0.00026 0.00062,-0.00039 0.00103,-0.00039 0.00041,0 0.00075,0.00012 0.00103,0.00037 0.00028,0.00025 0.00041,0.00056 0.00041,0.00093 0,0.0004 -0.00014,0.00073 -0.00041,0.001 -0.00027,0.00027 -0.00062,0.00041 -0.00104,0.00041zm-0.00114 0.00158l0.00225 0 0 0.00962 -0.00225 0 0 -0.00962zm-0.00809 0.00728c0.00085,0 0.00155,-0.00026 0.0021,-0.00077 0.00055,-0.00051 0.00082,-0.00117 0.00082,-0.00199 0,-0.0008 -0.00027,-0.00146 -0.00082,-0.00196 -0.00055,-0.00051 -0.00125,-0.00076 -0.0021,-0.00076 -0.00087,0 -0.00157,0.00025 -0.00212,0.00076 -0.00055,0.0005 -0.00082,0.00116 -0.00082,0.00196 0,0.00082 0.00027,0.00148 0.00082,0.00199 0.00055,0.00051 0.00125,0.00077 0.00212,0.00077zm0.00513 -0.00728l0 0.00816c0,0.00339 -0.00173,0.00508 -0.00519,0.00508 -0.00092,0 -0.0018,-0.00012 -0.00263,-0.00035 -0.00083,-0.00023 -0.00151,-0.00057 -0.00205,-0.00102l0.00101 -0.00169c0.00042,0.00035 0.00095,0.00063 0.00159,0.00084 0.00064,0.00021 0.00129,0.00032 0.00195,0.00032 0.00106,0 0.00183,-0.00024 0.00232,-0.00072 0.00049,-0.00048 0.00074,-0.00121 0.00074,-0.0022l0 -0.0005c-0.00038,0.00042 -0.00085,0.00074 -0.0014,0.00096 -0.00055,0.00022 -0.00116,0.00032 -0.00182,0.00032 -0.00091,0 -0.00174,-0.00019 -0.00248,-0.00059 -0.00074,-0.00039 -0.00132,-0.00094 -0.00175,-0.00165 -0.00043,-0.00071 -0.00064,-0.00152 -0.00064,-0.00243 0,-0.00091 0.00021,-0.00172 0.00064,-0.00242 0.00043,-0.0007 0.00101,-0.00125 0.00175,-0.00163 0.00074,-0.00038 0.00156,-0.00058 0.00248,-0.00058 0.0007,0 0.00133,0.00011 0.0019,0.00034 0.00057,0.00023 0.00105,0.00058 0.00143,0.00105l0 -0.00128 0.00214 0zm-0.01362 -0.00158c-0.00041,0 -0.00075,-0.00013 -0.00103,-0.00039 -0.00027,-0.00026 -0.00041,-0.00058 -0.00041,-0.00096 0,-0.00038 0.00014,-0.00071 0.00041,-0.00096 0.00028,-0.00026 0.00062,-0.00039 0.00103,-0.00039 0.00041,0 0.00075,0.00012 0.00103,0.00037 0.00028,0.00025 0.00041,0.00056 0.00041,0.00093 0,0.0004 -0.00014,0.00073 -0.00041,0.001 -0.00027,0.00027 -0.00062,0.00041 -0.00104,0.00041zm-0.00114 0.00158l0.00225 0 0 0.00962 -0.00225 0 0 -0.00962zm-0.00803 0.00782c0.00054,0 0.00103,-0.00012 0.00146,-0.00037 0.00043,-0.00025 0.00078,-0.0006 0.00103,-0.00105 0.00025,-0.00046 0.00038,-0.00099 0.00038,-0.00159 0,-0.0006 -0.00013,-0.00113 -0.00038,-0.00158 -0.00025,-0.00046 -0.0006,-0.00081 -0.00103,-0.00105 -0.00043,-0.00025 -0.00092,-0.00037 -0.00146,-0.00037 -0.00054,0 -0.00103,0.00012 -0.00146,0.00037 -0.00043,0.00025 -0.00078,0.0006 -0.00103,0.00105 -0.00025,0.00046 -0.00038,0.00098 -0.00038,0.00158 0,0.0006 0.00013,0.00113 0.00038,0.00159 0.00025,0.00045 0.00059,0.00081 0.00103,0.00105 0.00043,0.00025 0.00092,0.00037 0.00146,0.00037zm0.00508 -0.01156l0 0.01336 -0.00216 0 0 -0.00124c-0.00037,0.00046 -0.00083,0.0008 -0.00138,0.00103 -0.00055,0.00023 -0.00115,0.00034 -0.00181,0.00034 -0.00092,0 -0.00176,-0.0002 -0.00249,-0.00061 -0.00074,-0.00041 -0.00132,-0.00099 -0.00174,-0.00174 -0.00042,-0.00075 -0.00063,-0.00161 -0.00063,-0.00259 0,-0.00097 0.00021,-0.00183 0.00063,-0.00258 0.00042,-0.00074 0.001,-0.00132 0.00174,-0.00173 0.00074,-0.00041 0.00157,-0.00061 0.00249,-0.00061 0.00064,0 0.00122,0.00011 0.00175,0.00032 0.00053,0.00022 0.00098,0.00054 0.00135,0.00097l0 -0.00493 0.00225 0zm-0.19201 -0.01436c0.00142,0 0.00279,0.00014 0.00412,0.00041 0.00133,0.00028 0.00251,0.00075 0.00355,0.00142 0.00104,0.00067 0.00187,0.00159 0.00251,0.00275 0.00064,0.00116 0.00096,0.00262 0.00096,0.00438l0 0.00979c0,0.00159 -0.00028,0.00295 -0.00086,0.00409 -0.00057,0.00114 -0.00132,0.00208 -0.00225,0.00282 -0.00093,0.00074 -0.002,0.0013 -0.00321,0.00166 -0.00121,0.00036 -0.00243,0.00054 -0.00368,0.00054 -0.00155,0 -0.00301,-0.00031 -0.00435,-0.00093l0 0.00879 -0.00725 0 0 -0.03372c0.00166,-0.00062 0.00339,-0.00111 0.00521,-0.00148 0.00181,-0.00036 0.00357,-0.00054 0.00526,-0.00054zm0.08016 -0.00544l0 0.00596 0.00477 0 0 0.00658 -0.00477 0 0 0.01078c0,0.00155 0.00043,0.00257 0.0013,0.00306 0.00052,0.00028 0.00119,0.00041 0.00202,0.00041 0.00062,0 0.00136,-0.00009 0.00223,-0.00026l0 0.00591c-0.00156,0.00052 -0.00302,0.00078 -0.0044,0.00078 -0.00021,0 -0.00042,0 -0.00062,0 -0.00155,-0.0001 -0.0029,-0.00054 -0.00404,-0.00129 -0.00114,-0.00076 -0.00203,-0.00186 -0.00267,-0.00329 -0.00064,-0.00143 -0.00096,-0.00319 -0.00096,-0.00526l0 -0.02337 0.00715 0zm-0.08058 0.02777c0.00117,0 0.00219,-0.00029 0.00306,-0.00088 0.00086,-0.00059 0.00129,-0.00149 0.00129,-0.00269l0 -0.01016c0,-0.00111 -0.00041,-0.0019 -0.00124,-0.00238 -0.00083,-0.00048 -0.00183,-0.00072 -0.003,-0.00072 -0.00111,0 -0.00207,0.00021 -0.0029,0.00062l0 0.0156c0.00038,0.00021 0.00081,0.00036 0.0013,0.00047 0.00048,0.0001 0.00098,0.00016 0.0015,0.00016zm0.02674 -0.02233c0.001,0 0.00226,0.00017 0.00378,0.00052l0 0.0058c-0.00066,-0.00017 -0.00133,-0.00026 -0.00202,-0.00026 -0.00014,0 -0.00026,0 -0.00036,0 -0.00083,0.00003 -0.0016,0.00019 -0.00231,0.00047 -0.00071,0.00028 -0.00129,0.00067 -0.00174,0.00119 -0.00045,0.00052 -0.00067,0.00116 -0.00067,0.00192l0 0.01772 -0.0072 0 0 -0.01783c0,-0.00159 0.00032,-0.00299 0.00096,-0.0042 0.00064,-0.00121 0.00146,-0.0022 0.00246,-0.00298 0.001,-0.00078 0.00213,-0.00136 0.00339,-0.00176 0.00126,-0.0004 0.0025,-0.0006 0.0037,-0.0006zm0.01083 -0.01031c0.00124,0 0.0023,0.00043 0.00316,0.0013 0.00086,0.00086 0.0013,0.00192 0.0013,0.00316 0,0.00128 -0.00043,0.00235 -0.0013,0.00321 -0.00086,0.00086 -0.00192,0.0013 -0.00316,0.0013 -0.00124,0 -0.00229,-0.00043 -0.00313,-0.0013 -0.00085,-0.00086 -0.00127,-0.00193 -0.00127,-0.00321 0,-0.00124 0.00042,-0.0023 0.00127,-0.00316 0.00085,-0.00086 0.00189,-0.0013 0.00313,-0.0013zm0.00373 0.03767l-0.00736 0 0 -0.0266c0.00107,0.0006 0.00227,0.0009 0.00361,0.0009 0.00139,0 0.00264,-0.00032 0.00375,-0.00097l0 0.02666zm0.01523 -0.02736c0.00152,0 0.00298,0.00018 0.00438,0.00054 0.0014,0.00036 0.00264,0.00093 0.00373,0.00171 0.00109,0.00078 0.00196,0.00179 0.00262,0.00303 0.00066,0.00124 0.00098,0.00275 0.00098,0.00451l0 0.01757 -0.00715 0 0 -0.01731c0,-0.00124 -0.00042,-0.00215 -0.00127,-0.00272 -0.00085,-0.00057 -0.00179,-0.00085 -0.00282,-0.00085 -0.00111,0 -0.00209,0.00024 -0.00295,0.00072l0 0.02016 -0.0072 0 0 -0.02503c0.00149,-0.00072 0.00306,-0.00129 0.00472,-0.00171 0.00166,-0.00042 0.00332,-0.00062 0.00497,-0.00062zm0.05456 0.00881l0 0.01855 -0.00409 0 0 -0.01871c0,-0.00083 -0.00018,-0.00155 -0.00054,-0.00215 -0.00036,-0.0006 -0.00083,-0.0011 -0.0014,-0.0015 -0.00057,-0.0004 -0.00121,-0.00069 -0.00192,-0.00088 -0.00071,-0.00019 -0.00143,-0.00028 -0.00215,-0.00028 -0.00121,0 -0.00238,0.00013 -0.0035,0.00039 -0.00112,0.00026 -0.00206,0.00053 -0.00282,0.0008l0 0.02233 -0.00415 0 0 -0.02513c0.00173,-0.00059 0.00348,-0.00111 0.00526,-0.00155 0.00178,-0.00045 0.00351,-0.00067 0.00521,-0.00067 0.00128,0.00003 0.00252,0.00023 0.00373,0.0006 0.00121,0.00036 0.00229,0.00091 0.00324,0.00163 0.00095,0.00072 0.00171,0.00163 0.00228,0.00272 0.00057,0.00109 0.00085,0.00238 0.00085,0.00386zm0.00554 0.00015c0,-0.00149 0.0003,-0.00279 0.00091,-0.00391 0.0006,-0.00112 0.00139,-0.00206 0.00236,-0.0028 0.00097,-0.00074 0.00207,-0.0013 0.00332,-0.00168 0.00124,-0.00038 0.00252,-0.00057 0.00384,-0.00057 0.00128,0 0.00254,0.00019 0.00378,0.00057 0.00124,0.00038 0.00235,0.00094 0.00332,0.00168 0.00097,0.00074 0.00174,0.00168 0.00233,0.0028 0.00059,0.00112 0.00088,0.00243 0.00088,0.00391l0 0.00995c0,0.00152 -0.00029,0.00283 -0.00088,0.00394 -0.00059,0.0011 -0.00136,0.00203 -0.00233,0.00277 -0.00097,0.00074 -0.00207,0.0013 -0.00332,0.00168 -0.00124,0.00038 -0.0025,0.00057 -0.00378,0.00057 -0.00131,0 -0.00259,-0.00019 -0.00384,-0.00057 -0.00124,-0.00038 -0.00235,-0.00094 -0.00332,-0.00168 -0.00097,-0.00074 -0.00175,-0.00167 -0.00236,-0.00277 -0.00061,-0.00111 -0.00091,-0.00242 -0.00091,-0.00394l0 -0.00995zm0.01042 -0.00503c-0.00076,0 -0.00151,0.0001 -0.00225,0.00029 -0.00074,0.00019 -0.00142,0.00049 -0.00202,0.00091 -0.0006,0.00041 -0.00109,0.00093 -0.00145,0.00155 -0.00036,0.00062 -0.00054,0.00135 -0.00054,0.00218l0 0.0101c0,0.00083 0.00018,0.00155 0.00054,0.00218 0.00036,0.00062 0.00085,0.00114 0.00145,0.00155 0.00061,0.00041 0.00128,0.00072 0.00202,0.00093 0.00074,0.00021 0.00149,0.00031 0.00225,0.00031 0.00072,0 0.00145,-0.0001 0.00218,-0.00031 0.00073,-0.00021 0.00139,-0.00052 0.002,-0.00093 0.0006,-0.00042 0.00109,-0.00093 0.00145,-0.00155 0.00036,-0.00062 0.00054,-0.00135 0.00054,-0.00218l0 -0.0101c0,-0.00083 -0.00018,-0.00155 -0.00054,-0.00218 -0.00036,-0.00062 -0.00085,-0.00114 -0.00145,-0.00155 -0.00061,-0.00041 -0.00127,-0.00072 -0.002,-0.00091 -0.00072,-0.00019 -0.00145,-0.00029 -0.00218,-0.00029zm0.03275 -0.00301l0.00549 0.02233 0.00016 0 0.00181 -0.00772 0.00441 -0.01503 0.00404 0 -0.00803 0.02684 -0.00497 0 -0.00285 -0.01202 -0.00187 -0.00896 -0.00187 0.00902 -0.0029 0.01197 -0.00497 0 -0.00808 -0.02684 0.0042 0 0.0044 0.01503 0.00181 0.00772 0.00016 0 0.00534 -0.02233 0.00373 0z"/>
 </g>
</svg>
