<?xml version="1.0" encoding="UTF-8"?>
<!DOCTYPE svg PUBLIC "-//W3C//DTD SVG 1.1//EN" "http://www.w3.org/Graphics/SVG/1.1/DTD/svg11.dtd">
<!-- Creator: CorelDRAW 2020 (64-Bit) -->
<svg xmlns="http://www.w3.org/2000/svg" xml:space="preserve" width="0.25in" height="0.31in" version="1.1" style="shape-rendering:geometricPrecision; text-rendering:geometricPrecision; image-rendering:optimizeQuality; fill-rule:evenodd; clip-rule:evenodd"
viewBox="0 0 0.04373 0.05423"
 xmlns:xlink="http://www.w3.org/1999/xlink"
 xmlns:xodm="http://www.corel.com/coreldraw/odm/2003">
 <defs>
  <style type="text/css">
   <![CDATA[
    .fil0 {fill:#FAAA32;fill-rule:nonzero}
   ]]>
  </style>
 </defs>
 <g id="Layer_x0020_1">
  <metadata id="CorelCorpID_0Corel-Layer"/>
  <path class="fil0" d="M0.00179 0.01249l0.00463 -0.00262 -0.00344 -0.0025 -0.00109 0.00062 -0.0001 0.0045zm0.00973 0.02375l0.00064 0 0 0.00295 0.00183 0 0 0.00088 -0.00276 0 0 -0.00383 0.00029 0zm0.00477 0.00386c-0.00018,0 -0.00036,-0.00002 -0.00053,-0.00006 -0.00017,-0.00004 -0.00033,-0.00011 -0.00049,-0.00019 -0.00015,-0.00008 -0.00029,-0.00019 -0.00041,-0.0003 -0.00012,-0.00012 -0.00023,-0.00025 -0.00031,-0.0004 -0.00009,-0.00015 -0.00015,-0.00031 -0.0002,-0.00047 -0.00004,-0.00017 -0.00007,-0.00034 -0.00007,-0.00052 0,-0.00018 0.00002,-0.00035 0.00007,-0.00052 0.00004,-0.00017 0.00011,-0.00033 0.0002,-0.00047 0.00009,-0.00015 0.00019,-0.00028 0.00031,-0.0004 0.00012,-0.00012 0.00026,-0.00022 0.00041,-0.0003 0.00015,-0.00008 0.00031,-0.00015 0.00049,-0.00019 0.00017,-0.00004 0.00035,-0.00006 0.00053,-0.00006 0.00037,0 0.00071,0.00008 0.00102,0.00025 0.00015,0.00008 0.00029,0.00019 0.00041,0.0003 0.00012,0.00012 0.00023,0.00025 0.00031,0.0004 0.00009,0.00015 0.00015,0.00031 0.0002,0.00047 0.00004,0.00017 0.00007,0.00034 0.00007,0.00052 0,0.00018 -0.00002,0.00035 -0.00007,0.00052 -0.00004,0.00017 -0.00011,0.00033 -0.0002,0.00047 -0.00009,0.00015 -0.00019,0.00028 -0.00031,0.0004 -0.00012,0.00012 -0.00026,0.00022 -0.00041,0.0003 -0.00015,0.00008 -0.00031,0.00015 -0.00048,0.00019 -0.00017,0.00004 -0.00035,0.00006 -0.00053,0.00006zm0 -0.00089c0.00011,0 0.00021,-0.00001 0.0003,-0.00003 0.00009,-0.00002 0.00018,-0.00006 0.00026,-0.0001 0.00008,-0.00005 0.00015,-0.0001 0.00022,-0.00016 0.00006,-0.00006 0.00012,-0.00013 0.00016,-0.00021 0.00005,-0.00008 0.00008,-0.00017 0.0001,-0.00025 0.00002,-0.00009 0.00004,-0.00019 0.00004,-0.00029 0,-0.0002 -0.00005,-0.00038 -0.00014,-0.00054 -0.00009,-0.00016 -0.00022,-0.00028 -0.00038,-0.00037 -0.00008,-0.00004 -0.00017,-0.00008 -0.00026,-0.0001 -0.00009,-0.00002 -0.00019,-0.00003 -0.0003,-0.00003 -0.00011,0 -0.00021,0.00001 -0.0003,0.00003 -0.00009,0.00002 -0.00018,0.00006 -0.00026,0.0001 -0.00008,0.00004 -0.00015,0.0001 -0.00022,0.00016 -0.00006,0.00006 -0.00012,0.00013 -0.00017,0.00021 -0.00005,0.00008 -0.00008,0.00017 -0.00011,0.00025 -0.00002,0.00009 -0.00003,0.00018 -0.00003,0.00029 0,0.0002 0.00005,0.00038 0.00014,0.00054 0.00005,0.00008 0.0001,0.00015 0.00017,0.00021 0.00006,0.00006 0.00013,0.00011 0.00022,0.00016 0.00008,0.00005 0.00017,0.00008 0.00026,0.0001 0.00009,0.00002 0.00019,0.00003 0.0003,0.00003zm0.00544 -0.00134l0.00062 0 0 0.00166 -0.0001 0.00009c-0.00009,0.00008 -0.00019,0.00015 -0.0003,0.00021 -0.0001,0.00006 -0.00022,0.00011 -0.00034,0.00015 -0.00012,0.00004 -0.00024,0.00007 -0.00037,0.00009 -0.00013,0.00002 -0.00026,0.00003 -0.00038,0.00003 -0.00018,0 -0.00036,-0.00002 -0.00054,-0.00006 -0.00017,-0.00004 -0.00034,-0.0001 -0.00049,-0.00019 -0.00015,-0.00008 -0.00029,-0.00018 -0.00041,-0.0003 -0.00012,-0.00012 -0.00023,-0.00025 -0.00031,-0.0004 -0.00009,-0.00015 -0.00015,-0.00031 -0.0002,-0.00047 -0.00004,-0.00017 -0.00007,-0.00034 -0.00007,-0.00052 0,-0.00018 0.00002,-0.00035 0.00007,-0.00052 0.00004,-0.00017 0.00011,-0.00033 0.0002,-0.00048 0.00009,-0.00015 0.00019,-0.00028 0.00031,-0.0004 0.00012,-0.00012 0.00026,-0.00022 0.00041,-0.0003 0.00015,-0.00008 0.00032,-0.00015 0.00049,-0.00019 0.00017,-0.00004 0.00035,-0.00006 0.00054,-0.00006 0.00014,0 0.00028,0.00001 0.00041,0.00003 0.00013,0.00002 0.00026,0.00006 0.00038,0.0001 0.00013,0.00005 0.00024,0.00011 0.00035,0.00018 0.00011,0.00007 0.0002,0.00015 0.00029,0.00025l0.00019 0.0002 -0.00061 0.00062 -0.00021 -0.00021c-0.0001,-0.0001 -0.00021,-0.00017 -0.00034,-0.00022 -0.00013,-0.00005 -0.00027,-0.00007 -0.00044,-0.00007 -0.00011,0 -0.00022,0.00001 -0.00031,0.00003 -0.00009,0.00002 -0.00018,0.00006 -0.00027,0.0001 -0.00008,0.00005 -0.00016,0.0001 -0.00022,0.00016 -0.00006,0.00006 -0.00012,0.00013 -0.00017,0.00021 -0.00005,0.00008 -0.00008,0.00016 -0.00011,0.00025 -0.00002,0.00009 -0.00003,0.00018 -0.00003,0.00029 0,0.0001 0.00001,0.0002 0.00003,0.00029 0.00002,0.00009 0.00006,0.00017 0.00011,0.00025 0.00005,0.00008 0.0001,0.00015 0.00017,0.00021 0.00006,0.00006 0.00014,0.00012 0.00022,0.00016 0.00008,0.00005 0.00017,0.00008 0.00026,0.0001 0.0001,0.00002 0.0002,0.00004 0.00031,0.00004 0.00014,0 0.00027,-0.00002 0.00038,-0.00005 0.00006,-0.00002 0.00012,-0.00004 0.00018,-0.00007l0 -0.00122 0.00029 0zm0.00339 0.00223c-0.00018,0 -0.00036,-0.00002 -0.00053,-0.00006 -0.00017,-0.00004 -0.00033,-0.00011 -0.00049,-0.00019 -0.00015,-0.00008 -0.00029,-0.00019 -0.00041,-0.0003 -0.00012,-0.00012 -0.00023,-0.00025 -0.00031,-0.0004 -0.00009,-0.00015 -0.00015,-0.00031 -0.0002,-0.00047 -0.00004,-0.00017 -0.00007,-0.00034 -0.00007,-0.00052 0,-0.00018 0.00002,-0.00035 0.00007,-0.00052 0.00004,-0.00017 0.00011,-0.00033 0.0002,-0.00047 0.00009,-0.00015 0.00019,-0.00028 0.00031,-0.0004 0.00012,-0.00012 0.00026,-0.00022 0.00041,-0.0003 0.00015,-0.00008 0.00031,-0.00015 0.00049,-0.00019 0.00017,-0.00004 0.00035,-0.00006 0.00053,-0.00006 0.00037,0 0.00071,0.00008 0.00102,0.00025 0.00015,0.00008 0.00029,0.00019 0.00041,0.0003 0.00012,0.00012 0.00023,0.00025 0.00031,0.0004 0.00009,0.00015 0.00015,0.00031 0.0002,0.00047 0.00004,0.00017 0.00007,0.00034 0.00007,0.00052 0,0.00018 -0.00002,0.00035 -0.00007,0.00052 -0.00004,0.00017 -0.00011,0.00033 -0.0002,0.00047 -0.00009,0.00015 -0.00019,0.00028 -0.00031,0.0004 -0.00012,0.00012 -0.00026,0.00022 -0.00041,0.0003 -0.00015,0.00008 -0.00031,0.00015 -0.00048,0.00019 -0.00017,0.00004 -0.00035,0.00006 -0.00053,0.00006zm0 -0.00089c0.00011,0 0.00021,-0.00001 0.0003,-0.00003 0.00009,-0.00002 0.00018,-0.00006 0.00026,-0.0001 0.00008,-0.00005 0.00015,-0.0001 0.00022,-0.00016 0.00006,-0.00006 0.00012,-0.00013 0.00016,-0.00021 0.00005,-0.00008 0.00008,-0.00017 0.0001,-0.00025 0.00002,-0.00009 0.00004,-0.00019 0.00004,-0.00029 0,-0.0002 -0.00005,-0.00038 -0.00014,-0.00054 -0.00009,-0.00016 -0.00022,-0.00028 -0.00038,-0.00037 -0.00008,-0.00004 -0.00017,-0.00008 -0.00026,-0.0001 -0.00009,-0.00002 -0.00019,-0.00003 -0.0003,-0.00003 -0.00011,0 -0.00021,0.00001 -0.0003,0.00003 -0.00009,0.00002 -0.00018,0.00006 -0.00026,0.0001 -0.00008,0.00004 -0.00015,0.0001 -0.00022,0.00016 -0.00006,0.00006 -0.00012,0.00013 -0.00017,0.00021 -0.00005,0.00008 -0.00008,0.00017 -0.00011,0.00025 -0.00002,0.00009 -0.00003,0.00018 -0.00003,0.00029 0,0.0002 0.00005,0.00038 0.00014,0.00054 0.00005,0.00008 0.0001,0.00015 0.00017,0.00021 0.00006,0.00006 0.00013,0.00011 0.00022,0.00016 0.00008,0.00005 0.00017,0.00008 0.00026,0.0001 0.00009,0.00002 0.00019,0.00003 0.0003,0.00003zm-0.00308 -0.03396l-0.00089 0 -0.00174 0.00384 0.00437 0 -0.00174 -0.00384zm0.01534 -0.00279l0.00616 0.00302 -0.0024 0.00478 0.00259 0.00129 -0.00379 0.00755 -0.00157 -0.00078 0.00301 -0.006 -0.00102 -0.00051 -0.00487 0.00972 0.00128 0 -0.00052 0.00534 0.00129 0 0.0003 0.00002c0.0007,0.00007 0.00131,0.0004 0.00174,0.00088 0.00043,0.00048 0.00069,0.00112 0.00069,0.00182l-0.00002 0.0003 -0.00059 0.0057c-0.00008,0.00079 -0.00048,0.0015 -0.00105,0.00201 -0.00057,0.00051 -0.00133,0.00083 -0.00212,0.00083l-0.00137 0 -0.00103 0.00997c-0.00016,0.00162 -0.00085,0.0031 -0.00191,0.00416 -0.00104,0.00103 -0.00242,0.00167 -0.00403,0.00167l-0.01792 0c-0.0016,0 -0.00299,-0.00064 -0.00403,-0.00167 -0.00107,-0.00106 -0.00175,-0.00254 -0.00191,-0.00416l-0.00269 -0.02687 0.00096 0 0.00094 0 -0.0035 -0.00734 0.00025 -0.01097 0.00848 0.00616 0.00579 0.01215 0.00266 0 0 -0.01176 0.00442 -0.00978 0.00442 0.00978 0 0.01176 0.00083 0 0.00976 -0.01946 0.00078 0.00038zm0.0038 0.00381l-0.00379 -0.00186 -0.0016 0.00319 0.00378 0.00188 0.00161 -0.00321zm-0.00617 0.00289l-0.00621 0.01238 0.00473 0 0.00526 -0.0105 -0.00378 -0.00188zm-0.01076 0.01238l0 -0.0107 -0.00178 0 0 0.0107 0.00178 0zm-0.00532 -0.0107l0 0.0107 0.00178 0 0 -0.0107 -0.00178 0zm-0.00636 0.0107l-0.00493 -0.01035 -0.00205 0.00116 0.00438 0.0092 0.0026 0zm-0.00851 -0.00833l-0.00205 0.00116 0.00342 0.00717 0.0026 0 -0.00397 -0.00833zm0.02928 0.02522l0.00113 -0.01155 0.00035 -0.00359 -0.00022 0 -0.0086 0 -0.00005 0 -0.00083 0 -0.00795 0 -0.00183 0 -0.01102 0 -0.0008 0 0.0025 0.02496c0.00012,0.00121 0.00063,0.00231 0.00141,0.00309 0.00072,0.00071 0.00168,0.00116 0.00278,0.00116l0.01792 0c0.00111,0 0.00207,-0.00044 0.00278,-0.00116 0.00079,-0.00078 0.00129,-0.00188 0.00141,-0.00309l0.00101 -0.00981zm0.00272 -0.00981l-0.00079 0.00806 0.0012 0c0.00035,0 0.00069,-0.00015 0.00095,-0.00038 0.00026,-0.00023 0.00044,-0.00055 0.00048,-0.00089l0.00059 -0.0057 0 -0.00013c0,-0.00026 -0.00009,-0.00049 -0.00024,-0.00066 -0.00015,-0.00017 -0.00036,-0.00028 -0.00061,-0.0003l-0.00012 -0 -0.00146 0z"/>
 </g>
</svg>
