<?xml version="1.0" encoding="UTF-8"?>
<!DOCTYPE svg PUBLIC "-//W3C//DTD SVG 1.1//EN" "http://www.w3.org/Graphics/SVG/1.1/DTD/svg11.dtd">
<!-- Creator: CorelDRAW 2020 (64-Bit) -->
<svg xmlns="http://www.w3.org/2000/svg" xml:space="preserve" width="0.31in" height="0.31in" version="1.1" style="shape-rendering:geometricPrecision; text-rendering:geometricPrecision; image-rendering:optimizeQuality; fill-rule:evenodd; clip-rule:evenodd"
viewBox="0 0 0.06182 0.06182"
 xmlns:xlink="http://www.w3.org/1999/xlink"
 xmlns:xodm="http://www.corel.com/coreldraw/odm/2003">
 <defs>
  <style type="text/css">
   <![CDATA[
    .fil0 {fill:#FAAA32;fill-rule:nonzero}
   ]]>
  </style>
 </defs>
 <g id="Layer_x0020_1">
  <metadata id="CorelCorpID_0Corel-Layer"/>
  <path class="fil0" d="M0.03671 0.05637l0.0032 0 0 0.00545 -0.002 0 0 -0.00346 -0.00486 0 0 -0.00199 0.00166 0 0 -0.01199 0.002 0 0 0.01199zm-0.00775 -0.01199l0 0.01398 -0.00266 0 0 0.00346 -0.002 0 0 -0.00545 0.00266 0 0 -0.01199 0.002 0zm-0.00019 -0.04438l0.00428 0 0 0.00199 -0.00114 0 0 0.00285 0.01443 0 0 -0.00285 -0.00114 0 0 -0.00199 0.00428 0 0 0.00199 -0.00114 0 0 0.00285 0.01348 0 0 0.03674 -0.06182 0 0 -0.03674 0.01348 0 0 -0.00285 -0.00114 0 0 -0.00199 0.00428 0 0 0.00199 -0.00114 0 0 0.00285 0.01443 0 0 -0.00285 -0.00114 0 0 -0.00199zm0.03105 0.00684l-0.05782 0 0 0.03275 0.05782 0 0 -0.03275zm-0.04657 0.01748l-0.00171 0 -0.00044 0.00097 -0.00096 0 0.0019 -0.00414 0.00071 0 0.0019 0.00414 -0.00096 0 -0.00044 -0.00097zm-0.00037 -0.00082l-0.00049 -0.00108 -0.00048 0.00108 0.00097 0zm0.00248 -0.00235l0.00148 0c0.00042,0 0.00081,0.00009 0.00114,0.00026 0.00034,0.00018 0.0006,0.00042 0.00079,0.00074 0.00009,0.00016 0.00016,0.00033 0.00021,0.00051 0.00005,0.00018 0.00007,0.00037 0.00007,0.00056 0,0.0002 -0.00002,0.00038 -0.00007,0.00056 -0.00005,0.00018 -0.00012,0.00035 -0.00021,0.00051 -0.00019,0.00032 -0.00045,0.00056 -0.00079,0.00074 -0.00017,0.00009 -0.00035,0.00015 -0.00054,0.0002 -0.00019,0.00004 -0.00039,0.00006 -0.0006,0.00006l-0.00174 0 0 -0.00414 0.00025 0zm0.00146 0.0033c0.00028,0 0.00052,-0.00005 0.00072,-0.00016 0.0001,-0.00005 0.00019,-0.00012 0.00026,-0.00019 0.00008,-0.00007 0.00014,-0.00015 0.00019,-0.00024 0.00005,-0.00009 0.00009,-0.00019 0.00012,-0.00029 0.00003,-0.00011 0.00004,-0.00022 0.00004,-0.00035 0,-0.00025 -0.00005,-0.00046 -0.00016,-0.00064 -0.00005,-0.00009 -0.00012,-0.00017 -0.00019,-0.00024 -0.00008,-0.00007 -0.00016,-0.00013 -0.00026,-0.00019 -0.0001,-0.00005 -0.00021,-0.00009 -0.00033,-0.00012 -0.00012,-0.00003 -0.00025,-0.00004 -0.00039,-0.00004l-0.00083 0 0 0.00246 0.00083 0zm0.00649 -0.00295l-0.00168 0.00378 -0.00071 0 -0.00184 -0.00414 0.00097 0 0.00123 0.00278 0.00124 -0.00278 0.00094 0 -0.00016 0.00035zm0.00362 0.0032l0 0.00058 -0.00309 0 0 -0.00414 0.00301 0 0 0.00084 -0.00212 0 0 0.00079 0.00189 0 0 0.00083 -0.00189 0 0 0.00084 0.00219 0 0 0.00025zm0.00343 0.00048l-0.00075 -0.00105 -0.0009 0 0 0.00115 -0.00089 0 0 -0.00414 0.00162 0c0.00053,0 0.00095,0.00013 0.00126,0.00039 0.00016,0.00014 0.00029,0.0003 0.00037,0.00049 0.00008,0.00019 0.00012,0.00039 0.00012,0.00062 0,0.00017 -0.00002,0.00032 -0.00007,0.00046 -0.00005,0.00015 -0.00011,0.00029 -0.0002,0.0004 -0.00009,0.00012 -0.0002,0.00023 -0.00032,0.00031l-0.00011 0.00007 0.001 0.00139 -0.00105 0 -0.00008 -0.00011zm-0.00093 -0.00188c0.0003,0 0.00052,-0.00006 0.00067,-0.00018 0.00006,-0.00005 0.00011,-0.00012 0.00014,-0.00019 0.00003,-0.00008 0.00005,-0.00017 0.00005,-0.00028 0,-0.00011 -0.00002,-0.00021 -0.00005,-0.00029 -0.00003,-0.00007 -0.00008,-0.00014 -0.00014,-0.00019 -0.00007,-0.00005 -0.00015,-0.0001 -0.00026,-0.00013 -0.00011,-0.00003 -0.00025,-0.00005 -0.00041,-0.00005l-0.00072 0 0 0.00132 0.00072 0zm0.00331 -0.00132l-0.00128 0 0 -0.00084 0.00346 0 0 0.00084 -0.00128 0 0 0.0033 -0.00089 0 0 -0.0033zm0.00303 -0.00084l0.00064 0 0 0.00414 -0.00089 0 0 -0.00414 0.00025 0zm0.00308 0.00417c-0.0003,0 -0.00059,-0.00005 -0.00086,-0.00014 -0.00029,-0.0001 -0.00051,-0.00024 -0.00068,-0.00041l-0.00012 -0.00013 0.00039 -0.00076 0.00025 0.00025c0.00005,0.00005 0.00012,0.0001 0.00018,0.00014 0.00007,0.00004 0.00016,0.00008 0.00025,0.00012 0.00009,0.00003 0.00019,0.00006 0.00029,0.00008 0.0001,0.00002 0.0002,0.00003 0.0003,0.00003 0.00027,0 0.00047,-0.00004 0.00058,-0.00013 0.00005,-0.00004 0.00009,-0.00008 0.00011,-0.00012 0.00002,-0.00004 0.00003,-0.00009 0.00003,-0.00014l-0.00002 -0.00011 -0.00004 -0.00006 -0.0001 -0.00008 -0.00013 -0.00006c-0.0003,-0.00009 -0.0006,-0.00017 -0.00089,-0.00025l-0.00031 -0.0001c-0.0001,-0.00004 -0.0002,-0.00009 -0.00028,-0.00015 -0.00008,-0.00006 -0.00016,-0.00013 -0.00023,-0.00021 -0.00008,-0.00009 -0.00014,-0.0002 -0.00018,-0.00032 -0.00004,-0.00012 -0.00006,-0.00024 -0.00006,-0.00038 0,-0.00023 0.00006,-0.00044 0.00019,-0.00064 0.00012,-0.00019 0.00031,-0.00035 0.00056,-0.00045 0.00012,-0.00005 0.00025,-0.00009 0.0004,-0.00012 0.00014,-0.00002 0.00029,-0.00004 0.00045,-0.00004 0.00023,0 0.00046,0.00003 0.00068,0.0001 0.00011,0.00003 0.00022,0.00007 0.00031,0.00011 0.0001,0.00004 0.00019,0.0001 0.00028,0.00016l0.00017 0.00012 -0.00033 0.00077 -0.00025 -0.00016 -0.00021 -0.00011 -0.00022 -0.00008 -0.00022 -0.00005 -0.00022 -0.00002c-0.00014,0 -0.00026,0.00001 -0.00036,0.00004 -0.00009,0.00002 -0.00016,0.00005 -0.00021,0.00009 -0.00005,0.00004 -0.00009,0.00008 -0.00011,0.00012 -0.00002,0.00004 -0.00003,0.00009 -0.00003,0.00015l0.00002 0.00011 0.00004 0.00007 0.0001 0.00008 0.00014 0.00006c0.00029,0.00009 0.00059,0.00017 0.00089,0.00025l0.00031 0.0001c0.0001,0.00004 0.0002,0.00009 0.00028,0.00015 0.00008,0.00006 0.00016,0.00013 0.00023,0.00021 0.00008,0.00009 0.00014,0.0002 0.00018,0.00032 0.00004,0.00011 0.00006,0.00024 0.00006,0.00038 0,0.00011 -0.00002,0.00023 -0.00005,0.00033 -0.00003,0.00011 -0.00008,0.00021 -0.00014,0.00031 -0.00013,0.00019 -0.00032,0.00034 -0.00057,0.00045 -0.00012,0.00005 -0.00025,0.00009 -0.0004,0.00012 -0.00014,0.00002 -0.00029,0.00004 -0.00046,0.00004zm0.00269 -0.00417l0.00064 0 0 0.00414 -0.00089 0 0 -0.00414 0.00025 0zm0.00537 0.00025l0 0.00388 -0.00069 0 -0.00197 -0.00247 0 0.00247 -0.00089 0 0 -0.00414 0.00069 0 0.00197 0.00247 0 -0.00247 0.00089 0 0 0.00025zm0.004 0.00156l0.00062 0 0 0.00175 -0.00009 0.00008c-0.0001,0.00008 -0.00021,0.00016 -0.00032,0.00023 -0.00012,0.00007 -0.00024,0.00012 -0.00037,0.00017 -0.00013,0.00004 -0.00026,0.00008 -0.0004,0.0001 -0.00014,0.00002 -0.00028,0.00003 -0.00042,0.00003 -0.00041,0 -0.00078,-0.00009 -0.00111,-0.00027 -0.00016,-0.00009 -0.00031,-0.0002 -0.00044,-0.00032 -0.00013,-0.00013 -0.00024,-0.00027 -0.00034,-0.00043 -0.0001,-0.00016 -0.00017,-0.00033 -0.00022,-0.00051 -0.00005,-0.00018 -0.00007,-0.00037 -0.00007,-0.00056 0,-0.00019 0.00002,-0.00038 0.00007,-0.00056 0.00005,-0.00018 0.00012,-0.00035 0.00022,-0.00051 0.00009,-0.00016 0.00021,-0.0003 0.00034,-0.00043 0.00013,-0.00012 0.00028,-0.00023 0.00044,-0.00032 0.00017,-0.00009 0.00034,-0.00016 0.00053,-0.0002 0.00019,-0.00004 0.00038,-0.00007 0.00058,-0.00007 0.00015,0 0.0003,0.00001 0.00044,0.00004 0.00014,0.00002 0.00028,0.00006 0.00041,0.00011 0.00014,0.00005 0.00026,0.00012 0.00037,0.00019 0.00011,0.00008 0.00022,0.00017 0.00031,0.00027l0.00016 0.00018 -0.00059 0.0006 -0.00018 -0.00018c-0.00012,-0.00012 -0.00025,-0.0002 -0.0004,-0.00026 -0.00015,-0.00006 -0.00033,-0.00009 -0.00052,-0.00009 -0.00013,0 -0.00025,0.00001 -0.00036,0.00004 -0.00011,0.00003 -0.00022,0.00007 -0.00032,0.00012 -0.0002,0.00011 -0.00035,0.00026 -0.00046,0.00045 -0.00005,0.00009 -0.0001,0.00019 -0.00013,0.0003 -0.00003,0.00011 -0.00004,0.00022 -0.00004,0.00034 0,0.00012 0.00001,0.00024 0.00004,0.00034 0.00003,0.00011 0.00007,0.0002 0.00012,0.0003 0.00006,0.0001 0.00012,0.00018 0.0002,0.00026 0.00008,0.00007 0.00017,0.00014 0.00026,0.00019 0.0001,0.00005 0.0002,0.0001 0.00031,0.00012 0.00011,0.00003 0.00023,0.00004 0.00036,0.00004 0.00016,0 0.00031,-0.00002 0.00045,-0.00006 0.00009,-0.00003 0.00018,-0.00006 0.00025,-0.00011l0 -0.00134 0.00025 0z"/>
 </g>
</svg>
