<?xml version="1.0" encoding="UTF-8"?>
<!DOCTYPE svg PUBLIC "-//W3C//DTD SVG 1.1//EN" "http://www.w3.org/Graphics/SVG/1.1/DTD/svg11.dtd">
<!-- Creator: CorelDRAW 2020 (64-Bit) -->
<svg xmlns="http://www.w3.org/2000/svg" xml:space="preserve" width="0.313339in" height="0.31in" version="1.1" style="shape-rendering:geometricPrecision; text-rendering:geometricPrecision; image-rendering:optimizeQuality; fill-rule:evenodd; clip-rule:evenodd"
viewBox="0 0 0.04574 0.04525"
 xmlns:xlink="http://www.w3.org/1999/xlink"
 xmlns:xodm="http://www.corel.com/coreldraw/odm/2003">
 <defs>
  <style type="text/css">
   <![CDATA[
    .fil0 {fill:#FAAA32;fill-rule:nonzero}
   ]]>
  </style>
 </defs>
 <g id="Layer_x0020_1">
  <metadata id="CorelCorpID_0Corel-Layer"/>
  <path class="fil0" d="M0.03354 0.00962l0.00013 0.0048 0.00989 -0.00024 -0.00008 -0.00487 -0.00994 0.00032zm-0.0013 0.00556l-0.00017 -0.00624c-0.00001,-0.0004 0.0003,-0.00073 0.0007,-0.00075l0.01141 -0.00037c0.0004,-0.00001 0.00073,0.00031 0.00074,0.00071l0.00011 0.00633c0.00001,0.0004 -0.00031,0.00073 -0.00071,0.00074l-0.01133 0.00028c-0.0004,0.00001 -0.00074,-0.00031 -0.00075,-0.00071zm0.00295 0.01018c0.00009,-0.00015 0.00022,-0.00026 0.00038,-0.00032l0.00609 -0.00511 -0.01815 0.00169 0.0071 0.00396 0.00002 0.00001 0.00003 0.00002 0.00002 0.00001 0.00254 0.00141 0.00199 -0.00167zm0.0086 -0.00708c0.00024,-0.00004 0.0005,0.00005 0.00067,0.00025 0.00011,0.00013 0.00016,0.00029 0.00017,0.00044l0.0011 0.01198 0 0c0.00002,0.00016 -0,0.00032 -0.00009,0.00047 -0.00017,0.00029 -0.00051,0.00042 -0.00083,0.00034l-0.0225 0.0021c-0.00024,0.00004 -0.00049,-0.00005 -0.00066,-0.00025 -0.00011,-0.00013 -0.00017,-0.00029 -0.00017,-0.00045l-0.0011 -0.01196 -0 -0.00002 -0 -0.00001 -0 -0.00004 0 -0 0 -0.00002c-0,-0.00012 0.00003,-0.00025 0.00009,-0.00036 0.00005,-0.00009 0.00012,-0.00017 0.0002,-0.00023l0 -0 0.00001 -0.00001 0 -0c0.00002,-0.00002 0.00005,-0.00003 0.00007,-0.00004l0 -0 0.00001 -0.00001 0 -0 0.00003 -0.00001 0 -0 0.00001 -0.00001 0 -0 0.00001 -0.00001 0 -0 0.00001 -0.00001 0 -0 0.00001 -0 0.00001 -0 0.00001 -0 0.00001 -0 0.00001 -0 0.00001 -0 0.00001 -0 0.00001 -0c0.00005,-0.00001 0.00009,-0.00002 0.00014,-0.00002l0.02273 -0.00211zm-0.00048 0.00217l-0.00619 0.00519 0.00704 0.00409 -0.00085 -0.00928zm-0.00069 0.01007l-0.00668 -0.00388 -0.00219 0.00183c-0.00022,0.00019 -0.00055,0.00023 -0.00082,0.00008l-0.00257 -0.00143 -0.00595 0.0051 0.0182 -0.0017zm-0.01981 0.00117l0.00621 -0.00532 -0.00706 -0.00394 0.00085 0.00926zm0.01119 0.00202l-0.00001 -0.00004 0.00147 -0.00014 0.00107 0.00392c0.0001,0.00039 -0.00013,0.00079 -0.00052,0.00089l-0.02519 0.0069c-0.00039,0.00011 -0.00079,-0.00012 -0.00089,-0.00051l-0.00991 -0.03693c-0.0001,-0.00039 0.00013,-0.00079 0.00052,-0.00089l0.02507 -0.00687c0.00039,-0.00011 0.00079,0.00012 0.00089,0.00051l0.00489 0.01802 -0.00147 0.00014 -0.00463 -0.01707 -0.02367 0.00649 0.00953 0.03553 0.02378 -0.00652 -0.00093 -0.00342z"/>
 </g>
</svg>
