<?xml version="1.0" encoding="UTF-8"?>
<!DOCTYPE svg PUBLIC "-//W3C//DTD SVG 1.1//EN" "http://www.w3.org/Graphics/SVG/1.1/DTD/svg11.dtd">
<!-- Creator: CorelDRAW 2020 (64-Bit) -->
<svg xmlns="http://www.w3.org/2000/svg" xml:space="preserve" width="0.363335in" height="0.183331in" version="1.1" style="shape-rendering:geometricPrecision; text-rendering:geometricPrecision; image-rendering:optimizeQuality; fill-rule:evenodd; clip-rule:evenodd"
viewBox="0 0 0.02475 0.01249"
 xmlns:xlink="http://www.w3.org/1999/xlink"
 xmlns:xodm="http://www.corel.com/coreldraw/odm/2003">
 <defs>
  <style type="text/css">
   <![CDATA[
    .fil0 {fill:#FAAA32;fill-rule:nonzero}
   ]]>
  </style>
 </defs>
 <g id="Layer_x0020_1">
  <metadata id="CorelCorpID_0Corel-Layer"/>
  <path class="fil0" d="M0.02052 0.00114l-0.00647 0.00893 -0.00547 0c-0.00008,0.00063 -0.00036,0.00119 -0.00079,0.00161 -0.0005,0.0005 -0.00119,0.00081 -0.00195,0.00081 -0.00076,0 -0.00145,-0.00031 -0.00195,-0.00081 -0.00042,-0.00043 -0.00071,-0.00099 -0.00079,-0.00162l-0.00101 0c-0.0007,0 -0.00119,-0.00025 -0.00152,-0.0006 -0.00045,-0.00048 -0.00059,-0.00114 -0.00059,-0.00162l0 -0.0016c0,-0.0005 0.00015,-0.00094 0.00048,-0.00128 0.0003,-0.00031 0.00073,-0.00054 0.0013,-0.00065l0.00391 -0.00051c0.00102,-0.00014 0.00137,-0.00044 0.00186,-0.00088 0.00011,-0.0001 0.00024,-0.00021 0.0004,-0.00034l0.00229 -0.00205c0.00025,-0.0002 0.00047,-0.00033 0.00079,-0.00041 0.0003,-0.00008 0.00067,-0.00011 0.00123,-0.00011l0.00699 0c0.00043,0 0.00082,0.00011 0.00119,0.0003 0.00035,0.00018 0.00069,0.00043 0.00103,0.00073l0.00201 0.00178c0.00035,0.00032 0.00066,0.00064 0.00089,0.00106 0.00023,0.00042 0.00037,0.00092 0.00037,0.00157l0 0.00243c0,0.00049 -0.00003,0.001 -0.00023,0.00141 -0.00023,0.00046 -0.00064,0.00078 -0.00139,0.00078l-0.00103 0c-0.00008,0.00063 -0.00036,0.00119 -0.00079,0.00161 -0.0005,0.0005 -0.00119,0.00081 -0.00195,0.00081 -0.00076,0 -0.00145,-0.00031 -0.00195,-0.00081 -0.0005,-0.0005 -0.00081,-0.00119 -0.00081,-0.00196 0,-0.00076 0.00031,-0.00145 0.00081,-0.00195 0.0005,-0.0005 0.00119,-0.00081 0.00195,-0.00081 0.00076,0 0.00145,0.00031 0.00195,0.00081 0.00042,0.00042 0.00071,0.00099 0.00079,0.00162l0.00103 0c0.00044,0 0.00067,-0.00016 0.00078,-0.0004 0.00014,-0.00029 0.00016,-0.00071 0.00016,-0.00111l0 -0.00243c0,-0.00053 -0.00011,-0.00092 -0.00029,-0.00124 -0.00018,-0.00033 -0.00045,-0.0006 -0.00076,-0.00088l-0.002 -0.00177c-0.00017,-0.00015 -0.00034,-0.00029 -0.00051,-0.00041zm-0.00632 0.00758l0.00482 -0.00665c-0.00076,0.00043 -0.00161,0.00081 -0.00254,0.00114 -0.00144,0.00051 -0.00308,0.00092 -0.0049,0.00123 0.00079,0.00054 0.0014,0.00113 0.00185,0.00183 0.00044,0.00069 0.0007,0.00149 0.00078,0.00245zm-0.00561 0.00067l0.00496 0c-0,-0.00114 -0.00024,-0.00203 -0.0007,-0.00276 -0.00051,-0.00082 -0.00131,-0.00147 -0.00238,-0.00209l0.00012 -0.00063c0.00213,-0.00032 0.00404,-0.00077 0.00566,-0.00134 0.00139,-0.00049 0.00258,-0.00109 0.00354,-0.0018 -0.00017,-0.00005 -0.00035,-0.00008 -0.00053,-0.00008l-0.00699 0c-0.0005,0 -0.00083,0.00002 -0.00106,0.00008 -0.00021,0.00005 -0.00036,0.00014 -0.00052,0.00028l-0.00229 0.00205c-0.00013,0.0001 -0.00026,0.00022 -0.00039,0.00034 -0.00058,0.00051 -0.00099,0.00087 -0.00221,0.00104l-0.00387 0.00051c-0.00043,0.00008 -0.00074,0.00024 -0.00094,0.00045 -0.0002,0.00021 -0.00029,0.00049 -0.00029,0.00082l0 0.0016c0,0.00035 0.00009,0.00083 0.0004,0.00116 0.00021,0.00023 0.00054,0.00038 0.00103,0.00038l0.00101 0c0.00008,-0.00063 0.00036,-0.00119 0.00079,-0.00162 0.0005,-0.0005 0.00119,-0.00081 0.00195,-0.00081 0.00076,0 0.00145,0.00031 0.00195,0.00081 0.00042,0.00042 0.00071,0.00099 0.00079,0.00162zm0.01224 -0.00113c-0.00038,-0.00038 -0.0009,-0.00061 -0.00147,-0.00061 -0.00057,0 -0.00109,0.00023 -0.00147,0.00061 -0.00038,0.00038 -0.00061,0.0009 -0.00061,0.00147 0,0.00058 0.00023,0.0011 0.00061,0.00147 0.00038,0.00038 0.0009,0.00061 0.00147,0.00061 0.00057,0 0.00109,-0.00023 0.00147,-0.00061 0.00038,-0.00038 0.00061,-0.0009 0.00061,-0.00147 0,-0.00058 -0.00023,-0.0011 -0.00061,-0.00147zm-0.01351 0c-0.00038,-0.00038 -0.0009,-0.00061 -0.00147,-0.00061 -0.00057,0 -0.00109,0.00023 -0.00147,0.00061 -0.00038,0.00038 -0.00061,0.0009 -0.00061,0.00147 0,0.00058 0.00023,0.0011 0.00061,0.00147 0.00038,0.00038 0.0009,0.00061 0.00147,0.00061 0.00057,0 0.00109,-0.00023 0.00147,-0.00061 0.00038,-0.00038 0.00061,-0.0009 0.00061,-0.00147 0,-0.00058 -0.00023,-0.0011 -0.00061,-0.00147z"/>
 </g>
</svg>
