<?xml version="1.0" encoding="UTF-8"?>
<!DOCTYPE svg PUBLIC "-//W3C//DTD SVG 1.1//EN" "http://www.w3.org/Graphics/SVG/1.1/DTD/svg11.dtd">
<!-- Creator: CorelDRAW 2020 (64-Bit) -->
<svg xmlns="http://www.w3.org/2000/svg" xml:space="preserve" width="0.283335in" height="0.283339in" version="1.1" style="shape-rendering:geometricPrecision; text-rendering:geometricPrecision; image-rendering:optimizeQuality; fill-rule:evenodd; clip-rule:evenodd"
viewBox="0 0 0.05347 0.05347"
 xmlns:xlink="http://www.w3.org/1999/xlink"
 xmlns:xodm="http://www.corel.com/coreldraw/odm/2003">
 <defs>
  <style type="text/css">
   <![CDATA[
    .fil0 {fill:#FAAA32;fill-rule:nonzero}
   ]]>
  </style>
 </defs>
 <g id="Layer_x0020_1">
  <metadata id="CorelCorpID_0Corel-Layer"/>
  <path class="fil0" d="M0.00857 0.02692c-0.00184,0 -0.0035,0.00075 -0.00472,0.00196 -0.00121,0.00121 -0.00196,0.00288 -0.00196,0.00472 0,0.00184 0.00075,0.00351 0.00196,0.00472 0.00121,0.00121 0.00288,0.00196 0.00472,0.00196 0.00949,0 0.02148,0 0.03097,0 -0.00024,-0.00019 -0.00047,-0.0004 -0.00069,-0.00062 -0.00155,-0.00155 -0.00252,-0.0037 -0.00252,-0.00606 0,-0.00236 0.00096,-0.00451 0.00252,-0.00606 0.00022,-0.00022 0.00045,-0.00043 0.00069,-0.00062 -0.00949,0 -0.02148,0 -0.03097,0zm0.04488 0.00653c0.00001,0.00005 0.00001,0.0001 0.00001,0.00016 0,0.00015 -0,0.00031 -0.00001,0.00046l0 0.01846c0,0.00052 -0.00042,0.00095 -0.00095,0.00095l-0.03956 0c-0.00052,0 -0.00095,-0.00042 -0.00095,-0.00095l0 -0.01034 -0.00343 0c-0.00236,0 -0.0045,-0.00097 -0.00605,-0.00252 -0.00155,-0.00155 -0.00252,-0.0037 -0.00252,-0.00606 0,-0.00236 0.00096,-0.00451 0.00252,-0.00606 0.00155,-0.00155 0.0037,-0.00252 0.00605,-0.00252l0.00343 0 0 -0.02408c0,-0.00052 0.00042,-0.00095 0.00095,-0.00095l0.03956 0c0.00052,0 0.00095,0.00042 0.00095,0.00095l0 0.0325zm-0.00189 0.00554c-0.00019,0.00024 -0.0004,0.00046 -0.00061,0.00068 -0.00155,0.00155 -0.0037,0.00252 -0.00606,0.00252l-0.00002 0 -0.03098 0 0 0.00939 0.03767 0 0 -0.01259zm-0.00667 0.0013c0.00184,0 0.00351,-0.00075 0.00472,-0.00196 0.00112,-0.00112 0.00185,-0.00264 0.00195,-0.00431l0 -0.03212 -0.03767 0 0 0.02313 0.031 0 0 0.00189c-0.00184,0 -0.0035,0.00075 -0.00471,0.00196 -0.00121,0.00121 -0.00196,0.00288 -0.00196,0.00472 0,0.00184 0.00075,0.00351 0.00196,0.00472 0.00121,0.00121 0.00288,0.00196 0.00471,0.00196z"/>
 </g>
</svg>
